<svg width="22" height="13" viewBox="0 0 22 13" fill="none" xmlns="http://www.w3.org/2000/svg">
<path d="M15.3751 12.1219C15.6072 12.1218 15.8297 12.0305 15.9938 11.868L21.2438 6.66826C21.5854 6.32986 21.5854 5.78126 21.2438 5.44286L15.9938 0.243258C15.6504 -0.0851423 15.1047 -0.0804423 14.7672 0.253758C14.4297 0.588058 14.4249 1.12856 14.7565 1.46866L19.3879 6.05556L14.7565 10.6426C14.5063 10.8904 14.4315 11.2631 14.5669 11.5869C14.7023 11.9107 15.0213 12.1218 15.3751 12.1219Z" fill="#5382D8"/>
<path d="M1.375 6.92226H20.625C21.1082 6.92226 21.5 6.53426 21.5 6.05556C21.5 5.57696 21.1082 5.18896 20.625 5.18896H1.375C0.8918 5.18896 0.5 5.57696 0.5 6.05556C0.5 6.53426 0.8918 6.92226 1.375 6.92226Z" fill="#5382D8"/>
</svg>
