<svg width="21" height="13" viewBox="0 0 21 13" fill="none" xmlns="http://www.w3.org/2000/svg">
<path d="M6.1249 12.1219C5.8928 12.1218 5.6703 12.0305 5.5062 11.868L0.2562 6.66826C-0.0854 6.32986 -0.0854 5.78126 0.2562 5.44286L5.5062 0.243258C5.8496 -0.0851423 6.3953 -0.0804423 6.7328 0.253758C7.0703 0.588058 7.0751 1.12856 6.7435 1.46866L2.1121 6.05556L6.7435 10.6426C6.9937 10.8904 7.0685 11.2631 6.9331 11.5869C6.7977 11.9107 6.4787 12.1218 6.1249 12.1219Z" fill="#5382D8"/>
<path d="M20.125 6.92226H0.875C0.3918 6.92226 0 6.53426 0 6.05556C0 5.57696 0.3918 5.18896 0.875 5.18896H20.125C20.6082 5.18896 21 5.57696 21 6.05556C21 6.53426 20.6082 6.92226 20.125 6.92226Z" fill="#5382D8"/>
</svg>
