<svg width="18" height="18" viewBox="0 0 18 18" fill="none" xmlns="http://www.w3.org/2000/svg">
<path d="M16.4663 18.0011L10.2718 11.8055C7.51612 13.7646 3.71895 13.2854 1.53644 10.7031C-0.646075 8.12076 -0.485819 4.29683 1.9051 1.90619C4.29539 -0.485506 8.1197 -0.646455 10.7025 1.53594C13.2853 3.71834 13.7648 7.51588 11.8055 10.2718L18 16.4674L16.4674 18L16.4663 18.0011ZM6.50302 2.16848C4.44762 2.16802 2.67434 3.61082 2.2568 5.62337C1.83926 7.63592 2.89223 9.66507 4.77818 10.4823C6.66414 11.2995 8.86474 10.6802 10.0477 8.99931C11.2306 7.31842 11.0707 5.03793 9.66477 3.53855L10.3205 4.18889L9.58131 3.45183L9.56831 3.43883C8.75732 2.62284 7.65347 2.16538 6.50302 2.16848Z" fill="#BDBDBD"/>
</svg>
