<svg width="24" height="24" viewBox="0 0 24 24" fill="none" xmlns="http://www.w3.org/2000/svg">
<path d="M0 0V7.96875H7.96875V0H0ZM6.09375 6.09375H1.875V1.875H6.09375V6.09375Z" fill="black"/>
<path d="M4.92188 3.04688H3.04688V4.92188H4.92188V3.04688Z" fill="black"/>
<path d="M16.0312 0V7.96875H24V0H16.0312ZM22.125 6.09375H17.9062V1.875H22.125V6.09375Z" fill="black"/>
<path d="M20.9531 3.04688H19.0781V4.92188H20.9531V3.04688Z" fill="black"/>
<path d="M0 16.0312V24H7.96875V16.0312H0ZM6.09375 22.125H1.875V17.9062H6.09375V22.125Z" fill="black"/>
<path d="M4.92188 19.0781H3.04688V20.9531H4.92188V19.0781Z" fill="black"/>
<path d="M3.75 9.23438H1.875V11.1094H3.75V9.23438Z" fill="black"/>
<path d="M5.625 12.9844V11.1094H3.75V12.9844H5.57812V14.8594H7.45312V12.9844H5.625Z" fill="black"/>
<path d="M15 3.60938H13.125V5.48438H15V3.60938Z" fill="black"/>
<path d="M11.25 1.875H9.375V5.48438H11.25V1.875Z" fill="black"/>
<path d="M13.125 0H11.25V1.875H13.125V0Z" fill="black"/>
<path d="M11.25 5.48438V7.35938H9.375V9.23438H13.125V5.48438H11.25Z" fill="black"/>
<path d="M13.125 16.6406V14.8125H11.25V11.1094H9.375V14.8594H11.25V16.6875H13.125V18.5156H16.875V16.6406H13.125Z" fill="black"/>
<path d="M15 9.23438H13.125V12.9844H15V9.23438Z" fill="black"/>
<path d="M22.125 11.0625V9.23438H18.7031V11.1094H16.875V12.9844H18.75V14.8125H24V11.0625H22.125ZM22.125 12.9375H18.75V11.1094H22.125V12.9375Z" fill="black"/>
<path d="M24 16.6406H22.125V20.3906H24V16.6406Z" fill="black"/>
<path d="M16.875 12.9844H15V14.8594H16.875V12.9844Z" fill="black"/>
<path d="M18.75 18.5156H16.875V20.3906H18.75V18.5156Z" fill="black"/>
<path d="M20.625 16.6406H18.75V18.5156H20.625V16.6406Z" fill="black"/>
<path d="M18.75 20.3906V24H20.625V22.2656H22.125V20.3906H18.75Z" fill="black"/>
<path d="M11.25 16.6875H9.375V20.25H11.25V16.6875Z" fill="black"/>
<path d="M15 22.125V20.25H11.25V24H13.125V22.125H14.9531V24H16.8281V22.125H15Z" fill="black"/>
<path d="M9.375 9.23438H5.625V11.1094H9.375V9.23438Z" fill="black"/>
<path d="M1.875 11.1094H0V14.8594H1.875V11.1094Z" fill="black"/>
</svg>
