<svg width="24" height="21" viewBox="0 0 24 21" fill="none" xmlns="http://www.w3.org/2000/svg">
<path d="M9.33735 15.8005C8.15347 15.8005 7.19727 16.7567 7.19727 17.9406C7.19727 19.1245 8.15347 20.0807 9.33735 20.0807C10.5212 20.0807 11.4774 19.1245 11.4774 17.9406C11.4774 16.7567 10.5212 15.8005 9.33735 15.8005ZM9.33735 18.6692C8.92754 18.6692 8.60881 18.3504 8.60881 17.9406C8.60881 17.5308 8.92754 17.2121 9.33735 17.2121C9.74715 17.2121 10.0659 17.5308 10.0659 17.9406C10.0659 18.3504 9.74715 18.6692 9.33735 18.6692Z" fill="#F39314"/>
<path d="M16.5319 15.8005C15.3481 15.8005 14.3918 16.7567 14.3918 17.9406C14.3918 19.1245 15.3481 20.0807 16.5319 20.0807C17.7158 20.0807 18.672 19.1245 18.672 17.9406C18.672 16.7567 17.7158 15.8005 16.5319 15.8005ZM16.5319 18.6692C16.1221 18.6692 15.8034 18.3504 15.8034 17.9406C15.8034 17.5308 16.1221 17.2121 16.5319 17.2121C16.9417 17.2121 17.2605 17.5308 17.2605 17.9406C17.2605 18.3504 16.9417 18.6692 16.5319 18.6692Z" fill="#F39314"/>
<path d="M3.87036 1.45708L3.64269 0H0.728539C0.318736 0 0 0.318736 0 0.728539C0 1.13834 0.318736 1.45708 0.728539 1.45708H2.41328L4.3257 12.9771C4.3257 13.7512 4.96317 14.4342 5.78278 14.4342H20.1714C20.9455 14.4342 21.6285 13.7967 21.6285 12.9771L23.0856 2.91416V1.45708H3.96143H3.87036Z" fill="#F39314"/>
</svg>
