<svg width="18" height="18" viewBox="0 0 18 18" fill="none" xmlns="http://www.w3.org/2000/svg">
<path d="M4.50732 13.1474H4.36442L4.26337 13.2484L0.345 17.1667V1.11217C0.345 0.688095 0.688092 0.345 1.1122 0.345H16.7156L16.7449 0.374268H16.8878C17.3119 0.374268 17.655 0.717362 17.655 1.14144V12.3802C17.655 12.8043 17.3119 13.1474 16.8878 13.1474H4.50732ZM13.4927 9.35942H13.8377V9.01442V7.90225V7.55725H13.4927H4.47805H4.13305V7.90225V9.01442V9.35942H4.47805H13.4927ZM13.4927 5.99365H13.8377V5.64865V4.53648V4.19148H13.4927H4.47805H4.13305V4.53648V5.64865V5.99365H4.47805H13.4927Z" stroke="#60A04E" stroke-width="0.69"/>
</svg>
