<svg width="10" height="18" viewBox="0 0 10 18" fill="none" xmlns="http://www.w3.org/2000/svg">
<path d="M6.69146 1.1716V1.9982H6.48673C6.24664 1.9982 6.01836 2.07695 5.84814 2.24185C5.67693 2.40771 5.59201 2.63422 5.59201 2.87574C5.59201 3.11726 5.67693 3.34377 5.84814 3.50963C6.01836 3.67453 6.24664 3.75328 6.48673 3.75328H6.69146V4.23488H6.48673C6.24664 4.23488 6.01836 4.31363 5.84814 4.47854C5.67693 4.6444 5.59201 4.87091 5.59201 5.11243C5.59201 5.35395 5.67693 5.58045 5.84814 5.74631C6.01836 5.91122 6.24664 5.98997 6.48673 5.98997H6.69146V6.47157H6.48673C6.24664 6.47157 6.01836 6.55032 5.84814 6.71522C5.67693 6.88108 5.59201 7.10759 5.59201 7.34911C5.59201 7.59063 5.67693 7.81714 5.84814 7.983C6.01836 8.14791 6.24664 8.22666 6.48673 8.22666H6.69146V9.43968L6.68646 9.44452L6.355 9.76562L6.75678 9.99267C7.98472 10.6866 8.89035 11.9652 8.89035 13.5266C8.89035 15.7755 6.96627 17.655 4.61768 17.655C2.26908 17.655 0.345 15.7755 0.345 13.5266C0.345 12.0546 1.15571 10.6829 2.4684 9.99819L2.65384 9.90146V9.69231V1.1716C2.65384 0.733325 3.03869 0.345 3.51823 0.345H5.82707C6.3066 0.345 6.69146 0.733326 6.69146 1.1716ZM4.1779 11.2899C4.1779 10.9449 4.17773 10.9449 4.17756 10.9449L4.17722 10.9449L4.17648 10.9449L4.17485 10.945L4.17093 10.945L4.16059 10.9452C4.15262 10.9455 4.14248 10.946 4.13046 10.9468C4.10654 10.9485 4.07454 10.9516 4.03701 10.9577C3.96363 10.9695 3.8603 10.9939 3.75264 11.046C3.64388 11.0987 3.52302 11.1837 3.42986 11.319C3.33484 11.4571 3.28317 11.6267 3.28317 11.8225C3.28317 12.0183 3.33484 12.1879 3.42986 12.3259C3.52302 12.4613 3.64388 12.5463 3.75264 12.599C3.8603 12.6511 3.96363 12.6754 4.03701 12.6873C4.07454 12.6934 4.10654 12.6965 4.13046 12.6982C4.14248 12.699 4.15262 12.6995 4.16059 12.6997L4.17093 12.7L4.17485 12.7L4.17648 12.7L4.17722 12.7L4.17756 12.7C4.17773 12.7 4.1779 12.7 4.1779 12.358V12.7C4.98727 12.7 5.59201 13.3014 5.59201 14.0592H5.93701C5.59201 14.0592 5.59201 14.0593 5.59201 14.0595L5.59201 14.0599L5.59201 14.0607L5.59202 14.0624L5.59208 14.0664L5.59235 14.077C5.59263 14.0851 5.59313 14.0954 5.59402 14.1074C5.59579 14.1315 5.59915 14.1634 5.6056 14.2009C5.61821 14.2742 5.64406 14.3769 5.69915 14.4837C5.75506 14.592 5.84377 14.7092 5.98175 14.7983C6.12137 14.8885 6.29114 14.9367 6.48673 14.9367C6.68233 14.9367 6.8521 14.8885 6.99171 14.7983C7.1297 14.7092 7.21841 14.592 7.27432 14.4837C7.32941 14.3769 7.35526 14.2742 7.36787 14.2009C7.37431 14.1634 7.37768 14.1315 7.37945 14.1074C7.38034 14.0954 7.38084 14.0851 7.38112 14.077L7.38139 14.0664L7.38144 14.0624L7.38145 14.0607L7.38146 14.0599L7.38146 14.0595C7.38146 14.0593 7.38146 14.0592 7.03646 14.0592H7.38146C7.38146 12.3759 6.01595 10.9449 4.1779 10.9449V11.2899Z" stroke="#60A04E" stroke-width="0.69"/>
</svg>
