<svg width="18" height="18" viewBox="0 0 18 18" fill="none" xmlns="http://www.w3.org/2000/svg">
<path d="M15.3093 12V12.345H15.6543H16.8032C17.282 12.345 17.655 12.7177 17.655 13.2V16.8C17.655 17.2823 17.282 17.655 16.8032 17.655H13.2128C12.734 17.655 12.361 17.2823 12.361 16.8V13.2C12.361 12.7177 12.734 12.345 13.2128 12.345H14.4096H14.7546V12V9.6V9.255H14.4096H3.59043H3.24543V9.6V12V12.345H3.59043H4.78723C5.26604 12.345 5.63904 12.7177 5.63904 13.2V16.8C5.63904 17.2823 5.26604 17.655 4.78723 17.655H1.19681C0.717999 17.655 0.345 17.2823 0.345 16.8V13.2C0.345 12.7177 0.718 12.345 1.19681 12.345H2.39362H2.73862V12V8.745H8.42553H8.77053V8.4V6V5.655H8.42553H7.22872C6.74991 5.655 6.37691 5.28233 6.37691 4.8V1.2C6.37691 0.717671 6.74991 0.345 7.22872 0.345H10.8191C11.298 0.345 11.671 0.717672 11.671 1.2V4.8C11.671 5.28233 11.298 5.655 10.8191 5.655H9.62234H9.27734V6V8.4V8.745H9.62234H15.3093V12Z" stroke="#60A04E" stroke-width="0.69"/>
</svg>
