<svg width="18" height="18" viewBox="0 0 18 18" fill="none" xmlns="http://www.w3.org/2000/svg">
<path d="M4.52452 3.7261H16.8561C17.3024 3.7261 17.6548 4.10883 17.6548 4.52476V16.8564C17.6548 17.3026 17.2721 17.655 16.8561 17.655H4.52452C4.07828 17.655 3.72586 17.2723 3.72586 16.8564V4.52476C3.72586 4.07852 4.10858 3.7261 4.52452 3.7261Z" stroke="#60A04E" stroke-width="0.69"/>
<path d="M2.28732 1.94232H1.94232V2.28732V14.2739H1.14366C0.697417 14.2739 0.345 13.8912 0.345 13.4753V1.14366C0.345 0.697417 0.727725 0.345 1.14366 0.345H13.4753C13.9215 0.345 14.2739 0.727725 14.2739 1.14366V1.94232H2.28732Z" stroke="#60A04E" stroke-width="0.69"/>
</svg>
