<svg width="19" height="18" viewBox="0 0 19 18" fill="none" xmlns="http://www.w3.org/2000/svg">
<path d="M16.7548 10.3051L6.53152 0L5.7591 0.813559L15.9823 11.1186C17.3 12.4294 17.3 14.5537 15.9823 15.8644C14.6647 17.1751 12.5746 17.1751 11.2569 15.8644L1.80611 6.37288C0.942811 5.51412 0.942811 4.0678 1.80611 3.20904C2.6694 2.35028 4.07794 2.35028 4.94124 3.20904L14.3921 12.7006C14.8464 13.1525 14.8464 13.8305 14.3921 14.2825C13.9377 14.7345 13.2561 14.7345 12.8018 14.2825L4.16881 5.55932L3.39639 6.37288L12.0294 15.096C12.8927 15.9548 14.3012 15.9548 15.1645 15.096C16.0278 14.2373 16.0278 12.791 15.1645 11.9322L5.71366 2.44068C4.396 1.12994 2.30591 1.12994 0.988247 2.44068C-0.329416 3.75141 -0.329416 5.87571 0.988247 7.18644L10.4391 16.678C12.1657 18.4407 14.9827 18.4407 16.7093 16.678C18.4359 14.9153 18.4359 12.0678 16.7093 10.3503L16.7548 10.3051Z" fill="#6C6C6C"/>
</svg>
