<svg width="18" height="18" viewBox="0 0 18 18" fill="none" xmlns="http://www.w3.org/2000/svg">
<path d="M9 0C4.02961 0 0 4.02942 0 9C0 13.9706 4.02961 18 9 18C13.9704 18 18 13.9706 18 9C18 4.02942 13.9704 0 9 0ZM13.5653 9.97338C13.9848 10.3831 14.4285 10.7687 14.8051 11.2208C14.9719 11.4207 15.1292 11.6275 15.2489 11.8601C15.4198 12.1918 15.2655 12.5554 14.9686 12.5751L13.1248 12.5748C12.6486 12.6142 12.2696 12.4221 11.9502 12.0966C11.6951 11.8371 11.4585 11.56 11.2128 11.2917C11.1125 11.1815 11.0068 11.0779 10.8808 10.9963C10.6295 10.8328 10.4111 10.8829 10.2671 11.1455C10.1203 11.4126 10.0868 11.7087 10.0728 12.0061C10.0527 12.4409 9.92164 12.5545 9.4854 12.575C8.55327 12.6186 7.66883 12.4772 6.84681 12.0072C6.12166 11.5927 5.56039 11.0077 5.0713 10.3454C4.11892 9.05414 3.38952 7.63697 2.73416 6.17911C2.58666 5.85078 2.69457 5.67511 3.05678 5.6683C3.65856 5.6567 4.26034 5.65817 4.86212 5.66774C5.10703 5.67161 5.26907 5.81174 5.36317 6.04284C5.68837 6.84295 6.08704 7.60419 6.58662 8.3102C6.71975 8.49821 6.85565 8.68567 7.04919 8.81843C7.26279 8.96501 7.42558 8.91658 7.5263 8.67812C7.59075 8.52657 7.61856 8.36452 7.63255 8.20211C7.68043 7.64581 7.68614 7.0897 7.60327 6.53561C7.55171 6.18887 7.35671 5.96495 7.01107 5.8994C6.83503 5.86607 6.86081 5.80088 6.94643 5.70034C7.09504 5.52651 7.23425 5.41897 7.51249 5.41897L9.5957 5.4186C9.92403 5.48305 9.99769 5.63036 10.0423 5.96108L10.0441 8.27613C10.0402 8.40411 10.1084 8.78345 10.3382 8.86723C10.5223 8.928 10.6438 8.78032 10.754 8.66375C11.2535 8.13361 11.6095 7.50789 11.9282 6.86026C12.0689 6.57465 12.1903 6.2791 12.3081 5.983C12.3958 5.76405 12.5321 5.65633 12.7792 5.66001L14.7852 5.6624C14.8443 5.6624 14.9044 5.66296 14.9629 5.67308C15.301 5.73091 15.3936 5.87638 15.289 6.20618C15.1244 6.72436 14.8046 7.15599 14.4919 7.58873C14.1567 8.05203 13.7993 8.49913 13.4675 8.96446C13.1626 9.38983 13.1867 9.60399 13.5653 9.97338Z" fill="white"/>
</svg>
