<svg width="18" height="18" viewBox="0 0 18 18" fill="none" xmlns="http://www.w3.org/2000/svg">
<path d="M10.7227 9C10.7227 9.95142 9.95142 10.7227 9 10.7227C8.04858 10.7227 7.27734 9.95142 7.27734 9C7.27734 8.04858 8.04858 7.27734 9 7.27734C9.95142 7.27734 10.7227 8.04858 10.7227 9Z" fill="white"/>
<path d="M13.0283 5.95204C12.9454 5.72765 12.8133 5.52454 12.6417 5.35782C12.475 5.18616 12.272 5.05405 12.0475 4.97124C11.8654 4.90051 11.5918 4.81633 11.0879 4.7934C10.5429 4.76854 10.3795 4.76318 8.99957 4.76318C7.61955 4.76318 7.45613 4.7684 6.91121 4.79326C6.40735 4.81633 6.13365 4.90051 5.95169 4.97124C5.72716 5.05405 5.52405 5.18616 5.35747 5.35782C5.18581 5.52454 5.0537 5.72751 4.97075 5.95204C4.90002 6.13414 4.81584 6.40784 4.79291 6.9117C4.76805 7.45662 4.7627 7.62004 4.7627 9.00006C4.7627 10.3799 4.76805 10.5434 4.79291 11.0884C4.81584 11.5923 4.90002 11.8658 4.97075 12.0479C5.0537 12.2725 5.18567 12.4754 5.35733 12.6422C5.52405 12.8138 5.72702 12.9459 5.95155 13.0287C6.13365 13.0996 6.40735 13.1838 6.91121 13.2067C7.45613 13.2316 7.61942 13.2368 8.99944 13.2368C10.3796 13.2368 10.543 13.2316 11.0878 13.2067C11.5917 13.1838 11.8654 13.0996 12.0475 13.0287C12.4982 12.8549 12.8544 12.4987 13.0283 12.0479C13.099 11.8658 13.1832 11.5923 13.2062 11.0884C13.2311 10.5434 13.2363 10.3799 13.2363 9.00006C13.2363 7.62004 13.2311 7.45662 13.2062 6.9117C13.1833 6.40784 13.0991 6.13414 13.0283 5.95204ZM8.99957 11.6537C7.53386 11.6537 6.34569 10.4656 6.34569 8.99992C6.34569 7.53421 7.53386 6.34618 8.99957 6.34618C10.4651 6.34618 11.6533 7.53421 11.6533 8.99992C11.6533 10.4656 10.4651 11.6537 8.99957 11.6537ZM11.7582 6.86143C11.4157 6.86143 11.1381 6.58376 11.1381 6.24126C11.1381 5.89876 11.4157 5.62108 11.7582 5.62108C12.1007 5.62108 12.3784 5.89876 12.3784 6.24126C12.3783 6.58376 12.1007 6.86143 11.7582 6.86143Z" fill="white"/>
<path d="M9 0C4.0302 0 0 4.0302 0 9C0 13.9698 4.0302 18 9 18C13.9698 18 18 13.9698 18 9C18 4.0302 13.9698 0 9 0ZM14.1368 11.1307C14.1118 11.6808 14.0243 12.0564 13.8966 12.3852C13.6281 13.0794 13.0794 13.6281 12.3852 13.8966C12.0565 14.0243 11.6808 14.1117 11.1308 14.1368C10.5797 14.1619 10.4036 14.168 9.00014 14.168C7.5965 14.168 7.42058 14.1619 6.86934 14.1368C6.31934 14.1117 5.9436 14.0243 5.61497 13.8966C5.27 13.7668 4.95772 13.5634 4.69954 13.3005C4.43669 13.0424 4.23331 12.73 4.10353 12.3852C3.97581 12.0565 3.88834 11.6808 3.86334 11.1308C3.83794 10.5796 3.83203 10.4035 3.83203 9C3.83203 7.5965 3.83794 7.42044 3.8632 6.86934C3.8882 6.3192 3.97554 5.9436 4.10326 5.61484C4.23303 5.27 4.43655 4.95758 4.69954 4.69954C4.95758 4.43655 5.27 4.23317 5.61484 4.10339C5.9436 3.97568 6.3192 3.88834 6.86934 3.8632C7.42044 3.83807 7.5965 3.83203 9 3.83203C10.4035 3.83203 10.5796 3.83807 11.1307 3.86334C11.6808 3.88834 12.0564 3.97568 12.3852 4.10326C12.73 4.23303 13.0424 4.43655 13.3006 4.69954C13.5634 4.95772 13.767 5.27 13.8966 5.61484C14.0245 5.9436 14.1118 6.3192 14.1369 6.86934C14.1621 7.42044 14.168 7.5965 14.168 9C14.168 10.4035 14.1621 10.5796 14.1368 11.1307Z" fill="white"/>
</svg>
