<svg width="13" height="18" viewBox="0 0 13 18" fill="none" xmlns="http://www.w3.org/2000/svg">
<path d="M8.54836 6.69567V5.18087C8.54836 4.85391 8.28329 4.58884 7.95633 4.58884H7.60775V3.32218C8.01542 3.78203 8.61017 4.0722 9.27308 4.0722C9.41848 4.0722 9.56061 4.05823 9.6982 4.03159C9.83073 4.00593 9.92909 3.89384 9.93734 3.7591C9.94559 3.62435 9.86156 3.50117 9.73317 3.45945C9.03513 3.23255 8.5289 2.70766 8.31341 2.07731L10.6038 1.13997C10.8656 1.03277 11.0151 0.755348 10.9604 0.477766C10.9058 0.200145 10.6625 0 10.3795 0H6.80891C6.65451 0 6.50626 0.0603079 6.39571 0.168057L5.17929 1.35357C5.06491 1.46499 5.00046 1.61789 5.00046 1.77754V4.58884H4.65187C4.32492 4.58884 4.05985 4.85391 4.05985 5.18087V6.69567C1.68862 7.6021 0 9.90067 0 12.5865V13.0654C0 14.5786 0.544349 16.0417 1.53276 17.1853C1.98025 17.703 2.62963 18 3.31433 18H9.29384C9.97862 18 10.628 17.7031 11.0754 17.1853C12.0639 16.0417 12.6082 14.5786 12.6082 13.0654V12.5865C12.6082 9.90067 10.9195 7.6021 8.54836 6.69567Z" fill="black"/>
</svg>
