<svg width="81" height="81" viewBox="0 0 81 81" fill="none" xmlns="http://www.w3.org/2000/svg">
<path opacity="0.3" d="M40.5 81C62.8675 81 81 62.8675 81 40.5C81 18.1325 62.8675 0 40.5 0C18.1325 0 0 18.1325 0 40.5C0 62.8675 18.1325 81 40.5 81Z" fill="#5382D8"/>
<path d="M40.083 13C25.133 13 13 25.133 13 40.083C13 55.033 25.133 67.166 40.083 67.166C55.033 67.166 67.166 55.033 67.166 40.083C67.166 25.133 55.033 13 40.083 13Z" fill="#5382D8"/>
<path fill-rule="evenodd" clip-rule="evenodd" d="M53.7878 30.4597C54.4008 31.0727 54.4008 32.0668 53.7878 32.6788L36.5258 49.9417C35.9128 50.5548 34.9198 50.5548 34.3068 49.9417L26.4597 42.0948C25.8468 41.4818 25.8468 40.4887 26.4597 39.8757C27.0727 39.2627 28.0668 39.2627 28.6788 39.8757L35.4157 46.6127L51.5688 30.4597C52.1818 29.8468 53.1758 29.8468 53.7878 30.4597Z" fill="white"/>
</svg>
