<svg width="35" height="41" viewBox="0 0 35 41" fill="none" xmlns="http://www.w3.org/2000/svg">
<path d="M0.808537 36.8871C1.17871 29.8553 7.49864 26.9463 7.49864 26.9463C9.0086 26.2403 11.7462 24.8582 13.5411 23.9446C11.2415 21.4287 10.5623 17.3268 10.4565 16.7431C9.97659 14.1021 10.2181 10.8333 10.2181 10.8333C10.657 4.47668 17.0747 4.37684 17.7468 4.38352C17.7839 4.38352 17.808 4.38391 17.808 4.38391C17.808 4.38391 17.8285 4.38352 17.8589 4.38391C18.4683 4.376 24.9567 4.44036 25.3979 10.8333C25.3979 10.8333 25.6394 14.1017 25.1595 16.7431C25.1283 16.9132 25.047 17.3871 24.8927 18.028C23.6839 19.6149 21.8177 20.3931 20.286 20.774C20.0934 20.5869 19.8309 20.4705 19.5401 20.4705H16.7483C16.1575 20.4705 15.6792 20.9492 15.6792 21.54C15.6792 22.1312 16.1575 22.6103 16.7483 22.6103H19.5401C19.9809 22.6103 20.3578 22.3443 20.5224 21.965C21.6648 21.6872 22.9869 21.2033 24.167 20.371C23.6962 21.5932 23.0253 22.9043 22.0742 23.945C23.8691 24.8586 26.6055 26.2402 28.1166 26.9463C28.1166 26.9463 34.4357 29.8553 34.8067 36.8871C34.8067 36.8871 34.9165 38.0565 32.7005 38.4992C32.7005 38.4992 25.9118 40.0486 17.8072 40.0486C9.70195 40.0486 2.91323 38.4992 2.91323 38.4992C0.697643 38.0565 0.808537 36.8871 0.808537 36.8871Z" fill="#5382D8"/>
<path d="M27.5702 19.0226H26.8958V11.1008C26.8941 11.0811 26.8895 11.0621 26.8895 11.042V9.87226C26.8895 7.78692 26.2458 6.09663 24.9762 4.84801C22.3502 2.26424 17.8646 2.29941 17.7889 2.31001C17.7356 2.30609 13.2875 2.24212 10.6497 4.8239C9.37148 6.07497 8.72306 7.7731 8.72306 9.87226V11.1091C8.72306 11.1213 8.71991 11.1324 8.71991 11.1442V19.0226H8.04545C6.38558 19.0226 5.0402 17.6772 5.0402 16.0177V13.1297C5.0402 11.7946 5.91196 10.6643 7.11725 10.2732V9.87258C7.11725 7.32552 7.92825 5.24101 9.52616 3.6766C12.6414 0.627635 17.6176 0.706582 17.7916 0.704203C18.0007 0.70221 22.9816 0.641071 26.0954 3.69563C27.6878 5.25843 28.4956 7.33664 28.4956 9.87226V10.2712C29.7025 10.6623 30.5751 11.7934 30.5751 13.1293V16.0173C30.575 17.6773 29.2293 19.0226 27.5702 19.0226Z" fill="#5382D8"/>
</svg>
