<svg width="34" height="25" viewBox="0 0 34 25" fill="none" xmlns="http://www.w3.org/2000/svg">
<path d="M33.9748 2.43734C33.9748 2.39849 34.0016 2.36067 33.9998 2.32227L23.6241 12.3198L33.9874 21.9979C33.9935 21.9288 33.9748 21.8591 33.9748 21.7885V2.43734Z" fill="#5382D8"/>
<path d="M22.0404 13.8582L17.8048 17.9334C17.5905 18.1396 17.3136 18.243 17.0367 18.243C16.7654 18.243 16.4942 18.144 16.2814 17.9456L12.0573 14.0094L1.62634 24.0637C1.87997 24.1548 2.15222 24.2256 2.43731 24.2256H31.6362C32.0595 24.2256 32.4566 24.0966 32.8018 23.9043L22.0404 13.8582Z" fill="#5382D8"/>
<path d="M17.0246 15.6096L32.8593 0.356146C32.5008 0.14299 32.0835 0 31.6362 0H2.43735C1.8549 0 1.32119 0.226155 0.905518 0.571075L17.0246 15.6096Z" fill="#5382D8"/>
<path d="M0 2.80884V21.7882C0 22.006 0.0500762 22.2161 0.104436 22.4168L10.4059 12.4967L0 2.80884Z" fill="#5382D8"/>
</svg>
