<svg width="30" height="30" viewBox="0 0 30 30" fill="none" xmlns="http://www.w3.org/2000/svg">
<rect width="30" height="30" rx="3" fill="black" fill-opacity="0.7"/>
<circle cx="15" cy="15" r="9" fill="#F39314"/>
<path d="M15.1569 9.70581C13.0133 9.70581 11.2942 11.4923 11.2942 13.671C11.2942 14.3899 11.4852 15.0653 11.8248 15.6535L15.1781 20.294L18.5315 15.6535C18.871 15.0653 19.0621 14.3899 19.0621 13.671C19.0621 11.4705 17.3217 9.70581 15.1993 9.70581L15.1569 9.70581ZM15.1569 15.6535C14.0957 15.6535 13.2255 14.7603 13.2255 13.671C13.2255 12.5816 14.0957 11.6884 15.1569 11.6884C16.2181 11.6884 17.0883 12.5816 17.0883 13.671C17.0883 14.7603 16.2181 15.6535 15.1569 15.6535Z" fill="white"/>
</svg>
