<svg width="20" height="20" viewBox="0 0 20 20" fill="none" xmlns="http://www.w3.org/2000/svg">
<rect opacity="0.5" width="20" height="20" rx="3" fill="#60A04E"/>
<path d="M13.8788 11.5656C13.8788 11.248 13.627 10.9806 13.2913 10.9806H12.1329V9.8274C12.1329 9.50984 11.8811 9.24243 11.5454 9.24243C11.2264 9.24243 10.9578 9.49313 10.9578 9.8274V10.9806H9.79947C9.48051 10.9806 9.21191 11.2313 9.21191 11.5656C9.21191 11.8831 9.46373 12.1505 9.79947 12.1505H10.9578V13.3038C10.9578 13.6213 11.2096 13.8887 11.5454 13.8887C11.8643 13.8887 12.1329 13.638 12.1329 13.3038V12.1505H13.2913C13.6102 12.1505 13.8788 11.8998 13.8788 11.5656Z" fill="white"/>
<path d="M10.4038 12.7189H9.81623C9.17831 12.7189 8.6579 12.2008 8.6579 11.5657C8.6579 10.9306 9.17831 10.4124 9.81623 10.4124H10.4038V9.82748C10.4038 9.19237 10.9242 8.67426 11.5621 8.67426C11.6629 8.67426 11.7804 8.69097 11.8643 8.7244C12.0322 8.35671 12.1329 7.95559 12.1329 7.52104C12.1329 5.93328 10.8403 4.62964 9.22867 4.62964C7.63386 4.62964 6.32444 5.91656 6.32444 7.52104C6.32444 8.60741 6.94558 9.54335 7.83531 10.0448C6.12299 10.5796 4.84714 12.0503 4.62891 13.8721H5.1661H5.21647H10.5381C10.4374 13.705 10.3702 13.5044 10.3702 13.2871V12.7022L10.4038 12.7189Z" fill="white"/>
<path d="M12.7204 12.719V13.304C12.7204 13.5212 12.6532 13.7051 12.5525 13.8889H13.2408H13.2911H13.8283C13.778 13.4878 13.6605 13.1034 13.5262 12.7357H12.7204V12.719Z" fill="white"/>
</svg>
