<svg width="20" height="20" viewBox="0 0 20 20" fill="none" xmlns="http://www.w3.org/2000/svg">
<rect opacity="0.8" width="20" height="20" rx="3" fill="#E96C6C"/>
<path d="M13.968 13.1342L14.8271 12.2791C15.0576 12.0497 15.0576 11.6534 14.8271 11.424C14.5966 11.1946 14.1985 11.1946 13.968 11.424L13.1089 12.2791L12.2498 11.424C12.0193 11.1946 11.6211 11.1946 11.3906 11.424C11.1602 11.6534 11.1602 12.0497 11.3906 12.2791L12.2498 13.1342L11.3906 13.9894C11.1602 14.2188 11.1602 14.615 11.3906 14.8445C11.6211 15.0739 12.0193 15.0739 12.2498 14.8445L13.1089 13.9894L13.968 14.8445C14.1985 15.0739 14.5966 15.0739 14.8271 14.8445C15.0576 14.615 15.0576 14.2188 14.8271 13.9894L13.968 13.1342Z" fill="white"/>
<path d="M11.3281 13.134L10.888 12.696C10.4061 12.2163 10.4061 11.4029 10.888 10.9232C11.1604 10.6521 11.5376 10.5269 11.9148 10.5686C12.6482 10.0055 13.1301 9.12956 13.1301 8.12845C13.1301 6.39738 11.7262 5 9.98702 5C8.24785 5 6.84394 6.39738 6.84394 8.12845C6.84394 9.31727 7.51446 10.3392 8.4993 10.8606C6.65536 11.4446 5.25145 13.0506 5 15.0111H5.58671H5.62862H10.6785C10.448 14.5522 10.5318 13.9682 10.909 13.572L11.349 13.134H11.3281Z" fill="white"/>
</svg>
