<svg width="20" height="20" viewBox="0 0 20 20" fill="none" xmlns="http://www.w3.org/2000/svg">
<rect opacity="0.8" width="20" height="20" rx="3" fill="#E96C6C"/>
<path d="M9.88333 4.16675C9.76667 4.16675 9.65 4.22508 9.59167 4.28341L8.775 5.04175L7.84167 4.86675C7.55 4.80841 7.375 4.98341 7.31667 5.21675L7.14167 6.26675L6.15 6.73341C5.91667 6.85008 5.85833 7.08342 5.975 7.31675L6.44167 8.25008L5.975 9.18342C5.85833 9.41675 5.975 9.65008 6.15 9.76675L7.14167 10.2334L7.31667 11.2834C7.375 11.5167 7.60833 11.6917 7.84167 11.6334L8.95 11.4584L9.76667 12.2167C9.94167 12.3917 10.2333 12.3917 10.4083 12.2167L11.225 11.4584L12.3333 11.6334C12.5667 11.6917 12.8 11.5167 12.8583 11.2834L13.0333 10.2334L14.025 9.76675C14.2583 9.65008 14.3167 9.41675 14.2 9.18342L13.5583 8.25008L14.025 7.31675C14.1417 7.08342 14.0833 6.85008 13.85 6.73341L12.8583 6.26675L12.6833 5.21675C12.625 4.98341 12.3917 4.80841 12.1583 4.86675L11.05 5.04175L10.2333 4.28341C10.175 4.16675 10 4.16675 9.88333 4.16675ZM6.55833 10.6417L4.75 14.2584L6.85 13.9667L7.9 15.8334L9.41667 12.7417L9.3 12.6251L8.71667 12.1001L7.9 12.2167C7.375 12.2751 6.85 11.9251 6.73333 11.4001L6.55833 10.6417ZM13.4417 10.6417L13.2667 11.4001C13.15 11.8667 12.7417 12.2167 12.275 12.2167H12.1583L11.3417 12.1001L10.7583 12.6251L10.6417 12.7417L12.1583 15.8334L13.2083 14.0251L15.3083 14.3167L13.4417 10.6417Z" fill="white"/>
</svg>
