<svg width="19" height="18" viewBox="0 0 19 18" fill="none" xmlns="http://www.w3.org/2000/svg">
<path d="M9.01748 17.9997C10.2524 17.9997 11.2713 16.9808 11.2713 15.7458H6.76367C6.76367 16.9808 7.78252 17.9997 9.01748 17.9997Z" fill="black"/>
<path d="M17.4451 12.3805C16.8277 11.763 15.3766 10.3428 15.1914 10.1267C15.0061 9.91056 14.9753 9.57094 14.9753 9.57094L14.6048 5.61907C14.6048 5.61907 14.0491 0 8.98584 0C3.92262 0 3.3669 5.61907 3.3669 5.61907L3.0273 9.57094C3.0273 9.57094 2.99642 9.94143 2.81118 10.1267C2.62594 10.3428 1.1749 11.763 0.557434 12.3805C-0.0600314 12.998 0.00171518 14.0785 0.00171518 14.0785C0.00171518 14.0785 0.0017152 14.6343 0.557434 14.6343H17.4451C18.0008 14.6343 18.0008 14.0785 18.0008 14.0785C18.0008 14.0785 18.0626 12.998 17.4451 12.3805V12.3805Z" fill="black"/>
</svg>
