<svg width="17" height="18" viewBox="0 0 17 18" fill="none" xmlns="http://www.w3.org/2000/svg">
<path d="M5.73746 3.38889C5.73746 2.16667 6.76 1.11111 8.06657 1.11111C9.31634 1.11111 10.3957 2.11111 10.3957 3.38889V4.5H11.5318V3.38889C11.5318 1.55556 9.99804 0 8.06657 0C6.19192 0 4.6013 1.5 4.6013 3.38889H4.54449V4.5H5.68065V3.38889H5.73746Z" fill="black"/>
<path d="M14.9404 4.5H11.4752V6.77778H10.339V4.5H5.73758V6.77778H4.60143V4.5H1.13615C0.51127 4.5 0 5 0 5.61111V16.8889C0 17.5 0.51127 18 1.13615 18H14.9972C15.6221 18 16.1334 17.5 16.1334 16.8889V5.61111C16.1334 5 15.6221 4.5 14.9972 4.5H14.9404Z" fill="black"/>
</svg>
