<svg width="19" height="18" viewBox="0 0 19 18" fill="none" xmlns="http://www.w3.org/2000/svg">
<path d="M14.6961 7.86958H15.8268V3.34696C15.8268 2.7138 15.3293 2.21631 14.6961 2.21631H12.4348V3.34696H14.6961V7.86958Z" fill="black"/>
<path d="M12.4348 18H14.6961C15.3293 18 15.8268 17.5026 15.8268 16.8694H12.4348V18Z" fill="black"/>
<path d="M18.0452 12.392L14.6533 9V11.2613H11.2613V1.13065C11.2613 0.497487 10.7638 0 10.1307 0L1.13065 1.13065C0.497487 1.13065 0 1.62814 0 2.26131V16.8693C0 17.5025 0.497487 18 1.13065 18H10.1307H11.2613V16.8693V13.4774H14.6533V15.7387L18.0452 12.3467V12.392ZM9.04523 10.1307C8.41206 10.1307 7.91457 9.63317 7.91457 9C7.91457 8.36683 8.41206 7.86935 9.04523 7.86935C9.67839 7.86935 10.1759 8.36683 10.1759 9C10.1759 9.63317 9.67839 10.1307 9.04523 10.1307Z" fill="black"/>
</svg>
