<svg width="18" height="18" viewBox="0 0 18 18" fill="none" xmlns="http://www.w3.org/2000/svg">
<path d="M17.6516 14.4509L10.8903 7.74157C10.9419 7.68996 10.8903 7.68996 10.8387 7.68996C11.0968 7.07063 11.2516 6.34809 11.2516 5.62554C11.2516 2.52891 8.72258 0 5.62581 0C2.52903 0 0 2.52891 0 5.62554C0 8.72217 2.52903 11.2511 5.62581 11.2511C6.29677 11.2511 6.96774 11.0962 7.5871 10.8898C7.5871 10.8898 7.5871 10.9414 7.63871 10.8898L8.56774 11.8188H10.1677V13.4187L10.8387 14.038H12.4387V15.638L14.4516 17.6508C14.9161 18.1153 15.5871 18.1153 16.0516 17.6508L17.6516 16.0509C18.1161 15.5864 18.1161 14.9154 17.6516 14.4509ZM5.62581 7.84479C4.3871 7.84479 3.35484 6.81258 3.35484 5.57393C3.35484 4.33528 4.3871 3.30307 5.62581 3.30307C6.86452 3.30307 7.89677 4.33528 7.89677 5.57393C7.89677 6.81258 6.86452 7.84479 5.62581 7.84479Z" fill="black"/>
</svg>
