<svg width="18" height="18" viewBox="0 0 18 18" fill="none" xmlns="http://www.w3.org/2000/svg">
<path d="M17.7505 11.4137C17.5509 11.2141 6.6736 0.336798 6.6736 0.336798C6.22453 -0.112266 5.52599 -0.112266 5.07692 0.336798L0.336798 5.12682C-0.112266 5.57588 -0.112266 6.27443 0.336798 6.72349C0.336798 6.72349 11.2141 17.6008 11.4137 17.8004C11.6133 18 11.763 18 11.763 18H18V11.8129C18 11.8129 18 11.6632 17.8004 11.4636L17.7505 11.4137ZM11.2141 13.4595C11.2141 12.2121 12.2121 11.2141 13.4595 11.2141C14.7069 11.2141 15.7048 12.2121 15.7048 13.4595C15.7048 14.7069 14.7069 15.7048 13.4595 15.7048C12.2121 15.7048 11.2141 14.7069 11.2141 13.4595Z" fill="black"/>
</svg>
