<svg width="18" height="15" viewBox="0 0 18 15" fill="none" xmlns="http://www.w3.org/2000/svg">
<path d="M11.1292 8.70966C11.9034 8.04753 12.4356 7.0798 12.4356 5.90834C12.4356 3.92195 10.9356 2.34302 9.04853 2.34302C7.16145 2.34302 5.66145 3.92195 5.66145 5.90834C5.66145 7.02887 6.19371 8.04753 6.9679 8.70966C4.88726 9.57553 3.38727 11.7147 3.38727 14.2104H14.613C14.613 11.7147 13.113 9.57553 11.0324 8.70966H11.1292Z" fill="black"/>
<path d="M14.4676 6.36664C15.2418 5.70451 15.7741 4.73678 15.7741 3.56532C15.7741 1.57893 14.2741 0 12.387 0C11.3709 0 10.4515 0.509332 9.82251 1.27333C11.9031 1.68079 13.4999 3.61625 13.4999 5.90825C13.4999 6.82504 13.258 7.63997 12.8225 8.35304C13.9838 9.2189 14.8547 10.3904 15.3386 11.8165H17.9999C17.9999 9.32077 16.4999 7.18158 14.4193 6.31571L14.4676 6.36664Z" fill="black"/>
<path d="M5.22578 8.35304C4.83869 7.63997 4.54837 6.82504 4.54837 5.90825C4.54837 3.56532 6.14513 1.68079 8.22577 1.27333C7.59674 0.509332 6.67739 0 5.66126 0C3.77418 0 2.27418 1.57893 2.27418 3.56532C2.27418 4.68585 2.80644 5.70451 3.58063 6.36664C1.49999 7.23251 0 9.3717 0 11.8674H2.61289C3.09676 10.4413 4.01611 9.2189 5.1774 8.40397L5.22578 8.35304Z" fill="black"/>
</svg>
