<svg width="20" height="20" viewBox="0 0 20 20" fill="none" xmlns="http://www.w3.org/2000/svg">
<path d="M19.5102 9.33323C19.7516 9.06414 19.7292 8.65028 19.4602 8.40881L10.276 0.167389C10.0272 -0.0557964 9.65032 -0.0557964 9.40156 0.167389L0.217432 8.40881C-0.0516652 8.65028 -0.0740535 9.06418 0.167418 9.33323C0.408846 9.60233 0.822748 9.62472 1.09185 9.38325L2.73152 7.91185L4.82303 18.6907H3.98924C3.62771 18.6907 3.33461 18.9838 3.33461 19.3453C3.33461 19.7068 3.62771 19.9999 3.98924 19.9999H15.6883C16.0498 19.9999 16.3429 19.7068 16.3429 19.3453C16.3429 18.9838 16.0498 18.6907 15.6883 18.6907H14.8545L16.946 7.91185L18.5857 9.3832C18.7107 9.49541 18.867 9.55062 19.0227 9.55062C19.2021 9.55066 19.3809 9.4773 19.5102 9.33323ZM9.97428 15.9422C9.47218 15.9422 9.06513 15.5351 9.06513 15.033C9.06513 14.5309 9.47218 14.1239 9.97428 14.1239C10.4764 14.1239 10.8834 14.5309 10.8834 15.033C10.8834 15.5352 10.4764 15.9422 9.97428 15.9422ZM9.83877 12.4852C8.47517 12.4852 7.36981 11.3798 7.36981 10.0162C7.36981 8.65268 8.47522 7.54727 9.83877 7.54727C11.2023 7.54727 12.3077 8.65268 12.3077 10.0162C12.3077 11.3798 11.2024 12.4852 9.83877 12.4852Z" fill="black"/>
</svg>
