<svg width="30" height="28" viewBox="0 0 30 28" fill="none" xmlns="http://www.w3.org/2000/svg">
<path d="M27.8301 0.00123129H25.9747V1.85657C25.9747 2.88156 25.1456 3.71191 24.1194 3.71191L22.2653 3.71068C21.2391 3.71068 20.41 2.8791 20.41 1.85534V0L9.27669 0.00123129V1.85657C9.27669 2.88156 8.44758 3.71191 7.42135 3.71191L5.56602 3.71068C4.53979 3.71068 3.71068 2.8791 3.71068 1.85534V0L1.85534 0.00123129C0.829112 0.00123129 0 0.832807 0 1.85657V25.9784C0 27.0022 0.829112 27.8338 1.85534 27.8338L27.8313 27.8325C28.8575 27.8325 29.6866 27.0022 29.6866 25.9772V1.85534C29.6866 0.831576 28.8575 0 27.8313 0L27.8301 0.00123129ZM11.1308 24.1219H7.42012V20.4112H11.1308V24.1219ZM11.1308 18.5559H7.42012V14.8439H11.1308V18.5559ZM11.1308 12.9886H7.42012V9.2767L11.1308 9.27793V12.9886ZM16.6968 24.1219H12.9861V20.4112H16.6968V24.1219ZM16.6968 18.5559H12.9861V14.8439H16.6968V18.5559ZM16.6968 12.9886H12.9861V9.2767L16.6968 9.27793V12.9886ZM22.2641 24.1219H18.5522V20.4112H22.2641V24.1219ZM22.2641 18.5559H18.5522V14.8439H22.2641V18.5559ZM22.2641 12.9886H18.5522V9.2767L22.2641 9.27793V12.9886Z" fill="#A9C0EB"/>
</svg>
