<svg width="28" height="28" viewBox="0 0 28 28" fill="none" xmlns="http://www.w3.org/2000/svg">
<path d="M27.3143 13.0665C27.6523 12.6898 27.621 12.1104 27.2442 11.7723L14.3864 0.234345C14.0381 -0.0781151 13.5105 -0.0781151 13.1622 0.234345L0.304405 11.7723C-0.0723313 12.1104 -0.103675 12.6899 0.234386 13.0665C0.572386 13.4433 1.15185 13.4746 1.52859 13.1366L3.82414 11.0766L6.75225 26.167H5.58495C5.0788 26.167 4.66846 26.5773 4.66846 27.0835C4.66846 27.5896 5.0788 27.9999 5.58495 27.9999H21.9636C22.4698 27.9999 22.8801 27.5896 22.8801 27.0835C22.8801 26.5773 22.4698 26.167 21.9636 26.167H20.7963L23.7245 11.0766L26.02 13.1365C26.1951 13.2936 26.4138 13.3709 26.6319 13.3709C26.883 13.3709 27.1333 13.2682 27.3143 13.0665ZM13.964 22.3191C13.2611 22.3191 12.6912 21.7492 12.6912 21.0463C12.6912 20.3433 13.2611 19.7734 13.964 19.7734C14.667 19.7734 15.2368 20.3433 15.2368 21.0463C15.2368 21.7493 14.667 22.3191 13.964 22.3191ZM13.7743 17.4793C11.8653 17.4793 10.3177 15.9317 10.3177 14.0227C10.3177 12.1138 11.8653 10.5662 13.7743 10.5662C15.6833 10.5662 17.2309 12.1138 17.2309 14.0227C17.2309 15.9318 15.6833 17.4793 13.7743 17.4793Z" fill="#53588A"/>
</svg>
