<svg width="62" height="84" viewBox="0 0 62 84" fill="none" xmlns="http://www.w3.org/2000/svg">
<g filter="url(#filter0_d)">
<rect x="4" y="3" width="54" height="76" rx="3" fill="#F2F2F2"/>
</g>
<path d="M28.797 62.739C28.617 62.877 28.389 62.973 28.113 63.027C27.837 63.081 27.543 63.108 27.231 63.108C26.853 63.108 26.499 63.045 26.169 62.919C25.839 62.787 25.551 62.589 25.305 62.325C25.059 62.061 24.864 61.725 24.72 61.317C24.576 60.903 24.504 60.414 24.504 59.85C24.504 59.262 24.582 58.764 24.738 58.356C24.9 57.942 25.11 57.606 25.368 57.348C25.632 57.084 25.926 56.892 26.25 56.772C26.574 56.652 26.904 56.592 27.24 56.592C27.6 56.592 27.894 56.613 28.122 56.655C28.35 56.691 28.545 56.742 28.707 56.808L28.527 57.465C28.239 57.327 27.828 57.258 27.294 57.258C27.048 57.258 26.805 57.303 26.565 57.393C26.325 57.483 26.109 57.63 25.917 57.834C25.731 58.038 25.581 58.305 25.467 58.635C25.353 58.965 25.296 59.37 25.296 59.85C25.296 60.282 25.35 60.66 25.458 60.984C25.566 61.308 25.713 61.578 25.899 61.794C26.091 62.01 26.313 62.172 26.565 62.28C26.823 62.388 27.102 62.442 27.402 62.442C27.672 62.442 27.906 62.415 28.104 62.361C28.308 62.307 28.479 62.238 28.617 62.154L28.797 62.739ZM29.7626 58.833C29.9906 58.695 30.2546 58.593 30.5546 58.527C30.8606 58.461 31.1786 58.428 31.5086 58.428C31.8206 58.428 32.0696 58.47 32.2556 58.554C32.4476 58.638 32.5916 58.749 32.6876 58.887C32.7896 59.019 32.8556 59.166 32.8856 59.328C32.9216 59.49 32.9396 59.652 32.9396 59.814C32.9396 60.174 32.9306 60.525 32.9126 60.867C32.8946 61.209 32.8856 61.533 32.8856 61.839C32.8856 62.061 32.8946 62.271 32.9126 62.469C32.9306 62.667 32.9636 62.85 33.0116 63.018H32.4806L32.2916 62.388H32.2466C32.1926 62.472 32.1236 62.556 32.0396 62.64C31.9616 62.718 31.8656 62.79 31.7516 62.856C31.6376 62.916 31.5056 62.967 31.3556 63.009C31.2056 63.051 31.0346 63.072 30.8426 63.072C30.6506 63.072 30.4706 63.042 30.3026 62.982C30.1406 62.922 29.9996 62.838 29.8796 62.73C29.7596 62.616 29.6636 62.481 29.5916 62.325C29.5256 62.169 29.4926 61.992 29.4926 61.794C29.4926 61.53 29.5466 61.311 29.6546 61.137C29.7626 60.957 29.9126 60.816 30.1046 60.714C30.3026 60.606 30.5366 60.531 30.8066 60.489C31.0826 60.441 31.3856 60.417 31.7156 60.417C31.7996 60.417 31.8806 60.417 31.9586 60.417C32.0426 60.417 32.1266 60.423 32.2106 60.435C32.2286 60.255 32.2376 60.093 32.2376 59.949C32.2376 59.619 32.1716 59.388 32.0396 59.256C31.9076 59.124 31.6676 59.058 31.3196 59.058C31.2176 59.058 31.1066 59.067 30.9866 59.085C30.8726 59.097 30.7526 59.118 30.6266 59.148C30.5066 59.172 30.3896 59.205 30.2756 59.247C30.1676 59.283 30.0716 59.325 29.9876 59.373L29.7626 58.833ZM31.0406 62.442C31.2086 62.442 31.3586 62.421 31.4906 62.379C31.6226 62.331 31.7366 62.274 31.8326 62.208C31.9286 62.136 32.0066 62.058 32.0666 61.974C32.1326 61.89 32.1806 61.809 32.2106 61.731V60.984C32.1266 60.978 32.0396 60.975 31.9496 60.975C31.8656 60.969 31.7816 60.966 31.6976 60.966C31.5116 60.966 31.3286 60.978 31.1486 61.002C30.9746 61.02 30.8186 61.059 30.6806 61.119C30.5486 61.173 30.4406 61.251 30.3566 61.353C30.2786 61.449 30.2396 61.572 30.2396 61.722C30.2396 61.932 30.3146 62.106 30.4646 62.244C30.6146 62.376 30.8066 62.442 31.0406 62.442ZM38.2774 64.143H37.7914L37.6564 63H34.2724L34.1374 64.143H33.6514V62.37H34.1824C34.2304 62.304 34.2934 62.187 34.3714 62.019C34.4494 61.845 34.5244 61.605 34.5964 61.299C34.6744 60.987 34.7404 60.603 34.7944 60.147C34.8544 59.685 34.8904 59.136 34.9024 58.5H37.6204V62.37H38.2774V64.143ZM36.9004 62.37V59.13H35.5504C35.5384 59.382 35.5174 59.658 35.4874 59.958C35.4574 60.252 35.4154 60.549 35.3614 60.849C35.3134 61.143 35.2504 61.422 35.1724 61.686C35.0944 61.95 35.0044 62.178 34.9024 62.37H36.9004Z" fill="black"/>
<path d="M32.7789 23.0662C32.7789 22.4611 33.0592 21.8901 33.5359 21.5181L35.7715 19.8431C35.9732 19.6754 36.0073 19.3794 35.8501 19.1699L35.2359 18.3841C35.156 18.2793 35.0381 18.2112 34.9085 18.1955C34.7788 18.1785 34.6465 18.2151 34.5444 18.2963L32.1372 20.1194C31.299 20.769 30.8105 21.7709 30.8157 22.8317V26.0496H32.7815V23.0675L32.7789 23.0662Z" fill="#60A04E"/>
<path d="M24.1109 23.5913C25.4913 24.3574 27.6248 24.9821 29.0248 24.2448L25.1285 21.5377C24.9216 21.3779 24.8771 21.0832 25.0264 20.8684C25.1757 20.6537 25.4664 20.5934 25.6891 20.7309L29.6993 23.5363C29.7949 23.3149 29.8407 23.0752 29.8316 22.8343C29.7923 21.5861 28.535 19.97 26.6622 18.9026C24.7906 17.8365 21.5413 18.1849 20.2107 18.3814C20.9873 20.1507 22.4267 22.6562 24.1122 23.59L24.1109 23.5913Z" fill="#60A04E"/>
<path d="M41.8583 25.5019C39.9213 23.0319 36.4441 22.3993 33.7606 24.0285V26.048H34.2517C34.5228 26.048 34.7429 26.2681 34.7429 26.5392C34.7429 26.8103 34.5228 27.0303 34.2517 27.0303H29.3378C29.0667 27.0303 28.8467 26.8103 28.8467 26.5392C28.8467 26.2681 29.0667 26.048 29.3378 26.048H29.8289V24.8929C28.1093 26.1803 24.9596 25.384 23.2007 24.1804C20.6507 25.8608 19.9527 28.6032 20.0024 31.6797C20.0391 34.5596 20.728 37.3938 22.0167 39.9699C23.3526 42.6037 26.3596 46.5982 29.0772 45.5269C29.5015 45.3579 29.8971 45.1261 30.252 44.8393C31.1517 44.1124 32.4378 44.1124 33.3376 44.8393C34.7429 45.9643 36.2162 46.0625 37.9411 44.6716C40.8053 42.381 43.4836 37.4972 43.5871 31.6797C43.6316 28.9228 43.096 27.0316 41.857 25.5032L41.8583 25.5019ZM21.5099 27.841C21.5793 27.6537 21.6526 27.4769 21.7351 27.3053C21.8543 27.0604 22.149 26.9596 22.3939 27.0801C22.6388 27.1993 22.7397 27.4939 22.6192 27.7388C22.5498 27.8816 22.4869 28.0283 22.428 28.1854C22.3743 28.3596 22.2276 28.4893 22.0482 28.5233C21.8687 28.5574 21.6867 28.488 21.5727 28.3452C21.4601 28.2025 21.4352 28.0086 21.5086 27.8423L21.5099 27.841ZM24.1882 40.7885C24.0768 40.8566 23.942 40.8775 23.8149 40.8461C23.6879 40.8147 23.5779 40.7335 23.5111 40.6208C21.6016 37.3925 20.7424 33.6507 21.0541 29.9142C21.0711 29.7387 21.1812 29.5855 21.3422 29.5135C21.5033 29.4414 21.6906 29.4598 21.8334 29.5632C21.9774 29.6667 22.0534 29.8383 22.0364 30.0137C21.7404 33.5407 22.5537 37.0729 24.361 40.1166C24.4999 40.3497 24.4226 40.6509 24.1882 40.7898V40.7885Z" fill="#60A04E"/>
<defs>
<filter id="filter0_d" x="0" y="0" width="62" height="84" filterUnits="userSpaceOnUse" color-interpolation-filters="sRGB">
<feFlood flood-opacity="0" result="BackgroundImageFix"/>
<feColorMatrix in="SourceAlpha" type="matrix" values="0 0 0 0 0 0 0 0 0 0 0 0 0 0 0 0 0 0 127 0"/>
<feOffset dy="1"/>
<feGaussianBlur stdDeviation="2"/>
<feColorMatrix type="matrix" values="0 0 0 0 0 0 0 0 0 0 0 0 0 0 0 0 0 0 0.25 0"/>
<feBlend mode="normal" in2="BackgroundImageFix" result="effect1_dropShadow"/>
<feBlend mode="normal" in="SourceGraphic" in2="effect1_dropShadow" result="shape"/>
</filter>
</defs>
</svg>
