<svg width="20" height="20" viewBox="0 0 20 20" fill="none" xmlns="http://www.w3.org/2000/svg">
<path d="M7.83823 16.7005H2.49399L5.48216 9.76803L4.7429 8.14227L0.0541687 19.0199C-0.0903691 19.3552 0.0643071 19.7442 0.399623 19.8888C0.484917 19.9255 0.573694 19.9429 0.661016 19.9429C0.917032 19.9429 1.16075 19.7933 1.26852 19.5433L1.9239 18.0229H7.26779L6.83779 19.0197C6.69317 19.355 6.84775 19.7441 7.18307 19.8887C7.26841 19.9255 7.35723 19.9429 7.44464 19.9429C7.70057 19.9429 7.94429 19.7934 8.0521 19.5434L8.96495 17.4272L8.22587 15.8018L7.83823 16.7005Z" fill="black"/>
<path d="M19.5666 18.9122L12.081 2.44286C11.4072 0.960368 9.91968 0.00189543 8.29124 0.00101384L6.42622 0C6.42573 0 6.42529 0 6.42481 0C4.58359 0 3.35897 1.90429 4.12049 3.5792L11.3824 19.549C11.5113 19.8325 11.7907 20 12.0832 20C12.1896 20 12.2979 19.9778 12.4011 19.9308C12.7879 19.7549 12.9588 19.2988 12.7829 18.9121L12.3787 18.0231C13.2156 18.0231 16.9544 18.0231 17.4725 18.0231L18.1659 19.5488C18.2948 19.8324 18.5744 20 18.8668 20C18.9732 20 19.0814 19.9777 19.1846 19.9308C19.5713 19.755 19.7423 19.299 19.5666 18.9122ZM9.03063 10.6604C9.86793 10.6604 13.6096 10.6604 14.126 10.6604L15.1981 13.0193C14.3744 13.0193 10.6837 13.0193 10.1033 13.0193L9.03063 10.6604ZM13.5249 9.33796C12.7009 9.33796 9.00947 9.33796 8.42929 9.33796L7.35661 6.97899C8.18104 6.97899 11.8729 6.97899 12.4527 6.97899L13.5249 9.33796ZM6.42485 1.53856C6.42503 1.53856 6.4252 1.53856 6.42538 1.53856L8.2904 1.53958C9.31737 1.54011 10.2555 2.14457 10.6804 3.07946L11.8517 5.65659C11.0142 5.65659 7.27189 5.65659 6.75532 5.65659L5.52108 2.94233C5.22218 2.28501 5.70318 1.53856 6.42485 1.53856ZM11.7773 16.7007L10.7047 14.3417C11.5419 14.3417 15.283 14.3417 15.7992 14.3417L16.8713 16.7007C16.0476 16.7007 12.3582 16.7007 11.7773 16.7007Z" fill="black"/>
</svg>
