<svg width="20" height="14" viewBox="0 0 20 14" fill="none" xmlns="http://www.w3.org/2000/svg">
<path d="M19.352 4.42061H19.1868V2.73064C19.1868 2.61317 19.1548 2.49795 19.0944 2.39725L17.8746 0.364201C17.7575 0.169014 17.5466 0.0495605 17.3189 0.0495605C17.0913 0.0495605 16.8804 0.169014 16.7633 0.364201L15.5434 2.39725C15.483 2.49795 15.4511 2.61317 15.4511 2.73064V4.42061H14.3075V2.73064C14.3075 2.61317 14.2756 2.49795 14.2152 2.39725L12.9953 0.364201C12.8782 0.169014 12.6673 0.0495605 12.4397 0.0495605C12.2121 0.0495605 12.0011 0.169014 11.884 0.364201L10.6642 2.39725C10.6038 2.49795 10.5718 2.61317 10.5718 2.73064V4.42061H9.42824V2.73064C9.42824 2.61317 9.39632 2.49795 9.33588 2.39725L8.11607 0.364201C7.99895 0.169014 7.78803 0.0495605 7.5604 0.0495605C7.33277 0.0495605 7.12186 0.169014 7.00474 0.364201L5.78493 2.39725C5.72449 2.49795 5.69256 2.61317 5.69256 2.73064V4.42061H4.549V2.73064C4.549 2.61317 4.51708 2.49795 4.45664 2.39725L3.23674 0.364201C3.11962 0.169014 2.90871 0.0495605 2.68108 0.0495605C2.45344 0.0495605 2.24253 0.169014 2.12541 0.364201L0.905558 2.39725C0.845119 2.49795 0.813192 2.61317 0.813192 2.73064V4.42061H0.648031C0.290145 4.42061 0 4.71076 0 5.06865V6.69512C0 7.053 0.290145 7.34315 0.648031 7.34315H0.813235V13.3025C0.813235 13.6604 1.10338 13.9505 1.46127 13.9505H3.90093C4.25881 13.9505 4.54896 13.6604 4.54896 13.3025V7.3431H5.69252V13.3024C5.69252 13.6603 5.98266 13.9505 6.34055 13.9505H8.78021C9.1381 13.9505 9.42824 13.6603 9.42824 13.3024V7.3431H10.5718V13.3024C10.5718 13.6603 10.862 13.9505 11.2199 13.9505H13.6595C14.0174 13.9505 14.3076 13.6603 14.3076 13.3024V7.3431H15.4511V13.3024C15.4511 13.6603 15.7413 13.9505 16.0992 13.9505H18.5388C18.8967 13.9505 19.1869 13.6603 19.1869 13.3024V7.3431H19.3521C19.7099 7.3431 20.0001 7.05296 20.0001 6.69507V5.0686C20 4.71072 19.7099 4.42061 19.352 4.42061Z" fill="black"/>
</svg>
