<svg width="62" height="100" viewBox="0 0 62 100" fill="none" xmlns="http://www.w3.org/2000/svg">
<path d="M56.6002 80.7471C55.6774 91.5155 46.6187 100.001 35.6171 100.001H25.8493C14.8429 100.001 5.78908 91.5203 4.86621 80.7471H56.6051H56.6002Z" fill="#5382D8"/>
<path d="M56.6795 66.3777H4.78516V74.8972H56.6795V66.3777Z" fill="#53588A"/>
<path d="M33.6563 48.1055H56.6795V60.5253H4.78516V48.1055H27.8034H33.6563Z" fill="#5382D8"/>
<path d="M33.6557 33.7275V48.1048H27.8027V33.7275H33.6557Z" fill="#5382D8"/>
<path d="M40.0196 33.6118C51.7935 33.6118 61.3719 24.0334 61.3719 12.2596V0H49.1123C41.2679 0 34.395 4.25491 30.6841 10.5741V33.7235H33.6081V33.6118H40.0148H40.0196Z" fill="#A9C0EB"/>
<path d="M21.3522 33.6118C9.5784 33.6118 0 24.0334 0 12.2596V0H12.2596C20.1039 0 26.9769 4.25491 30.6878 10.5741V33.7235H27.7637V33.6118H21.3571H21.3522Z" fill="#A9C0EB"/>
</svg>
