<svg width="21" height="21" viewBox="0 0 21 21" fill="none" xmlns="http://www.w3.org/2000/svg">
<path fill-rule="evenodd" clip-rule="evenodd" d="M4.29545 10.2666C4.29545 9.59977 4.40857 8.96044 4.61045 8.36077L1.07673 5.71851C0.388023 7.08771 0 8.6305 0 10.2666C0 11.9014 0.387545 13.4432 1.0753 14.8115L4.60711 12.1641C4.40714 11.5672 4.29545 10.9302 4.29545 10.2666Z" fill="#FBBC05"/>
<path fill-rule="evenodd" clip-rule="evenodd" d="M10.4999 4.2C11.9795 4.2 13.3158 4.71333 14.3658 5.55333L17.4204 2.56667C15.559 0.98 13.1727 0 10.4999 0C6.35052 0 2.78434 2.32353 1.07666 5.71853L4.61039 8.3608C5.42461 5.94067 7.74559 4.2 10.4999 4.2Z" fill="#EA4335"/>
<path fill-rule="evenodd" clip-rule="evenodd" d="M10.4999 16.3334C7.74559 16.3334 5.42461 14.5927 4.61039 12.1726L1.07666 14.8144C2.78434 18.2099 6.35052 20.5334 10.4999 20.5334C13.061 20.5334 15.506 19.643 17.3412 17.9747L13.9869 15.4355C13.0405 16.0193 11.8487 16.3334 10.4999 16.3334Z" fill="#34A853"/>
<path fill-rule="evenodd" clip-rule="evenodd" d="M20.5227 10.2666C20.5227 9.6599 20.4273 9.00657 20.2841 8.3999H10.5V12.3666H16.1318C15.8502 13.719 15.0837 14.7587 13.987 15.4354L17.3412 17.9745C19.2689 16.2226 20.5227 13.613 20.5227 10.2666Z" fill="#4285F4"/>
</svg>
