<svg width="25" height="19" viewBox="0 0 25 19" fill="none" xmlns="http://www.w3.org/2000/svg">
<path d="M16.5719 9.62808L25 14.9562V4.07495L16.5719 9.62808Z" fill="#A1A1A1"/>
<path d="M0 4.07495V14.9562L8.42813 9.62808L0 4.07495Z" fill="#A1A1A1"/>
<path d="M15.1407 10.5719L12.9297 12.0281C12.7985 12.1141 12.65 12.1562 12.5 12.1562C12.35 12.1562 12.2016 12.1141 12.0704 12.0281L9.85942 10.5703L0.0500488 16.775C0.170361 17.5172 0.785986 18.0938 1.56255 18.0938H23.4375C24.2141 18.0938 24.8297 17.5172 24.9501 16.775L15.1407 10.5719Z" fill="#A1A1A1"/>
<path d="M23.4375 0.90625H1.5625C0.782813 0.90625 0.164063 1.4875 0.046875 2.23594L12.5 10.4406L24.9531 2.23594C24.8359 1.4875 24.2172 0.90625 23.4375 0.90625Z" fill="#A1A1A1"/>
</svg>
