<svg width="359" height="575" viewBox="0 0 359 575" fill="none" xmlns="http://www.w3.org/2000/svg">
<path fill-rule="evenodd" clip-rule="evenodd" d="M279.774 532.568C279.39 529.247 280.348 525.735 282.966 524.011C297.904 514.24 316.354 503.703 333.209 506.641C340.933 493.102 345.53 476.562 345.53 458.744C345.53 413.02 315.525 375.661 278.816 375.661C271.474 375.661 265.409 368.125 265.409 358.993C265.409 349.797 271.41 342.325 278.816 342.325H313.737C331.613 342.325 346.296 324.061 346.296 301.773C346.296 279.485 331.676 261.285 313.801 261.221H282.008C266.495 261.221 253.854 245.447 253.854 226.161C253.854 190.973 230.744 162.172 202.462 162.172H83.7813C47.0727 162.172 17.0674 199.595 17.0674 245.256C17.0674 290.98 47.0727 328.339 83.7813 328.339C91.123 328.339 97.188 335.875 97.188 345.007C97.188 354.203 91.1869 361.675 83.7813 361.675H48.8602C30.9847 361.675 16.3013 379.939 16.3013 402.227C16.3013 424.515 30.9209 442.779 48.8602 442.779C64.3736 442.779 77.0142 458.553 77.0142 477.839C77.0142 513.027 100.125 541.828 128.406 541.828H276.071C276.39 538.06 277.794 535.059 279.901 532.568H279.774Z" fill="#CFE0FF"/>
<path fill-rule="evenodd" clip-rule="evenodd" d="M260.493 191.612C259.471 191.612 258.577 191.804 257.684 192.123C257.301 191.676 256.726 191.421 256.088 191.421C255.768 191.421 255.513 191.484 255.258 191.612C255.13 189.76 253.534 188.291 251.683 188.291C250.853 188.291 250.087 188.547 249.512 189.058C249.129 188.547 248.491 188.164 247.788 188.164C247.661 188.164 247.533 188.164 247.469 188.164C247.724 187.589 247.852 186.95 247.852 186.312C247.852 183.757 245.745 181.65 243.192 181.65C242.681 181.65 242.234 181.714 241.787 181.841C241.468 181.139 240.702 180.628 239.872 180.628H239.808C239.808 180.436 239.808 180.309 239.808 180.117C239.808 175.455 236.042 171.751 231.445 171.751C226.785 171.751 223.082 175.519 223.082 180.117C223.082 180.181 223.082 180.245 223.082 180.309C222.699 180.181 222.252 180.181 221.805 180.181C220.911 180.181 220.145 180.373 219.379 180.756C218.166 179.095 216.187 178.01 213.953 178.01C210.25 178.01 207.249 181.011 207.249 184.715C207.249 185.418 207.377 186.12 207.568 186.823C207.505 186.823 207.441 186.823 207.377 186.823C205.525 186.823 204.057 188.291 204.057 190.143C204.057 190.335 204.057 190.59 204.121 190.782H204.057C203.036 190.782 202.206 191.612 202.142 192.634C201.887 192.57 201.567 192.57 201.248 192.57C200.035 192.57 198.95 192.953 198.12 193.72C186.373 204.831 261.003 196.466 263.046 196.274C265.408 196.274 268.792 196.657 266.43 194.167C264.962 192.634 262.855 191.676 260.557 191.676L260.493 191.612Z" fill="#FEFEFE"/>
<path fill-rule="evenodd" clip-rule="evenodd" d="M121.574 229.035C120.106 229.035 118.638 229.29 117.297 229.801C116.722 229.163 115.829 228.716 114.871 228.716C114.424 228.716 113.977 228.78 113.594 228.971C113.403 226.161 111.04 223.926 108.168 223.926C106.891 223.926 105.805 224.373 104.848 225.076C104.273 224.245 103.316 223.734 102.23 223.734C102.039 223.734 101.847 223.735 101.72 223.798C102.103 222.968 102.294 222.01 102.294 221.052C102.294 217.157 99.166 214.028 95.2717 214.028C94.5695 214.028 93.8672 214.155 93.165 214.347C92.6542 213.261 91.5689 212.495 90.2921 212.495H90.2283C90.2283 212.239 90.2283 211.984 90.2283 211.729C90.2283 204.768 84.5464 199.084 77.5877 199.084C70.629 199.084 64.9472 204.768 64.9472 211.729C64.9472 211.856 64.9472 211.92 64.9472 212.048C64.3088 211.92 63.6704 211.792 63.032 211.792C61.7551 211.792 60.4783 212.112 59.393 212.686C57.5416 210.196 54.6049 208.535 51.2214 208.535C45.6033 208.535 41.0706 213.07 41.0706 218.689C41.0706 219.775 41.2621 220.861 41.5813 221.819C41.4537 221.819 41.3898 221.819 41.2621 221.819C38.517 221.819 36.2825 224.054 36.2825 226.8C36.2825 227.119 36.2825 227.438 36.3464 227.758C36.2825 227.758 36.2825 227.758 36.2187 227.758C34.6865 227.758 33.4097 228.971 33.3458 230.568C32.899 230.504 32.4521 230.44 32.0052 230.44C30.2176 230.44 28.4939 231.079 27.3448 232.228C11.8314 246.852 140.024 243.148 130.32 232.931C128.086 230.568 124.958 229.099 121.447 229.099L121.574 229.035Z" fill="#FEFEFE"/>
<path fill-rule="evenodd" clip-rule="evenodd" d="M237.702 298.963C242.298 298.963 246.703 299.794 250.725 301.326C252.577 299.283 255.194 298.005 258.195 298.005C259.599 298.005 260.876 298.261 262.089 298.772C262.727 290.15 269.941 283.317 278.815 283.317C282.646 283.317 286.157 284.595 288.966 286.766C290.754 284.275 293.69 282.679 297.01 282.679C297.585 282.679 298.095 282.743 298.606 282.806C298.606 282.806 300.011 274.249 319.993 275.207C333.016 275.846 341.699 286.83 344.061 299.538C346.487 312.438 337.166 320.293 320.312 320.293H226.146C215.23 320.293 199.652 322.081 210.442 310.65C217.273 303.434 226.913 298.963 237.638 298.963H237.702Z" fill="#FEFEFE"/>
<path fill-rule="evenodd" clip-rule="evenodd" d="M317.567 574.014C314.056 574.014 311.183 570.821 311.183 566.926V566.351C311.183 562.455 314.056 559.262 317.567 559.262C321.078 559.262 323.951 562.455 323.951 566.351V566.926C323.951 570.821 321.078 574.014 317.567 574.014ZM359 526.182H-1V536.783C-1 542.595 3.3412 547.384 8.64001 547.384H56.7762C59.7129 547.384 62.1389 550.066 62.1389 553.259C62.1389 556.516 59.7129 559.135 56.7762 559.135H44.9018C41.199 559.135 38.1984 562.455 38.1984 566.543C38.1984 570.566 41.199 573.887 44.9018 573.887H300.968C304.607 573.887 307.672 570.566 307.672 566.543C307.672 562.455 304.671 559.135 300.968 559.135H291.648C288.711 559.135 286.285 556.452 286.285 553.259C286.285 550.002 288.711 547.384 291.648 547.384H349.424C354.723 547.384 359 542.595 359 536.783V526.182Z" fill="#AB5D29"/>
<path fill-rule="evenodd" clip-rule="evenodd" d="M301.48 455.552C285.519 455.552 272.623 468.452 272.623 484.417C272.623 485.055 272.623 485.758 272.687 486.397C262.6 487.929 254.429 495.337 251.875 505.044C249.13 505.3 246.576 506.321 244.469 507.918C241.15 504.342 236.489 502.17 231.254 502.17C221.295 502.17 213.187 510.281 213.187 520.243C213.187 522.925 213.762 525.416 214.783 527.715H358.937V497.956C355.234 495.848 350.956 494.635 346.36 494.635C345.275 494.635 344.253 494.699 343.232 494.826C341.061 489.59 336.145 485.694 330.336 484.992C330.336 484.8 330.336 484.608 330.336 484.417C330.336 468.452 317.44 455.552 301.48 455.552Z" fill="#A0BB4B"/>
<path fill-rule="evenodd" clip-rule="evenodd" d="M351.083 510.536C349.168 510.536 347.381 510.919 345.721 511.622C344.188 508.429 340.996 506.194 337.23 506.194C336.655 506.194 336.145 506.257 335.57 506.321C334.357 499.169 328.164 493.741 320.695 493.741C318.971 493.741 317.248 494.06 315.715 494.571C311.821 488.568 305.118 484.608 297.393 484.608C285.391 484.608 275.623 494.379 275.623 506.385C275.623 508.046 275.815 509.706 276.198 511.239C275.751 511.175 275.24 511.111 274.729 511.111C271.856 511.111 269.303 512.388 267.579 514.432C265.664 513.154 263.302 512.388 260.812 512.388C256.088 512.388 251.938 515.134 249.959 519.094C249.576 519.03 249.193 519.03 248.746 519.03C244.213 519.03 240.51 522.734 240.51 527.268C240.51 527.395 240.51 527.523 240.51 527.715H359V513.091C356.765 511.494 354.084 510.536 351.147 510.536H351.083Z" fill="#89A342"/>
<path fill-rule="evenodd" clip-rule="evenodd" d="M62.9046 459.319C47.9019 459.319 35.7083 471.517 35.7083 486.524C35.7083 487.163 35.7083 487.801 35.7721 488.376C26.2598 489.845 18.5989 496.806 16.1729 505.938C13.5554 506.193 11.1933 507.151 9.21421 508.684C6.59673 505.874 3.02163 503.958 -0.936523 503.384V527.268H128.342C129.044 525.033 129.363 522.67 129.363 520.243C129.363 506.896 118.574 496.103 105.231 496.103C104.21 496.103 103.252 496.167 102.295 496.295C100.252 491.314 95.6551 487.738 90.1647 487.035C90.1647 486.843 90.1647 486.652 90.1647 486.46C90.1647 471.453 77.9711 459.255 62.9684 459.255L62.9046 459.319Z" fill="#A0BB4B"/>
<path fill-rule="evenodd" clip-rule="evenodd" d="M109.573 511.111C107.785 511.111 106.062 511.494 104.53 512.133C103.125 509.131 100.061 507.024 96.4855 507.024C95.9748 507.024 95.4641 507.088 94.9534 507.151C93.8042 500.446 87.9947 495.273 80.9722 495.273C79.3123 495.273 77.7163 495.529 76.2479 496.103C72.609 490.484 66.2249 486.716 59.0108 486.716C47.6471 486.716 38.5178 495.912 38.5178 507.215C38.5178 508.812 38.7093 510.345 39.0285 511.813C38.5817 511.749 38.1348 511.686 37.624 511.686C34.9427 511.686 32.5167 512.899 30.8569 514.815C29.0055 513.601 26.8349 512.899 24.4728 512.899C20.0039 512.899 16.1096 515.453 14.2582 519.221C13.8751 519.157 13.4921 519.157 13.1091 519.157C8.8317 519.157 5.38428 522.606 5.38428 526.885C5.38428 527.012 5.38428 527.14 5.38428 527.268H121.894C122.214 526.182 122.341 525.033 122.341 523.883C122.341 516.795 116.595 511.111 109.573 511.111Z" fill="#C8D75E"/>
<path fill-rule="evenodd" clip-rule="evenodd" d="M276.645 10.3734C278.624 10.3734 280.54 10.7565 282.263 11.3951C283.029 10.5011 284.179 9.99019 285.455 9.99019C286.03 9.99019 286.604 10.1179 287.115 10.3095C287.371 6.54167 290.499 3.60404 294.329 3.60404C295.989 3.60404 297.521 4.1788 298.734 5.07286C299.5 3.98721 300.777 3.28474 302.182 3.28474C302.437 3.28474 302.629 3.28474 302.884 3.3486C302.884 3.3486 303.522 -0.355365 312.141 0.0278032C317.759 0.283249 321.526 5.07286 322.547 10.5649C323.568 16.1209 319.546 19.5694 312.269 19.5694H271.538C266.814 19.5694 260.047 20.3357 264.771 15.4184C267.708 12.2892 271.921 10.3734 276.518 10.3734H276.645Z" fill="#CFE0FF"/>
<path fill-rule="evenodd" clip-rule="evenodd" d="M94.8892 410.338C106.891 389.583 191.864 243.212 199.461 242.446C212.165 241.105 204.441 301.071 236.17 346.923C243.703 357.78 264.324 415.255 264.834 424.004C265.792 441.183 269.75 512.324 270.516 526.502C270.708 530.525 269.942 528.609 264.451 528.864C254.109 529.375 235.659 530.525 210.569 530.461C191.162 530.397 163.327 530.461 145.962 530.461C127.64 530.461 112.063 527.907 105.87 527.907C100.507 527.907 87.1645 530.333 86.9729 527.907C86.143 517.753 89.2074 492.016 89.9096 455.232C90.4204 430.007 93.0379 423.876 94.8892 410.402V410.338Z" fill="#F39314"/>
<path d="M94.3149 410.018C102.04 396.607 140.025 331.213 168.115 286.127C183.756 260.966 196.461 242.126 199.397 241.807C205.335 241.169 207.122 251.77 209.803 267.799C213.315 289.128 218.486 320.229 236.681 346.54C240.256 351.713 246.767 367.295 252.641 383.132C259.28 400.95 265.154 419.278 265.409 423.94L271.091 526.438C271.219 528.928 270.963 529.567 269.559 529.694C269.176 529.694 268.793 529.694 268.218 529.631C267.324 529.567 266.111 529.439 264.451 529.503L261.579 529.631C250.853 530.205 233.425 531.099 210.506 531.036C199.333 531.036 185.416 531.036 172.265 531.036H145.898C134.279 531.036 123.809 530.014 116.085 529.247C111.616 528.8 108.041 528.481 105.742 528.481C104.083 528.481 101.593 528.737 98.9753 528.992L95.4002 529.311C90.6121 529.694 86.3347 529.758 86.207 527.906C85.7601 522.797 86.3347 513.921 87.1008 501.659C87.8669 489.334 88.8245 473.624 89.2076 455.168C89.5906 436.84 91.059 428.602 92.5911 420.3C93.1657 417.171 93.7403 413.978 94.251 410.274V410.146L94.3149 410.018ZM169.137 286.766C141.11 331.788 103.253 396.927 95.464 410.529C94.9533 414.233 94.3787 417.362 93.8041 420.491C92.3358 428.73 90.8036 436.968 90.4844 455.168C90.1013 473.688 89.1437 489.398 88.3776 501.723C87.6115 513.921 87.1008 522.797 87.4839 527.779C87.5477 528.545 91.1866 528.417 95.3363 528.034L98.9114 527.715C101.529 527.459 104.083 527.204 105.806 527.204C108.105 527.204 111.68 527.523 116.276 527.97C124.001 528.737 134.407 529.758 145.962 529.758H172.329C185.48 529.758 199.461 529.758 210.57 529.758C233.425 529.822 250.853 528.928 261.579 528.353L264.451 528.226C266.239 528.162 267.516 528.29 268.41 528.353C268.92 528.417 269.303 528.417 269.559 528.417C269.942 528.417 269.942 528.034 269.878 526.501L264.196 424.004C263.941 419.47 258.067 401.269 251.492 383.58C245.618 367.742 239.17 352.287 235.659 347.242C217.273 320.612 212.102 289.384 208.59 267.99C206.037 252.664 204.377 242.51 199.589 243.02C197.099 243.276 184.714 261.923 169.2 286.766H169.137Z" fill="black"/>
<path fill-rule="evenodd" clip-rule="evenodd" d="M87.6749 509.897C86.015 512.58 86.9088 519.668 86.9088 523.436C86.9726 528.992 88.824 529.439 95.4635 528.609C105.231 527.332 105.103 505.491 87.6749 509.961V509.897Z" fill="white"/>
<path d="M87.803 510.089C86.59 512.197 86.8453 516.859 87.0369 520.563C87.1007 521.648 87.1645 522.606 87.1645 523.436C87.2284 526.118 87.6753 527.587 88.8882 528.226C90.1651 528.865 92.208 528.801 95.5277 528.354C98.7836 527.971 100.89 525.161 101.593 521.84C101.912 520.307 101.976 518.711 101.656 517.178C101.337 515.645 100.763 514.113 99.7412 512.899C97.5706 510.153 93.7402 508.62 87.8668 510.089H87.803ZM86.59 520.563C86.3984 516.731 86.1431 511.941 87.4837 509.834L87.5476 509.77H87.6114C93.7402 508.237 97.7622 509.834 99.9966 512.708C101.018 513.985 101.656 515.581 101.976 517.178C102.295 518.774 102.231 520.499 101.912 522.031C101.146 525.48 98.9113 528.417 95.4639 528.865C92.0803 529.312 89.9735 529.375 88.6329 528.673C87.2284 527.907 86.7815 526.374 86.7177 523.5C86.7177 522.67 86.6538 521.712 86.59 520.626V520.563Z" fill="#4F2D11"/>
<path fill-rule="evenodd" clip-rule="evenodd" d="M211.591 411.359L202.142 411.423L192.694 411.359C193.715 406.442 197.482 403.504 202.142 401.652C206.803 403.504 210.569 406.442 211.591 411.359Z" fill="#A9C0EB"/>
<path fill-rule="evenodd" clip-rule="evenodd" d="M172.392 411.359L162.943 411.423L153.495 411.359C154.516 406.442 158.283 403.504 162.943 401.652C167.604 403.504 171.37 406.442 172.392 411.359Z" fill="#A9C0EB"/>
<path fill-rule="evenodd" clip-rule="evenodd" d="M147.431 425.026H216.315V529.822H147.431V425.026Z" fill="#AB5D29"/>
<path d="M147.431 424.834H216.507V530.078H147.176V424.834H147.367H147.431ZM216.124 425.281H147.686V529.694H216.124V425.281Z" fill="black"/>
<path fill-rule="evenodd" clip-rule="evenodd" d="M59.905 412.956C62.9055 416.021 67.1829 423.493 71.5879 421.322C79.4403 417.49 89.9103 416.724 95.2091 409.763C110.02 390.157 183.438 263.839 199.462 243.659C199.462 243.659 203.164 282.615 212.166 303.625C221.168 324.635 243.448 377.13 250.088 389.838C256.727 402.546 265.154 423.94 265.154 423.94C268.027 426.558 268.857 430.645 276.773 435.243C282.2 438.373 285.583 439.522 289.031 438.309C291.904 437.287 297.458 438.437 292.095 430.454C285.456 420.619 274.22 403.377 262.154 381.983C262.473 373.362 264.835 364.804 265.154 356.247C265.537 347.051 263.941 337.791 264.26 328.595C264.388 326.296 264.516 323.997 264.643 321.698C257.046 321.762 235.532 320.293 229.595 319.143C221.231 301.581 217.082 289.256 215.294 272.205C212.358 244.617 211.847 234.782 212.102 226.289C212.166 223.479 212.23 221.308 212.23 219.583C212.23 215.688 195.184 231.334 174.053 262.881C150.751 297.558 108.105 351.84 82.5686 385.176C70.5664 400.822 52.244 405.101 59.905 412.956ZM242.618 344.624C240.575 340.601 235.532 331.213 233.808 327.701C242.235 329.425 243.384 335.236 242.618 344.624Z" fill="#AB5D29"/>
<path d="M60.3512 412.509C61.0535 413.211 61.7557 414.106 62.5857 415.063C65.2031 418.257 68.3314 422.152 71.3319 420.747C74.0132 419.47 76.9499 418.512 79.8228 417.554C85.5685 415.702 91.2503 413.85 94.6977 409.38C101.656 400.184 121.511 367.423 142.323 333.257C165.817 294.557 190.459 254.005 198.95 243.276L199.908 242.063L200.036 243.595C200.036 243.723 203.738 282.423 212.74 303.37L216.507 312.119C226.849 336.322 244.852 378.343 250.662 389.583C256.982 401.78 264.962 421.833 265.728 423.621C266.622 424.451 267.324 425.473 268.154 426.559C269.814 428.858 271.857 431.667 277.156 434.733C279.837 436.265 282.008 437.351 283.859 437.862C285.71 438.373 287.306 438.373 288.902 437.798C289.477 437.607 290.179 437.479 290.818 437.351C291.711 437.16 292.669 437.032 293.244 436.649C294.137 436.01 294.137 434.605 291.648 430.901C288.328 426.048 283.859 419.278 278.688 410.976C273.517 402.738 267.707 393.031 261.706 382.366L261.642 382.239V382.047C261.834 377.705 262.472 373.426 263.174 369.083C263.813 364.805 264.515 360.526 264.643 356.247C264.834 351.713 264.515 347.115 264.196 342.517C263.877 337.855 263.557 333.257 263.749 328.595L264.132 322.401C260.046 322.401 252.896 322.017 246.001 321.506C239.106 320.996 232.531 320.357 229.594 319.782L229.275 319.718L229.147 319.399C224.934 310.586 221.805 303.114 219.507 295.643C217.209 288.171 215.677 280.827 214.783 272.205C213.315 258.411 212.485 249.024 211.974 242.063C211.527 235.102 211.463 230.504 211.591 226.225L211.655 222.649V219.584C211.655 219.52 211.655 219.52 211.655 219.52C211.655 219.52 211.272 219.711 210.633 220.094C209.676 220.669 208.463 221.627 206.867 223.032C200.163 229.099 188.225 242.829 174.563 263.201C155.219 292.002 122.596 334.279 97.4429 366.912C92.3356 373.554 87.5475 379.748 83.0787 385.559C78.0991 392.073 72.0341 396.607 67.1822 400.248C64.8201 402.036 62.7133 403.632 61.1812 405.101C58.5637 407.592 57.7976 409.827 60.3512 412.509ZM61.5642 415.894C60.7981 414.936 60.0959 414.042 59.4574 413.403C56.2016 410.018 57.1592 407.272 60.2874 404.207C61.8834 402.674 63.9902 401.078 66.4161 399.226C71.2042 395.65 77.2053 391.115 82.0572 384.793C86.3346 379.237 91.1865 372.915 96.4214 366.146C121.575 333.512 154.198 291.236 173.542 262.498C187.267 242.063 199.333 228.269 206.037 222.138C207.633 220.669 208.973 219.647 209.995 219.009C211.272 218.243 212.165 218.179 212.612 218.817C212.74 219.009 212.868 219.264 212.868 219.584L212.804 222.649L212.74 226.289C212.612 230.504 212.676 235.038 213.123 241.999C213.57 248.96 214.464 258.284 215.932 272.078C216.826 280.571 218.294 287.851 220.592 295.259C222.891 302.54 225.955 309.948 230.041 318.569C233.041 319.08 239.362 319.718 246.001 320.165C253.279 320.676 260.812 321.059 264.707 321.059H265.345L264.898 328.595C264.707 333.129 265.026 337.791 265.345 342.389C265.664 346.987 265.983 351.649 265.792 356.311C265.6 360.654 264.962 364.932 264.26 369.275C263.621 373.49 262.983 377.704 262.791 381.919C268.792 392.584 274.602 402.163 279.645 410.338C284.753 418.512 289.222 425.281 292.541 430.199C295.606 434.733 295.287 436.649 293.818 437.67C293.052 438.181 291.967 438.373 290.945 438.564C290.307 438.692 289.732 438.756 289.222 438.948C287.37 439.586 285.583 439.586 283.476 439.075C281.433 438.501 279.199 437.415 276.453 435.818C270.963 432.625 268.792 429.688 267.069 427.261C266.303 426.175 265.6 425.217 264.77 424.451L264.643 424.323L264.579 424.196C264.579 424.132 256.152 402.866 249.512 390.157C243.639 378.918 225.7 336.833 215.294 312.63L211.527 303.881C203.547 285.233 199.716 252.728 198.886 245.32C189.629 257.645 165.944 296.664 143.281 333.959C122.469 368.253 102.55 401.014 95.5915 410.21C91.9526 415 86.0153 416.915 80.142 418.831C77.2691 419.789 74.3324 420.683 71.7788 421.96C67.8845 423.876 64.3732 419.534 61.5004 415.957L61.5642 415.894ZM242.043 344.88C241.213 343.219 239.745 340.409 238.213 337.536C236.233 333.832 234.191 329.936 233.233 327.956L232.658 326.807L233.935 327.062C238.404 327.956 240.894 330 242.235 333.002C243.511 335.939 243.639 339.835 243.256 344.624L243.064 346.796L242.043 344.816V344.88ZM239.298 336.961L242.107 342.325C242.235 338.749 242.043 335.811 241.085 333.512C240.064 331.15 238.149 329.553 234.957 328.595C236.042 330.702 237.702 333.896 239.298 336.897V336.961Z" fill="black"/>
<path fill-rule="evenodd" clip-rule="evenodd" d="M172.392 340.409C174.052 342.836 173.414 344.688 175.01 346.157C182.288 352.798 191.417 350.563 196.014 345.199C198.503 342.261 198.759 338.238 198.759 334.662C198.759 331.788 195.503 327.829 193.651 326.424C189.183 323.039 183.373 322.209 174.946 328.531C172.584 330.319 173.031 333.385 172.456 337.025C172.265 338.046 173.35 339.387 172.456 340.409H172.392Z" fill="#A9C0EB"/>
<path fill-rule="evenodd" clip-rule="evenodd" d="M172.775 340.09L172.456 340.409H173.669C181.266 309.373 192.31 346.348 197.928 333.512C196.588 327.573 191.672 322.72 182.798 324.508C175.073 326.104 172.839 331.405 172.903 340.026L172.775 340.09Z" fill="white"/>
<path fill-rule="evenodd" clip-rule="evenodd" d="M181.33 321.57C189.182 319.08 199.142 324.635 200.993 332.49C202.653 339.26 200.291 343.219 196.843 347.306L194.864 349.478C193.97 350.116 191.353 351.457 189.757 351.904C181.138 354.331 163.646 346.285 172.52 327.829C174.052 324.699 177.563 322.72 181.394 321.506L181.33 321.57ZM182.16 319.527C173.541 320.868 166.136 330.511 168.37 340.473C170.285 348.839 178.521 355.672 188.927 353.884C210.314 350.18 206.675 315.695 182.16 319.59V319.527Z" fill="#4F2D11"/>
<path fill-rule="evenodd" clip-rule="evenodd" d="M172.392 340.409L172.711 340.09C172.009 339.515 171.562 339.132 171.371 337.982C171.243 337.152 171.371 335.939 171.69 334.023C171.945 332.427 172.775 330.511 173.477 329.233C179.159 319.335 196.269 321.315 199.078 332.874C203.738 352.096 174.499 356.311 172.328 340.409H172.392ZM181.33 321.57C177.499 322.783 173.988 324.763 172.456 327.892C163.646 346.284 181.074 354.395 189.693 351.968C191.353 351.521 193.97 350.18 194.8 349.541L196.779 347.37C200.291 343.283 202.589 339.324 200.929 332.554C199.014 324.699 189.118 319.143 181.266 321.634L181.33 321.57Z" fill="#AB5D29"/>
<path fill-rule="evenodd" clip-rule="evenodd" d="M182.671 324.571C201.504 320.74 204.058 350.244 185.097 349.158C175.266 348.583 172.967 344.113 172.967 336.769C172.967 332.107 174.627 326.551 182.607 324.571H182.671ZM199.142 332.937C196.333 321.378 179.224 319.335 173.542 329.297C172.84 330.574 171.754 332.49 171.435 334.087C167.477 357.141 204.441 355.033 199.142 333.001V332.937Z" fill="black"/>
<path fill-rule="evenodd" clip-rule="evenodd" d="M138.365 429.304C137.918 461.874 140.089 496.295 140.217 529.311C141.813 529.439 143.409 529.567 145.005 529.695C144.494 515.326 145.196 497.764 145.069 483.267C144.941 468.898 144.749 454.657 144.622 440.289C144.494 424.451 142.196 411.615 151.389 403.057C178.585 377.704 219.571 396.48 219.444 421.066C219.316 438.373 219.316 521.137 220.657 530.333C222.253 530.333 223.785 530.397 225.381 530.397C225.572 501.34 224.934 469.409 224.87 440.289C224.87 433.2 225.445 425.153 225.062 418.32C223.912 373.426 141.047 355.034 138.302 429.368L138.365 429.304Z" fill="#AB5D29"/>
<path d="M139.003 429.368C138.748 447.569 139.323 466.408 139.897 485.183C140.344 499.808 140.791 514.368 140.855 528.801L144.43 529.056C144.175 520.626 144.302 511.047 144.43 501.723C144.494 495.337 144.622 489.079 144.558 483.267C144.494 476.69 144.43 470.112 144.366 463.598C144.302 455.871 144.175 448.08 144.111 440.289C144.111 437.606 143.983 435.052 143.919 432.498C143.536 420.045 143.217 409.891 151.069 402.547C160.39 393.861 171.371 390.285 181.777 390.349C187.906 390.413 193.843 391.69 199.142 393.925C204.441 396.16 209.101 399.353 212.676 403.185C217.4 408.23 220.209 414.425 220.209 421.002C220.146 431.859 220.146 468.324 220.401 496.359C220.592 512.324 220.848 525.544 221.359 529.695L224.87 529.758C224.934 512.771 224.806 494.826 224.614 477.073C224.487 464.62 224.359 452.231 224.359 440.289C224.359 437.606 224.423 434.733 224.551 431.859C224.678 427.197 224.806 422.535 224.551 418.32C224.104 402.355 213.187 389.774 199.27 383.707C193.588 381.217 187.331 379.812 181.139 379.684C174.946 379.556 168.817 380.77 163.135 383.516C150.112 389.774 139.897 404.207 139.003 429.368ZM138.62 485.183C138.046 466.344 137.471 447.569 137.727 429.304C138.684 403.568 149.154 388.816 162.561 382.366C168.37 379.556 174.755 378.343 181.075 378.471C187.459 378.598 193.779 380.003 199.653 382.558C213.953 388.816 225.253 401.78 225.7 418.256C225.955 422.535 225.827 427.261 225.7 431.923C225.636 434.797 225.508 437.606 225.508 440.289C225.508 452.231 225.636 464.62 225.764 477.073C225.955 495.082 226.083 513.218 226.019 530.397V531.036L220.146 530.908L220.082 530.397C219.571 526.949 219.252 513.155 219.06 496.423C218.741 468.388 218.805 431.923 218.869 421.066C218.933 414.808 216.187 408.933 211.719 404.143C208.271 400.439 203.738 397.31 198.567 395.139C193.396 392.967 187.65 391.69 181.713 391.69C171.626 391.626 160.965 395.075 151.899 403.568C144.43 410.529 144.749 420.428 145.132 432.561C145.196 435.052 145.26 437.67 145.324 440.352C145.388 448.144 145.451 455.871 145.579 463.662C145.643 470.24 145.707 476.754 145.771 483.331C145.834 489.143 145.707 495.401 145.643 501.787C145.515 511.366 145.388 521.137 145.707 529.758V530.461L139.642 530.014V529.439C139.578 514.879 139.131 500.127 138.684 485.311L138.62 485.183Z" fill="black"/>
<path fill-rule="evenodd" clip-rule="evenodd" d="M235.148 518.646C234.255 517.816 232.722 517.05 231.126 516.986C227.424 516.986 227.487 518.391 228.126 526.629C228.764 534.995 242.49 525.288 235.148 518.646Z" fill="white"/>
<path d="M235.02 518.774C234.51 518.327 233.871 517.944 233.169 517.625C232.531 517.369 231.828 517.178 231.126 517.178C229.402 517.178 228.509 517.497 228.189 518.774C227.806 520.115 227.998 522.542 228.317 526.629C228.445 528.29 229.147 529.184 230.041 529.503C231.062 529.886 232.403 529.503 233.616 528.737C234.893 527.906 236.042 526.693 236.616 525.224C237.446 523.245 237.255 520.882 234.957 518.774H235.02ZM233.297 517.242C234.063 517.561 234.765 518.008 235.276 518.455C237.702 520.69 237.893 523.245 236.999 525.352C236.361 526.885 235.148 528.226 233.807 529.056C232.467 529.886 230.998 530.269 229.849 529.886C228.764 529.503 227.998 528.481 227.87 526.629C227.551 522.478 227.36 520.051 227.743 518.647C228.126 517.114 229.083 516.731 231.062 516.731C231.828 516.731 232.531 516.922 233.233 517.178L233.297 517.242Z" fill="#4F2D11"/>
<path fill-rule="evenodd" clip-rule="evenodd" d="M120.745 537.933C135.876 537.23 167.605 538.635 188.162 538.891C197.865 539.018 207.505 539.401 217.401 539.338C228.126 539.274 233.872 537.933 243.64 536.783C242.427 526.693 240.447 529.886 228.956 529.758C195.056 529.503 161.157 529.184 127.257 528.928C121.128 528.864 119.341 532.057 120.745 537.933Z" fill="#D19364"/>
<path fill-rule="evenodd" clip-rule="evenodd" d="M240.576 534.931C231.127 535.953 206.293 538.188 179.033 537.486C154.198 536.847 125.725 534.42 120.299 535.123C119.15 535.25 119.405 536.464 119.469 537.933C119.597 541.19 121.703 543.872 125.151 544.191C137.281 545.404 179.097 544.894 182.735 544.957C199.079 545.213 225.509 545.851 241.725 544.894C243.831 544.766 247.023 534.293 240.639 534.995L240.576 534.931Z" fill="#4F2D11"/>
<path fill-rule="evenodd" clip-rule="evenodd" d="M149.984 450.634C148.643 475.093 150.303 499.233 150.303 523.947L194.928 524.075C174.818 520.051 165.242 509.834 157.964 492.91C157.453 491.761 156.879 489.334 156.24 487.291C153.751 479.052 149.218 457.659 150.048 450.634H149.984Z" fill="#4F2D11"/>
<path fill-rule="evenodd" clip-rule="evenodd" d="M178.33 414.999H186.629L197.29 396.288L195.056 395.33L182.351 413.403L168.306 395.33L166.2 396.416L178.33 414.999Z" fill="#AB5D29"/>
<path d="M178.458 414.808H186.566L197.036 396.416L195.248 395.649L182.416 413.786L168.307 395.649L166.583 396.543L178.522 414.808H178.458ZM186.629 415.255H178.202C174.18 408.932 169.967 402.674 165.881 396.416L168.371 395.138L182.352 413.147L195.056 395.202L197.61 396.352C194.035 402.674 190.46 409.06 186.821 415.319H186.693L186.629 415.255Z" fill="#4F2D11"/>
<path fill-rule="evenodd" clip-rule="evenodd" d="M152.729 409.188C154.836 406.697 157.964 401.588 163.008 401.333C164.412 401.269 167.221 402.163 168.626 404.271C169.009 404.845 157.709 412.636 154.964 412.509C153.176 412.445 152.793 409.252 152.793 409.252L152.729 409.188Z" fill="white"/>
<path fill-rule="evenodd" clip-rule="evenodd" d="M172.393 411.359L162.944 411.423L153.496 411.359C154.517 406.442 158.284 403.504 162.944 401.652C167.605 403.504 171.371 406.442 172.393 411.359ZM162.944 399.417C158.603 400.95 151.325 408.486 150.368 413.275H162.944H175.521C174.563 408.486 167.222 401.014 162.944 399.417Z" fill="#AB5D29"/>
<path d="M172.393 411.615L162.945 411.679L153.241 411.615L153.305 411.359C153.815 408.869 155.028 406.889 156.688 405.229C158.348 403.632 160.519 402.419 162.881 401.461H162.945H163.008C165.371 402.355 167.477 403.632 169.201 405.229C170.861 406.825 172.074 408.869 172.585 411.359L172.648 411.615H172.393ZM162.945 411.296L172.138 411.232C171.627 408.933 170.478 407.081 168.882 405.612C167.286 404.079 165.179 402.866 162.945 401.972C160.646 402.866 158.603 404.079 157.007 405.612C155.411 407.144 154.326 408.996 153.751 411.232L162.945 411.296ZM162.945 399.673C160.71 400.503 157.773 402.866 155.284 405.612C153.049 408.102 151.198 410.848 150.623 413.084H175.266C174.755 410.848 172.84 408.102 170.606 405.612C168.116 402.866 165.115 400.503 162.945 399.673ZM154.964 405.356C157.518 402.546 160.582 400.12 162.881 399.29H162.945H163.008C165.307 400.12 168.371 402.546 170.925 405.356C173.287 407.975 175.266 410.912 175.713 413.275L175.777 413.531H150.113L150.176 413.275C150.623 410.912 152.602 407.975 154.964 405.356Z" fill="#4F2D11"/>
<path fill-rule="evenodd" clip-rule="evenodd" d="M130.896 497.444C130.13 494.954 129.491 495.976 125.98 495.784C116.595 495.018 120.553 506.385 125.533 505.236C127.384 504.852 133.577 506.449 130.896 497.381V497.444Z" fill="white"/>
<path d="M130.704 497.445C130.193 495.784 129.747 495.848 128.342 495.912C127.768 495.976 126.938 495.976 125.98 495.912C123.235 495.656 121.703 496.487 121 497.7C120.553 498.402 120.426 499.297 120.553 500.191C120.617 501.085 120.937 501.979 121.447 502.745C122.341 504.278 123.873 505.363 125.533 504.98C125.852 504.916 126.299 504.916 126.81 504.852C127.512 504.852 128.406 504.789 129.172 504.597C130.896 504.086 132.236 502.49 130.704 497.381V497.445ZM128.342 495.529C130.002 495.401 130.513 495.401 131.087 497.381C132.683 502.809 131.215 504.533 129.236 505.108C128.406 505.363 127.512 505.363 126.746 505.427C126.299 505.427 125.852 505.427 125.533 505.491C123.746 505.874 122.022 504.725 121 503.064C120.49 502.234 120.17 501.276 120.043 500.318C119.915 499.36 120.107 498.402 120.553 497.572C121.32 496.231 123.043 495.337 125.916 495.593C126.874 495.656 127.64 495.593 128.278 495.593L128.342 495.529Z" fill="#4F2D11"/>
<path fill-rule="evenodd" clip-rule="evenodd" d="M211.59 478.989C222.635 460.149 194.481 471.197 211.59 478.989V478.989Z" fill="#4F2D11"/>
<path fill-rule="evenodd" clip-rule="evenodd" d="M87.9302 491.378C86.7811 494.06 84.0359 504.661 88.3771 505.427C93.4844 506.385 103.699 507.151 109.317 505.747C114.871 504.405 114.36 492.144 109.189 490.228C105.423 488.823 89.8455 486.907 87.9302 491.378Z" fill="white"/>
<path d="M88.1216 491.442C87.7385 492.399 87.0363 494.507 86.6532 496.742C86.334 498.53 86.1425 500.382 86.2702 501.979C86.3979 503.511 86.9086 504.661 87.9301 505.108C88.0577 505.172 88.2493 505.236 88.3769 505.236C91.1859 505.747 95.6548 506.257 100.06 506.321C103.443 506.385 106.827 506.194 109.253 505.555C110.785 505.172 111.807 503.958 112.445 502.298C112.828 501.276 113.02 500.127 113.083 498.913C113.147 497.7 113.02 496.487 112.7 495.337C112.126 493.038 110.913 490.995 109.125 490.356C106.891 489.526 100.379 488.504 95.1441 488.759C91.7605 488.951 88.8877 489.653 88.1216 491.378V491.442ZM86.2702 496.678C86.7171 494.379 87.3555 492.272 87.7385 491.314C88.5046 489.462 91.5052 488.632 95.0803 488.44C100.379 488.185 106.955 489.206 109.253 490.037C111.168 490.739 112.509 492.846 113.083 495.337C113.403 496.487 113.53 497.764 113.466 499.041C113.403 500.254 113.211 501.468 112.828 502.553C112.19 504.278 111.041 505.619 109.381 506.066C106.891 506.704 103.507 506.896 100.06 506.832C95.6548 506.768 91.1859 506.321 88.3131 505.747C88.1216 505.683 87.93 505.683 87.7385 505.555C86.5894 505.044 86.0148 503.767 85.8233 502.106C85.6318 500.51 85.8871 498.594 86.2063 496.742L86.2702 496.678Z" fill="#4F2D11"/>
<path fill-rule="evenodd" clip-rule="evenodd" d="M267.834 491.953C268.537 491.378 267.132 487.738 267.579 483.523C267.962 480.01 245.873 482.373 243.192 483.395C230.998 488.057 255.704 501.276 267.77 492.016L267.834 491.953Z" fill="white"/>
<path d="M267.708 491.761C267.963 491.569 267.835 490.739 267.644 489.462C267.452 487.929 267.133 485.758 267.389 483.459V483.267C267.261 482.693 266.112 482.309 264.452 482.054C262.664 481.799 260.302 481.799 257.812 481.862C251.684 482.054 244.725 482.948 243.32 483.523C241.278 484.289 240.32 485.311 240.192 486.397C240.065 487.418 240.639 488.504 241.661 489.59C242.746 490.675 244.342 491.697 246.321 492.591C252.45 495.337 261.707 496.423 267.772 491.761H267.708ZM268.027 489.398C268.218 490.803 268.346 491.761 267.963 492.08C261.771 496.806 252.322 495.784 246.129 492.91C244.15 492.016 242.49 490.931 241.341 489.781C240.192 488.632 239.554 487.418 239.745 486.269C239.937 485.055 240.958 483.906 243.129 483.076C244.533 482.501 251.62 481.607 257.749 481.415C260.238 481.351 262.664 481.352 264.452 481.607C266.303 481.862 267.58 482.309 267.772 483.14C267.772 483.267 267.772 483.331 267.772 483.459C267.516 485.694 267.772 487.802 268.027 489.334V489.398Z" fill="#4F2D11"/>
<path fill-rule="evenodd" clip-rule="evenodd" d="M125.214 474.391C123.171 478.478 121.448 481.224 123.235 487.354C125.087 493.804 132.748 492.783 139.004 492.272L138.557 473.433C135.174 472.155 127.13 470.623 125.214 474.327V474.391Z" fill="white"/>
<path d="M125.406 474.454L125.087 475.029C123.171 478.733 121.767 481.543 123.427 487.227C125.15 493.102 131.79 492.591 137.727 492.144L138.812 492.08L138.365 473.624C136.323 472.858 132.811 472.091 129.938 472.283C127.896 472.411 126.172 473.049 125.47 474.518L125.406 474.454ZM124.704 474.838L125.023 474.263C125.853 472.666 127.704 471.964 129.875 471.836C132.939 471.644 136.578 472.475 138.621 473.241L138.749 473.305C138.94 479.691 139.068 486.077 139.195 492.463L137.727 492.591C131.662 493.038 124.831 493.613 123.044 487.418C121.32 481.543 122.788 478.669 124.704 474.901V474.838Z" fill="#4F2D11"/>
<path fill-rule="evenodd" clip-rule="evenodd" d="M253.471 527.779C257.621 527.842 266.048 528.417 269.431 528.289C269.367 528.162 269.942 528.353 269.942 527.715C270.133 524.649 270.325 516.283 267.835 515.134C263.685 513.154 256.025 515.262 250.726 516.028C240.32 517.497 232.978 527.523 253.471 527.779Z" fill="white"/>
<path d="M253.47 527.587C255.194 527.587 257.748 527.715 260.301 527.843C263.749 528.034 267.324 528.162 269.239 528.098C269.367 528.034 269.303 528.034 269.431 528.034C269.558 528.034 269.686 527.97 269.686 527.715C269.814 525.863 269.877 521.967 269.431 519.03C269.111 517.242 268.601 515.773 267.707 515.326C264.515 513.793 259.152 514.751 254.492 515.581C253.215 515.837 251.938 516.028 250.725 516.22C246.767 516.795 243.256 518.583 241.596 520.626C240.957 521.393 240.638 522.159 240.574 522.925C240.574 523.692 240.894 524.394 241.596 525.033C243.256 526.438 246.895 527.523 253.343 527.587H253.47ZM260.301 528.29C257.748 528.162 255.194 528.034 253.47 528.034C246.895 527.97 243.192 526.885 241.468 525.352C240.638 524.65 240.255 523.819 240.255 522.925C240.255 522.095 240.638 521.201 241.34 520.371C243.064 518.263 246.639 516.411 250.725 515.837C251.81 515.709 253.151 515.453 254.428 515.198C259.152 514.368 264.579 513.41 267.898 514.943C268.92 515.453 269.494 516.986 269.814 518.966C270.324 521.967 270.197 525.863 270.069 527.715C270.069 528.226 269.814 528.353 269.558 528.417V528.481H269.303C267.388 528.545 263.749 528.353 260.174 528.226L260.301 528.29Z" fill="#4F2D11"/>
<path fill-rule="evenodd" clip-rule="evenodd" d="M137.918 525.161C134.087 526.374 129.235 526.693 125.277 526.31C118.255 525.671 114.935 515.645 122.468 514.368C126.49 513.665 131.598 513.346 135.556 513.985C143.344 515.198 139.961 524.458 137.918 525.097V525.161Z" fill="white"/>
<path d="M137.982 525.416C136.13 525.991 134.024 526.374 131.917 526.565C129.619 526.757 127.32 526.757 125.213 526.565C122.404 526.31 120.17 524.586 118.957 522.542C118.446 521.648 118.063 520.626 117.936 519.668C117.808 518.711 117.936 517.753 118.382 516.922C119.021 515.645 120.298 514.623 122.341 514.24C124.447 513.857 126.937 513.602 129.363 513.538C131.534 513.474 133.641 513.602 135.492 513.857C137.535 514.176 138.812 515.007 139.578 516.156C140.216 517.114 140.535 518.263 140.535 519.349C140.535 520.499 140.344 521.648 139.961 522.606C139.45 524.075 138.62 525.16 137.918 525.416H137.982ZM131.917 526.182C134.024 525.991 136.066 525.608 137.854 525.033C138.429 524.841 139.195 523.819 139.642 522.478C139.961 521.52 140.216 520.435 140.216 519.413C140.216 518.327 139.961 517.306 139.322 516.411C138.62 515.39 137.407 514.623 135.492 514.304C133.641 513.985 131.534 513.921 129.427 513.985C127.001 514.049 124.575 514.304 122.468 514.687C120.553 515.007 119.34 515.964 118.766 517.114C118.382 517.88 118.255 518.774 118.382 519.668C118.51 520.562 118.829 521.52 119.34 522.414C120.489 524.394 122.596 525.991 125.277 526.246C127.384 526.438 129.682 526.438 131.917 526.246V526.182Z" fill="#4F2D11"/>
<path fill-rule="evenodd" clip-rule="evenodd" d="M239.681 474.327C242.171 469.282 237.894 468.835 234 468.771C230.169 468.771 224.359 468.068 225.253 472.411L225.509 475.923C227.36 477.52 230.233 477.328 232.914 477.392C237.447 477.456 238.596 478.094 239.745 474.327H239.681Z" fill="white"/>
<path d="M239.49 474.263C240.639 471.836 240.256 470.559 239.107 469.856C237.894 469.154 235.915 469.026 233.999 469.026H232.659C231.063 468.962 229.339 468.962 227.934 469.218C226.211 469.537 224.998 470.431 225.381 472.475C225.508 473.369 225.572 474.965 225.636 475.923C227.168 477.264 229.53 477.264 231.829 477.264H232.786L234.446 477.328C237.511 477.456 238.404 477.456 239.426 474.391L239.49 474.263ZM239.362 469.537C240.703 470.367 241.213 471.836 239.873 474.454C238.787 477.839 237.766 477.775 234.51 477.711L232.85 477.648H231.893C229.467 477.648 227.041 477.648 225.381 476.115L225.317 476.051L225.062 472.475C224.615 470.112 225.955 469.154 227.934 468.771C229.339 468.515 231.126 468.515 232.722 468.579H233.999C235.978 468.579 238.085 468.707 239.362 469.473V469.537Z" fill="#4F2D11"/>
<path fill-rule="evenodd" clip-rule="evenodd" d="M230.998 316.972C242.106 317.675 253.279 318.377 264.387 319.08C270.899 319.527 270.516 304.455 265.089 304.2C253.789 303.561 242.489 302.986 231.19 302.348C226.976 302.092 224.359 316.525 230.998 316.908V316.972Z" fill="#AB5D29"/>
<path d="M231.063 316.333L264.452 318.441C266.303 318.569 267.516 317.164 268.154 315.248C268.41 314.354 268.601 313.396 268.665 312.374C268.729 311.352 268.665 310.33 268.474 309.373C268.027 306.946 266.877 304.902 265.154 304.838L231.254 302.986C230.041 302.923 228.892 304.711 228.254 306.946C227.998 307.84 227.807 308.862 227.743 309.82C227.679 310.778 227.743 311.799 227.871 312.693C228.254 314.673 229.275 316.206 231.126 316.333H231.063ZM264.388 319.718L230.999 317.611C228.381 317.419 227.041 315.503 226.594 312.949C226.402 311.927 226.338 310.841 226.466 309.82C226.53 308.734 226.721 307.648 227.041 306.69C227.871 303.88 229.403 301.709 231.318 301.837L265.218 303.689C267.644 303.817 269.176 306.307 269.75 309.245C269.942 310.33 270.006 311.416 270.006 312.566C269.942 313.651 269.75 314.801 269.431 315.759C268.665 318.249 267.005 320.037 264.515 319.846L264.388 319.718Z" fill="black"/>
<path fill-rule="evenodd" clip-rule="evenodd" d="M251.875 361.93C253.024 362.888 258.195 373.489 260.494 372.468C261.707 371.893 263.749 357.205 262.345 355.48C261.451 354.395 257.174 354.076 254.556 354.203C250.279 354.395 249.704 360.079 251.875 361.93Z" fill="#F39314"/>
<path fill-rule="evenodd" clip-rule="evenodd" d="M262.983 350.946C263.621 348.584 263.302 345.646 263.11 343.347C262.727 338.877 258.258 337.152 255.705 336.705C247.788 335.173 260.876 358.865 262.983 350.946Z" fill="#F39314"/>
<path fill-rule="evenodd" clip-rule="evenodd" d="M258.386 291.044C252.576 285.425 242.873 287.787 237.765 292.258C236.105 293.918 233.807 296.409 233.871 299.793L263.046 301.134C263.046 297.239 261.578 292.769 258.386 291.044Z" fill="#AB5D29"/>
<path d="M257.94 291.491C255.45 289.065 252.131 288.234 248.811 288.426C244.853 288.681 240.895 290.406 238.213 292.705C237.383 293.471 236.426 294.493 235.723 295.706C235.085 296.728 234.638 297.877 234.51 299.218L262.409 300.496C262.345 298.708 261.962 296.792 261.196 295.195C260.494 293.663 259.472 292.385 258.132 291.619L258.004 291.491H257.94ZM248.747 287.149C252.322 286.957 255.961 287.851 258.706 290.533C260.302 291.427 261.451 292.896 262.281 294.62C263.175 296.6 263.622 298.963 263.622 301.07V301.709L233.234 300.304V299.729C233.234 297.941 233.808 296.345 234.638 295.004C235.468 293.663 236.49 292.641 237.319 291.747C240.192 289.256 244.47 287.34 248.683 287.149H248.747Z" fill="black"/>
<path fill-rule="evenodd" clip-rule="evenodd" d="M256.726 334.917C263.812 335.492 263.749 333.64 262.982 328.787C260.557 312.63 245.299 333.959 256.726 334.917Z" fill="#F39314"/>
<path fill-rule="evenodd" clip-rule="evenodd" d="M39.093 494.698V498.019C39.093 497.636 38.4546 496.103 38.1993 495.656C37.1778 493.804 34.7519 491.633 32.7728 491.058C32.5174 491.378 32.5813 492.719 32.5813 493.102C32.6451 496.997 34.3688 499.743 37.6247 501.659C38.0716 501.915 38.7738 502.234 39.093 502.426C39.1569 503.511 39.1569 509.067 39.093 510.472C38.7738 509.578 38.5823 508.876 38.1354 508.109C37.3693 506.704 36.2202 505.619 34.8795 504.725C34.3688 504.405 33.2197 503.639 32.6451 503.575C32.0067 509.897 34.8157 512.899 39.0292 514.942V523.053C38.4546 521.137 37.8162 519.988 36.6671 518.838C35.8372 518.008 33.6666 516.347 32.6451 516.156C32.262 518.966 32.7728 521.52 33.9858 523.5C34.5603 524.33 35.3903 525.16 36.1564 525.799C37.0501 526.501 37.9439 526.948 38.9654 527.523V533.335H39.4761V529.247C39.923 528.992 40.306 528.864 40.8168 528.545C43.945 526.757 46.2433 523.564 46.0517 519.604L45.9879 517.88C45.0941 517.944 42.732 519.732 42.0297 520.435C41.1998 521.265 40.5614 522.159 40.0507 523.308C39.9868 523.5 39.923 523.691 39.7953 523.883C39.7315 524.139 39.6676 524.266 39.4761 524.458V516.667C41.519 515.645 43.115 514.751 44.4557 512.707C45.7325 510.791 46.2433 508.045 45.8602 505.299C44.9664 505.427 42.6681 507.151 41.9021 507.854C41.3275 508.429 40.9444 508.94 40.4976 509.642C39.923 510.6 39.923 510.919 39.6676 511.686L39.4761 511.941C39.4123 510.6 39.4123 505.108 39.4761 504.086C40.5614 503.384 40.7529 503.575 42.2851 502.426C43.115 501.787 43.8173 501.085 44.4557 500.127C45.7964 498.083 46.2433 495.656 45.8602 492.783C45.0303 492.783 42.6043 494.635 41.9021 495.273C41.3913 495.784 40.9444 496.295 40.4976 497.061C39.923 498.083 39.6676 499.105 39.5399 499.233C39.4761 499.36 39.5399 499.296 39.4123 499.36V494.635C39.4123 494.124 39.7953 493.804 40.1783 493.166C41.7744 490.356 42.1574 487.418 40.8806 484.353C40.6252 483.714 39.7315 481.99 39.2207 481.543C39.0292 481.671 39.093 481.607 38.9654 481.798C38.9015 481.926 38.8377 481.99 38.71 482.118C38.2631 482.756 37.8801 483.523 37.5609 484.289C37.114 485.311 36.7948 486.588 36.7309 487.865C36.6671 491.633 38.9015 493.932 38.9015 494.571L39.093 494.698Z" fill="#EB8807"/>
<path fill-rule="evenodd" clip-rule="evenodd" d="M290.946 540.168C291.776 533.59 294.202 519.221 292.733 515.517C288.903 516.986 288.137 531.866 287.69 533.59L287.115 534.995C287.051 535.123 286.988 535.314 286.86 535.442C287.051 528.353 286.988 522.159 286.222 515.198C285.583 515.773 285.902 515.326 285.392 516.22C284.179 518.263 284.115 524.075 283.987 526.374L283.923 538.316L280.284 521.329C280.157 520.69 279.837 518.71 279.71 518.263C275.624 506.704 280.923 539.146 281.178 540.296H291.01L290.946 540.168Z" fill="#4F2D11"/>
<path fill-rule="evenodd" clip-rule="evenodd" d="M70.2474 540.168L73.0564 522.798C73.6948 517.689 74.0778 517.306 73.0564 515.581C68.9067 515.581 69.4174 526.757 68.2045 530.525L67.8853 529.759C67.1192 526.821 67.6937 518.391 66.0339 515.837C63.0972 522.989 64.8847 526.565 64.5017 533.973C62.9695 532.249 62.778 527.715 62.2034 525.097C61.7565 522.925 61.3096 517.242 59.3944 516.284C57.926 519.413 61.3735 534.548 62.3949 540.104H70.2474V540.168Z" fill="#4F2D11"/>
<path fill-rule="evenodd" clip-rule="evenodd" d="M99.7416 540.168L99.9332 539.465C100.316 535.506 100.891 531.61 101.465 527.651L102.04 519.093C101.848 516.22 101.21 516.539 101.018 516.284C100.444 518.263 99.5501 519.796 99.1671 522.35C98.8478 524.586 99.0394 527.523 98.4648 529.311C96.4857 526.757 98.0179 518.136 96.4219 515.134C94.3151 518.583 94.762 528.034 95.0174 532.377C94.8897 532.249 94.762 531.93 94.6982 532.057C94.0598 533.271 91.4423 516.986 89.6547 514.687C86.5265 519.157 91.8892 532.696 92.9745 540.295H99.8055L99.7416 540.168Z" fill="#4F2D11"/>
<path fill-rule="evenodd" clip-rule="evenodd" d="M147.431 418.895C170.413 416.149 193.332 416.213 216.315 418.895V422.918H147.431C147.431 421.577 147.431 420.236 147.431 418.895Z" fill="#AB5D29"/>
<path d="M147.367 418.703C158.858 417.362 170.35 416.66 181.841 416.66C193.333 416.66 204.824 417.362 216.315 418.703H216.507V423.174H147.176V418.703H147.367ZM181.841 417.107C170.414 417.107 159.05 417.746 147.622 419.087V422.727H216.06V419.087C204.633 417.746 193.205 417.107 181.841 417.107Z" fill="black"/>
<path fill-rule="evenodd" clip-rule="evenodd" d="M199.014 402.099C200.29 397.501 213.122 406.634 213.25 411.232C213.25 411.87 211.207 412.573 208.398 412.445C208.015 412.445 208.27 409.124 206.1 406.634C203.738 403.951 198.95 402.099 198.95 402.099H199.014Z" fill="white"/>
<path fill-rule="evenodd" clip-rule="evenodd" d="M211.59 411.359L202.142 411.423L192.693 411.359C193.715 406.442 197.481 403.504 202.142 401.652C206.802 403.504 210.569 406.442 211.59 411.359ZM202.142 399.417C197.801 400.95 190.523 408.486 189.565 413.275H202.142H214.719C213.761 408.486 206.419 401.014 202.142 399.417Z" fill="#AB5D29"/>
<path d="M211.591 411.615L202.142 411.679L192.438 411.615L192.502 411.359C193.013 408.869 194.226 406.889 195.886 405.229C197.546 403.632 199.716 402.419 202.078 401.461H202.142H202.206C204.568 402.355 206.675 403.632 208.399 405.229C210.058 406.825 211.271 408.869 211.782 411.359L211.846 411.615H211.591ZM202.142 411.296L211.335 411.232C210.825 408.933 209.675 407.081 208.079 405.612C206.483 404.079 204.377 402.866 202.142 401.972C199.844 402.866 197.801 404.079 196.205 405.612C194.609 407.144 193.524 408.996 192.949 411.232L202.142 411.296ZM202.142 399.673C199.908 400.503 196.971 402.866 194.481 405.612C192.247 408.102 190.395 410.848 189.821 413.084H214.463C213.953 410.848 212.037 408.102 209.803 405.612C207.313 402.866 204.313 400.503 202.142 399.673ZM194.162 405.356C196.716 402.546 199.78 400.12 202.078 399.29H202.142H202.206C204.504 400.12 207.569 402.546 210.122 405.356C212.484 407.975 214.463 410.912 214.91 413.275L214.974 413.531H189.31L189.374 413.275C189.821 410.912 191.8 407.975 194.162 405.356Z" fill="#4F2D11"/>
<path fill-rule="evenodd" clip-rule="evenodd" d="M182.352 409.188C185.033 405.867 188.992 400.375 190.268 396.416C186.693 394.947 178.394 394.5 174.563 396.224C174.691 398.779 180.118 407.719 182.352 409.188Z" fill="#A9C0EB"/>
<path fill-rule="evenodd" clip-rule="evenodd" d="M174.563 396.224C177.245 394.628 180.373 393.733 185.033 395.011C186.374 395.394 189.885 394.181 190.46 396.48C190.651 397.054 178.075 400.822 175.585 399.864C173.989 399.226 174.563 396.288 174.563 396.224Z" fill="white"/>
<path fill-rule="evenodd" clip-rule="evenodd" d="M182.351 411.487C185.926 407.081 191.161 399.801 192.885 394.564C188.161 392.648 177.116 392.073 172.009 394.309C172.2 397.693 179.414 409.571 182.351 411.551V411.487ZM182.351 409.188C185.032 405.867 188.991 400.375 190.267 396.416C186.692 394.947 178.393 394.5 174.562 396.224C174.69 398.779 180.117 407.719 182.351 409.188Z" fill="#AB5D29"/>
<path d="M182.288 411.232C184.267 408.741 186.821 405.356 188.928 401.908C190.524 399.417 191.864 396.863 192.567 394.692C190.077 393.734 185.991 393.095 181.905 393.095C178.202 393.031 174.564 393.478 172.138 394.436C172.329 396.16 174.053 399.801 176.16 403.249C178.266 406.761 180.756 410.146 182.224 411.232H182.288ZM189.311 402.163C187.14 405.676 184.523 409.124 182.48 411.679L182.352 411.806L182.224 411.679C180.692 410.721 178.075 407.145 175.904 403.441C173.734 399.801 171.882 396.033 171.818 394.308V394.181L171.946 394.117C174.372 393.031 178.202 392.584 181.969 392.648C186.183 392.712 190.46 393.351 192.95 394.372L193.141 394.436L193.077 394.628C192.311 396.863 190.971 399.481 189.311 402.1V402.163ZM182.352 408.933C183.884 407.081 185.736 404.526 187.332 401.972C188.481 400.12 189.502 398.204 190.077 396.607C188.226 395.905 185.161 395.458 182.097 395.394C179.352 395.33 176.606 395.65 174.819 396.416C174.947 397.693 176.287 400.375 177.819 402.994C179.415 405.612 181.203 408.102 182.352 408.933ZM187.651 402.163C185.991 404.782 184.076 407.4 182.544 409.316L182.416 409.444L182.288 409.316C181.139 408.55 179.16 405.867 177.5 403.121C175.84 400.375 174.5 397.502 174.436 396.224V396.097L174.564 396.033C176.415 395.202 179.288 394.883 182.161 394.947C185.353 395.011 188.545 395.458 190.46 396.224L190.651 396.288L190.588 396.48C190.013 398.204 188.992 400.184 187.779 402.163H187.651Z" fill="#4F2D11"/>
<path fill-rule="evenodd" clip-rule="evenodd" d="M89.144 486.269C92.2084 486.46 96.2304 486.971 99.1032 486.46C102.231 485.949 102.104 479.436 100.061 477.584C98.4648 476.115 89.3355 475.157 88.2502 476.817C86.5265 479.372 86.0158 486.141 89.0802 486.333L89.144 486.269Z" fill="white"/>
<path d="M89.1433 486.077L91.3777 486.205C93.9952 486.396 96.9319 486.588 99.1025 486.269C99.6132 486.205 99.9963 485.949 100.315 485.566C100.826 485.055 101.082 484.225 101.273 483.331C101.401 482.437 101.401 481.415 101.273 480.521C101.082 479.308 100.635 478.286 99.9963 477.711L99.8047 477.584C98.8471 476.945 96.2935 476.37 93.8675 476.179C91.4415 475.987 89.1433 476.115 88.5049 476.817L88.441 476.881C87.7388 477.967 87.228 479.819 87.1003 481.607C87.0365 482.501 87.1003 483.395 87.2919 484.161C87.4834 484.864 87.8026 485.439 88.2495 485.758C88.5048 485.886 88.7602 486.013 89.0794 486.013L89.1433 486.077ZM91.3139 486.652L89.0794 486.524C88.6964 486.524 88.3133 486.396 88.058 486.205C87.4834 485.822 87.1004 485.183 86.9088 484.353C86.7173 483.587 86.6535 482.629 86.7173 481.671C86.845 479.819 87.3557 477.839 88.1218 476.753L88.1856 476.626C88.8879 475.859 91.3777 475.668 93.8675 475.859C96.3573 476.051 98.9748 476.626 99.9963 477.328L100.188 477.52C100.89 478.158 101.401 479.308 101.592 480.585C101.784 481.543 101.784 482.629 101.592 483.523C101.401 484.481 101.082 485.375 100.571 485.949C100.188 486.396 99.6771 486.652 99.1025 486.78C96.868 487.163 93.9313 486.907 91.3139 486.716V486.652Z" fill="#4F2D11"/>
<path fill-rule="evenodd" clip-rule="evenodd" d="M90.1656 464.045C87.8035 465.131 86.782 471.836 88.825 474.71C93.4215 475.732 95.0814 474.391 100.316 476.115C106.062 478.031 106.19 475.54 106.7 470.559C106.637 466.153 106.445 465.003 101.849 464.109C98.3373 463.406 93.23 463.087 90.2295 464.045H90.1656Z" fill="white"/>
<path d="M90.2285 464.237L89.9731 464.364C89.0794 465.003 88.3771 466.663 88.0579 468.452C87.8025 470.304 87.8664 472.347 88.5686 473.816C88.6963 474.071 88.824 474.263 88.9517 474.518C90.9308 474.965 92.3353 474.965 93.7398 474.965C95.5912 474.965 97.4426 474.965 100.379 475.923C103.954 477.073 105.231 476.498 105.87 474.71C106.189 473.752 106.316 472.411 106.508 470.751V470.559C106.508 468.388 106.444 467.047 105.806 466.153C105.231 465.258 104.018 464.811 101.784 464.364C99.8685 463.981 97.5064 463.726 95.272 463.726C93.4206 463.726 91.633 463.854 90.2285 464.301V464.237ZM89.7178 464.045C89.8455 463.981 89.9732 463.917 90.1008 463.854C91.5053 463.407 93.3567 463.279 95.272 463.279C97.5702 463.279 99.9324 463.534 101.848 463.917C104.21 464.364 105.423 464.939 106.125 465.897C106.827 466.919 106.891 468.324 106.891 470.559V470.814C106.7 472.475 106.572 473.816 106.253 474.838C105.55 476.881 104.146 477.584 100.252 476.307C97.3787 475.349 95.5912 475.349 93.7398 475.349C92.2714 475.349 90.8031 475.349 88.7602 474.902H88.6963L88.6325 474.838C88.441 474.582 88.3133 474.327 88.1856 474.008C87.4833 472.475 87.3557 470.304 87.6749 468.388C87.9941 466.472 88.6963 464.748 89.7178 463.981V464.045Z" fill="#4F2D11"/>
<path fill-rule="evenodd" clip-rule="evenodd" d="M236.553 245.447C230.935 261.285 251.428 252.344 244.789 282.295C244.661 282.934 245.044 283.062 243.895 283.7C243.959 282.168 243.767 282.934 243.767 282.04C244.405 251.514 225.955 263.839 231.637 243.532C232.212 242.19 233.68 241.552 235.021 242.127C236.361 242.701 237 244.17 236.425 245.511L236.553 245.447Z" fill="white"/>
<path fill-rule="evenodd" clip-rule="evenodd" d="M240.766 248.768C248.299 233.825 226.849 240.019 237.255 211.218C237.51 210.579 237.063 210.387 238.276 209.94C238.021 211.473 238.276 210.771 238.148 211.601C233.616 241.743 253.534 231.909 245.235 251.323C244.533 252.6 242.936 253.047 241.66 252.281C240.383 251.578 239.936 249.982 240.702 248.704L240.766 248.768Z" fill="white"/>
<path fill-rule="evenodd" clip-rule="evenodd" d="M237.638 512.516C244.086 512.005 244.214 504.789 242.363 503.767C239.554 502.234 234.957 502.426 231.51 502.426C222.444 502.426 223.083 513.601 237.702 512.516H237.638Z" fill="white"/>
<path d="M237.574 512.324C239.362 512.197 240.703 511.494 241.532 510.6C242.299 509.834 242.745 508.876 242.937 507.918C243.128 506.96 243.128 506.002 242.937 505.3C242.809 504.661 242.49 504.214 242.171 504.022C239.681 502.681 235.659 502.681 232.403 502.681H231.446C228.764 502.681 226.913 503.703 226.147 505.044C225.764 505.683 225.636 506.385 225.7 507.152C225.764 507.918 226.083 508.621 226.657 509.323C228.254 511.303 231.829 512.772 237.574 512.324ZM241.852 510.856C240.894 511.877 239.553 512.58 237.574 512.708C231.637 513.155 227.998 511.558 226.338 509.515C225.7 508.748 225.381 507.918 225.253 507.088C225.189 506.258 225.317 505.427 225.764 504.725C226.657 503.256 228.573 502.107 231.446 502.171H232.403C235.723 502.171 239.809 502.171 242.362 503.575C242.809 503.831 243.192 504.406 243.384 505.108C243.575 505.874 243.575 506.896 243.384 507.918C243.128 508.94 242.682 509.962 241.852 510.792V510.856Z" fill="#4F2D11"/>
<path fill-rule="evenodd" clip-rule="evenodd" d="M116.723 472.347C115.83 471.517 114.298 470.75 112.701 470.687C108.999 470.687 109.063 472.091 109.701 480.33C110.339 488.695 124.065 478.988 116.723 472.347Z" fill="white"/>
<path d="M116.596 472.538C116.085 472.091 115.447 471.708 114.744 471.389C114.106 471.133 113.404 470.942 112.702 470.942C110.978 470.942 110.084 471.261 109.765 472.538C109.382 473.88 109.573 476.306 109.893 480.393C110.02 482.054 110.722 482.948 111.616 483.267C112.638 483.65 113.978 483.267 115.191 482.501C116.468 481.671 117.617 480.457 118.192 478.988C119.022 477.009 118.83 474.646 116.532 472.538H116.596ZM114.872 471.006C115.638 471.325 116.34 471.772 116.851 472.219C119.277 474.454 119.469 477.009 118.575 479.116C117.937 480.649 116.724 481.99 115.383 482.82C114.042 483.65 112.574 484.034 111.425 483.65C110.339 483.267 109.573 482.245 109.446 480.393C109.126 476.242 108.935 473.816 109.318 472.411C109.701 470.878 110.659 470.495 112.638 470.495C113.404 470.495 114.106 470.686 114.808 470.942L114.872 471.006Z" fill="#4F2D11"/>
<path fill-rule="evenodd" clip-rule="evenodd" d="M232.531 484.481C231.638 483.651 230.105 482.884 228.509 482.82C224.807 482.82 224.87 484.225 225.509 492.463C226.147 500.829 239.873 491.122 232.531 484.481Z" fill="white"/>
<path d="M232.404 484.609C231.893 484.161 231.254 483.778 230.552 483.459C229.914 483.204 229.211 483.012 228.509 483.012C226.785 483.012 225.892 483.331 225.573 484.609C225.189 485.95 225.381 488.376 225.7 492.463C225.828 494.124 226.53 495.018 227.424 495.337C228.445 495.72 229.786 495.337 230.999 494.571C232.276 493.741 233.425 492.527 234 491.059C234.829 489.079 234.638 486.716 232.34 484.609H232.404ZM230.68 483.076C231.446 483.395 232.148 483.842 232.659 484.289C235.085 486.524 235.276 489.079 234.383 491.186C233.744 492.719 232.531 494.06 231.191 494.89C229.85 495.72 228.382 496.104 227.232 495.72C226.147 495.337 225.381 494.315 225.253 492.463C224.934 488.312 224.743 485.886 225.126 484.481C225.509 482.948 226.466 482.565 228.445 482.565C229.211 482.565 229.914 482.757 230.616 483.012L230.68 483.076Z" fill="#4F2D11"/>
<path fill-rule="evenodd" clip-rule="evenodd" d="M267.197 480.521L266.431 465.45C259.344 464.939 257.365 464.62 257.94 473.113C258.323 479.244 261.068 482.054 267.197 480.521Z" fill="white"/>
<path d="M266.941 480.393L266.175 465.641H265.92C264.132 465.514 262.664 465.386 261.578 465.514C258.578 465.705 257.748 467.238 258.131 473.113C258.323 476.115 259.089 478.286 260.557 479.563C261.961 480.777 264.068 481.096 266.941 480.393ZM266.622 465.45L267.388 480.713L267.196 480.777C264.068 481.543 261.834 481.224 260.238 479.883C258.706 478.541 257.876 476.306 257.684 473.177C257.237 466.919 258.195 465.322 261.515 465.131C262.664 465.067 264.132 465.131 265.92 465.258L266.558 465.322V465.514L266.622 465.45Z" fill="#4F2D11"/>
<path fill-rule="evenodd" clip-rule="evenodd" d="M266.621 501.468C268.984 502.553 270.005 509.259 267.962 512.133C263.366 513.154 261.706 511.813 256.471 513.538C250.725 515.453 250.597 512.963 250.087 507.982C250.151 503.575 250.342 502.426 254.939 501.532C258.45 500.829 263.557 500.51 266.558 501.468H266.621Z" fill="white"/>
<path d="M266.685 501.276C266.813 501.34 266.941 501.404 267.068 501.468C268.09 502.17 268.792 503.895 269.111 505.874C269.43 507.79 269.303 509.898 268.6 511.494C268.473 511.813 268.345 512.069 268.154 512.324L268.09 512.388H268.026C265.983 512.835 264.515 512.835 263.046 512.835C261.259 512.835 259.471 512.835 256.535 513.793C252.64 515.07 251.236 514.368 250.533 512.324C250.214 511.303 250.087 509.961 249.895 508.301V508.046C249.895 505.81 250.023 504.405 250.661 503.384C251.363 502.362 252.576 501.851 254.938 501.404C256.854 501.021 259.216 500.765 261.514 500.765C263.429 500.765 265.281 500.893 266.685 501.34V501.276ZM266.813 501.851L266.558 501.723C265.217 501.34 263.429 501.149 261.514 501.149C259.28 501.149 256.918 501.404 255.002 501.787C252.768 502.234 251.555 502.681 250.98 503.575C250.406 504.469 250.278 505.81 250.278 507.982V508.173C250.406 509.77 250.597 511.111 250.916 512.133C251.491 513.921 252.832 514.496 256.407 513.346C259.344 512.388 261.195 512.388 263.046 512.388C264.451 512.388 265.855 512.388 267.834 511.941C267.962 511.75 268.09 511.494 268.217 511.239C268.856 509.77 268.984 507.726 268.728 505.874C268.473 504.022 267.771 502.426 266.813 501.787V501.851Z" fill="#4F2D11"/>
<path fill-rule="evenodd" clip-rule="evenodd" d="M253.918 351.074C255.577 347.689 252.705 347.434 250.151 347.37C247.597 347.37 243.767 346.923 244.341 349.797L244.469 352.096C245.682 353.182 247.597 353.054 249.385 353.054C252.385 353.118 253.151 353.501 253.918 351.01V351.074Z" fill="#F39314"/>
<path fill-rule="evenodd" clip-rule="evenodd" d="M249.513 324.061C248.747 323.358 247.534 322.784 246.257 322.72C243.256 322.72 243.32 323.869 243.831 330.447C244.342 337.152 255.386 329.361 249.449 323.997L249.513 324.061Z" fill="#F39314"/>
<path fill-rule="evenodd" clip-rule="evenodd" d="M245.427 345.199L245.874 336.769C249.832 336.514 250.917 336.322 250.598 341.048C250.343 344.433 248.874 346.029 245.427 345.199Z" fill="#F39314"/>
<path fill-rule="evenodd" clip-rule="evenodd" d="M240 324.699C241.532 322.209 239.297 321.762 237.318 321.57C235.339 321.379 232.339 320.74 232.594 323.039L232.53 324.891C233.424 325.849 234.892 325.849 236.297 325.977C238.659 326.232 239.234 326.615 240 324.699Z" fill="#F39314"/>
<path d="M333.273 531.994H334.358V515.773H333.273V531.994Z" fill="#C8D75E"/>
<path d="M335.379 511.622L334.23 508.684C334.102 508.365 333.655 508.365 333.527 508.684L332.442 511.813L331.357 509.323C331.165 508.94 330.655 509.067 330.655 509.451V512.899C330.655 514.687 332.059 516.156 333.783 516.22C335.57 516.284 337.039 514.815 337.039 513.027V509.451C337.039 509.067 336.464 508.94 336.336 509.323L335.315 511.622H335.379Z" fill="#F39314"/>
<path d="M340.741 533.526H341.763V517.305H340.741V533.526Z" fill="#C8D75E"/>
<path d="M342.784 512.963L341.635 510.025C341.507 509.706 341.06 509.706 340.932 510.025L339.847 513.154L338.762 510.664C338.57 510.281 338.06 510.408 338.06 510.791V514.24C338.06 516.028 339.464 517.497 341.188 517.561C342.975 517.625 344.444 516.156 344.444 514.368V510.791C344.444 510.408 343.869 510.281 343.741 510.664L342.72 512.963H342.784Z" fill="#F39314"/>
<path d="M341.124 534.165C341.124 534.165 337.166 527.14 346.231 520.882C346.231 520.882 343.614 533.079 341.124 534.165Z" fill="#C8D75E"/>
<path d="M325.866 533.526H326.952V517.305H325.866V533.526Z" fill="#C8D75E"/>
<path d="M324.844 512.963L325.994 510.025C326.121 509.706 326.568 509.706 326.696 510.025L327.781 513.154L328.866 510.664C329.058 510.281 329.569 510.408 329.569 510.791V514.24C329.569 516.028 328.164 517.497 326.44 517.561C324.653 517.625 323.185 516.156 323.185 514.368V510.791C323.185 510.408 323.759 510.281 323.887 510.664L324.908 512.963H324.844Z" fill="#F39314"/>
<path d="M326.505 534.165C326.505 534.165 330.464 527.14 321.398 520.882C321.398 520.882 324.016 533.079 326.505 534.165Z" fill="#C8D75E"/>
<path d="M333.719 532.888C333.719 532.888 329.761 525.863 338.826 519.604C338.826 519.604 336.209 531.802 333.719 532.888Z" fill="#A0BB4B"/>
<path d="M333.719 532.888C333.719 532.888 337.677 525.863 328.612 519.604C328.612 519.604 331.229 531.802 333.719 532.888Z" fill="#C8D75E"/>
<path fill-rule="evenodd" clip-rule="evenodd" d="M13.3638 486.397L13.2999 490.42C13.2999 489.909 12.5338 488.121 12.2146 487.546C11.0016 485.311 8.00111 482.693 5.63899 481.99C5.31979 482.373 5.38363 483.97 5.38363 484.417C5.44747 489.143 7.55423 492.463 11.5124 494.826C12.0231 495.146 12.9169 495.529 13.2999 495.784C13.3638 497.125 13.3638 503.831 13.2999 505.555C12.9169 504.469 12.7254 503.639 12.1508 502.745C11.1932 501.085 9.85251 499.744 8.25648 498.658C7.61807 498.275 6.21356 497.317 5.57515 497.317C4.80906 504.98 8.19264 508.62 13.3638 511.111V520.946C12.6615 518.583 11.8954 517.242 10.4909 515.837C9.5333 514.815 6.85197 512.771 5.57515 512.644C5.12826 516.028 5.70283 519.157 7.23502 521.52C7.93727 522.542 8.95873 523.564 9.85251 524.33C10.9378 525.16 12.0231 525.735 13.2999 526.374V533.462H13.9383V528.481C14.5129 528.162 14.9598 527.97 15.5344 527.651C19.3648 525.48 22.11 521.648 21.8546 516.795L21.727 514.687C20.6417 514.751 17.7688 516.922 16.9389 517.752C15.9174 518.774 15.1513 519.86 14.5767 521.201C14.4491 521.456 14.3852 521.648 14.3214 521.903C14.1937 522.159 14.1937 522.414 13.9383 522.606V513.154C16.4281 511.877 18.3434 510.792 20.0032 508.365C21.5354 506.066 22.2377 502.745 21.727 499.36C20.5778 499.488 17.8326 501.596 16.9389 502.49C16.2366 503.256 15.7259 503.767 15.2152 504.661C14.5129 505.81 14.5129 506.194 14.1937 507.088L14.0022 507.407C13.9383 505.747 13.9383 499.169 14.0022 497.828C15.3428 496.997 15.5344 497.253 17.3858 495.784C18.4072 495.018 19.301 494.124 20.0032 492.974C21.5993 490.484 22.11 487.546 21.727 484.034C20.7055 484.034 17.7688 486.269 16.9389 487.099C16.3643 487.674 15.7897 488.376 15.2152 489.334C14.5129 490.548 14.1937 491.825 14.066 491.952C13.9383 492.08 14.066 492.016 13.9383 492.08V486.333C13.9383 485.758 14.3852 485.311 14.8321 484.545C16.8112 481.16 17.1942 477.584 15.662 473.88C15.3428 473.049 14.2575 471.006 13.6191 470.431C13.4276 470.559 13.4276 470.559 13.2999 470.75C13.2361 470.878 13.1084 471.006 13.0446 471.134C12.47 471.964 12.0231 472.794 11.6401 473.752C11.1293 475.029 10.6824 476.562 10.6186 478.095C10.5548 482.693 13.2999 485.439 13.2999 486.205L13.3638 486.397Z" fill="#EB8807"/>
<path fill-rule="evenodd" clip-rule="evenodd" d="M310.8 499.233C310.672 496.997 310.8 494.507 310.8 492.208V486.907C310.8 485.694 312.46 484.672 312.715 480.074C312.843 478.414 312.843 475.029 312.268 473.688C311.694 472.219 309.523 476.242 309.204 476.945C308.119 479.244 307.352 482.884 309.012 485.375C310.225 487.227 310.225 485.949 310.225 487.674C310.225 489.973 310.225 492.336 310.225 494.635C309.97 494.443 309.842 494.06 309.651 493.677C309.331 493.102 308.246 490.994 308.246 490.675C308.119 489.717 308.119 489.015 307.863 488.057C307.672 487.227 307.416 486.588 307.161 485.886C306.586 484.544 305.82 483.331 304.99 482.118C304.607 481.543 304.224 481.032 303.713 480.457C303.394 480.074 302.692 479.116 302.054 479.244C301.479 480.074 301.607 482.565 301.734 483.65C301.926 484.928 302.309 486.333 302.82 487.354C303.65 489.142 304.607 490.356 306.331 491.058C307.735 491.569 307.672 491.122 307.991 491.825C308.502 492.91 309.076 493.996 309.651 495.082C310.098 495.912 310.161 495.848 310.161 496.997C310.161 500.829 310.289 505.427 310.161 509.067C309.97 508.876 308.182 505.427 308.182 505.044C308.055 503 307.863 501.723 307.161 500.063C306.395 498.275 304.926 495.976 303.65 494.443C303.394 494.187 303.203 493.932 302.947 493.677C302.692 493.421 302.437 493.102 301.99 493.166C301.096 493.74 301.096 503.256 306.586 505.044C307.735 505.427 307.352 505.044 307.863 506.13C308.438 507.215 308.948 508.365 309.523 509.45C309.906 510.281 310.098 510.281 310.098 511.366V518.646C310.098 519.477 310.034 520.243 310.034 521.073C310.034 521.648 310.098 522.989 309.97 523.436C309.715 522.797 309.204 521.903 308.885 521.265C308.502 520.562 308.182 519.732 307.799 519.03C307.033 517.433 307.097 518.008 306.969 516.539C306.586 513.601 305.693 511.749 304.097 509.387C303.586 508.62 301.798 505.874 300.904 505.938C299.819 507.854 300.841 512.133 301.607 513.921C302.692 516.347 303.841 517.625 306.778 518.199C307.225 519.349 309.842 524.202 310.034 524.777C310.161 525.224 310.098 529.758 310.098 530.589H310.672C310.736 529.694 310.608 529.694 310.991 528.928L314.247 522.478C314.63 521.648 314.566 521.967 315.396 521.712C317.822 520.882 319.035 518.838 319.738 516.411C320.184 515.006 320.823 510.855 319.865 509.834C318.78 509.834 317.248 512.516 316.609 513.474C315.141 515.773 313.992 518.136 313.8 520.945C313.737 521.52 313.864 521.903 313.609 522.414C313.417 522.797 313.226 523.181 313.034 523.564C312.779 524.075 310.928 527.906 310.736 528.034C310.608 525.799 310.8 520.626 310.8 518.136C310.8 515.262 310.481 515.837 311.502 513.793C312.077 512.643 312.587 511.622 313.162 510.472C313.737 509.387 313.609 509.195 314.247 509.003C315.333 508.684 316.609 507.918 317.12 506.896C317.375 506.385 317.695 505.938 318.014 505.299C318.525 504.15 318.972 502.873 319.163 501.532C319.291 500.574 319.482 497.7 318.844 497.061C318.142 496.806 316.929 498.722 316.546 499.296C314.439 502.17 312.715 505.236 312.779 509.195C312.843 509.259 312.843 509.259 312.97 509.323C312.97 509.323 313.034 509.323 313.098 509.387C312.779 509.961 311.119 513.601 310.8 513.793C310.672 512.26 310.8 506.002 310.8 503.958C310.8 501.34 310.544 501.404 311.438 499.616C312.013 498.53 312.524 497.444 313.098 496.359C313.673 495.273 313.29 495.592 314.439 495.209C315.077 495.018 315.588 494.698 316.035 494.315C318.525 492.399 320.248 485.63 318.844 483.203C318.205 483.267 317.375 484.225 317.12 484.608C315.907 486.524 314.822 487.61 313.737 490.228C312.843 492.463 312.97 493.23 312.779 495.337C312.779 495.592 311.055 499.105 310.8 499.296V499.233Z" fill="white"/>
</svg>
