<svg width="271" height="118" viewBox="0 0 271 118" fill="none" xmlns="http://www.w3.org/2000/svg">
<path fill-rule="evenodd" clip-rule="evenodd" d="M14.9026 107.663C40.4241 87.685 100.179 88.4014 123.006 105.865C125.994 108.151 125.639 121.141 116.729 112.266C111.929 107.484 105.128 106.98 99.5309 106.039C74.5021 101.829 55.0236 102.177 32.2976 108.806C23.211 111.456 24.0533 114.558 18.7114 117.187C15.4352 119.266 10.5159 111.096 14.9025 107.663H14.9026Z" fill="#5382D8"/>
<path fill-rule="evenodd" clip-rule="evenodd" d="M5.23688 51.0518C4.95262 50.6932 4.61766 50.4672 4.45456 49.9575C2.29791 50.3178 2.52391 53.2451 4.1354 53.1124C4.62881 53.0717 4.74612 52.927 5.14889 52.7971C4.81487 51.8588 4.39365 52.5714 5.23688 51.0517V51.0518ZM13.7433 50.5825C13.5334 49.9927 10.2687 47.045 8.84457 47.1623C7.68151 47.258 6.5641 47.2471 5.91927 48.6359C5.70614 49.0947 5.62054 49.3614 5.88742 49.7651C6.54751 50.7633 7.9809 50.7202 7.86704 49.3284C7.86107 49.2564 7.10118 47.951 8.61724 48.6934C9.07522 48.9178 8.72208 48.9342 9.34051 48.9738C12.3274 49.1642 11.9034 49.5543 13.743 50.5823L13.7433 50.5825ZM3.18852 45.7745C4.65256 45.6538 4.05829 43.5011 2.55072 43.6254C0.9602 43.7564 -0.514861 46.3808 3.10849 48.6464C3.45433 48.8624 3.80986 49.1607 4.27394 49.1611C4.04316 46.3422 7.91203 44.3064 11.7152 47.3008C13.0637 48.3626 15.5842 51.7382 16.6716 53.4301C17.3583 54.4985 17.0683 54.2004 17.5044 54.2124C16.3316 52.2006 18.2031 46.7188 12.9454 44.0779C11.1387 43.1704 9.26155 42.9277 7.30303 43.6015C4.87963 44.4352 6.37964 44.4224 4.83398 46.4254C3.92014 47.6098 2.54222 47.0454 2.08557 46.4474C1.41606 45.5707 1.88651 45.2227 1.95671 44.8332C2.39969 45.1059 2.55364 45.8268 3.18852 45.7746V45.7745ZM4.79761 42.8608C7.0615 42.6741 6.75228 41.752 10.1977 42.153C11.8778 42.3483 13.5508 43.0775 14.6215 43.9888C16.4913 45.5803 17.2841 48.5283 17.4802 51.085C17.5214 51.6232 17.569 52.1607 17.61 52.6987C17.6623 53.3856 17.7953 53.6722 17.8486 54.184C18.0823 54.0467 20.2664 53.5305 20.6782 53.4874L23.4963 62.525C23.8309 62.4053 24.1076 62.0297 24.3759 61.7747C25.279 60.9165 28.8649 56.5314 29.6548 55.5599C29.9424 55.2062 30.0163 54.9949 30.3254 54.6314L34.0646 50.2114C34.5065 49.6885 35.0826 48.7752 35.7463 48.5375C36.6121 49.0212 42.0411 53.8551 42.9692 54.6362L47.3876 58.4984C48.1737 59.2583 49.3114 60.2833 50.1978 60.8547L51.0572 61.6053C51.3517 61.8598 51.7563 62.0216 52.0857 62.2821C53.3317 63.2673 54.4305 64.388 55.631 65.4098C58.3314 67.7084 60.9723 70.1521 63.8122 72.2684C65.1632 73.2749 64.7927 73.5401 64.269 76.7781L62.5001 87.0514C62.1157 89.3962 61.7571 91.5825 61.3753 93.9109C61.0557 95.8601 60.6486 98.0078 60.4678 99.9916C60.428 100.427 60.5284 100.725 60.1115 100.759L54.0326 101.26C53.1772 101.331 54.0239 98.5898 54.1593 97.513C54.5955 94.0404 55.242 90.7777 55.8042 87.3484C56.0355 85.9379 58.004 75.0052 57.9076 73.8259C57.8639 73.2928 55.8754 72.1568 55.336 71.6922C54.8743 71.2947 54.4982 70.9776 54.0338 70.582C53.8035 70.3859 53.6483 70.2358 53.4145 70.0522C53.115 69.8167 52.9809 69.7873 52.6757 69.5374L39.9111 59.517C39.0921 58.7384 38.6653 58.6245 37.8148 57.9569C37.6019 57.7899 36.6374 56.8069 36.5393 56.8151C35.9156 56.8665 35.1843 58.0551 34.6842 58.5556L20.0703 74.6002C19.7014 75.0319 19.2596 75.393 18.8439 75.8047C16.8497 77.7804 18.5688 78.4014 19.5274 82.3702C19.8436 83.68 24.84 98.0748 25.5656 100.223C25.8914 101.186 26.5184 102.541 26.6204 103.519C25.9796 103.313 21.9641 103.887 20.6501 104.018C19.3864 104.144 19.7883 103.803 19.4581 102.651C18.2986 98.6073 16.5887 94.8272 15.4511 90.8537L13.7913 85.874C13.4167 84.7651 11.2109 78.8947 11.1306 77.9125C11.0591 77.0396 13.9685 73.9867 14.6413 73.1909C15.1416 72.599 18.3886 68.9901 18.4528 68.6184C18.3629 68.0758 18.1223 67.4628 17.9298 66.9649C17.7085 66.3919 17.6545 65.76 17.4135 65.1772L16.8565 63.5637C16.239 61.6548 14.248 56.7438 14.1016 54.9561C15.1728 54.8678 15.953 54.4558 16.9406 54.3745C16.6607 53.5875 14.2016 51.7934 13.6052 51.3772C12.5754 50.6582 10.685 49.7702 9.27216 49.5603C9.18683 49.7841 9.29804 51.528 7.13847 51.7059C7.23415 53.3131 5.77223 54.4837 4.25828 54.6085C1.43809 54.841 0.471433 50.1405 4.32145 49.7366C3.96048 49.4704 3.4185 49.3164 3.00246 49.1509C2.10614 48.7942 1.19483 48.2297 0.62657 47.4169C-1.08272 44.9711 1.06398 42.3571 2.78203 42.2156C3.18268 42.1825 3.60098 42.2744 3.91709 42.3876C4.06599 42.441 4.2332 42.5141 4.38091 42.5962C4.54892 42.6893 4.69158 42.8692 4.79788 42.8605L4.79761 42.8608Z" fill="#5382D8"/>
<path fill-rule="evenodd" clip-rule="evenodd" d="M36.9411 80.0731L30.633 80.593L31.4807 90.952L37.7889 90.4321L36.9411 80.0731ZM44.6259 79.4397L38.3176 79.9596L39.1653 90.3187L45.4735 89.7987L44.6259 79.4397ZM36.329 72.5916L30.0206 73.1115L30.501 78.9816L36.8094 78.4617L36.329 72.5916ZM44.0136 71.9582L37.7053 72.4782L38.1857 78.3483L44.494 77.8284L44.0136 71.9582ZM46.867 91.3062L30.6949 92.6389C30.4307 92.6607 30.3443 92.5871 30.3225 92.3219L28.6555 71.9493C28.6337 71.6842 28.707 71.5975 28.9712 71.5756L45.1432 70.2429L46.8668 91.3062H46.867Z" fill="#5382D8"/>
<path fill-rule="evenodd" clip-rule="evenodd" d="M97.0801 60.8568L96.7453 61.4568L95.7372 65.2446L94.7156 72.2132C94.1684 77.9028 93.511 93.8723 94.2779 99.4205C92.9773 99.4204 86.479 99.9869 85.8335 99.5028C85.8176 96.0452 89.2061 80.5671 89.9971 76.4567C93.4676 58.4218 85.807 60.28 79.5194 57.9024C75.4049 56.3465 74.8866 57.1817 72.965 59.732C70.6228 62.8405 69.4364 61.6284 65.5381 61.0676C61.636 60.5062 59.6532 61.4002 56.1586 61.7664L57.4349 61.0748C58.8096 60.5533 60.0922 60.1895 61.5924 59.9864C65.5547 59.4506 70.5244 60.9393 73.0164 57.1486C74.906 54.2744 74.7499 55.6264 77.7949 55.688C77.8369 53.2747 72.1764 53.4245 70.4186 53.3026C63.247 52.8059 60.319 48.761 54.4277 44.8868C53.8694 44.5196 53.5768 44.2826 52.9788 43.8982C52.8047 43.7864 52.4356 43.5761 52.2871 43.4733L51.5991 42.8369C56.7216 44.1743 63.4182 51.6139 70.26 51.9577C72.4549 52.0679 74.7345 51.9072 76.8534 52.2605C79.7041 52.7356 79.2396 53.7287 80.6454 55.2609C81.7655 56.4817 84.0182 56.3978 85.9478 56.9001C88.0776 57.4547 89.0325 58.2384 90.7521 58.9717C88.3596 45.3612 78.5645 47.6405 70.5752 46.9131C70.6579 46.9359 76.6441 46.5575 77.7638 46.5957C80.0249 46.673 82.8689 47.2709 85.0123 46.7852C84.8196 45.4842 83.1486 43.5111 82.4918 42.6859C81.6004 41.5655 80.2527 40.4457 78.9645 39.4545C72.2748 34.3064 70.138 34.2167 64.242 27.1327C62.3493 24.8586 59.9685 21.8734 58.6825 19.226C59.5118 20.1533 60.4917 21.5012 61.2871 22.5776C61.764 23.2225 62.158 23.7334 62.6002 24.2693L65.3887 27.4911C67.8366 29.984 70.5745 32.4185 73.4844 34.4158L84.3248 41.4679L84.9103 40.6771C85.9646 38.8262 87.7181 36.1397 85.7848 34.4862C84.1837 33.1168 81.3547 31.2648 81.3322 28.8053C81.3124 26.6566 82.0807 27.044 81.5907 24.3842C80.6017 19.0144 79.2486 17.7777 77.4707 13.4503C77.7123 14.0689 78.5809 15.2066 78.9965 15.9053C80.6283 18.6475 81.867 21.5566 82.4266 24.8657C83.3933 24.069 84.4523 22.3912 85.2629 21.2788C86.2425 19.9341 86.8959 18.9771 87.7493 17.5688C88.8825 15.6987 91.1491 11.0014 91.5471 8.91455C91.1733 11.6179 89.1126 15.9687 87.8124 18.3808C86.7512 20.3495 83.1041 25.0718 82.7028 26.606C81.507 31.1785 86.3203 31.7396 87.8617 34.2922C89.7024 37.3403 85.6642 40.1733 86.3593 45.0606C88.5415 43.1819 87.4486 43.375 91.3408 40.925C93.2075 39.7502 95.2255 38.7471 97.012 37.5931C96.2511 35.8625 95.0806 34.0872 94.1653 32.0981C93.5318 30.7216 92.2409 27.4333 92.0486 25.9869C93.1848 28.0466 95.2491 34.697 97.2596 35.2531C98.4595 34.5066 98.0132 32.6886 98.3924 31.4347C99.0492 29.2636 102.175 28.2237 103.879 27.1668C104.798 26.597 105.691 25.9227 106.65 25.2504C111.271 22.0106 112.235 19.028 114.639 14.1487C114.279 16.9941 111.907 21.4876 110.479 23.0722C109.405 24.2641 108.274 25.1808 106.981 26.1471C106.316 26.6436 105.747 27.0655 105.028 27.5731L103.163 29.0529C107.97 28.7888 112.108 26.8334 116.836 26.7225L115.956 27.0703C115.7 27.141 115.441 27.1895 115.205 27.2499L110.613 28.6567C108.48 29.3465 106.479 29.6606 104.192 30.1044C95.8401 31.726 101.33 37.4543 98.2125 39.7362C96.8274 40.7501 94.4266 41.3926 92.7325 42.3195C87.5791 45.1394 88.7343 47.8412 91.221 52.176L93.8851 57.4129C94.1902 57.2449 93.9265 57.4268 94.2052 57.1636L94.9246 56.3718C96.5619 54.6802 98.0072 53.1085 100.205 51.8872C105.997 48.6691 99.3237 41.8765 107.845 39.799C110.055 39.2603 112.291 39.1017 114.426 38.5079C121.751 36.47 121.089 31.3363 125.156 25.6358C124.762 26.9059 123.927 28.485 123.375 29.9943C122.812 31.5301 122.381 33.0831 121.774 34.5928C119.646 39.8812 117.612 38.7271 114.897 40.0924C116.189 41.2738 120.24 42.8304 122.381 43.1024C126.49 43.624 127.762 41.8854 130.687 40.986C130.654 41.0275 130.607 41.0774 130.582 41.1035L129.942 41.6747C129.661 41.8833 129.531 41.9656 129.185 42.2221C127.638 43.3688 126.127 44.4099 124.06 44.5955C119.349 45.019 112.423 40.0872 107.256 42.7805C104.576 44.1774 104.931 46.7796 105.877 49.8819C109.986 49.56 109.357 50.6364 112.178 51.4396C113.793 51.8995 117.717 51.334 119.564 51.197C123.346 50.9165 127.191 50.6288 131.003 50.7852C132.062 50.8287 133.521 50.7119 134.475 51.1623C129.297 51.3034 124.603 51.8682 119.566 52.5C117.468 52.7633 114.317 53.3576 112.248 53.2627C109.226 53.124 109.025 51.1051 106.092 51.6389C105.215 53.0513 105.345 53.1766 103.947 54.1448C101.219 56.0349 98.026 57.0265 97.0796 60.8571L97.0801 60.8568Z" fill="#5382D8"/>
<path fill-rule="evenodd" clip-rule="evenodd" d="M65.2572 83.8143L65.2299 85.5676C67.3522 86.0224 73.4669 86.268 75.6702 85.9513L75.7958 85.9502L79.7699 85.6259C80.0125 85.3391 79.9202 85.6462 80.0402 85.1425C80.0844 84.9563 80.0483 84.7969 80.0373 84.6089C79.9856 83.7142 79.9015 84.6825 80.0008 83.8877C79.4256 79.1668 77.763 76.7631 72.7087 76.7329C67.769 76.7033 65.6191 79.0401 65.2571 83.8146L65.2572 83.8143ZM79.292 93.6939C78.1502 95.1825 78.8936 97.592 76.3554 98.1428C74.2585 98.5977 71.391 98.5955 69.2953 98.221C67.2265 97.8513 67.5163 97.488 66.732 95.8298C64.6632 89.6926 60.8737 76.9022 71.163 75.8269C76.174 75.3033 79.3983 77.0623 80.5199 81.1064C81.9747 86.3507 79.7335 89.8086 79.292 93.694V93.6939Z" fill="#5382D8"/>
<path fill-rule="evenodd" clip-rule="evenodd" d="M106.369 87.6859L100.975 89.4962C101.198 90.6986 102.979 95.7021 103.557 96.4581L108.925 94.1564L106.369 87.6859ZM105.799 86.7583C105.66 85.7889 103.863 81.4308 103.332 80.4104C102.595 80.42 98.7563 81.4808 98.1411 81.8501C98.3823 82.9135 100.146 87.9548 100.693 88.6141L105.799 86.7583H105.799ZM100.505 73.1475L95.3146 74.2515L97.7021 80.8742L102.933 79.3474L100.505 73.1474L100.505 73.1475ZM93.6736 69.3654C93.7572 70.2288 94.5654 72.4256 94.9932 73.3116L100.062 72.2649L97.6623 66.245L93.9545 66.9548L92.7918 67.1247C92.869 67.7716 93.2194 69.0148 93.6736 69.3653V69.3654ZM113.021 99.0046C113.312 99.8755 113.702 100.298 113.637 101.21C113.184 101.546 112.885 101.718 112.095 101.652L110.65 98.3906L109.299 95.107L104.163 97.2393C103.517 98.0113 105.55 101.848 106.061 103.698C106.414 104.979 105.606 105.057 104.5 104.991L101.583 96.7352C100.366 92.782 98.841 88.8239 97.4533 84.8743C96.8541 83.1691 93.8564 73.7674 93.2293 73.2077C93.4562 71.6166 89.2094 62.946 89.5626 61.2807C90.698 61.026 90.4814 60.9658 91.2702 63.2646C91.5623 64.116 92.0079 65.2662 92.3453 66.0729C93.0992 66.0846 93.873 66.0176 94.3399 65.6319C94.9932 65.8693 95.295 65.6164 97.1212 65.3757C97.1402 64.8411 96.3701 63.0443 96.0745 62.3386C95.701 61.4465 95.6781 61.6272 95.4355 61.514L95.7998 60.8618L96.6067 60.7944C97.1742 61.4847 104.01 77.7518 104.872 79.8948L113.021 99.0043L113.021 99.0046Z" fill="#5382D8"/>
<path fill-rule="evenodd" clip-rule="evenodd" d="M56.1745 28.0824C55.6997 26.9663 55.9972 25.3657 56.6565 24.7422C57.8121 23.6489 61.52 23.512 62.1215 25.9085C63.0657 29.6706 57.7531 31.7916 56.1745 28.0824Z" fill="#5382D8"/>
<path fill-rule="evenodd" clip-rule="evenodd" d="M56.4153 53.8512C53.1052 55.6149 50.4013 50.5206 52.8547 48.7619C53.7955 48.0875 55.1502 48.2272 56.3741 48.3217C58.9858 48.7372 58.8517 52.553 56.4153 53.8514V53.8512ZM71.7765 48.261C71.8638 49.3166 71.1794 49.7632 70.2246 50.2371C69.4105 50.641 69.5828 50.377 69.4972 50.262C69.5402 48.5529 71.2277 46.8534 71.7765 48.261ZM57.6132 55.9571C59.0635 56.6755 59.649 58.113 58.9615 59.6375C56.6153 59.8915 57.4703 57.3209 57.6132 55.9571ZM72.3991 56.2565C71.4958 57.2275 69.7876 55.1541 69.1884 54.4436C71.242 53.7757 73.9766 55.1392 72.3991 56.2565ZM70.5161 58.2379C69.4468 59.6457 66.0036 57.7988 66.3594 57.6469C67.7596 55.7375 71.7459 56.4262 70.5161 58.2379ZM62.6306 52.4031C62.5227 54.4512 60.4386 54.6451 58.9155 55.2217C59.0576 53.4059 61.2394 50.213 62.6306 52.4031ZM52.645 57.8023C53.8244 56.9955 56.8691 57.9989 56.7348 60.0707C55.0579 61.3918 52.6263 58.9689 52.645 57.8023ZM62.7664 55.8531C63.6361 56.8219 63.8354 58.9757 62.3915 59.2602C60.8915 59.0198 62.0607 56.4719 62.7664 55.8531ZM65.6971 56.586C61.9868 55.3464 65.5204 49.137 65.6971 56.586V56.586Z" fill="#5382D8"/>
<path fill-rule="evenodd" clip-rule="evenodd" d="M111.192 59.4317L110.977 59.646C109.38 51.1854 114.21 54.762 112.284 58.3542C111.96 58.9592 111.738 59.1189 111.192 59.4316L111.192 59.4317Z" fill="#5382D8"/>
<path fill-rule="evenodd" clip-rule="evenodd" d="M115.847 56.8166C116.748 55.7239 116.953 53.5004 118.953 53.7994C120.193 54.356 119.449 55.4621 118.822 56.0883C118.326 56.5825 116.304 57.6666 115.847 56.8166Z" fill="#5382D8"/>
<path fill-rule="evenodd" clip-rule="evenodd" d="M106.657 55.9367C108.353 49.6386 112.421 56.668 106.49 56.185L106.657 55.9367Z" fill="#5382D8"/>
<path fill-rule="evenodd" clip-rule="evenodd" d="M126.288 60.1476C125.164 60.5546 123.552 60.3631 122.532 58.7581C121.983 57.893 121.945 56.5067 122.44 55.5741C125.249 50.2924 131.88 58.1239 126.288 60.1476Z" fill="#5382D8"/>
<path fill-rule="evenodd" clip-rule="evenodd" d="M113.962 50.4666C111.55 49.9401 110.861 46.3613 112.595 45.1328C117.746 41.4835 120.563 51.9081 113.962 50.4666Z" fill="#5382D8"/>
<path fill-rule="evenodd" clip-rule="evenodd" d="M126.319 36.4845C124.918 36.452 124.085 35.6164 123.638 34.6865C122.758 32.8522 123.286 29.9613 127.74 30.6931C130.855 31.1089 129.973 36.5693 126.319 36.4845Z" fill="#5382D8"/>
<path fill-rule="evenodd" clip-rule="evenodd" d="M92.8086 18.5556C91.8474 18.4215 90.818 17.4701 90.4815 16.6119C89.2167 13.3874 92.091 12.2984 94.7454 12.7975C97.8517 13.3358 96.795 19.1118 92.8086 18.5556Z" fill="#5382D8"/>
<path fill-rule="evenodd" clip-rule="evenodd" d="M71.1198 63.0072C72.8955 62.9727 73.6704 65.726 73.7577 66.496C73.8121 66.9774 73.7875 66.803 73.677 67.0287C72.5056 66.8556 71.4386 66.2881 70.9174 65.5852C70.3157 64.7736 69.7049 63.4436 71.1198 63.0072Z" fill="#5382D8"/>
<path fill-rule="evenodd" clip-rule="evenodd" d="M76.2951 63.1933C76.1513 63.3021 76.1672 63.5488 75.1354 63.5507C70.5068 63.5586 73.9254 58.8038 76.2951 63.1933Z" fill="#5382D8"/>
<path fill-rule="evenodd" clip-rule="evenodd" d="M59.5003 65.5387C59.5123 66.0553 59.7892 65.5889 59.3517 65.9138C53.4855 64.9739 59.3784 60.2048 59.5003 65.5387Z" fill="#5382D8"/>
<path fill-rule="evenodd" clip-rule="evenodd" d="M61.8795 67.1302C60.2308 62.7967 67.1187 61.8005 67.8722 65.1136C68.8011 69.1978 63.2427 70.7132 61.8795 67.1302Z" fill="#5382D8"/>
<path fill-rule="evenodd" clip-rule="evenodd" d="M73.6499 45.9287C71.8661 45.9494 71.4899 44.016 70.9565 42.6782C72.7342 42.803 75.7057 44.7743 73.6499 45.9287Z" fill="#5382D8"/>
<path fill-rule="evenodd" clip-rule="evenodd" d="M80.504 43.6494C81.9413 43.7706 83.1418 44.489 83.1638 45.9646C81.5089 46.8516 80.196 44.6313 80.504 43.6494Z" fill="#5382D8"/>
<path fill-rule="evenodd" clip-rule="evenodd" d="M70.8684 45.7937C69.7304 46.4359 68.7725 44.8094 68.4414 43.9112C69.8264 43.8228 72.163 44.9892 70.8684 45.7937Z" fill="#5382D8"/>
<path fill-rule="evenodd" clip-rule="evenodd" d="M85.096 50.4396C85.2275 52.5585 83.2137 52.8367 82.0019 53.811C81.3937 52.273 83.3236 48.2875 85.096 50.4396Z" fill="#5382D8"/>
<path fill-rule="evenodd" clip-rule="evenodd" d="M73.9988 50.1033C73.8695 49.6175 73.56 48.2767 73.9597 47.9741C77.9412 49.2916 74.921 53.5677 73.9988 50.1033Z" fill="#5382D8"/>
<path fill-rule="evenodd" clip-rule="evenodd" d="M67.8388 48.0378C67.4749 48.0801 66.8597 48.0547 66.4884 48.0225C66.0095 47.9808 65.653 48.1528 65.7969 47.8042C66.1294 47.1127 66.4726 46.6407 67.2781 46.3035C69.5233 45.3639 69.8869 47.7991 67.8388 48.0378Z" fill="#5382D8"/>
<path fill-rule="evenodd" clip-rule="evenodd" d="M86.7841 54.0343C86.5926 54.3432 86.5034 54.487 86.2458 54.8402C85.8868 55.3319 86.0707 55.4184 85.8202 55.1654C85.3719 54.5781 85.1336 53.8198 85.3898 52.7972C85.9402 50.6014 88.073 51.9562 86.7842 54.0343H86.7841Z" fill="#5382D8"/>
<path fill-rule="evenodd" clip-rule="evenodd" d="M75.8892 42.7349C76.5046 43.0546 76.944 43.6928 77.0601 44.4235C77.5295 47.3757 74.2481 45.4373 75.8892 42.7349Z" fill="#5382D8"/>
<path fill-rule="evenodd" clip-rule="evenodd" d="M79.3588 40.5765C79.6736 41.7266 79.3394 42.5491 78.7008 43.4512C77.7184 42.7354 77.4228 40.0279 79.3588 40.5765Z" fill="#5382D8"/>
<path fill-rule="evenodd" clip-rule="evenodd" d="M77.4835 39.7261C77.8851 41.3182 75.7205 41.6392 74.5767 42.287C73.4986 41.7651 76.6967 37.3758 77.4835 39.7261Z" fill="#5382D8"/>
<path fill-rule="evenodd" clip-rule="evenodd" d="M77.2997 36.1927C76.3073 34.7498 77.8811 33.3109 78.3089 32.2254C78.6932 31.9239 78.3261 32.1719 78.7483 31.9714C79.1069 32.8005 79.5613 33.9211 79.2284 35.1548C79.0397 35.8543 78.6473 36.6818 77.8143 36.511C77.3398 36.4137 77.3937 36.28 77.2997 36.1929V36.1927Z" fill="#5382D8"/>
<path fill-rule="evenodd" clip-rule="evenodd" d="M82.3313 35.4562C81.0514 36.0322 80.9579 36.0723 80.7039 35.7321C81.414 31.1607 85.8831 33.8577 82.3313 35.4562Z" fill="#5382D8"/>
<path fill-rule="evenodd" clip-rule="evenodd" d="M75.919 32.0688C75.7979 33.2979 75.238 34.0349 73.9792 34.0654C73.3447 32.5841 75.9591 31.2801 75.919 32.0688Z" fill="#5382D8"/>
<path fill-rule="evenodd" clip-rule="evenodd" d="M82.3103 36.3633L82.5037 36.5463C86.2844 38.0474 81.4159 43.0199 82.3103 36.3633Z" fill="#5382D8"/>
<path fill-rule="evenodd" clip-rule="evenodd" d="M66.3104 39.3516C65.8537 38.0002 66.3096 36.732 67.0654 36.1292C67.977 35.4022 69.4507 35.5746 70.6613 35.6701C71.709 35.8513 72.1246 36.3855 72.3482 37.4693C73.1826 41.5148 67.5691 43.0751 66.3103 39.3515L66.3104 39.3516Z" fill="#5382D8"/>
<path fill-rule="evenodd" clip-rule="evenodd" d="M118.163 10.4597C117.571 11.4773 116.731 12.3979 115.051 12.012C112.356 10.4584 116.493 6.74232 119.713 6.68213C119.711 7.26438 118.551 9.79434 118.163 10.4597Z" fill="#5382D8"/>
<path fill-rule="evenodd" clip-rule="evenodd" d="M130.893 20.7423C130.639 21.134 130.345 21.4725 130.074 21.8529C129.225 23.0447 128.285 24.6391 126.486 23.9643C123.167 22.1059 131.437 18.7579 130.893 20.7423H130.893Z" fill="#5382D8"/>
<path fill-rule="evenodd" clip-rule="evenodd" d="M117.539 13.6394C118.938 13.4646 119.722 14.0797 120.723 14.49C118.658 17.9558 112.365 14.2853 117.539 13.6394Z" fill="#5382D8"/>
<path fill-rule="evenodd" clip-rule="evenodd" d="M130.789 27.5531L130.914 27.7614C129.233 28.0447 126.973 29.1721 126.259 27.3238C125.631 25.4252 129.909 25.5544 130.789 27.5531H130.789Z" fill="#5382D8"/>
<path fill-rule="evenodd" clip-rule="evenodd" d="M111.132 10.1441C112.112 10.7491 114.461 11.9796 113.611 13.6015C112.116 16.1715 109.241 9.13871 111.132 10.1441Z" fill="#5382D8"/>
<path fill-rule="evenodd" clip-rule="evenodd" d="M103.02 23.1157C109.544 24 103.738 26.6229 103.02 23.1157V23.1157Z" fill="#5382D8"/>
<path fill-rule="evenodd" clip-rule="evenodd" d="M109.332 27.5891C109.261 26.8457 108.953 26.1262 109.054 25.4345C109.144 24.8261 109.608 24.1641 110.261 24.5674C111.334 25.2298 110.159 27.3072 109.332 27.5891Z" fill="#5382D8"/>
<path fill-rule="evenodd" clip-rule="evenodd" d="M122.948 21.0651C123.128 20.8608 123.03 20.8474 123.596 21.7472C127.287 27.6149 119.854 25.9029 122.948 21.0651Z" fill="#5382D8"/>
<path fill-rule="evenodd" clip-rule="evenodd" d="M114.852 34.2537C114.421 35.8141 113.973 38.1037 112.173 38.1901C110.689 37.9163 111.188 36.6259 111.766 35.8365C112.548 34.7672 113.592 34.3507 114.852 34.2537Z" fill="#5382D8"/>
<path fill-rule="evenodd" clip-rule="evenodd" d="M111.442 32.7551C111.429 30.913 111.215 29.3831 112.915 28.9199C115.085 29.2976 112.821 33.1067 111.442 32.7551Z" fill="#5382D8"/>
<path fill-rule="evenodd" clip-rule="evenodd" d="M116.185 28.4255C117.012 26.5273 119.666 28.8166 119.574 31.4547C118.301 30.6924 116.093 30.5377 116.185 28.4255Z" fill="#5382D8"/>
<path fill-rule="evenodd" clip-rule="evenodd" d="M101.498 23.2319C101.803 24.4133 103.062 26.6054 101.713 27.443C100.4 28.6599 98.9078 25.9 101.498 23.2319Z" fill="#5382D8"/>
<path fill-rule="evenodd" clip-rule="evenodd" d="M113.428 24.4805C113.329 25.353 112.449 27.5004 111.507 26.5518C110.678 25.7178 112.436 24.5842 113.428 24.4805Z" fill="#5382D8"/>
<path fill-rule="evenodd" clip-rule="evenodd" d="M109.727 17.4941C110.384 18.834 110.991 21.1431 109.257 21.2497C108.134 20.9325 108.385 18.2654 109.727 17.4941Z" fill="#5382D8"/>
<path fill-rule="evenodd" clip-rule="evenodd" d="M109.238 15.3837C111.152 13.9115 114.124 15.3351 112.638 16.3922C111.883 16.9293 110.068 16.6951 109.238 15.3837Z" fill="#5382D8"/>
<path fill-rule="evenodd" clip-rule="evenodd" d="M122.267 27.2913L122.491 27.586C115.546 28.9067 119.969 23.0955 122.267 27.2913Z" fill="#5382D8"/>
<path fill-rule="evenodd" clip-rule="evenodd" d="M97.6959 25.9543L98.3249 26.6085C98.5425 26.8545 98.748 27.017 98.9591 27.2876C101.621 30.696 95.0942 29.2297 97.6957 25.9545L97.6959 25.9543Z" fill="#5382D8"/>
<path fill-rule="evenodd" clip-rule="evenodd" d="M113.232 22.5658C112.795 21.5095 113.023 20.0474 113.723 19.3637C114.617 18.4888 115.757 18.6067 117.182 18.6869C123.198 19.6013 115.858 28.9167 113.232 22.5658Z" fill="#5382D8"/>
<path fill-rule="evenodd" clip-rule="evenodd" d="M91.5495 5.12904C90.7487 2.72693 93.3334 0.55002 95.242 0C95.2677 0.0415511 95.2883 0.0656561 95.2926 0.137705L94.9776 3.37377C94.6061 5.03142 92.5463 6.98712 91.5494 5.1289L91.5495 5.12904Z" fill="#5382D8"/>
<path fill-rule="evenodd" clip-rule="evenodd" d="M53.2231 42.4846C52.3922 41.1811 54.3213 38.5282 55.32 38.1067C55.5629 39.2712 56.0026 40.4712 55.4178 41.7533C54.8954 42.8988 54.1127 43.4932 53.2232 42.4846H53.2231Z" fill="#5382D8"/>
<path fill-rule="evenodd" clip-rule="evenodd" d="M50.6835 37.5171L50.8448 37.6762C54.3341 39.5403 49.1798 45.3147 50.6835 37.5171Z" fill="#5382D8"/>
<path fill-rule="evenodd" clip-rule="evenodd" d="M42.4718 39.8788C44.5306 37.3666 50.8319 39.075 48.5106 41.1962C46.5721 43.1477 42.4487 40.1247 42.4718 39.8788Z" fill="#5382D8"/>
<path fill-rule="evenodd" clip-rule="evenodd" d="M127.237 39.3045C127.152 43.1279 122.918 43.38 124.851 40.1294C125.127 39.666 127.27 37.8176 127.237 39.3045Z" fill="#5382D8"/>
<path fill-rule="evenodd" clip-rule="evenodd" d="M119.447 41.5923C119.163 35.5871 122.64 40.9081 119.447 41.5923V41.5923Z" fill="#5382D8"/>
<path fill-rule="evenodd" clip-rule="evenodd" d="M122.725 40.3177C119.277 34.7997 125.125 36.6464 123.114 40.6749L122.725 40.3177Z" fill="#5382D8"/>
<path fill-rule="evenodd" clip-rule="evenodd" d="M72.417 15.7199C76.2893 10.6617 80.4396 16.8857 72.417 15.7199V15.7199Z" fill="#5382D8"/>
<path fill-rule="evenodd" clip-rule="evenodd" d="M79.2247 8.41124L79.5778 8.11133C81.421 13.1237 74.6271 14.6159 79.2247 8.41124Z" fill="#5382D8"/>
<path fill-rule="evenodd" clip-rule="evenodd" d="M79.1929 14.1472C79.313 12.8724 80.308 12.4891 81.5672 12.2799C81.8991 12.1117 81.6708 12.5308 81.5698 12.6709C81.3727 12.9446 81.0404 13.1643 80.8621 13.2827C80.4361 13.5657 79.7873 13.9506 79.1929 14.1472Z" fill="#5382D8"/>
<path fill-rule="evenodd" clip-rule="evenodd" d="M75.7209 11.37C73.5687 12.5141 71.7956 9.30084 70.8477 8.29895C71.7862 6.94242 78.5485 9.3119 75.7209 11.37Z" fill="#5382D8"/>
<path fill-rule="evenodd" clip-rule="evenodd" d="M58.9979 18.0404C57.8779 16.6716 60.1357 15.218 60.7042 14.4863C62.1143 15.3461 60.1949 19.9279 58.9979 18.0404Z" fill="#5382D8"/>
<path fill-rule="evenodd" clip-rule="evenodd" d="M63.5164 23.49C62.2324 23.0055 62.8471 21.3539 63.5164 20.5798C64.4496 21.2541 64.5 22.8783 63.5164 23.49Z" fill="#5382D8"/>
<path fill-rule="evenodd" clip-rule="evenodd" d="M54.1328 21.4793L54.252 21.1586C54.7203 20.2802 55.0084 19.8702 55.9146 19.4768C56.2313 19.3394 56.7358 19.2435 57.1158 19.2736C59.0044 19.4238 58.1487 21.3477 54.1328 21.4793Z" fill="#5382D8"/>
<path fill-rule="evenodd" clip-rule="evenodd" d="M63.0032 18.4309C62.7585 19.537 61.7373 21.0428 60.4995 20.3389C59.8771 19.0031 62.2749 17.8874 63.0032 18.4309Z" fill="#5382D8"/>
<path fill-rule="evenodd" clip-rule="evenodd" d="M52.6685 14.5062C53.5345 12.8476 59.6945 15.6613 56.9499 17.3245C54.9761 18.0872 53.5193 15.3986 52.6685 14.5062Z" fill="#5382D8"/>
<path fill-rule="evenodd" clip-rule="evenodd" d="M58.5363 41.6935C58.773 43.2301 58.2299 44.5393 56.9549 44.7679C55.3597 43.9271 57.8652 41.4764 58.5363 41.6935Z" fill="#5382D8"/>
<path fill-rule="evenodd" clip-rule="evenodd" d="M61.2162 43.449C63.9053 44.4874 64.8807 48.5623 62.343 48.0966C60.7583 47.364 60.5573 43.7679 61.2162 43.449Z" fill="#5382D8"/>
<path fill-rule="evenodd" clip-rule="evenodd" d="M121.921 48.8916C121.681 49.3077 121.593 48.8723 121.001 48.4348C120.656 48.1798 120.383 48.0229 120.031 47.7175C117.554 45.5663 120.176 43.2873 121.715 46.2182C122.094 46.8791 122.417 48.1441 121.921 48.8916Z" fill="#5382D8"/>
<path fill-rule="evenodd" clip-rule="evenodd" d="M125.584 46.4277C128.734 51.9259 119.522 49.2751 125.584 46.4277V46.4277Z" fill="#5382D8"/>
<path fill-rule="evenodd" clip-rule="evenodd" d="M69.0563 27.0325C69.9308 26.7395 71.5556 25.9865 71.2446 27.1349C71.2052 27.2806 71.0919 27.4691 70.9931 27.6453C68.9663 31.2608 65.8851 28.0949 69.0561 27.0325H69.0563Z" fill="#5382D8"/>
<path fill-rule="evenodd" clip-rule="evenodd" d="M67.4126 22.4431C67.9891 22.2544 68.0838 22.8099 68.2618 23.4658C68.4559 24.1818 68.5033 24.8333 68.3589 25.5715C68.1329 26.727 67.192 27.9384 66.1192 27.0064C64.991 25.209 66.8511 23.7761 67.4127 22.443L67.4126 22.4431Z" fill="#5382D8"/>
<path fill-rule="evenodd" clip-rule="evenodd" d="M90.7453 7.84669C89.8311 8.91583 88.7539 7.98359 88.2499 7.36339C87.8798 6.90806 86.6586 3.56412 87.9025 4.10149C89.2618 5.06169 91.1601 5.73743 90.7453 7.84682V7.84669Z" fill="#5382D8"/>
<path fill-rule="evenodd" clip-rule="evenodd" d="M97.441 8.32449L97.4722 8.47218C97.2915 8.81711 95.1553 10.0358 94.2591 10.071C90.584 10.2151 94.2273 5.30111 97.441 8.32449Z" fill="#5382D8"/>
<path fill-rule="evenodd" clip-rule="evenodd" d="M85.835 24.7028C86.4299 24.611 89.9946 25.1806 88.8203 25.958C84.2486 28.9845 82.5716 25.2067 85.835 24.7028Z" fill="#5382D8"/>
<path fill-rule="evenodd" clip-rule="evenodd" d="M72.8893 29.198C73.2079 29.4164 73.2311 29.3274 73.4731 29.9317C73.6123 30.2794 73.6664 30.664 73.6653 31.0623C73.6571 34.1455 70.2122 32.4773 72.8893 29.198Z" fill="#5382D8"/>
<path fill-rule="evenodd" clip-rule="evenodd" d="M101.593 48.3817C102.684 50.7905 98.2608 50.3066 98.1906 46.2679L98.5605 46.4675C99.9722 46.9088 101.043 47.2224 101.593 48.3817ZM102.95 42.0148C101.403 42.9798 100.299 38.9553 101.573 39.1442C102.058 39.8256 103.89 40.8154 102.95 42.0148ZM93.558 48.1831L93.6067 48.4575C92.5351 48.9273 90.9308 49.6856 90.0874 48.3744C90.2683 46.9058 91.9498 47.0889 92.9198 47.6363C93.3222 47.8632 93.3178 47.9092 93.558 48.1831ZM93.9333 46.1253C93.7417 45.1496 92.7105 43.2822 93.8914 42.6984C96.0985 42.1558 95.1276 46.4236 93.9333 46.1253ZM99.5193 44.6369C97.903 44.124 96.3081 43.794 96.3022 41.9707C96.7973 40.6653 98.0085 41.3579 98.7237 42.0124C99.4033 42.6343 99.8163 43.5892 99.8905 44.8148L99.5193 44.6368V44.6369Z" fill="#5382D8"/>
<path fill-rule="evenodd" clip-rule="evenodd" d="M78.4577 28.9402C80.4692 27.617 81.4233 29.6284 79.7224 30.1886C79.0667 30.4045 78.1105 30.3198 77.4124 30.3066C77.675 29.6214 77.9024 29.3057 78.4577 28.9404V28.9402Z" fill="#5382D8"/>
<path fill-rule="evenodd" clip-rule="evenodd" d="M107.894 48.5195C106.706 48.793 106.401 48.4014 106.39 47.3624C107.355 46.8207 108.593 46.5162 109.652 47.4289C109.377 47.9063 108.487 48.383 107.894 48.5195Z" fill="#5382D8"/>
<path fill-rule="evenodd" clip-rule="evenodd" d="M76.5708 25.3798C78.4549 24.1656 82.3042 25.839 80.525 27.315C79.1317 28.3144 76.7734 25.7227 76.5708 25.3798Z" fill="#5382D8"/>
<path fill-rule="evenodd" clip-rule="evenodd" d="M107.138 44.8185C106.273 42.4726 110.401 43.0011 110.645 46.7192L110.175 46.5224C108.72 46.1475 107.779 45.9446 107.138 44.8187V44.8185Z" fill="#5382D8"/>
<path fill-rule="evenodd" clip-rule="evenodd" d="M82.2627 63.2776C79.2254 60.2802 83.7341 58.3115 82.654 62.4826L82.2627 63.2776Z" fill="#5382D8"/>
<path fill-rule="evenodd" clip-rule="evenodd" d="M65.0584 29.8683C65.4735 31.2536 63.4505 32.0892 62.6377 32.1351C62.6924 30.8479 64.0691 28.84 65.0584 29.8683Z" fill="#5382D8"/>
<path fill-rule="evenodd" clip-rule="evenodd" d="M65.1819 35.5825C64.0752 36.2264 64.6258 30.0511 66.6749 32.0158C67.7336 33.2889 65.7716 35.0501 65.1819 35.5825Z" fill="#5382D8"/>
<path fill-rule="evenodd" clip-rule="evenodd" d="M93.7171 32.9768C94.6505 34.5148 91.8013 35.4075 89.7222 32.5233C91.2546 32.4094 92.8898 31.7297 93.7171 32.9768Z" fill="#5382D8"/>
<path fill-rule="evenodd" clip-rule="evenodd" d="M92.056 20.1182L92.4048 21.0776C92.4742 21.419 92.587 21.8684 92.6188 22.2196C93.0386 26.8556 87.7451 22.2985 92.0559 20.1182H92.056Z" fill="#5382D8"/>
<path fill-rule="evenodd" clip-rule="evenodd" d="M83.9048 12.9484C91.6546 9.52325 87.5474 18.1646 83.9048 12.9484V12.9484Z" fill="#5382D8"/>
<path fill-rule="evenodd" clip-rule="evenodd" d="M96.3596 28.373C96.3867 29.0846 96.5198 30.0202 96.2684 30.6032C95.3273 32.7872 93.5853 29.2071 96.3596 28.373Z" fill="#5382D8"/>
<path fill-rule="evenodd" clip-rule="evenodd" d="M84.8897 20.8998C83.5877 21.2937 82.5274 20.7004 82.1782 19.4582C83.6164 19.4231 85.0836 19.2308 84.8897 20.8998Z" fill="#5382D8"/>
<path fill-rule="evenodd" clip-rule="evenodd" d="M84.9178 19.2006C83.4569 18.3895 83.8475 15.9092 84.0666 15.636C84.3509 15.46 83.8927 15.2552 84.5272 15.6711C86.7383 17.5891 86.2425 19.936 84.9179 19.2006H84.9178Z" fill="#5382D8"/>
<path fill-rule="evenodd" clip-rule="evenodd" d="M88.4326 39.5146C87.2958 37.7938 90.9147 37.5243 92.0411 38.972C92.085 39.0611 92.5575 39.0035 91.5438 39.4359C90.5009 39.8808 89.3768 40.4759 88.4326 39.5146ZM91.604 36.9059L91.3504 36.7915C97.2794 32.6496 94.6818 39.7917 91.604 36.9059Z" fill="#5382D8"/>
<path fill-rule="evenodd" clip-rule="evenodd" d="M83.2602 15.3875C82.9966 16.2243 81.5909 17.7099 80.7289 16.7857C79.6509 15.6307 82.5734 15.377 83.2602 15.3875Z" fill="#5382D8"/>
<path fill-rule="evenodd" clip-rule="evenodd" d="M84.6997 37.1165C83.9527 36.331 83.7202 34.2793 84.8656 34.3351C86.2956 34.405 85 36.5665 84.6997 37.1165Z" fill="#5382D8"/>
<path fill-rule="evenodd" clip-rule="evenodd" d="M88.8649 20.0625C89.3773 20.8437 89.9437 21.2606 89.7515 22.7659C89.6129 23.8526 89.3766 24.0733 88.8179 23.3851C88.5667 23.0756 88.4595 22.956 88.2202 22.6307C87.2522 21.3149 87.3937 20.5197 88.865 20.0625H88.8649Z" fill="#5382D8"/>
<path fill-rule="evenodd" clip-rule="evenodd" d="M87.3631 31.1225C86.8912 31.5996 85.2379 30.8162 84.7861 30.413C82.7587 28.6028 86.7073 27.3639 87.3631 31.1225Z" fill="#5382D8"/>
<path fill-rule="evenodd" clip-rule="evenodd" d="M89.9783 9.75272C89.9045 11.7462 86.3028 10.6862 86.3671 9.45507C87.7886 9.20483 89.035 8.43533 89.9783 9.75272Z" fill="#5382D8"/>
<path fill-rule="evenodd" clip-rule="evenodd" d="M50.7781 48.1913C47.7088 45.0286 54.7564 42.6228 51.2621 47.7514C50.9376 48.2276 50.9735 48.4346 50.7781 48.1913Z" fill="#5382D8"/>
<path fill-rule="evenodd" clip-rule="evenodd" d="M102.324 36.374C101.529 35.934 100.156 35.0559 100.318 33.883C100.964 32.6824 101.736 33.2049 102.389 34.1953C102.857 34.905 102.824 35.7137 102.768 36.6381L102.324 36.374H102.324ZM108.361 31.838C113.922 32.5831 106.351 42.1542 104.087 35.4895C103.013 32.3269 105.678 31.3144 108.361 31.838Z" fill="#5382D8"/>
<path fill-rule="evenodd" clip-rule="evenodd" d="M93.1885 26.1953C91.772 25.5897 93.7153 23.8245 95.8501 24.0153L95.7167 24.2494C95.4637 24.9739 94.3285 26.7677 93.1885 26.1952V26.1953Z" fill="#5382D8"/>
<path fill-rule="evenodd" clip-rule="evenodd" d="M77.8295 18.0939C83.6748 18.9821 76.9993 28.1299 74.0499 22.1873C73.5316 21.1428 73.6567 19.612 74.3751 18.818C75.1222 17.9921 76.5539 17.9388 77.8295 18.0938V18.0939Z" fill="#5382D8"/>
<path fill-rule="evenodd" clip-rule="evenodd" d="M91.6312 27.2994C91.7664 28.7908 90.3942 29.4238 88.8494 29.308L89.054 29.0493C89.4896 27.9508 90.3009 26.3609 91.6312 27.2994Z" fill="#5382D8"/>
<path fill-rule="evenodd" clip-rule="evenodd" d="M95.124 68.6787C94.7062 68.3562 94.3837 67.2126 94.3127 66.6177L95.3822 66.4612L95.124 68.6787Z" fill="#5382D8"/>
<path fill-rule="evenodd" clip-rule="evenodd" d="M45.9976 44.7204L46.1512 44.5538C47.9007 40.9966 53.8104 45.9893 45.9976 44.7204Z" fill="#5382D8"/>
<path fill-rule="evenodd" clip-rule="evenodd" d="M55.5391 64.942C54.0864 67.2913 49.86 65.9821 48.7875 65.4468C48.1169 65.112 48.364 65.2269 48.1646 64.8921C49.3768 63.5074 51.0131 62.5916 52.3645 62.5036C53.9249 62.4019 56.166 62.7252 55.5389 64.942H55.5391Z" fill="#5382D8"/>
<path fill-rule="evenodd" clip-rule="evenodd" d="M84.4791 60.8057C86.2547 60.7711 87.0298 63.5246 87.1169 64.2944C87.1714 64.7759 87.1468 64.6016 87.0363 64.8272C85.8648 64.6542 84.798 64.0867 84.2768 63.3837C83.6751 62.5721 83.0643 61.242 84.4791 60.8057Z" fill="#5382D8"/>
<path fill-rule="evenodd" clip-rule="evenodd" d="M79.5844 50.7134C79.2489 50.8511 79.0927 50.9154 78.6777 51.0503C78.0999 51.2382 78.1982 51.4163 78.143 51.0639C78.1222 50.3245 78.3714 49.5695 79.1756 48.8911C80.9028 47.4343 81.8414 49.7857 79.5844 50.7134Z" fill="#5382D8"/>
<path fill-rule="evenodd" clip-rule="evenodd" d="M103.616 20.2771C113.311 18.4378 105.374 27.2036 103.616 20.2771V20.2771Z" fill="#5382D8"/>
<path fill-rule="evenodd" clip-rule="evenodd" d="M117.69 31.8215C118.387 33.282 119.549 35.3033 118.248 36.5553C116.95 37.3275 116.481 36.0257 116.4 35.0496C116.29 33.7277 116.804 32.7251 117.69 31.8215H117.69Z" fill="#5382D8"/>
<path fill-rule="evenodd" clip-rule="evenodd" d="M122.725 40.3177C122.189 39.4603 121.144 38.6532 121.62 37.1875L122.38 36.8452C123.699 37.5481 123.863 39.1739 123.114 40.675L122.725 40.3178L122.725 40.3177Z" fill="#5382D8"/>
<path fill-rule="evenodd" clip-rule="evenodd" d="M73.5845 88.077C72.5524 88.4506 71.0733 88.2748 70.1381 86.8019C69.634 86.0081 69.5987 84.7362 70.0537 83.8804C72.6306 79.0341 78.7151 86.22 73.5844 88.077H73.5845Z" fill="#5382D8"/>
<path fill-rule="evenodd" clip-rule="evenodd" d="M114.487 67.9841C115.809 71.5591 118.885 75.1481 123.702 78.7644H124.222C125.709 72.2606 126.559 69.0155 126.771 69.0155C129.004 69.0155 130.71 69.696 131.889 71.0712C131.889 74.7835 131.061 78.5815 129.404 82.4626L122.252 78.8902L128.67 82.6304L126.529 84.5275L117.629 79.1469L125.388 85.0886L123.772 87.2229L116.469 82.3443L117.394 83.0323C115.622 81.8596 113.121 80.267 109.89 78.2558C108.177 76.7844 107.321 75.4094 107.321 74.1513C111.377 70.04 113.761 67.9841 114.487 67.9841ZM198.928 92.6808C199.233 92.6808 199.479 92.9283 199.479 93.2338C199.479 93.5393 199.233 93.7869 198.928 93.7869C198.624 93.7869 198.377 93.5393 198.377 93.2338C198.377 92.9283 198.624 92.6808 198.928 92.6808ZM195.387 93.9705C195.82 93.9705 196.171 94.3225 196.171 94.7568C196.171 95.1909 195.82 95.5429 195.387 95.5429C194.955 95.5429 194.604 95.1909 194.604 94.7568C194.604 94.3225 194.955 93.9705 195.387 93.9705ZM188.315 93.9705C188.748 93.9705 189.099 94.3225 189.099 94.7568C189.099 95.1909 188.748 95.5429 188.315 95.5429C187.882 95.5429 187.532 95.1909 187.532 94.7568C187.532 94.3225 187.882 93.9705 188.315 93.9705ZM184.742 93.2526C185.175 93.2526 185.526 93.6045 185.526 94.0387C185.526 94.473 185.175 94.825 184.742 94.825C184.309 94.825 183.959 94.473 183.959 94.0387C183.959 93.6045 184.309 93.2526 184.742 93.2526ZM194.168 76.9793C194.601 76.9793 194.952 77.3313 194.952 77.7656C194.952 78.1997 194.601 78.5517 194.168 78.5517C193.736 78.5517 193.385 78.1997 193.385 77.7656C193.385 77.3313 193.736 76.9793 194.168 76.9793ZM187.745 83.9384C188.178 83.9384 188.529 84.2904 188.529 84.7247C188.529 85.1589 188.178 85.5109 187.745 85.5109C187.312 85.5109 186.962 85.1589 186.962 84.7247C186.962 84.2904 187.312 83.9384 187.745 83.9384ZM186.962 78.8842C187.394 78.8842 187.745 79.2362 187.745 79.6705C187.745 80.1047 187.394 80.4567 186.962 80.4567C186.529 80.4567 186.178 80.1047 186.178 79.6705C186.178 79.2362 186.529 78.8842 186.962 78.8842ZM195.735 78.0981C196.168 78.0981 196.519 78.4501 196.519 78.8842C196.519 79.3185 196.168 79.6705 195.735 79.6705C195.303 79.6705 194.952 79.3185 194.952 78.8842C194.952 78.4501 195.303 78.0981 195.735 78.0981ZM189.168 77.3118C189.601 77.3118 189.952 77.6638 189.952 78.0981C189.952 78.5323 189.601 78.8842 189.168 78.8842C188.735 78.8842 188.385 78.5323 188.385 78.0981C188.385 77.6638 188.735 77.3118 189.168 77.3118ZM172.704 82.467C172.82 82.9065 172.567 83.3551 172.139 83.4694C171.71 83.5835 171.269 83.3198 171.152 82.8804C171.036 82.4409 171.289 81.9922 171.718 81.8781C172.146 81.7639 172.588 82.0275 172.704 82.467ZM179.354 77.329C179.47 77.7685 179.217 78.2172 178.789 78.3314C178.36 78.4456 177.919 78.1819 177.802 77.7424C177.686 77.303 177.939 76.8542 178.368 76.7401C178.796 76.626 179.238 76.8897 179.354 77.329ZM182.851 93.4847C182.968 93.9242 182.715 94.3728 182.286 94.4871C181.857 94.6012 181.416 94.3376 181.3 93.8981C181.183 93.4587 181.436 93.0099 181.865 92.8958C182.294 92.7816 182.735 93.0453 182.851 93.4847ZM179.894 95.1955C180.011 95.6348 179.757 96.0836 179.329 96.1978C178.9 96.3119 178.459 96.0482 178.343 95.6089C178.226 95.1694 178.479 94.7207 178.908 94.6066C179.337 94.4924 179.778 94.756 179.894 95.1955ZM167.568 94.2229C167.684 94.6624 167.431 95.1112 167.002 95.2253C166.574 95.3394 166.132 95.0757 166.016 94.6363C165.9 94.1969 166.153 93.7481 166.581 93.634C167.01 93.5198 167.452 93.7835 167.568 94.2229ZM160.643 94.4878C160.759 94.9273 160.506 95.3761 160.077 95.4902C159.649 95.6043 159.207 95.3406 159.091 94.9013C158.975 94.4618 159.228 94.013 159.656 93.8989C160.085 93.7847 160.526 94.0484 160.643 94.4878ZM158.39 94.4878C158.506 94.9273 158.253 95.3761 157.825 95.4902C157.396 95.6043 156.955 95.3406 156.838 94.9013C156.722 94.4618 156.975 94.013 157.404 93.8989C157.832 93.7847 158.274 94.0484 158.39 94.4878ZM167.355 77.7813C167.471 78.2208 167.218 78.6694 166.789 78.7837C166.361 78.8978 165.919 78.6341 165.803 78.1947C165.687 77.7553 165.94 77.3065 166.368 77.1924C166.797 77.0782 167.239 77.3419 167.355 77.7813ZM159.839 79.7185C159.955 80.158 159.702 80.6068 159.273 80.7209C158.845 80.835 158.403 80.5713 158.287 80.1318C158.17 79.6925 158.424 79.2437 158.852 79.1296C159.281 79.0154 159.722 79.2791 159.839 79.7185ZM155.667 93.0405C155.783 93.4799 155.53 93.9287 155.101 94.0428C154.673 94.157 154.231 93.8933 154.115 93.4539C153.999 93.0144 154.252 92.5658 154.68 92.4516C155.109 92.3374 155.55 92.6011 155.667 93.0405ZM153.108 94.8837C153.224 95.3232 152.971 95.7719 152.542 95.8861C152.114 96.0003 151.672 95.7366 151.556 95.2971C151.439 94.8577 151.693 94.4089 152.121 94.2948C152.55 94.1807 152.991 94.4444 153.108 94.8837ZM137.547 94.8837C137.663 95.3232 137.41 95.7719 136.981 95.8861C136.553 96.0003 136.111 95.7366 135.995 95.2971C135.879 94.8577 136.132 94.4089 136.56 94.2948C136.989 94.1807 137.43 94.4444 137.547 94.8837ZM145.168 93.2391C145.284 93.6786 145.031 94.1273 144.602 94.2415C144.174 94.3557 143.732 94.092 143.616 93.6525C143.5 93.2131 143.753 92.7643 144.181 92.6502C144.61 92.5361 145.051 92.7998 145.168 93.2391ZM134.641 93.8628C134.758 94.3023 134.504 94.7509 134.076 94.8651C133.647 94.9792 133.206 94.7156 133.09 94.2762C132.973 93.8368 133.226 93.388 133.655 93.2739C134.084 93.1597 134.525 93.4234 134.641 93.8628ZM149.059 76.8913C149.176 77.3307 148.923 77.7794 148.494 77.8937C148.065 78.0078 147.624 77.7441 147.508 77.3046C147.391 76.8653 147.644 76.4165 148.073 76.3024C148.502 76.1882 148.943 76.4519 149.059 76.8913ZM151.499 77.5149C151.615 77.9544 151.362 78.4031 150.934 78.5172C150.505 78.6314 150.064 78.3678 149.947 77.9283C149.831 77.489 150.084 77.0402 150.513 76.926C150.941 76.8119 151.383 77.0756 151.499 77.5149ZM142.136 78.1784C142.252 78.6179 141.999 79.0667 141.571 79.1808C141.142 79.295 140.701 79.0313 140.584 78.5918C140.468 78.1524 140.721 77.7036 141.15 77.5895C141.578 77.4754 142.02 77.7391 142.136 78.1784ZM139.155 78.8021C139.271 79.2416 139.018 79.6904 138.59 79.8045C138.161 79.9186 137.719 79.6549 137.603 79.2156C137.487 78.7761 137.74 78.3273 138.169 78.2132C138.597 78.099 139.039 78.3627 139.155 78.8021ZM118.359 94.373C118.475 94.8126 118.222 95.2613 117.793 95.3755C117.365 95.4895 116.923 95.226 116.807 94.7865C116.691 94.347 116.944 93.8982 117.372 93.7842C117.801 93.6701 118.242 93.9336 118.359 94.373ZM116.75 91.6911C116.867 92.1304 116.614 92.5792 116.185 92.6935C115.756 92.8076 115.315 92.5439 115.199 92.1044C115.082 91.665 115.335 91.2163 115.764 91.1022C116.193 90.9879 116.634 91.2516 116.75 91.6911ZM124.333 85.2863C124.45 85.7257 124.196 86.1745 123.768 86.2886C123.339 86.4027 122.898 86.1391 122.781 85.6997C122.665 85.2602 122.918 84.8115 123.347 84.6974C123.775 84.5831 124.217 84.8468 124.333 85.2863ZM127.242 82.6486C127.358 83.0881 127.105 83.5368 126.676 83.6509C126.248 83.765 125.806 83.5014 125.69 83.062C125.573 82.6225 125.827 82.1739 126.255 82.0597C126.684 81.9456 127.125 82.2093 127.242 82.6486ZM129.403 82.4635C128.053 85.6259 126.153 88.8437 123.702 92.1158C121.879 94.1713 120.009 95.7183 118.077 96.7496C116.488 96.7496 115.124 94.6939 113.987 90.5826C117.974 87.4956 120.187 85.9555 120.625 85.9555V85.4468C120.625 85.4431 120.624 85.4385 120.623 85.4343L123.954 87.9124L125.661 85.0017L116.164 78.1867L126.637 85.2358L129.403 82.4636V82.4635ZM131.031 71.3416C131.147 71.7813 130.894 72.2299 130.466 72.3441C130.037 72.4582 129.595 72.1945 129.479 71.7552C129.363 71.3157 129.616 70.8669 130.045 70.7527C130.473 70.6386 130.915 70.9023 131.031 71.3416ZM128.37 70.4239C128.486 70.8633 128.233 71.3121 127.805 71.4262C127.376 71.5403 126.934 71.2767 126.818 70.8373C126.702 70.3978 126.955 69.9492 127.383 69.835C127.812 69.7208 128.254 69.9844 128.37 70.4239ZM109.953 74.3582C110.069 74.7976 109.816 75.2464 109.388 75.3605C108.959 75.4747 108.518 75.211 108.401 74.7716C108.285 74.3321 108.538 73.8835 108.967 73.7693C109.395 73.6551 109.837 73.9188 109.953 74.3582ZM112.273 72.2956C112.389 72.7349 112.136 73.1838 111.707 73.2979C111.279 73.412 110.837 73.1483 110.721 72.709C110.604 72.2695 110.857 71.8208 111.286 71.7067C111.715 71.5924 112.156 71.8561 112.273 72.2956ZM114.631 70.6509C114.747 71.0903 114.494 71.539 114.066 71.6532C113.637 71.7673 113.196 71.5036 113.079 71.0642C112.963 70.6248 113.216 70.1761 113.645 70.062C114.073 69.9478 114.515 70.2115 114.631 70.6509ZM130.361 72.597L130.361 72.5971H130.361V72.597ZM193.849 76.3647C195.281 76.3647 196.309 76.9423 196.939 78.0972V80.5173C196.939 83.7211 197.857 87.8669 199.686 92.9408V93.9926C199.432 94.0881 198.683 95.255 198.513 94.648C193.054 75.1508 197.493 92.4255 198.028 94.9695C198.083 95.231 197.568 95.2851 197.311 95.467C196.798 95.8301 196.213 96.2577 195.555 96.7495C194.48 96.7495 193.801 94.2194 193.507 89.1592H192.549C192.688 88.8852 192.825 88.316 192.518 87.9151L190.642 85.4597C190.338 85.0618 190.047 85.7905 189.686 86.0618C188.658 86.836 187.8 88.0098 187.642 88.1074C185.103 91.3938 183.643 93.382 183.267 94.0813C183.224 93.2712 182.862 91.5198 182.182 88.8155V87.3649L182.545 84.8486C182.305 84.8486 182.182 84.7249 182.182 84.4842C182.422 84.065 182.545 83.5835 182.545 83.0336V82.6691C182.545 78.3446 180.743 76.186 177.147 76.186C176.987 76.186 176.841 76.1925 176.708 76.2057C177.063 77.4454 177.419 78.6852 177.774 79.9249L175.701 76.9078C173.481 76.9078 171.686 78.716 170.323 82.3254C170.323 83.7624 171.036 84.4842 172.467 84.4842L173.194 84.1198V84.4842C174.18 84.3742 175.379 83.5354 176.784 81.968C177.256 81.968 177.736 82.683 178.229 84.1198C178.111 84.1198 179.783 85.8361 179.722 85.8956C179.66 85.9565 177.866 84.3623 177.866 84.4842V86.2923C177.654 86.2923 176.701 86.0518 175.002 85.5705H173.194C171.899 86.2116 170.79 87.124 169.861 88.3038L172.906 92.72L169.241 89.1731C169.241 93.257 171.036 95.6632 174.639 96.3851L177.681 94.9885L177.799 94.9344C177.757 94.7009 177.798 94.3425 177.846 93.9207C177.894 93.5099 177.948 93.0368 177.938 92.5682L176.678 91.1666C176.344 91.7615 176.017 92.0537 175.701 92.0537H175.359C173.913 92.0537 173.194 91.3387 173.194 89.9018C173.194 89.5026 173.689 89.1836 174.684 88.9492L173.822 87.9911L174.786 88.9256C174.962 88.8865 175.153 88.8497 175.359 88.8155C176.282 89.0488 176.755 89.7286 176.782 90.8608L177.874 91.9185C177.823 91.6584 177.741 91.4099 177.611 91.1861C177.583 91.1381 177.524 90.7988 177.478 90.367C177.435 89.9576 177.403 89.4585 177.418 89.0391C177.492 87.0043 177.584 88.1095 177.549 89.0438C177.534 89.4558 177.566 89.9486 177.609 90.3536C177.653 90.7682 177.704 91.0838 177.725 91.1199C177.893 91.4097 177.986 91.735 178.032 92.0725V92.0726L178.033 92.0734C178.061 92.2848 178.072 92.5008 178.071 92.7156V92.7161C178.068 93.142 178.02 93.5637 177.977 93.9356C177.9 94.6055 177.635 96.7495 178.592 96.7495H178.955C179.467 96.7495 180.044 96.5753 180.686 96.2277C180.896 96.1139 179.556 92.9353 179.78 92.7842C179.98 92.6493 181.745 95.5452 181.956 95.3806C182.341 95.0803 182.746 94.7303 183.169 94.3308C183.169 95.0381 183.705 95.5313 184.775 95.8106L189.756 89.8107L185.716 95.9849C185.995 96.02 186.297 96.0455 186.622 96.0621H188.67C190.999 92.2937 192.252 90.0422 192.435 89.3131C192.413 89.3256 192.397 89.3188 192.391 89.2884C192.282 88.7793 191.134 87.1066 190.506 85.9535C190.404 85.7642 187.877 87.8373 187.632 88.095L185.58 85.6942C185.067 85.1787 184.731 83.9137 184.553 81.8854C184.553 79.3072 186.046 77.6915 189.026 77.0521L191.095 77.3959H192.123C193.274 76.8665 193.85 76.5297 193.85 76.3645L193.849 76.3647ZM184.777 95.811C185.053 95.8833 185.366 95.9413 185.715 95.9849L184.777 95.811ZM169.24 89.1731C169.437 88.8692 169.644 88.5797 169.86 88.3048L169.24 89.1731ZM189.026 81.8854L189.369 83.618H191.095C191.554 83.618 191.78 83.3912 191.78 82.9306V82.5868L191.438 80.8542H190.054C189.718 80.8542 189.376 81.1979 189.026 81.8855L189.026 81.8854ZM167.068 76.3647C167.445 76.3647 167.911 76.8323 168.473 77.774C168.17 78.5509 167.966 80.393 167.86 82.6458V82.6446C167.818 82.6446 166.226 83.5533 165.083 83.59C164.62 83.605 164.24 83.685 163.866 83.7192C163.51 83.7516 163.548 83.7886 163.582 83.4626C164.054 78.9618 164.744 76.7083 165.664 76.7083C166.185 76.7083 166.651 76.5913 167.068 76.3645L167.068 76.3647ZM167.787 84.9664C167.555 85.108 163.741 85.0465 163.611 85.0498C163.336 85.0567 167.869 85.1782 168.019 85.4092C169.646 87.908 168.259 88.1672 166.966 87.4429C166.55 87.1014 166.024 86.8939 165.559 86.9285C164.881 86.9791 163.846 86.7874 162.729 86.5805C160.71 86.2067 158.42 85.7825 157.59 86.6632L157.53 86.6066C157.357 89.6047 156.918 92.7505 156.209 96.0415C156.675 96.0415 156.915 96.2821 156.915 96.7496L157.614 96.4059H160.765L161.471 92.1777C161.711 92.1227 161.807 91.9164 161.772 91.552L161.471 91.1327C161.224 90.7133 161.108 90.2458 161.108 89.7234V89.0151C161.108 88.197 161.574 87.3789 162.512 86.5608L163.917 87.9701C164.615 93.1264 165.431 95.7046 166.362 95.7046H166.705C167.417 95.7046 168.349 95.3472 169.514 94.6321C169.514 93.8203 167.593 88.687 167.856 88.6644C167.811 88.1483 167.496 87.6649 167.07 87.3147C166.624 86.9484 166.054 86.726 165.547 86.7635C164.889 86.8125 163.864 86.6229 162.758 86.4182C160.739 86.0442 158.452 85.6209 157.524 86.4964C157.445 85.9935 156.681 85.4986 156.593 85.0112C156.4 83.9367 157.614 83.8744 157.614 83.3109C158.858 83.5979 167.78 84.6685 167.841 83.0468C167.849 82.8263 168.747 84.3823 167.787 84.9664H167.787ZM157.614 83.3109V79.5272C157.614 79.2177 158.313 78.7504 159.704 78.1178C160.334 78.1178 160.8 79.878 161.108 83.3981C160.742 83.2309 158.122 83.4501 157.872 83.2405L157.614 83.311L157.614 83.3109ZM163.554 83.7349C162.247 83.7349 161.61 83.7349 163.554 83.7349V83.7349ZM148.023 75.9453C150.671 75.9453 150.187 75.9311 152.4 77.4097L152.245 77.356L148.386 89.0768C147.857 90.5172 147.359 91.7217 146.89 92.69L144.544 86.8358C144.522 86.8446 146.993 77.7769 147.296 76.3028L148.022 75.9452L148.023 75.9453ZM146.793 92.8894C145.876 94.7372 145.076 95.6633 144.392 95.6633C142.751 95.6633 138.147 83.6485 137.273 81.7145C136.831 81.9144 137.141 76.6673 138.205 76.6673H138.771L141.36 82.8553L139.965 76.6673H140.754C142.213 77.0178 142.946 78.3585 142.946 80.696C142.946 81.6856 144.608 86.8101 144.239 86.9589L146.64 92.9506L146.793 92.8894ZM140.582 89.8396C139.361 90.1402 140.38 93.809 137.486 96.3853H136.383C133.478 96.0483 132.025 95.1957 132.025 93.8276C134.028 91.4114 135.706 87.4825 137.059 82.0412L137.961 84.0385L136.4 89.0768L138.299 84.7857L140.582 89.8396H140.582ZM152.039 78.9634C152.091 84.5142 153.08 88.6841 155.674 92.2906L156.031 93.1057C156.384 93.9106 155.3 94.2795 154.551 94.8914C154.377 95.0335 152.069 90.375 151.854 90.5029C151.576 90.6688 154.053 95.4084 154.182 95.7613C154.451 96.4965 153.295 97.3629 151.674 96.7494C150.392 96.264 149.572 94.5028 149.126 93.463H149.489C149.009 92.4729 148.762 91.7373 148.762 91.2697H149.126C148.886 90.9053 148.762 90.1766 148.762 89.0765L152.039 78.9631V78.9634Z" fill="#5382D8"/>
<path fill-rule="evenodd" clip-rule="evenodd" d="M253.076 80.4338C253.509 80.4338 253.859 80.786 253.859 81.2204C253.859 81.6543 253.509 82.0064 253.076 82.0064C252.643 82.0064 252.293 81.6543 252.293 81.2204C252.293 80.786 252.643 80.4338 253.076 80.4338Z" fill="#5382D8"/>
<path fill-rule="evenodd" clip-rule="evenodd" d="M269.715 87.5373V86.0867L270.078 83.5702C269.838 83.5702 269.715 83.4465 269.715 83.206C269.955 82.7866 270.078 82.3051 270.078 81.7551V81.3909C270.078 77.0665 268.276 74.9077 264.679 74.9077C264.52 74.9077 264.374 74.914 264.241 74.9273C264.596 76.1669 264.951 77.4069 265.307 78.6467L263.234 75.6294C261.014 75.6294 259.219 77.4375 257.856 81.0472C257.856 82.484 258.569 83.206 260 83.206L260.727 82.8415V83.206C261.713 83.096 262.912 82.2572 264.317 80.6894C264.789 80.6894 265.269 81.4046 265.762 82.8415C265.644 82.8415 267.316 84.5578 267.255 84.6174C267.193 84.6782 265.399 83.084 265.399 83.206V85.0141C265.186 85.0141 264.234 84.7733 262.535 84.2921H260.727C259.432 84.9334 258.323 85.8457 257.394 87.0256L260.439 91.4417L256.773 87.8948C256.773 91.9784 258.569 94.385 262.172 95.1068L265.214 93.7103L265.332 93.6561C265.29 93.4225 265.331 93.0642 265.379 92.6422C265.427 92.2315 265.481 91.7584 265.471 91.2898L264.211 89.8882C263.877 90.4833 263.55 90.7753 263.234 90.7753H262.892C261.446 90.7753 260.727 90.0606 260.727 88.6235C260.727 88.2242 261.222 87.9052 262.217 87.6708L261.355 86.7129L262.319 87.6475C262.495 87.6081 262.686 87.5715 262.892 87.5373C263.815 87.7706 264.288 88.4502 264.315 89.5825L265.406 90.6402C265.356 90.3801 265.274 90.1317 265.144 89.9078C265.116 89.8599 265.057 89.5205 265.011 89.0888C264.968 88.6793 264.935 88.1801 264.951 87.7607C265.025 85.7259 265.117 86.8312 265.082 87.7655C265.067 88.1776 265.1 88.6703 265.142 89.0751C265.186 89.4899 265.237 89.8055 265.258 89.8415C265.426 90.1314 265.519 90.4568 265.565 90.7941L265.566 90.7944V90.7952C265.594 91.0065 265.605 91.2224 265.604 91.4372V91.4377C265.601 91.8635 265.553 92.2856 265.51 92.6571C265.433 93.3273 265.168 95.4711 266.126 95.4711H266.488C267 95.4711 267.577 95.2971 268.219 94.9495C268.429 94.8356 267.089 91.6571 267.313 91.5057C267.513 91.3708 269.277 94.2668 269.489 94.1022C271.615 92.4466 271.317 93.9038 269.715 87.5374L269.715 87.5373ZM269.819 93.2085C269.39 93.3227 268.949 93.059 268.833 92.6196C268.716 92.1802 268.969 91.7311 269.398 91.6171C270.418 91.3456 270.838 92.9372 269.819 93.2085ZM267.427 93.917C267.544 94.3564 267.29 94.805 266.862 94.9194C266.433 95.0334 265.992 94.7697 265.876 94.3302C265.759 93.8907 266.012 93.4421 266.441 93.3278C266.87 93.2138 267.311 93.4775 267.427 93.917ZM260.237 81.1883C260.354 81.6277 260.1 82.0764 259.672 82.1906C259.243 82.3048 258.802 82.0409 258.685 81.6016C258.569 81.1621 258.822 80.7134 259.251 80.5994C259.679 80.4852 260.121 80.7488 260.237 81.1883ZM266.887 76.0501C267.003 76.4896 266.75 76.9385 266.322 77.0527C265.893 77.1669 265.451 76.9032 265.335 76.4636C265.219 76.0243 265.472 75.5756 265.901 75.4613C266.329 75.3472 266.771 75.611 266.887 76.0501Z" fill="#5382D8"/>
<path fill-rule="evenodd" clip-rule="evenodd" d="M252.122 75.1221L254.856 75.5277H257.219C257.74 75.5277 258.007 75.9197 258.007 76.6965C255.904 80.1065 254.856 83.6542 254.856 87.3324L255.637 93.2313C254.764 93.7206 253.96 94.1339 253.226 94.4704C253.035 94.5579 252.054 88.5231 251.873 88.6004C251.649 88.6956 252.228 94.9005 252.019 94.9801C250.95 95.3864 250.069 95.5895 249.375 95.5895L248.19 89.6905C248.457 89.2299 248.594 88.7074 248.594 88.1161C248.32 88.1161 248.19 87.9853 248.19 87.7105C247.71 87.7105 246.662 87.9786 245.059 88.5011C241.305 88.5011 238.599 80.2223 244.443 77.0514C244.759 76.88 244.751 81.3619 245.122 81.2202C245.347 81.1346 244.995 76.9109 245.241 76.8374C245.8 76.6693 246.735 76.4095 247.409 76.3115V82.5953H249.375C250.32 77.6177 251.238 75.1221 252.122 75.1221H252.122ZM254.093 91.7291C254.525 91.7291 254.876 92.0811 254.876 92.5154C254.876 92.9495 254.525 93.3015 254.093 93.3015C253.66 93.3015 253.309 92.9495 253.309 92.5154C253.309 92.0811 253.66 91.7291 254.093 91.7291ZM250.394 92.9706C250.826 92.9706 251.177 93.3225 251.177 93.7567C251.177 94.191 250.826 94.543 250.394 94.543C249.961 94.543 249.61 94.191 249.61 93.7567C249.61 93.3225 249.961 92.9706 250.394 92.9706ZM253.01 75.5561C253.443 75.5561 253.794 75.9081 253.794 76.3424C253.794 76.7765 253.443 77.1285 253.01 77.1285C252.578 77.1285 252.227 76.7765 252.227 76.3424C252.227 75.9081 252.578 75.5561 253.01 75.5561ZM255.99 75.9179C256.422 75.9179 256.773 76.2699 256.773 76.7042C256.773 77.1384 256.422 77.4904 255.99 77.4904C255.557 77.4904 255.206 77.1384 255.206 76.7042C255.206 76.2699 255.557 75.9179 255.99 75.9179ZM244.244 86.2454C244.676 86.2454 245.027 86.5974 245.027 87.0317C245.027 87.4658 244.676 87.8179 244.244 87.8179C243.811 87.8179 243.46 87.4658 243.46 87.0317C243.46 86.5974 243.811 86.2454 244.244 86.2454ZM246.431 86.0115C246.864 86.0115 247.215 86.3635 247.215 86.7977C247.215 87.232 246.864 87.5839 246.431 87.5839C245.998 87.5839 245.648 87.232 245.648 86.7977C245.648 86.3635 245.998 86.0115 246.431 86.0115ZM243.32 78.3557C243.753 78.3557 244.103 78.7077 244.103 79.142C244.103 79.5762 243.753 79.9282 243.32 79.9282C242.887 79.9282 242.536 79.5762 242.536 79.142C242.536 78.7077 242.887 78.3557 243.32 78.3557ZM246.233 77.1369C246.666 77.1369 247.017 77.4889 247.017 77.9232C247.017 78.3573 246.666 78.7093 246.233 78.7093C245.801 78.7093 245.45 78.3573 245.45 77.9232C245.45 77.4889 245.801 77.1369 246.233 77.1369Z" fill="#5382D8"/>
<path fill-rule="evenodd" clip-rule="evenodd" d="M222.5 92.4799C222.899 92.4799 223.222 92.8041 223.222 93.204C223.222 93.6039 222.899 93.9282 222.5 93.9282C222.102 93.9282 221.779 93.6041 221.779 93.204C221.779 92.8042 222.102 92.4799 222.5 92.4799ZM226.59 88.2738V90.2091C226.507 89.6658 226.465 89.0837 226.465 88.4627C226.506 88.399 226.548 88.3361 226.59 88.2738ZM224.928 89.7848C225.262 89.7848 225.532 90.0564 225.532 90.3916C225.532 90.7268 225.262 90.9983 224.928 90.9983C224.593 90.9983 224.323 90.7268 224.323 90.3916C224.323 90.0564 224.593 89.7848 224.928 89.7848ZM224.606 88.3569C224.921 88.3569 225.176 88.6133 225.176 88.9294C225.176 89.2456 224.921 89.5018 224.606 89.5018C224.291 89.5018 224.035 89.2455 224.035 88.9294C224.035 88.6131 224.291 88.3569 224.606 88.3569ZM211.647 90.9965C211.997 90.9965 212.28 91.2812 212.28 91.6327C212.28 91.984 211.997 92.2687 211.647 92.2687C211.297 92.2687 211.013 91.984 211.013 91.6327C211.013 91.2812 211.297 90.9965 211.647 90.9965ZM212.28 88.5744C212.631 88.5744 212.914 88.8591 212.914 89.2104C212.914 89.5618 212.631 89.8465 212.28 89.8465C211.93 89.8465 211.647 89.5618 211.647 89.2104C211.647 88.8591 211.93 88.5744 212.28 88.5744ZM209.947 94.1656C210.336 94.1656 210.651 94.4818 210.651 94.8721C210.651 95.2623 210.336 95.5786 209.947 95.5786C209.558 95.5786 209.243 95.2623 209.243 94.8721C209.243 94.4817 209.558 94.1656 209.947 94.1656ZM216.392 76.7906C216.567 76.7906 216.709 76.9331 216.709 77.1087C216.709 77.2843 216.567 77.4268 216.392 77.4268C216.217 77.4268 216.075 77.2843 216.075 77.1087C216.075 76.933 216.217 76.7906 216.392 76.7906ZM218.733 77.4955C219.083 77.4955 219.366 77.7803 219.366 78.1316C219.366 78.4831 219.083 78.7676 218.733 78.7676C218.382 78.7676 218.099 78.4831 218.099 78.1316C218.099 77.7803 218.382 77.4955 218.733 77.4955ZM219.237 75.7368H219.593C219.593 77.9077 219.795 79.8481 220.197 81.5577L220.125 81.5184C219.891 81.9526 219.482 82.9402 219.059 83.9622C218.526 85.2483 217.971 86.5895 217.725 86.9291L216.448 89.324L212.446 88.2771C213.7 85.6952 214.881 81.7513 215.983 76.4586C216.366 76.3412 216.72 76.2381 217.045 76.1493C217.209 76.1045 216.758 81.2573 216.907 81.2198C217.158 81.157 217.996 75.9101 218.205 75.8679C218.636 75.7806 218.98 75.7368 219.237 75.7368ZM223.774 88.012L223.738 87.8508C223.98 87.7952 224.33 87.6187 225.376 88.0641C226.057 88.3542 226.458 89.1778 226.458 90.9653V91.3553L226.42 91.1107L214.166 93.0546L210.172 92.783L209.331 91.3626C208.962 91.5813 208.928 90.5627 209.608 89.6667C209.744 89.4882 223.595 93.1221 209.831 89.4091C209.584 89.3426 210.534 88.8503 210.801 88.7333C211.229 88.5455 211.748 88.4284 212.372 88.4284L216.522 89.6847C218.938 89.1277 221.352 88.5705 223.774 88.012ZM218.659 88.8527C217.453 87.1513 218.152 87.3207 219.211 84.0257C219.607 83.0686 219.991 82.142 220.226 81.6793C220.792 84.0092 221.908 85.765 223.06 87.3651C223.202 87.5614 223.308 87.7066 223.395 87.782L221.563 88.2048L219.969 85.2362L220.851 88.3725L218.658 88.8529L218.659 88.8527ZM226.458 91.6055V92.1459C223.95 93.5579 222.135 94.5884 221.765 94.5884H221.402V94.224L221.765 92.4159L221.785 92.3469L226.458 91.6055ZM214.174 93.5519C214.149 94.9691 213.067 95.6747 210.927 95.6747C210.523 95.9154 209.92 96.0391 209.118 96.0391L209.065 91.444L210.026 92.9598C211.458 93.057 212.743 93.4535 214.174 93.5519Z" fill="#5382D8"/>
<path fill-rule="evenodd" clip-rule="evenodd" d="M239.472 87.8384V86.388L239.836 83.8715C239.596 83.8715 239.472 83.7478 239.472 83.5071C239.712 83.0879 239.836 82.6064 239.836 82.0564V81.6922C239.836 77.3676 238.034 75.209 234.437 75.209C234.277 75.209 234.131 75.2152 233.998 75.2286C234.353 76.4682 234.709 77.7082 235.064 78.9478L232.991 75.9307C230.772 75.9307 228.977 77.7388 227.613 81.3484C227.613 82.7853 228.326 83.5071 229.758 83.5071L230.484 83.1426V83.5071C231.47 83.3971 232.669 82.5583 234.074 80.9907C234.547 80.9907 235.026 81.7059 235.519 83.1426C235.401 83.1426 237.074 84.8591 237.013 84.9186C236.951 84.9795 235.156 83.3852 235.156 83.5071V85.3154C234.944 85.3154 233.992 85.0746 232.292 84.5934H230.484C229.189 85.2347 228.08 86.1469 227.151 87.3269L230.196 91.743L226.531 88.1961C226.531 92.2797 228.326 94.6862 231.929 95.408L234.972 94.0115L235.089 93.9573C235.047 93.7236 235.088 93.3655 235.137 92.9435C235.184 92.5328 235.238 92.0597 235.228 91.5911L233.968 90.1895C233.635 90.7845 233.308 91.0766 232.992 91.0766H232.649C231.203 91.0766 230.484 90.3617 230.484 88.9247C230.484 88.5255 230.979 88.2065 231.974 87.9721L231.112 87.014L232.077 87.9487C232.253 87.9093 232.443 87.8728 232.649 87.8384C233.573 88.0719 234.045 88.7513 234.073 89.8836L235.164 90.9414C235.114 90.6813 235.031 90.4328 234.902 90.2091C234.874 90.1611 234.814 89.8217 234.769 89.39C234.726 88.9805 234.693 88.4814 234.708 88.062C234.782 86.0272 234.874 87.1324 234.839 88.0668C234.824 88.4789 234.857 88.9716 234.899 89.3763C234.943 89.7912 234.994 90.1067 235.015 90.1428C235.183 90.4326 235.276 90.758 235.322 91.0954L235.323 91.0956V91.0964C235.352 91.3078 235.362 91.5237 235.361 91.7385V91.739C235.359 92.1648 235.31 92.5867 235.268 92.9584C235.191 93.6285 234.925 95.7724 235.883 95.7724H236.246C236.757 95.7724 237.334 95.5984 237.976 95.2506C238.187 95.1369 236.846 91.9584 237.07 91.8069C237.27 91.672 239.035 94.5681 239.246 94.4035C241.372 92.7478 241.074 94.2051 239.472 87.8385L239.472 87.8384ZM239.576 93.5097C239.148 93.624 238.706 93.3603 238.59 92.9208C238.474 92.4813 238.727 92.0324 239.155 91.9184C240.175 91.6469 240.596 93.2385 239.576 93.5097ZM237.185 94.2182C237.301 94.6576 237.048 95.1063 236.619 95.2205C236.191 95.3347 235.749 95.0708 235.633 94.6315C235.516 94.192 235.77 93.7433 236.198 93.6291C236.627 93.5151 237.068 93.7788 237.185 94.2182ZM229.995 81.4896C230.111 81.929 229.858 82.3776 229.429 82.4919C229.001 82.606 228.559 82.3422 228.443 81.9029C228.326 81.4634 228.58 81.0147 229.008 80.9007C229.437 80.7863 229.878 81.05 229.995 81.4896ZM236.645 76.3514C236.761 76.7909 236.508 77.2398 236.079 77.3538C235.65 77.4681 235.209 77.2044 235.092 76.7649C234.976 76.3255 235.229 75.8769 235.658 75.7626C236.087 75.6485 236.528 75.9123 236.645 76.3514Z" fill="#5382D8"/>
<path fill-rule="evenodd" clip-rule="evenodd" d="M239.472 87.8384V86.388L239.836 83.8715C239.596 83.8715 239.472 83.7478 239.472 83.5071C239.712 83.0879 239.836 82.6064 239.836 82.0564V81.6922C239.836 77.3676 238.034 75.209 234.437 75.209C234.277 75.209 234.131 75.2152 233.998 75.2286C234.353 76.4682 234.709 77.7082 235.064 78.9478L232.991 75.9307C230.772 75.9307 228.977 77.7388 227.613 81.3484C227.613 82.7853 228.326 83.5071 229.758 83.5071L230.484 83.1426V83.5071C231.47 83.3971 232.669 82.5583 234.074 80.9907C234.547 80.9907 235.026 81.7059 235.519 83.1426C235.401 83.1426 237.074 84.8591 237.013 84.9186C236.951 84.9795 235.156 83.3852 235.156 83.5071V85.3154C234.944 85.3154 233.992 85.0746 232.292 84.5934H230.484C229.189 85.2347 228.08 86.1469 227.151 87.3269L230.196 91.743L226.531 88.1961C226.531 92.2797 228.326 94.6862 231.929 95.408L234.972 94.0115L235.089 93.9573C235.047 93.7236 235.088 93.3655 235.137 92.9435C235.184 92.5328 235.238 92.0597 235.228 91.5911L233.968 90.1895C233.635 90.7845 233.308 91.0766 232.992 91.0766H232.649C231.203 91.0766 230.484 90.3617 230.484 88.9247C230.484 88.5255 230.979 88.2065 231.974 87.9721L231.112 87.014L232.077 87.9487C232.253 87.9093 232.443 87.8728 232.649 87.8384C233.573 88.0719 234.045 88.7513 234.073 89.8836L235.164 90.9414C235.114 90.6813 235.031 90.4328 234.902 90.2091C234.874 90.1611 234.814 89.8217 234.769 89.39C234.726 88.9805 234.693 88.4814 234.708 88.062C234.782 86.0272 234.874 87.1324 234.839 88.0668C234.824 88.4789 234.857 88.9716 234.899 89.3763C234.943 89.7912 234.994 90.1067 235.015 90.1428C235.183 90.4326 235.276 90.758 235.322 91.0954L235.323 91.0956V91.0964C235.352 91.3078 235.362 91.5237 235.361 91.7385V91.739C235.359 92.1648 235.31 92.5867 235.268 92.9584C235.191 93.6285 234.925 95.7724 235.883 95.7724H236.246C236.757 95.7724 237.334 95.5984 237.976 95.2506C238.187 95.1369 236.846 91.9584 237.07 91.8069C237.27 91.672 239.035 94.5681 239.246 94.4035C241.372 92.7478 241.074 94.2051 239.472 87.8385L239.472 87.8384ZM239.576 93.5097C239.148 93.624 238.706 93.3603 238.59 92.9208C238.474 92.4813 238.727 92.0324 239.155 91.9184C240.175 91.6469 240.596 93.2385 239.576 93.5097ZM237.185 94.2182C237.301 94.6576 237.048 95.1063 236.619 95.2205C236.191 95.3347 235.749 95.0708 235.633 94.6315C235.516 94.192 235.77 93.7433 236.198 93.6291C236.627 93.5151 237.068 93.7788 237.185 94.2182ZM229.995 81.4896C230.111 81.929 229.858 82.3776 229.429 82.4919C229.001 82.606 228.559 82.3422 228.443 81.9029C228.326 81.4634 228.58 81.0147 229.008 80.9007C229.437 80.7863 229.878 81.05 229.995 81.4896ZM236.645 76.3514C236.761 76.7909 236.508 77.2398 236.079 77.3538C235.65 77.4681 235.209 77.2044 235.092 76.7649C234.976 76.3255 235.229 75.8769 235.658 75.7626C236.087 75.6485 236.528 75.9123 236.645 76.3514Z" fill="#5382D8"/>
</svg>
