<svg width="21" height="17" viewBox="0 0 21 17" fill="none" xmlns="http://www.w3.org/2000/svg">
<path fill-rule="evenodd" clip-rule="evenodd" d="M10.5 2C5.72727 2 1.65136 4.59167 0 8.25C1.65136 11.9083 5.72727 14.5 10.5 14.5C15.2727 14.5 19.3486 11.9083 21 8.25C19.3486 4.59167 15.2727 2 10.5 2ZM10.5 12.4167C7.86543 12.4167 5.72725 10.55 5.72725 8.24999C5.72725 5.94999 7.86543 4.08333 10.5 4.08333C13.1345 4.08333 15.2727 5.94999 15.2727 8.24999C15.2727 10.55 13.1345 12.4167 10.5 12.4167ZM7.63634 8.25C7.63634 6.86667 8.91543 5.75 10.5 5.75C12.0845 5.75 13.3636 6.86667 13.3636 8.25C13.3636 9.63333 12.0845 10.75 10.5 10.75C8.91543 10.75 7.63634 9.63333 7.63634 8.25Z" fill="#BDBDBD"/>
<path d="M1.74797 2.15958C1.33488 1.79301 1.29716 1.16097 1.66373 0.747878C2.0303 0.334785 2.66234 0.29707 3.07543 0.663638L18.6937 14.5229C19.1068 14.8895 19.1445 15.5215 18.7779 15.9346C18.4114 16.3477 17.7793 16.3854 17.3662 16.0188L1.74797 2.15958Z" fill="#BDBDBD"/>
</svg>
