<svg width="19" height="28" viewBox="0 0 19 28" fill="none" xmlns="http://www.w3.org/2000/svg">
<path d="M16.608 12.9187H10.0424V9.51998H11.8253C15.102 9.51998 17.7676 6.85433 17.7676 3.57761V0.16626H14.3563C12.1732 0.16626 10.2608 1.3501 9.22818 3.10921C8.1951 1.3501 6.28372 0.16626 4.10007 0.16626H0.688723V3.57761C0.688723 6.85383 3.35437 9.51998 6.6311 9.51998H8.41341V12.9187H8.08518L6.43295 12.9167L1.84332 12.9172C0.825862 12.9172 0 13.7602 0 14.8029L0.56671 17.1191H17.8876L18.4543 14.8019C18.4538 13.7622 17.6295 12.9187 16.607 12.9187H16.608ZM1.14754 19.4893L1.74349 21.9246H16.7124L17.3083 19.4893H1.14754ZM2.0334 23.1094L2.76901 26.1144C3.16883 27.3703 4.16763 28 5.53752 28L12.9183 27.999C14.3472 27.999 15.3173 27.275 15.6869 26.1139L16.4225 23.1094H2.0334Z" fill="#AE4A84"/>
</svg>
