<svg width="22" height="32" viewBox="0 0 22 32" fill="none" xmlns="http://www.w3.org/2000/svg">
<path fill-rule="evenodd" clip-rule="evenodd" d="M2.19889 10.5213C2.06363 11.019 1.92316 11.919 2.37404 12.2589C2.87 12.6317 3.48562 11.7751 3.63649 11.3589L3.66597 11.43C3.68678 11.4751 3.68678 11.4855 3.71626 11.534C3.85499 11.7595 4.13939 11.7404 4.33362 11.5843C4.57813 11.3884 4.75675 11.0207 4.77062 10.6669C5.37584 11.3658 5.7244 10.8386 5.92729 10.0929C5.95677 10.1693 5.97758 10.0444 5.93596 10.2629C6.62615 10.4346 6.84292 9.53629 8.63602 10.7276L9.37303 11.312C9.27072 11.4872 9.14759 11.5392 8.99325 11.6398C8.84238 11.7386 8.71579 11.8496 8.56839 11.9641C8.28746 12.1809 8.01 12.4219 7.75681 12.6855C6.95044 13.5265 5.13479 15.6439 6.0192 16.8509C6.862 18.0006 7.77242 19.1226 8.70018 20.2082L9.43026 21.0128C10.802 22.3499 10.2366 21.5227 12.5257 20.2689C12.6939 20.1752 12.8309 20.1354 13.0182 20.0608C13.2558 19.9654 13.8228 19.7504 14.0691 19.7608C13.8072 19.988 13.5783 20.1579 13.3147 20.4267C12.7858 20.9677 12.3193 21.5764 12.0107 22.2718C11.5355 23.3435 11.8286 23.373 12.5448 24.169C12.7876 24.4395 13.0199 24.6771 13.2662 24.9355L17.8877 29.3228C18.5726 29.935 20.4386 31.5529 21.29 31.794C21.2952 31.7957 21.4374 31.8269 21.4409 31.8269C21.9091 31.8824 21.9716 31.3951 21.9906 31.0362C22.1224 28.6188 20.8305 24.1499 20.142 21.6146C20.0883 21.4186 20.0033 20.9123 19.8663 20.8099C19.5126 20.5429 18.4651 20.7891 18.0229 20.8741C17.716 20.9313 17.4871 21.0597 17.1628 21.0475C17.4784 20.7111 17.7559 20.366 18.1981 20.1856C19.2854 19.74 19.8871 19.7747 19.4241 18.1394C19.0738 16.9099 18.9212 16.1694 18.3351 14.9641C17.9674 14.2081 17.5339 14.0745 16.4622 14.2445C16.2402 14.2792 16.0235 14.3138 15.7963 14.378C15.5466 14.4456 15.3697 14.5306 15.1408 14.6069C15.3628 13.7919 16.1483 13.5075 16.8004 13.1572C17.6154 12.7167 17.5929 13.145 16.7726 10.7502C16.6408 10.3635 16.3894 10.1727 15.9472 9.9993C14.4853 9.42877 12.1633 9.96462 10.8037 10.6063C10.6216 10.693 10.5124 10.7849 10.2939 10.7831L10.1655 9.85364C10.1447 9.45652 10.1361 9.30391 10.1898 8.8357C10.2314 8.46286 10.3996 8.09522 10.606 7.89059C10.7603 7.73798 11.1731 7.5455 11.0638 7.29405C11.0586 7.28537 11.0482 7.26977 11.043 7.2611L10.9945 7.19693C11.7384 7.39983 12.3696 7.36861 12.0766 6.49114C12.3904 6.66108 12.7598 6.67322 13.0511 6.59172C13.2801 6.52755 13.4847 6.30385 13.3772 6.0576L13.2488 5.86685C13.6789 5.94662 14.6778 5.85644 14.6691 5.27897C14.6622 4.80902 13.9043 4.37895 13.3095 4.21595C13.7344 3.87779 14.5061 4.046 14.6257 3.25003C14.7402 2.49047 14.0136 2.24249 13.3928 2.07255C13.45 1.86272 13.4552 1.91127 13.4257 1.74826C13.1951 1.70491 13.0789 1.7656 12.9089 1.8367C12.7182 1.91474 12.6297 2.01359 12.4199 1.9737C12.7251 1.61994 12.3956 1.51242 12.4026 1.51415C12.4043 1.51415 12.2118 1.39797 11.6552 1.78121C11.4575 1.91647 11.102 2.21128 11.0049 2.4766C10.9997 2.46446 10.9806 2.44365 10.9893 2.44192C10.9997 2.44018 10.9771 2.41417 10.9736 2.40724L10.854 2.21301C10.4916 2.21128 10.1777 2.68123 9.95397 2.93095C9.62275 3.29858 9.49962 3.51362 9.33141 4.13271C9.27245 4.00958 9.25684 3.92981 9.12852 3.85524C8.83371 4.17086 8.65857 4.63387 8.64469 5.13677C8.63776 5.37782 8.68631 5.4073 8.64816 5.61366L8.49209 5.57204C8.16607 6.17552 8.5077 7.16052 8.48342 7.84724C8.26838 7.60099 7.89381 6.07668 7.86086 5.67089C7.81751 5.12984 7.93369 4.27664 7.72213 3.87085C7.55912 3.55697 7.43946 3.77721 7.20536 3.77547C7.66143 2.10376 6.99726 1.36328 6.48569 1.67196L6.21863 1.89393C6.32094 1.51762 6.21169 0.960962 6.08337 0.704309C6.00186 0.539566 5.89261 0.402569 5.64289 0.34014C5.37237 0.272509 5.20242 0.334937 5.0897 0.530895C4.72033 0.184067 4.155 -0.289353 3.47695 0.230889C2.74861 0.791017 3.25672 1.47774 3.35903 1.78121C2.62029 1.59739 2.25612 2.81302 3.84806 3.24829C3.70759 3.36968 3.54805 3.41997 3.53591 3.6853C3.50123 4.44832 4.41512 4.6252 4.88334 4.75179C4.77582 4.94949 4.41339 5.23909 5.04982 5.83563C5.41052 6.17206 7.57646 7.62353 7.85046 8.33973C7.69785 8.25823 7.5071 8.09348 7.3805 7.99811C7.20709 7.86631 7.09784 7.79174 6.90361 7.65995C6.52904 7.4033 6.31574 7.1345 5.7955 7.11369L5.75388 7.26977C5.55445 7.19693 5.57873 7.15705 5.38277 7.04433C5.28219 6.98537 5.06369 6.87091 4.92669 6.82236C4.52958 6.67842 4.27292 6.72698 3.99546 6.78941L4.13246 7.10329C3.33475 6.88652 2.94284 6.95936 2.20236 7.16398C1.98559 7.22468 1.82432 7.24029 1.7064 7.44318L1.85727 7.70677C1.58327 7.65648 1.17401 7.80562 0.962449 7.89926C0.773427 7.9825 0.273995 8.1958 0.319083 8.45418C0.327753 8.5669 0.251451 8.54956 0.443941 8.64841C0.570533 8.71257 0.620824 8.68656 0.705797 8.67095C0.586141 8.99697 0.163009 8.9779 0 9.42357C0.124858 9.53109 0.0867082 9.50334 0.296539 9.56057C0.130062 10.1727 -0.0277455 10.934 0.684986 11.2201C1.17922 11.4178 1.5746 11.0727 1.88154 10.8039L2.20236 10.523L2.19889 10.5213Z" fill="#F39314"/>
</svg>
