<svg width="33" height="32" viewBox="0 0 33 32" fill="none" xmlns="http://www.w3.org/2000/svg">
<path fill-rule="evenodd" clip-rule="evenodd" d="M16.6573 13.0255C17.0655 13.6346 17.5735 14.3225 17.2066 15.2657C16.9233 15.9931 16.1744 16.595 15.4048 16.595C14.8291 16.595 14.1974 16.1882 13.7768 15.906C13.6535 16.367 13.1144 16.8108 12.671 17.0547C11.9786 17.4348 11.1067 17.1502 10.566 16.6115C10.0095 16.057 9.95687 15.7746 9.95687 14.9668C9.95687 14.667 10.0488 14.3529 10.1447 14.1527C9.36965 13.7806 8.26612 13.3977 8.26612 11.961C8.26612 10.5014 9.53537 10.1799 10.7082 10.0819C10.7082 9.67421 10.7084 9.37936 10.7969 9.04343C10.8699 8.76483 11.0055 8.46953 11.1636 8.28283C11.7032 7.6464 12.6696 7.36577 13.5287 7.76267C13.8461 7.90941 14.273 8.39819 14.4464 8.72397C14.5762 8.96757 14.609 9.16985 14.716 9.39313C15.6127 8.91858 16.5808 8.92738 17.3003 9.75255C18.4472 11.0681 17.5502 12.7866 16.6575 13.0252L16.6573 13.0255ZM9.36333 0.000225295H9.76339C10.2081 0.0431204 10.645 0.227118 11.0717 0.513838C11.4614 0.775499 11.8079 1.00465 12.1985 1.26541L25.7249 10.2826C26.1116 10.5405 26.4823 10.7547 26.7582 11.1279C27.6188 12.2906 27.2222 13.2092 26.5512 14.2155L23.8585 18.2857C22.0863 18.2857 21.3609 18.3693 20.477 20.039C19.7604 19.8722 20.2201 19.6634 18.849 19.6634C17.8496 19.6634 17.198 20.5642 16.9705 21.5419C16.6691 21.4717 16.5783 21.3541 16.1563 21.3541C15.0709 21.3541 13.7768 22.3761 13.7768 23.7334C13.5637 23.6765 12.2398 22.7502 11.9483 22.5561L1.17646 15.3556C0.271594 14.7543 0.00835327 14.2042 0 13.1986V13.1505C0 12.5317 0.646363 11.6801 0.926761 11.2595L6.5379 2.78051C6.99349 2.10028 7.70803 0.766017 8.36952 0.353998C8.70478 0.145392 9.03598 0.03251 9.36356 0L9.36333 0.000225295Z" fill="#E96C6C"/>
<path fill-rule="evenodd" clip-rule="evenodd" d="M13.0876 14.8414C16.4781 14.8414 16.2101 10.145 13.2129 10.145C12.003 10.145 10.9246 11.1002 10.8772 12.4252C10.8329 13.6514 11.8292 14.8416 13.0876 14.8416V14.8414Z" fill="#E96C6C"/>
<path fill-rule="evenodd" clip-rule="evenodd" d="M29.0562 31.9998H29.9956C30.718 31.9998 32.1198 31.5992 32.0225 30.9655C31.8148 29.6114 27.0426 29.729 26.9617 30.9436C26.9173 31.6092 28.296 32 29.0562 32V31.9998Z" fill="#E96C6C"/>
<path fill-rule="evenodd" clip-rule="evenodd" d="M21.479 22.2934C21.479 23.2565 22.0457 23.8918 22.6846 24.5323C23.5542 25.404 25.3617 26.4107 25.3617 25.1741C25.3617 24.0485 23.2802 21.9177 21.9802 21.9177C21.7513 21.9177 21.479 22.0904 21.479 22.2934Z" fill="#E96C6C"/>
<path fill-rule="evenodd" clip-rule="evenodd" d="M27.3027 26.3641C27.3027 28.917 28.3704 28.9967 29.0483 27.2326C29.7807 25.3253 29.1745 22.6598 28.099 23.8416C27.684 24.2977 27.3027 25.4956 27.3027 26.3643V26.3641Z" fill="#E96C6C"/>
<path fill-rule="evenodd" clip-rule="evenodd" d="M21.3545 27.4282C21.3545 28.3807 23.5232 29.4323 24.6107 29.4323C24.9884 29.4323 25.4927 29.4707 25.7009 29.0765C26.1714 28.1874 23.9977 27.0085 22.7904 26.8681C22.2501 26.8049 21.3545 26.7845 21.3545 27.4282Z" fill="#E96C6C"/>
</svg>
