<svg width="19" height="35" viewBox="0 0 19 35" fill="none" xmlns="http://www.w3.org/2000/svg">
<path d="M8.75977 13.0004V5.14258H9.79774V13.0004H8.75977Z" fill="#75AEA4"/>
<path d="M15.5002 6.68736C15.0478 8.172 14.4223 9.42926 13.4309 10.1783C12.4063 10.954 11.0423 11.1814 9.16594 10.5595L8.75342 10.4257L8.8133 9.9977C9.09941 8.02487 9.9045 6.90137 11.0556 6.32624C12.1667 5.77117 13.564 5.77117 15.0877 6.0253L15.6732 6.12561L15.5002 6.69405V6.68736Z" fill="#75AEA4"/>
<path d="M4.46833 0.0200626C6.01198 0.0802505 7.38263 0.361127 8.36072 1.12351C9.37208 1.91932 9.94429 3.17658 9.83118 5.16947L9.80457 5.60416L9.37873 5.65766C7.40925 5.89173 6.12509 5.39685 5.27343 4.42715C4.45503 3.4909 4.08908 2.13333 3.9427 0.588504L3.88281 0L4.46833 0.0200626Z" fill="#75AEA4"/>
<path fill-rule="evenodd" clip-rule="evenodd" d="M18.9852 25H0.553711C0.644209 26.0906 1.29061 26.2686 2.07987 26.2686H8.22785V32.4546H5.91903C5.49319 32.4546 5.1472 32.8024 5.1472 33.2304C5.1472 33.6584 5.49319 34.0061 5.91903 34.0061H13.6107C14.0365 34.0061 14.3825 33.6584 14.3825 33.2304C14.3825 32.8024 14.0365 32.4546 13.6107 32.4546H11.3018V26.2686H17.4498C18.2355 26.2686 18.925 26.0296 18.9852 25ZM14.3891 12.3585L18.7302 24H0.812781L5.15386 12.3585C5.75934 11.2752 6.16521 10.8137 7.46268 10.8137H8.99967V10.038C8.99967 9.60996 9.34566 9.26221 9.77149 9.26221C10.1973 9.26221 10.5433 9.60996 10.5433 10.038V10.8137H12.0803C13.3645 10.8137 13.8635 11.3019 14.3891 12.3585Z" fill="#75AEA4"/>
</svg>
