<svg width="31" height="28" viewBox="0 0 31 28" fill="none" xmlns="http://www.w3.org/2000/svg">
<path d="M28.2222 0.167247H26.3668V2.02259C26.3668 3.04758 25.5377 3.87793 24.5115 3.87793L22.6574 3.87669C21.6312 3.87669 20.802 3.04512 20.802 2.02135V0.166016L9.66878 0.167247V2.02259C9.66878 3.04758 8.83967 3.87793 7.81344 3.87793L5.95811 3.87669C4.93188 3.87669 4.10277 3.04512 4.10277 2.02135V0.166016L2.24743 0.167247C1.2212 0.167247 0.39209 0.998823 0.39209 2.02259V26.1445C0.39209 27.1682 1.2212 27.9998 2.24743 27.9998L28.2234 27.9986C29.2496 27.9986 30.0787 27.1682 30.0787 26.1432V2.02135C30.0787 0.997591 29.2496 0.166016 28.2234 0.166016L28.2222 0.167247ZM11.5229 24.2879H7.81221V20.5772H11.5229V24.2879ZM11.5229 18.7219H7.81221V15.01H11.5229V18.7219ZM11.5229 13.1546H7.81221V9.44271L11.5229 9.44394V13.1546ZM17.0889 24.2879H13.3782V20.5772H17.0889V24.2879ZM17.0889 18.7219H13.3782V15.01H17.0889V18.7219ZM17.0889 13.1546H13.3782V9.44271L17.0889 9.44394V13.1546ZM22.6562 24.2879H18.9442V20.5772H22.6562V24.2879ZM22.6562 18.7219H18.9442V15.01H22.6562V18.7219ZM22.6562 13.1546H18.9442V9.44271L22.6562 9.44394V13.1546Z" fill="#A9C0EB"/>
</svg>
