<svg width="24" height="28" viewBox="0 0 24 28" fill="none" xmlns="http://www.w3.org/2000/svg">
<path d="M12.7789 5.06618C12.7789 4.46111 13.0592 3.89009 13.5359 3.51814L15.7715 1.84307C15.9732 1.67543 16.0073 1.37944 15.8501 1.16989L15.2359 0.384086C15.156 0.279312 15.0381 0.211208 14.9085 0.195492C14.7788 0.178467 14.6465 0.215138 14.5444 0.296338L12.1372 2.11941C11.299 2.76901 10.8105 3.77091 10.8157 4.83175V8.04962H12.7815V5.06749L12.7789 5.06618Z" fill="#60A04E"/>
<path d="M4.11091 5.59126C5.49131 6.35742 7.62477 6.98214 9.02482 6.24479L5.12853 3.53769C4.9216 3.37791 4.87707 3.08323 5.02637 2.86844C5.17568 2.65366 5.46643 2.59341 5.68907 2.73093L9.6993 5.53625C9.79491 5.31492 9.84074 5.07525 9.83158 4.83427C9.79228 3.58615 8.535 1.97001 6.66216 0.90262C4.79063 -0.163457 1.54132 0.184917 0.210693 0.381369C0.987332 2.15074 2.42667 4.65615 4.11222 5.58995L4.11091 5.59126Z" fill="#60A04E"/>
<path d="M21.8583 7.50191C19.9213 5.03187 16.4441 4.39929 13.7606 6.02853V8.04805H14.2517C14.5228 8.04805 14.7429 8.26807 14.7429 8.53918C14.7429 8.81028 14.5228 9.03031 14.2517 9.03031H9.33782C9.06672 9.03031 8.84669 8.81028 8.84669 8.53918C8.84669 8.26807 9.06672 8.04805 9.33782 8.04805H9.82895V6.89291C8.10934 8.18033 4.95957 7.38404 3.20068 6.18045C0.650736 7.86076 -0.0473229 10.6032 0.00244477 13.6797C0.0391157 16.5596 0.728006 19.3938 2.01673 21.9699C3.3526 24.6037 6.35961 28.5982 9.07719 27.5269C9.50153 27.3579 9.89705 27.1261 10.252 26.8393C11.1517 26.1124 12.4378 26.1124 13.3376 26.8393C14.7429 27.9643 16.2162 28.0625 17.9411 26.6716C20.8053 24.381 23.4836 19.4972 23.5871 13.6797C23.6316 10.9228 23.096 9.03162 21.857 7.50322L21.8583 7.50191ZM1.50988 9.841C1.5793 9.65371 1.65264 9.47691 1.73515 9.30534C1.85433 9.06043 2.14901 8.95958 2.39391 9.08007C2.63882 9.19925 2.73967 9.49393 2.61918 9.73884C2.54977 9.88159 2.4869 10.0283 2.42797 10.1854C2.37427 10.3596 2.22759 10.4893 2.04816 10.5233C1.86873 10.5574 1.68669 10.488 1.57275 10.3452C1.46012 10.2025 1.43523 10.0086 1.50857 9.84231L1.50988 9.841ZM4.18817 22.7885C4.07685 22.8566 3.94195 22.8775 3.81491 22.8461C3.68787 22.8147 3.57786 22.7335 3.51107 22.6208C1.60156 19.3925 0.742414 15.6507 1.05412 11.9142C1.07114 11.7387 1.18115 11.5855 1.34225 11.5135C1.50334 11.4414 1.69062 11.4598 1.83337 11.5632C1.97744 11.6667 2.0534 11.8383 2.03637 12.0137C1.74039 15.5407 2.5537 19.0729 4.36105 22.1166C4.49988 22.3497 4.4226 22.6509 4.18817 22.7898V22.7885Z" fill="#60A04E"/>
</svg>
