<svg width="60" height="60" viewBox="0 0 60 60" fill="none" xmlns="http://www.w3.org/2000/svg">
<path fill-rule="evenodd" clip-rule="evenodd" d="M6.044 5.51586L24.2534 0.70216L24.2872 0.706061L24.4564 0.663152L24.6257 0.620242L24.7949 0.581233L24.9641 0.542224L25.1382 0.503215L25.3123 0.468107L25.4863 0.432999L25.6604 0.397891L25.8345 0.366684L26.0134 0.335477L26.1923 0.30427L26.3712 0.276963L26.5501 0.249657L26.729 0.222351L26.9079 0.198945L27.0868 0.17554L27.2705 0.156036L27.4543 0.136531L27.638 0.117027L27.8217 0.101423L28.0055 0.0858195L28.1892 0.070216L28.373 0.0585134L28.5567 0.0468108L28.7404 0.0351079L28.9242 0.0273063L29.1079 0.0195043L29.2916 0.0117026L29.4754 0.00780177L29.6591 0.00390079L29.8429 0H30.0266H30.2103L30.3941 0.00390079L30.5778 0.00780177L30.7615 0.0117026L30.9453 0.0195043L31.129 0.0273063L31.3128 0.0351079L31.4965 0.0468108L31.6802 0.0585134L31.864 0.070216L32.0477 0.0858195L32.2314 0.101423L32.4152 0.117027L32.5989 0.136531L32.7827 0.156036L32.9664 0.17554L33.1453 0.198945L33.3242 0.222351L33.5031 0.249657L33.682 0.276963L33.8609 0.30427L34.0398 0.335477L34.2139 0.366684L34.3879 0.397891L34.562 0.432999L34.7361 0.468107L34.9101 0.503215L35.0842 0.542224L35.2534 0.581233L35.4227 0.620242L35.5919 0.663152L35.7611 0.706061L53.9705 5.51976C54.2026 5.58218 54.4298 5.64849 54.6523 5.71481C54.7635 5.74991 54.8747 5.78502 54.9811 5.82013L55.1406 5.87474C55.1843 5.89076 55.228 5.90612 55.2713 5.92136C55.3335 5.94324 55.3951 5.96488 55.4549 5.98787L55.6096 6.04638C55.7644 6.10489 55.9143 6.16341 56.0593 6.22582L56.2044 6.28824L56.3446 6.35065L56.4848 6.41306L56.625 6.47938L56.7604 6.54569L56.891 6.61201L57.0215 6.67833L57.1472 6.74854L57.2729 6.81876L57.3938 6.88897L57.5147 6.95919L57.6307 7.03331C57.7081 7.08012 57.7855 7.13083 57.858 7.18154L57.9692 7.25566L58.0756 7.33368L58.182 7.41169L58.2835 7.48971L58.385 7.56773L58.4817 7.64575L58.5736 7.72376L58.6655 7.80568L58.7525 7.8876L58.8396 7.96952L58.9218 8.05144L59.0039 8.13336L59.0813 8.21528L59.1538 8.3011L59.2264 8.38692L59.2941 8.47274L59.3569 8.55855L59.4198 8.64437L59.4778 8.73019L59.5358 8.81991L59.589 8.90964L59.6374 8.99936L59.6857 9.08908L59.7292 9.1788L59.7679 9.26852L59.8066 9.35824L59.8404 9.44796L59.8694 9.54158L59.8985 9.6352L59.9226 9.72882L59.942 9.82244L59.9613 9.91607L59.9758 10.0097L59.9855 10.1033L59.9952 10.1969L60 10.2906V10.3842V10.6849V11.4963V21.5134V38.4866V48.5037V49.3151V49.6158V49.7094L59.9952 49.8031L59.9855 49.8967L59.9758 49.9903L59.9613 50.0839L59.942 50.1776L59.9226 50.2712L59.8985 50.3648L59.8694 50.4584L59.8404 50.552L59.8066 50.6418L59.7679 50.7315L59.7292 50.8212L59.6857 50.9109L59.6374 51.0006L59.589 51.0904L59.5358 51.1801L59.4778 51.2698L59.4198 51.3556L59.3569 51.4414L59.2941 51.5273L59.2264 51.6131L59.1538 51.6989L59.0813 51.7847L59.0039 51.8666L58.9218 51.9486L58.8396 52.0305L58.7525 52.1124L58.6655 52.1943L58.5736 52.2762L58.4817 52.3543L58.385 52.4323L58.2835 52.5103L58.182 52.5883L58.0756 52.6663L57.9692 52.7443L57.858 52.8185C57.7855 52.8692 57.7081 52.9199 57.6307 52.9667L57.5147 53.0408L57.3938 53.111L57.2729 53.1812L57.1472 53.2515L57.0215 53.3217L56.891 53.388L56.7604 53.4543L56.625 53.5206L56.4848 53.5869L56.3446 53.6493L56.2044 53.7118L56.0593 53.7742C55.9143 53.8366 55.7644 53.8951 55.6096 53.9536L55.4549 54.0121C55.3951 54.0351 55.3335 54.0568 55.2713 54.0786C55.228 54.0939 55.1843 54.1092 55.1406 54.1253L54.9811 54.1799C54.8747 54.215 54.7635 54.2501 54.6523 54.2852C54.4298 54.3515 54.2026 54.4178 53.9705 54.4802L35.7611 59.2939L35.5919 59.3368L35.4227 59.3798L35.2534 59.4188L35.0842 59.4578L34.9101 59.4968L34.7361 59.5319L34.562 59.567L34.3879 59.6021L34.2139 59.6333L34.0398 59.6645L33.8609 59.6957L33.682 59.723L33.5031 59.7503L33.3242 59.7776L33.1453 59.8011L32.9664 59.8245L32.7827 59.844L32.5989 59.8635L32.4152 59.883L32.2314 59.8986L32.0477 59.9142L31.864 59.9298L31.6802 59.9415L31.4965 59.9532L31.3128 59.9649L31.129 59.9727L30.9453 59.9805L30.7615 59.9883L30.5778 59.9922L30.3941 59.9961L30.2103 60H30.0266H29.8429L29.6591 59.9961L29.4754 59.9922L29.2916 59.9883L29.1079 59.9805L28.9242 59.9727L28.7404 59.9649L28.5567 59.9532L28.373 59.9415L28.1892 59.9298L28.0055 59.9142L27.8217 59.8986L27.638 59.883L27.4543 59.8635L27.2705 59.844L27.0868 59.8245L26.9079 59.8011L26.729 59.7776L26.5501 59.7503L26.3712 59.723L26.1923 59.6957L26.0134 59.6645L25.8345 59.6333L25.6604 59.6021L25.4863 59.567L25.3123 59.5319L25.1382 59.4968L24.9641 59.4578L24.7949 59.4188L24.6257 59.3798L24.4564 59.3368L24.2872 59.2939L24.2534 59.2978L6.044 54.4841C5.81191 54.4217 5.58466 54.3593 5.36224 54.2891L5.36141 54.2888C5.25047 54.2538 5.13955 54.2188 5.03344 54.1838L4.87388 54.1292C4.76751 54.0941 4.66113 54.055 4.55959 54.016L4.40487 53.9575L4.25498 53.899L4.10509 53.8405L3.96003 53.7781L3.81497 53.7157L3.66992 53.6533L3.5297 53.5908L3.38948 53.5245L3.25409 53.4582L3.1187 53.3919L2.98815 53.3256L2.8576 53.2554L2.73189 53.1851L2.60617 53.1149L2.48529 53.0447L2.36925 52.9706L2.2532 52.8965L2.14199 52.8224L2.03078 52.7482L1.92441 52.6702L1.81804 52.5922L1.7165 52.5142L1.61496 52.4362L1.51825 52.3582L1.42638 52.2801L1.33452 52.1982L1.24748 52.1163L1.16045 52.0344L1.07825 51.9525L1.00089 51.8705L0.923523 51.7847L0.850995 51.6989L0.778467 51.6131L0.710775 51.5273L0.647917 51.4414L0.585059 51.3556L0.527037 51.2698L0.469015 51.1801L0.415827 51.0904L0.367475 51.0006L0.319123 50.9109L0.275606 50.8212L0.236925 50.7315L0.198243 50.6418L0.164397 50.552L0.13055 50.4584L0.101539 50.3648L0.0773631 50.2712L0.0580224 50.1776L0.0386816 50.0839L0.0241761 49.9903L0.0145055 49.8967L0.00483531 49.8031L0 49.7094V49.6158V49.3151V38.4866V21.5134V10.6849V10.3842V10.2906L0.00483531 10.1969L0.0145055 10.1033L0.0241761 10.0097L0.0386816 9.91607L0.0580224 9.82244L0.0773631 9.72882L0.101539 9.6352L0.13055 9.54158L0.164397 9.44796L0.198243 9.35824L0.236925 9.26852L0.275606 9.1788L0.319123 9.08908L0.367475 8.99936L0.415827 8.90964L0.469015 8.81991L0.527037 8.73019L0.585059 8.64437L0.647917 8.55855L0.710775 8.47274L0.778467 8.38692L0.850995 8.3011L0.923523 8.21528L1.00089 8.12946L1.07825 8.04754L1.16045 7.96562L1.24748 7.8837L1.33452 7.80178L1.42638 7.71986L1.51825 7.64185L1.61496 7.56383L1.7165 7.48581L1.81804 7.40779L1.92441 7.32977L2.03078 7.25176L2.14199 7.17764L2.2532 7.10352L2.36925 7.02941L2.48529 6.95529L2.60617 6.88507L2.73189 6.81486L2.8576 6.74464L2.98815 6.67442L3.1187 6.60811L3.25409 6.54179L3.38948 6.47548L3.5297 6.40916L3.66992 6.34675L3.81497 6.28434L3.96003 6.22192L4.10509 6.15951L4.25498 6.10099L4.40487 6.04248L4.55959 5.98397C4.66113 5.94496 4.76751 5.90595 4.87388 5.87084L5.03344 5.81623C5.13982 5.78112 5.25103 5.74601 5.36224 5.7109C5.58466 5.64069 5.81191 5.57827 6.044 5.51586Z" fill="#53588A"/>
<path d="M25.4408 36.327L25.4948 35.472H25.4498L25.1258 36.165L24.0368 37.929H23.7848L22.6508 36.165L22.3538 35.472H22.3178L22.3898 36.318V39H21.7238V34.5H22.4348L23.6948 36.516L23.9558 37.038H23.9738L24.2438 36.498L25.4228 34.5H26.1428V39H25.4408V36.327ZM27.2725 36.75C27.2725 35.988 27.4405 35.406 27.7765 35.004C28.1185 34.596 28.6075 34.392 29.2435 34.392C29.5795 34.392 29.8705 34.449 30.1165 34.563C30.3685 34.671 30.5755 34.83 30.7375 35.04C30.8995 35.244 31.0195 35.493 31.0975 35.787C31.1755 36.075 31.2145 36.396 31.2145 36.75C31.2145 37.512 31.0435 38.097 30.7015 38.505C30.3655 38.907 29.8795 39.108 29.2435 39.108C28.9075 39.108 28.6135 39.054 28.3615 38.946C28.1155 38.832 27.9115 38.673 27.7495 38.469C27.5875 38.259 27.4675 38.01 27.3895 37.722C27.3115 37.428 27.2725 37.104 27.2725 36.75ZM28.0195 36.75C28.0195 36.978 28.0405 37.197 28.0825 37.407C28.1305 37.617 28.2025 37.8 28.2985 37.956C28.3945 38.112 28.5205 38.238 28.6765 38.334C28.8325 38.43 29.0215 38.478 29.2435 38.478C30.0595 38.484 30.4675 37.908 30.4675 36.75C30.4675 36.516 30.4435 36.294 30.3955 36.084C30.3535 35.874 30.2845 35.691 30.1885 35.535C30.0925 35.379 29.9665 35.256 29.8105 35.166C29.6545 35.07 29.4655 35.022 29.2435 35.022C28.4275 35.016 28.0195 35.592 28.0195 36.75ZM35.1577 36.336L35.1847 35.778H35.1577L34.7887 36.354L32.7637 39H32.3497V34.5H33.0697V37.245L33.0427 37.776H33.0787L33.4297 37.218L35.4547 34.5H35.8777V39H35.1577V36.336ZM33.3847 32.682C33.4447 32.958 33.5467 33.15 33.6907 33.258C33.8407 33.366 34.0117 33.42 34.2037 33.42C34.3957 33.42 34.5667 33.363 34.7167 33.249C34.8667 33.135 34.9687 32.949 35.0227 32.691L35.5627 32.862C35.5087 33.21 35.3527 33.477 35.0947 33.663C34.8427 33.849 34.5397 33.942 34.1857 33.942C34.0237 33.942 33.8617 33.921 33.6997 33.879C33.5437 33.837 33.4027 33.774 33.2767 33.69C33.1507 33.606 33.0427 33.498 32.9527 33.366C32.8627 33.234 32.8027 33.078 32.7727 32.898L33.3847 32.682ZM6.10391 44.833C6.33191 44.695 6.59591 44.593 6.89591 44.527C7.20191 44.461 7.51991 44.428 7.84991 44.428C8.16191 44.428 8.41091 44.47 8.59691 44.554C8.78891 44.638 8.93291 44.749 9.02891 44.887C9.13091 45.019 9.19691 45.166 9.22691 45.328C9.26291 45.49 9.28091 45.652 9.28091 45.814C9.28091 46.174 9.27191 46.525 9.25391 46.867C9.23591 47.209 9.22691 47.533 9.22691 47.839C9.22691 48.061 9.23591 48.271 9.25391 48.469C9.27191 48.667 9.30491 48.85 9.35291 49.018H8.82191L8.63291 48.388H8.58791C8.53391 48.472 8.46491 48.556 8.38091 48.64C8.30291 48.718 8.20691 48.79 8.09291 48.856C7.97891 48.916 7.84691 48.967 7.69691 49.009C7.54691 49.051 7.37591 49.072 7.18391 49.072C6.99191 49.072 6.81191 49.042 6.64391 48.982C6.48191 48.922 6.34091 48.838 6.22091 48.73C6.10091 48.616 6.00491 48.481 5.93291 48.325C5.86691 48.169 5.83391 47.992 5.83391 47.794C5.83391 47.53 5.88791 47.311 5.99591 47.137C6.10391 46.957 6.25391 46.816 6.44591 46.714C6.64391 46.606 6.87791 46.531 7.14791 46.489C7.42391 46.441 7.72691 46.417 8.05691 46.417C8.14091 46.417 8.22191 46.417 8.29991 46.417C8.38391 46.417 8.46791 46.423 8.55191 46.435C8.56991 46.255 8.57891 46.093 8.57891 45.949C8.57891 45.619 8.51291 45.388 8.38091 45.256C8.24891 45.124 8.00891 45.058 7.66091 45.058C7.55891 45.058 7.44791 45.067 7.32791 45.085C7.21391 45.097 7.09391 45.118 6.96791 45.148C6.84791 45.172 6.73091 45.205 6.61691 45.247C6.50891 45.283 6.41291 45.325 6.32891 45.373L6.10391 44.833ZM7.38191 48.442C7.54991 48.442 7.69991 48.421 7.83191 48.379C7.96391 48.331 8.07791 48.274 8.17391 48.208C8.26991 48.136 8.34791 48.058 8.40791 47.974C8.47391 47.89 8.52191 47.809 8.55191 47.731V46.984C8.46791 46.978 8.38091 46.975 8.29091 46.975C8.20691 46.969 8.12291 46.966 8.03891 46.966C7.85291 46.966 7.66991 46.978 7.48991 47.002C7.31591 47.02 7.15991 47.059 7.02191 47.119C6.88991 47.173 6.78191 47.251 6.69791 47.353C6.61991 47.449 6.58091 47.572 6.58091 47.722C6.58091 47.932 6.65591 48.106 6.80591 48.244C6.95591 48.376 7.14791 48.442 7.38191 48.442ZM13.7098 48.703C13.5298 48.835 13.3168 48.934 13.0708 49C12.8248 49.072 12.5668 49.108 12.2968 49.108C11.9488 49.108 11.6548 49.054 11.4148 48.946C11.1748 48.832 10.9768 48.673 10.8208 48.469C10.6708 48.259 10.5598 48.01 10.4878 47.722C10.4218 47.428 10.3888 47.104 10.3888 46.75C10.3888 45.988 10.5568 45.406 10.8928 45.004C11.2288 44.596 11.7118 44.392 12.3418 44.392C12.6298 44.392 12.8728 44.416 13.0708 44.464C13.2748 44.506 13.4578 44.569 13.6198 44.653L13.4128 45.274C13.2748 45.196 13.1218 45.136 12.9538 45.094C12.7858 45.046 12.6058 45.022 12.4138 45.022C11.5618 45.022 11.1358 45.598 11.1358 46.75C11.1358 46.978 11.1568 47.197 11.1988 47.407C11.2468 47.611 11.3218 47.794 11.4238 47.956C11.5318 48.112 11.6698 48.238 11.8378 48.334C12.0118 48.43 12.2248 48.478 12.4768 48.478C12.6928 48.478 12.8848 48.445 13.0528 48.379C13.2268 48.313 13.3678 48.238 13.4758 48.154L13.7098 48.703ZM17.5594 48.703C17.3794 48.835 17.1664 48.934 16.9204 49C16.6744 49.072 16.4164 49.108 16.1464 49.108C15.7984 49.108 15.5044 49.054 15.2644 48.946C15.0244 48.832 14.8264 48.673 14.6704 48.469C14.5204 48.259 14.4094 48.01 14.3374 47.722C14.2714 47.428 14.2384 47.104 14.2384 46.75C14.2384 45.988 14.4064 45.406 14.7424 45.004C15.0784 44.596 15.5614 44.392 16.1914 44.392C16.4794 44.392 16.7224 44.416 16.9204 44.464C17.1244 44.506 17.3074 44.569 17.4694 44.653L17.2624 45.274C17.1244 45.196 16.9714 45.136 16.8034 45.094C16.6354 45.046 16.4554 45.022 16.2634 45.022C15.4114 45.022 14.9854 45.598 14.9854 46.75C14.9854 46.978 15.0064 47.197 15.0484 47.407C15.0964 47.611 15.1714 47.794 15.2734 47.956C15.3814 48.112 15.5194 48.238 15.6874 48.334C15.8614 48.43 16.0744 48.478 16.3264 48.478C16.5424 48.478 16.7344 48.445 16.9024 48.379C17.0764 48.313 17.2174 48.238 17.3254 48.154L17.5594 48.703ZM18.088 46.75C18.088 45.988 18.256 45.406 18.592 45.004C18.934 44.596 19.423 44.392 20.059 44.392C20.395 44.392 20.686 44.449 20.932 44.563C21.184 44.671 21.391 44.83 21.553 45.04C21.715 45.244 21.835 45.493 21.913 45.787C21.991 46.075 22.03 46.396 22.03 46.75C22.03 47.512 21.859 48.097 21.517 48.505C21.181 48.907 20.695 49.108 20.059 49.108C19.723 49.108 19.429 49.054 19.177 48.946C18.931 48.832 18.727 48.673 18.565 48.469C18.403 48.259 18.283 48.01 18.205 47.722C18.127 47.428 18.088 47.104 18.088 46.75ZM18.835 46.75C18.835 46.978 18.856 47.197 18.898 47.407C18.946 47.617 19.018 47.8 19.114 47.956C19.21 48.112 19.336 48.238 19.492 48.334C19.648 48.43 19.837 48.478 20.059 48.478C20.875 48.484 21.283 47.908 21.283 46.75C21.283 46.516 21.259 46.294 21.211 46.084C21.169 45.874 21.1 45.691 21.004 45.535C20.908 45.379 20.782 45.256 20.626 45.166C20.47 45.07 20.281 45.022 20.059 45.022C19.243 45.016 18.835 45.592 18.835 46.75ZM23.1652 44.5H23.6602L23.7952 45.04H23.8312C23.9692 44.83 24.1462 44.671 24.3622 44.563C24.5842 44.449 24.8362 44.392 25.1182 44.392C25.7182 44.392 26.1652 44.569 26.4592 44.923C26.7532 45.277 26.9002 45.856 26.9002 46.66C26.9002 47.038 26.8492 47.38 26.7472 47.686C26.6512 47.986 26.5132 48.241 26.3332 48.451C26.1532 48.661 25.9342 48.823 25.6762 48.937C25.4242 49.051 25.1422 49.108 24.8302 49.108C24.6082 49.108 24.4312 49.093 24.2992 49.063C24.1732 49.039 24.0352 48.994 23.8852 48.928V50.8H23.1652V44.5ZM24.9832 45.022C24.6772 45.022 24.4342 45.103 24.2542 45.265C24.0802 45.421 23.9572 45.661 23.8852 45.985V48.217C23.9932 48.301 24.1162 48.367 24.2542 48.415C24.3922 48.457 24.5752 48.478 24.8032 48.478C25.2172 48.478 25.5442 48.325 25.7842 48.019C26.0302 47.707 26.1532 47.251 26.1532 46.651C26.1532 46.405 26.1322 46.183 26.0902 45.985C26.0482 45.781 25.9792 45.61 25.8832 45.472C25.7932 45.328 25.6732 45.217 25.5232 45.139C25.3792 45.061 25.1992 45.022 24.9832 45.022ZM30.7647 45.13H29.3517V49H28.6317V45.13H27.2187V44.5H30.7647V45.13ZM34.2876 46.336L34.3146 45.778H34.2876L33.9186 46.354L31.8936 49H31.4796V44.5H32.1996V47.245L32.1726 47.776H32.2086L32.5596 47.218L34.5846 44.5H35.0076V49H34.2876V46.336ZM40.1097 46.327L40.1637 45.472H40.1187L39.7947 46.165L38.7057 47.929H38.4537L37.3197 46.165L37.0227 45.472H36.9867L37.0587 46.318V49H36.3927V44.5H37.1037L38.3637 46.516L38.6247 47.038H38.6427L38.9127 46.498L40.0917 44.5H40.8117V49H40.1097V46.327ZM45.4785 48.64C45.2985 48.784 45.0705 48.898 44.7945 48.982C44.5245 49.066 44.2365 49.108 43.9305 49.108C43.5885 49.108 43.2915 49.054 43.0395 48.946C42.7875 48.832 42.5805 48.673 42.4185 48.469C42.2565 48.259 42.1365 48.01 42.0585 47.722C41.9805 47.434 41.9415 47.11 41.9415 46.75C41.9415 45.982 42.1125 45.397 42.4545 44.995C42.7965 44.593 43.2855 44.392 43.9215 44.392C44.1255 44.392 44.3295 44.416 44.5335 44.464C44.7375 44.506 44.9205 44.59 45.0825 44.716C45.2445 44.842 45.3765 45.022 45.4785 45.256C45.5805 45.484 45.6315 45.787 45.6315 46.165C45.6315 46.363 45.6135 46.582 45.5775 46.822H42.6885C42.6885 47.086 42.7155 47.32 42.7695 47.524C42.8235 47.728 42.9075 47.902 43.0215 48.046C43.1355 48.184 43.2825 48.292 43.4625 48.37C43.6485 48.442 43.8735 48.478 44.1375 48.478C44.3415 48.478 44.5455 48.442 44.7495 48.37C44.9535 48.298 45.1065 48.214 45.2085 48.118L45.4785 48.64ZM43.9305 45.022C43.5765 45.022 43.2915 45.115 43.0755 45.301C42.8655 45.487 42.7395 45.805 42.6975 46.255H44.9295C44.9295 45.799 44.8425 45.481 44.6685 45.301C44.4945 45.115 44.2485 45.022 43.9305 45.022ZM49.5178 47.011H47.4838V49H46.7638V44.5H47.4838V46.381H49.5178V44.5H50.2378V49H49.5178V47.011ZM54.4952 45.13H53.0822V49H52.3622V45.13H50.9492V44.5H54.4952V45.13Z" fill="white"/>
<path d="M38.4569 25.9138H34.5V22.5C35.6638 22.2672 36.75 21.3362 36.75 18.8534C36.75 16.0603 35.5086 12.4138 33.9569 12.4138C32.4052 12.4138 31.1638 16.0603 31.1638 18.8534C31.1638 21.2586 32.25 22.2672 33.4138 22.5V25.9138H26.6638V21.3362C28.9138 21.1034 30.0776 19.9397 30.0776 16.9138C30.0776 13.5 28.2931 9 26.0431 9C23.7931 9 22.0086 13.4224 22.0086 16.9138C22.0086 20.0948 23.25 21.2586 25.5 21.4138V25.9138H21.5431C21.2328 25.9138 21 26.1466 21 26.4569C21 26.7672 21.2328 27 21.5431 27H38.4569C38.7672 27 39 26.7672 39 26.4569C39 26.1466 38.7672 25.9138 38.4569 25.9138Z" fill="white"/>
</svg>
