<svg width="68" height="60" viewBox="0 0 68 60" fill="none" xmlns="http://www.w3.org/2000/svg">
<path d="M27.6613 0.854295L7.28148 6.71096C7.02173 6.7869 6.76739 6.86284 6.51846 6.94827C6.39399 6.99098 6.26953 7.0337 6.15048 7.07641L5.9719 7.14286C5.85284 7.18557 5.73379 7.23303 5.62015 7.28049L5.44698 7.35168L5.27922 7.42288L5.11147 7.49407L4.94912 7.57L4.78678 7.64594L4.62443 7.72188L4.4675 7.79782L4.31056 7.8785L4.15904 7.95918L4.00752 8.03987L3.86141 8.12055L3.7153 8.20598L3.5746 8.29141L3.4339 8.37684L3.29861 8.46227L3.16873 8.55244L3.03886 8.64262L2.91439 8.7328L2.78993 8.82297L2.67087 8.91789L2.55182 9.01281L2.43818 9.10774L2.32454 9.20266L2.21631 9.29758L2.11349 9.3925L2.01067 9.49217L1.91326 9.59184L1.81585 9.6915L1.72386 9.79117L1.63727 9.89084L1.55069 9.99525L1.46952 10.0997L1.38834 10.2041L1.31258 10.3085L1.24223 10.4129L1.17188 10.5173L1.10695 10.6217L1.04201 10.7309L0.98248 10.8401L0.928365 10.9492L0.87425 11.0584L0.825546 11.1675L0.782254 11.2767L0.738962 11.3859L0.701081 11.495L0.6632 11.6089L0.630732 11.7228L0.603674 11.8367L0.582028 11.9506L0.560382 12.0645L0.544148 12.1785L0.533324 12.2924L0.522501 12.4063L0.51709 12.5202V12.6341V26.1747V60H67.6686V59.0128V26.1747V12.6341V12.5202L67.6632 12.4063L67.6523 12.2924L67.6415 12.1785L67.6253 12.0645L67.6036 11.9506L67.582 11.8367L67.5549 11.7228L67.5225 11.6089L67.49 11.495L67.4521 11.3859L67.4088 11.2767L67.3655 11.1675L67.3168 11.0584L67.2627 10.9492L67.2086 10.8401L67.1491 10.7309L67.0841 10.6217L67.0192 10.5173L66.9488 10.4129L66.8785 10.3085L66.8027 10.2041L66.7216 10.0997L66.6404 9.99525L66.5538 9.89559L66.4618 9.79592L66.3698 9.69625L66.2724 9.59658L66.175 9.49691L66.0722 9.39725L65.9694 9.30233L65.8611 9.2074L65.7475 9.11248L65.6339 9.01756L65.5148 8.92264L65.3957 8.82772L65.2713 8.73754C65.1901 8.67584 65.1035 8.61414 65.0169 8.55719L64.8871 8.46702L64.7518 8.38159L64.6165 8.29616L64.4758 8.21073L64.3351 8.1253L64.189 8.04461L64.0429 7.96393L63.8913 7.88325L63.7344 7.80256L63.5775 7.72662L63.4205 7.65069L63.2582 7.57475C63.0958 7.49881 62.9281 7.42762 62.7549 7.35643L62.5818 7.28524C62.4681 7.23778 62.3491 7.19506 62.23 7.1476L62.0514 7.08116C61.9324 7.03844 61.8079 6.99573 61.6834 6.95301C61.4345 6.87233 61.1802 6.79165 60.9204 6.71571L40.5407 0.859041L40.3513 0.806835L40.1618 0.754627L39.9724 0.707167L39.783 0.659706L39.5882 0.612245L39.3934 0.56953L39.1986 0.526815L39.0038 0.484101L38.809 0.446132L38.6142 0.408163L38.4139 0.370195L38.2137 0.336972L38.0135 0.303749L37.8133 0.270527L37.613 0.24205L37.4128 0.213574L37.2072 0.189843L37.0015 0.166113L36.7959 0.142382L36.5902 0.123398L36.3846 0.104414L36.179 0.0854294L35.9733 0.0711913L35.7677 0.0569532L35.5621 0.0427146L35.3564 0.0332227L35.1508 0.0237303L34.9451 0.0142381L34.7395 0.00949216L34.5339 0.00474597L34.3282 0H34.1226H33.917L33.7113 0.00474597L33.5057 0.00949216L33.3 0.0142381L33.0944 0.0237303L32.8888 0.0332227L32.6831 0.0427146L32.4775 0.0569532L32.2719 0.0711913L32.0662 0.0854294L31.8606 0.104414L31.6549 0.123398L31.4493 0.142382L31.2437 0.166113L31.038 0.189843L30.8324 0.213574L30.6322 0.24205L30.4319 0.270527L30.2317 0.303749L30.0315 0.336972L29.8313 0.370195L29.631 0.408163L29.4308 0.446132L29.236 0.484101L29.0412 0.526815L28.8464 0.56953L28.6516 0.612245L28.4567 0.659706L28.2673 0.707167L28.0779 0.754627L27.8885 0.806835L27.6991 0.859041L27.6613 0.854295Z" fill="#5382D8"/>
<path d="M22.0461 47.13H20.0571V51H19.3371V46.5H22.7661V51H22.0461V47.13ZM23.9015 48.75C23.9015 47.988 24.0695 47.406 24.4055 47.004C24.7475 46.596 25.2365 46.392 25.8725 46.392C26.2085 46.392 26.4995 46.449 26.7455 46.563C26.9975 46.671 27.2045 46.83 27.3665 47.04C27.5285 47.244 27.6485 47.493 27.7265 47.787C27.8045 48.075 27.8435 48.396 27.8435 48.75C27.8435 49.512 27.6725 50.097 27.3305 50.505C26.9945 50.907 26.5085 51.108 25.8725 51.108C25.5365 51.108 25.2425 51.054 24.9905 50.946C24.7445 50.832 24.5405 50.673 24.3785 50.469C24.2165 50.259 24.0965 50.01 24.0185 49.722C23.9405 49.428 23.9015 49.104 23.9015 48.75ZM24.6485 48.75C24.6485 48.978 24.6695 49.197 24.7115 49.407C24.7595 49.617 24.8315 49.8 24.9275 49.956C25.0235 50.112 25.1495 50.238 25.3055 50.334C25.4615 50.43 25.6505 50.478 25.8725 50.478C26.6885 50.484 27.0965 49.908 27.0965 48.75C27.0965 48.516 27.0725 48.294 27.0245 48.084C26.9825 47.874 26.9135 47.691 26.8175 47.535C26.7215 47.379 26.5955 47.256 26.4395 47.166C26.2835 47.07 26.0945 47.022 25.8725 47.022C25.0565 47.016 24.6485 47.592 24.6485 48.75ZM30.1127 48.975H29.6987V51H28.9787V46.5H29.6987V48.534L30.0857 48.408L31.5257 46.5H32.3087L30.9137 48.309L30.5357 48.606L31.0037 48.966L32.5067 51H31.6157L30.1127 48.975ZM34.5996 49.416L34.8516 50.28H34.8966L35.0946 49.407L35.9676 46.5H36.6966L35.3646 50.541C35.2626 50.835 35.1606 51.12 35.0586 51.396C34.9626 51.672 34.8546 51.918 34.7346 52.134C34.6146 52.35 34.4796 52.521 34.3296 52.647C34.1796 52.779 34.0056 52.845 33.8076 52.845C33.5916 52.845 33.4146 52.815 33.2766 52.755L33.4026 52.134C33.4806 52.164 33.5556 52.179 33.6276 52.179C33.7956 52.179 33.9576 52.089 34.1136 51.909C34.2696 51.735 34.3986 51.432 34.5006 51L32.6916 46.5H33.5196L34.5996 49.416ZM40.1779 47.13H38.1889V51H37.4689V46.5H40.8979V51H40.1779V47.13ZM43.4193 48.975H43.0053V51H42.2853V46.5H43.0053V48.534L43.3923 48.408L44.8323 46.5H45.6153L44.2203 48.309L43.8423 48.606L44.3103 48.966L45.8133 51H44.9223L43.4193 48.975ZM46.5112 46.833C46.7392 46.695 47.0032 46.593 47.3032 46.527C47.6092 46.461 47.9272 46.428 48.2572 46.428C48.5692 46.428 48.8182 46.47 49.0042 46.554C49.1962 46.638 49.3402 46.749 49.4362 46.887C49.5382 47.019 49.6042 47.166 49.6342 47.328C49.6702 47.49 49.6882 47.652 49.6882 47.814C49.6882 48.174 49.6792 48.525 49.6612 48.867C49.6432 49.209 49.6342 49.533 49.6342 49.839C49.6342 50.061 49.6432 50.271 49.6612 50.469C49.6792 50.667 49.7122 50.85 49.7602 51.018H49.2292L49.0402 50.388H48.9952C48.9412 50.472 48.8722 50.556 48.7882 50.64C48.7102 50.718 48.6142 50.79 48.5002 50.856C48.3862 50.916 48.2542 50.967 48.1042 51.009C47.9542 51.051 47.7832 51.072 47.5912 51.072C47.3992 51.072 47.2192 51.042 47.0512 50.982C46.8892 50.922 46.7482 50.838 46.6282 50.73C46.5082 50.616 46.4122 50.481 46.3402 50.325C46.2742 50.169 46.2412 49.992 46.2412 49.794C46.2412 49.53 46.2952 49.311 46.4032 49.137C46.5112 48.957 46.6612 48.816 46.8532 48.714C47.0512 48.606 47.2852 48.531 47.5552 48.489C47.8312 48.441 48.1342 48.417 48.4642 48.417C48.5482 48.417 48.6292 48.417 48.7072 48.417C48.7912 48.417 48.8752 48.423 48.9592 48.435C48.9772 48.255 48.9862 48.093 48.9862 47.949C48.9862 47.619 48.9202 47.388 48.7882 47.256C48.6562 47.124 48.4162 47.058 48.0682 47.058C47.9662 47.058 47.8552 47.067 47.7352 47.085C47.6212 47.097 47.5012 47.118 47.3752 47.148C47.2552 47.172 47.1382 47.205 47.0242 47.247C46.9162 47.283 46.8202 47.325 46.7362 47.373L46.5112 46.833ZM47.7892 50.442C47.9572 50.442 48.1072 50.421 48.2392 50.379C48.3712 50.331 48.4852 50.274 48.5812 50.208C48.6772 50.136 48.7552 50.058 48.8152 49.974C48.8812 49.89 48.9292 49.809 48.9592 49.731V48.984C48.8752 48.978 48.7882 48.975 48.6982 48.975C48.6142 48.969 48.5302 48.966 48.4462 48.966C48.2602 48.966 48.0772 48.978 47.8972 49.002C47.7232 49.02 47.5672 49.059 47.4292 49.119C47.2972 49.173 47.1892 49.251 47.1052 49.353C47.0272 49.449 46.9882 49.572 46.9882 49.722C46.9882 49.932 47.0632 50.106 47.2132 50.244C47.3632 50.376 47.5552 50.442 47.7892 50.442Z" fill="white"/>
<path d="M33.4409 22.2213V22.221H33.7344V12.122C33.7344 11.6744 34.0704 11.344 34.4745 11.344C34.8786 11.344 35.2146 11.6744 35.2146 12.122V22.221V22.3912L35.35 22.4945C35.7494 22.7992 35.996 23.2487 35.996 23.7867C35.996 24.655 35.3293 25.3476 34.4995 25.3476C33.6891 25.3476 33.003 24.6748 33.003 23.7867C33.003 23.2415 33.2551 22.7739 33.6395 22.5017L33.4409 22.2213ZM43.7081 36.9736L43.6825 37.0414C43.5126 37.4641 43.1882 37.8572 42.7887 38.1525C42.3694 38.4625 41.8959 38.6441 41.4789 38.656H27.5412C27.1304 38.656 26.6654 38.478 26.2476 38.164C25.8319 37.8517 25.4914 37.4258 25.3159 36.9723C25.3157 36.9719 25.3156 36.9715 25.3154 36.9711L22.4667 29.4279H46.5578L43.7081 36.9736ZM48.1484 25.1177V26.7877C48.1484 27.1372 47.907 27.3831 47.5848 27.3831H21.4144C21.1113 27.3831 20.8508 27.1308 20.8508 26.7877V25.1177C20.8508 24.7746 21.1113 24.5223 21.4144 24.5223H30.9682C31.3728 26.1489 32.7781 27.3666 34.4998 27.3666C36.2163 27.3666 37.6481 26.1539 38.0348 24.5223H47.5848C47.8879 24.5223 48.1484 24.7746 48.1484 25.1177Z" stroke="white" stroke-width="0.687951"/>
</svg>
