<svg width="60" height="60" viewBox="0 0 60 60" fill="none" xmlns="http://www.w3.org/2000/svg">
<path fill-rule="evenodd" clip-rule="evenodd" d="M6.044 5.51586L24.2534 0.70216L24.2872 0.706061L24.4564 0.663152L24.6257 0.620242L24.7949 0.581233L24.9641 0.542224L25.1382 0.503215L25.3123 0.468107L25.4863 0.432999L25.6604 0.397891L25.8345 0.366684L26.0134 0.335477L26.1923 0.30427L26.3712 0.276963L26.5501 0.249657L26.729 0.222351L26.9079 0.198945L27.0868 0.17554L27.2705 0.156036L27.4543 0.136531L27.638 0.117027L27.8217 0.101423L28.0055 0.0858195L28.1892 0.070216L28.373 0.0585134L28.5567 0.0468108L28.7404 0.0351079L28.9242 0.0273063L29.1079 0.0195043L29.2916 0.0117026L29.4754 0.00780177L29.6591 0.00390079L29.8429 0H30.0266H30.2103L30.3941 0.00390079L30.5778 0.00780177L30.7615 0.0117026L30.9453 0.0195043L31.129 0.0273063L31.3128 0.0351079L31.4965 0.0468108L31.6802 0.0585134L31.864 0.070216L32.0477 0.0858195L32.2314 0.101423L32.4152 0.117027L32.5989 0.136531L32.7827 0.156036L32.9664 0.17554L33.1453 0.198945L33.3242 0.222351L33.5031 0.249657L33.682 0.276963L33.8609 0.30427L34.0398 0.335477L34.2139 0.366684L34.3879 0.397891L34.562 0.432999L34.7361 0.468107L34.9101 0.503215L35.0842 0.542224L35.2534 0.581233L35.4227 0.620242L35.5919 0.663152L35.7611 0.706061L53.9705 5.51976C54.2026 5.58218 54.4298 5.64849 54.6523 5.71481C54.7635 5.74991 54.8747 5.78502 54.9811 5.82013L55.1406 5.87474C55.1843 5.89076 55.228 5.90612 55.2713 5.92136C55.3335 5.94324 55.3951 5.96488 55.4549 5.98787L55.6096 6.04638C55.7644 6.10489 55.9143 6.16341 56.0593 6.22582L56.2044 6.28824L56.3446 6.35065L56.4848 6.41306L56.625 6.47938L56.7604 6.54569L56.891 6.61201L57.0215 6.67833L57.1472 6.74854L57.2729 6.81876L57.3938 6.88897L57.5147 6.95919L57.6307 7.03331C57.7081 7.08012 57.7855 7.13083 57.858 7.18154L57.9692 7.25566L58.0756 7.33368L58.182 7.41169L58.2835 7.48971L58.385 7.56773L58.4817 7.64575L58.5736 7.72376L58.6655 7.80568L58.7525 7.8876L58.8396 7.96952L58.9218 8.05144L59.0039 8.13336L59.0813 8.21528L59.1538 8.3011L59.2264 8.38692L59.2941 8.47274L59.3569 8.55855L59.4198 8.64437L59.4778 8.73019L59.5358 8.81991L59.589 8.90964L59.6374 8.99936L59.6857 9.08908L59.7292 9.1788L59.7679 9.26852L59.8066 9.35824L59.8404 9.44796L59.8694 9.54158L59.8985 9.6352L59.9226 9.72882L59.942 9.82244L59.9613 9.91607L59.9758 10.0097L59.9855 10.1033L59.9952 10.1969L60 10.2906V10.3842V10.6849V11.4963V21.5134V38.4866V48.5037V49.3151V49.6158V49.7094L59.9952 49.8031L59.9855 49.8967L59.9758 49.9903L59.9613 50.0839L59.942 50.1776L59.9226 50.2712L59.8985 50.3648L59.8694 50.4584L59.8404 50.552L59.8066 50.6418L59.7679 50.7315L59.7292 50.8212L59.6857 50.9109L59.6374 51.0006L59.589 51.0904L59.5358 51.1801L59.4778 51.2698L59.4198 51.3556L59.3569 51.4414L59.2941 51.5273L59.2264 51.6131L59.1538 51.6989L59.0813 51.7847L59.0039 51.8666L58.9218 51.9486L58.8396 52.0305L58.7525 52.1124L58.6655 52.1943L58.5736 52.2762L58.4817 52.3543L58.385 52.4323L58.2835 52.5103L58.182 52.5883L58.0756 52.6663L57.9692 52.7443L57.858 52.8185C57.7855 52.8692 57.7081 52.9199 57.6307 52.9667L57.5147 53.0408L57.3938 53.111L57.2729 53.1812L57.1472 53.2515L57.0215 53.3217L56.891 53.388L56.7604 53.4543L56.625 53.5206L56.4848 53.5869L56.3446 53.6493L56.2044 53.7118L56.0593 53.7742C55.9143 53.8366 55.7644 53.8951 55.6096 53.9536L55.4549 54.0121C55.3951 54.0351 55.3335 54.0568 55.2713 54.0786C55.228 54.0939 55.1843 54.1092 55.1406 54.1253L54.9811 54.1799C54.8747 54.215 54.7635 54.2501 54.6523 54.2852C54.4298 54.3515 54.2026 54.4178 53.9705 54.4802L35.7611 59.2939L35.5919 59.3368L35.4227 59.3798L35.2534 59.4188L35.0842 59.4578L34.9101 59.4968L34.7361 59.5319L34.562 59.567L34.3879 59.6021L34.2139 59.6333L34.0398 59.6645L33.8609 59.6957L33.682 59.723L33.5031 59.7503L33.3242 59.7776L33.1453 59.8011L32.9664 59.8245L32.7827 59.844L32.5989 59.8635L32.4152 59.883L32.2314 59.8986L32.0477 59.9142L31.864 59.9298L31.6802 59.9415L31.4965 59.9532L31.3128 59.9649L31.129 59.9727L30.9453 59.9805L30.7615 59.9883L30.5778 59.9922L30.3941 59.9961L30.2103 60H30.0266H29.8429L29.6591 59.9961L29.4754 59.9922L29.2916 59.9883L29.1079 59.9805L28.9242 59.9727L28.7404 59.9649L28.5567 59.9532L28.373 59.9415L28.1892 59.9298L28.0055 59.9142L27.8217 59.8986L27.638 59.883L27.4543 59.8635L27.2705 59.844L27.0868 59.8245L26.9079 59.8011L26.729 59.7776L26.5501 59.7503L26.3712 59.723L26.1923 59.6957L26.0134 59.6645L25.8345 59.6333L25.6604 59.6021L25.4863 59.567L25.3123 59.5319L25.1382 59.4968L24.9641 59.4578L24.7949 59.4188L24.6257 59.3798L24.4564 59.3368L24.2872 59.2939L24.2534 59.2978L6.044 54.4841C5.81191 54.4217 5.58466 54.3593 5.36224 54.2891L5.36141 54.2888C5.25047 54.2538 5.13955 54.2188 5.03344 54.1838L4.87388 54.1292C4.76751 54.0941 4.66113 54.055 4.55959 54.016L4.40487 53.9575L4.25498 53.899L4.10509 53.8405L3.96003 53.7781L3.81497 53.7157L3.66992 53.6533L3.5297 53.5908L3.38948 53.5245L3.25409 53.4582L3.1187 53.3919L2.98815 53.3256L2.8576 53.2554L2.73189 53.1851L2.60617 53.1149L2.48529 53.0447L2.36925 52.9706L2.2532 52.8965L2.14199 52.8224L2.03078 52.7482L1.92441 52.6702L1.81804 52.5922L1.7165 52.5142L1.61496 52.4362L1.51825 52.3582L1.42638 52.2801L1.33452 52.1982L1.24748 52.1163L1.16045 52.0344L1.07825 51.9525L1.00089 51.8705L0.923523 51.7847L0.850995 51.6989L0.778467 51.6131L0.710775 51.5273L0.647917 51.4414L0.585059 51.3556L0.527037 51.2698L0.469015 51.1801L0.415827 51.0904L0.367475 51.0006L0.319123 50.9109L0.275606 50.8212L0.236925 50.7315L0.198243 50.6418L0.164397 50.552L0.13055 50.4584L0.101539 50.3648L0.0773631 50.2712L0.0580224 50.1776L0.0386816 50.0839L0.0241761 49.9903L0.0145055 49.8967L0.00483531 49.8031L0 49.7094V49.6158V49.3151V38.4866V21.5134V10.6849V10.3842V10.2906L0.00483531 10.1969L0.0145055 10.1033L0.0241761 10.0097L0.0386816 9.91607L0.0580224 9.82244L0.0773631 9.72882L0.101539 9.6352L0.13055 9.54158L0.164397 9.44796L0.198243 9.35824L0.236925 9.26852L0.275606 9.1788L0.319123 9.08908L0.367475 8.99936L0.415827 8.90964L0.469015 8.81991L0.527037 8.73019L0.585059 8.64437L0.647917 8.55855L0.710775 8.47274L0.778467 8.38692L0.850995 8.3011L0.923523 8.21528L1.00089 8.12946L1.07825 8.04754L1.16045 7.96562L1.24748 7.8837L1.33452 7.80178L1.42638 7.71986L1.51825 7.64185L1.61496 7.56383L1.7165 7.48581L1.81804 7.40779L1.92441 7.32977L2.03078 7.25176L2.14199 7.17764L2.2532 7.10352L2.36925 7.02941L2.48529 6.95529L2.60617 6.88507L2.73189 6.81486L2.8576 6.74464L2.98815 6.67442L3.1187 6.60811L3.25409 6.54179L3.38948 6.47548L3.5297 6.40916L3.66992 6.34675L3.81497 6.28434L3.96003 6.22192L4.10509 6.15951L4.25498 6.10099L4.40487 6.04248L4.55959 5.98397C4.66113 5.94496 4.76751 5.90595 4.87388 5.87084L5.03344 5.81623C5.13982 5.78112 5.25103 5.74601 5.36224 5.7109C5.58466 5.64069 5.81191 5.57827 6.044 5.51586Z" fill="#5382D8"/>
<path d="M25.016 47.416L25.268 48.28H25.313L25.511 47.407L26.384 44.5H27.113L25.781 48.541C25.679 48.835 25.577 49.12 25.475 49.396C25.379 49.672 25.271 49.918 25.151 50.134C25.031 50.35 24.896 50.521 24.746 50.647C24.596 50.779 24.422 50.845 24.224 50.845C24.008 50.845 23.831 50.815 23.693 50.755L23.819 50.134C23.897 50.164 23.972 50.179 24.044 50.179C24.212 50.179 24.374 50.089 24.53 49.909C24.686 49.735 24.815 49.432 24.917 49L23.108 44.5H23.936L25.016 47.416ZM31.3774 49.108C31.0534 49.108 30.7744 49.06 30.5404 48.964C30.3124 48.862 30.1234 48.721 29.9734 48.541C29.8294 48.355 29.7184 48.133 29.6404 47.875C29.5684 47.611 29.5234 47.323 29.5054 47.011H28.6054V49H27.8854V44.5H28.6054V46.381H29.5144C29.5624 45.739 29.7364 45.247 30.0364 44.905C30.3424 44.563 30.7954 44.392 31.3954 44.392C31.7254 44.392 32.0044 44.449 32.2324 44.563C32.4664 44.671 32.6554 44.83 32.7994 45.04C32.9494 45.244 33.0574 45.493 33.1234 45.787C33.1894 46.075 33.2224 46.396 33.2224 46.75C33.2224 47.512 33.0694 48.097 32.7634 48.505C32.4634 48.907 32.0014 49.108 31.3774 49.108ZM30.2164 46.75C30.2164 46.984 30.2344 47.206 30.2704 47.416C30.3064 47.626 30.3694 47.812 30.4594 47.974C30.5494 48.13 30.6694 48.253 30.8194 48.343C30.9754 48.433 31.1674 48.478 31.3954 48.478C31.7794 48.478 32.0554 48.34 32.2234 48.064C32.3914 47.782 32.4754 47.344 32.4754 46.75C32.4754 46.516 32.4574 46.294 32.4214 46.084C32.3914 45.874 32.3344 45.691 32.2504 45.535C32.1664 45.373 32.0554 45.247 31.9174 45.157C31.7794 45.067 31.6024 45.022 31.3864 45.022C30.9724 45.022 30.6724 45.163 30.4864 45.445C30.3064 45.721 30.2164 46.156 30.2164 46.75ZM37.0845 45.13H35.6715V49H34.9515V45.13H33.5385V44.5H37.0845V45.13Z" fill="white"/>
<path d="M29.491 19.8512V12.688H30.4372V19.8512H29.491Z" fill="white"/>
<path d="M35.6352 14.0963C35.2228 15.4497 34.6526 16.5958 33.7489 17.2786C32.8148 17.9858 31.5714 18.1931 29.8609 17.6261L29.4849 17.5042L29.5395 17.114C29.8003 15.3156 30.5342 14.2914 31.5835 13.7671C32.5964 13.2611 33.8702 13.2611 35.2592 13.4928L35.793 13.5842L35.6352 14.1024V14.0963Z" fill="white"/>
<path d="M25.5787 8.01829C26.9859 8.07316 28.2354 8.3292 29.127 9.02419C30.0489 9.74966 30.5706 10.8958 30.4675 12.7125L30.4432 13.1088L30.055 13.1575C28.2596 13.3709 27.089 12.9198 26.3126 12.0358C25.5666 11.1823 25.233 9.94474 25.0995 8.53648L25.0449 8L25.5787 8.01829Z" fill="white"/>
<path d="M38.8256 30.5384L34.6222 19.2662C34.1431 18.303 33.6882 17.858 32.5175 17.858H31.1164V17.1508C31.1164 16.7606 30.801 16.4436 30.4128 16.4436C30.0246 16.4436 29.7092 16.7606 29.7092 17.1508V17.858H28.3081C27.1253 17.858 26.7553 18.2786 26.2034 19.2662L22 30.5384C22 31.7577 22.6247 31.9466 23.4011 31.9466H29.0056V37.5858H26.9009C26.5127 37.5858 26.1973 37.9028 26.1973 38.293C26.1973 38.6831 26.5127 39.0001 26.9009 39.0001H33.9126C34.3008 39.0001 34.6162 38.6831 34.6162 38.293C34.6162 37.9028 34.3008 37.5858 33.9126 37.5858H31.8079V31.9466H37.4124C38.1887 31.9466 38.862 31.6906 38.8135 30.5384H38.8256Z" fill="white"/>
</svg>
