<svg width="60" height="60" viewBox="0 0 60 60" fill="none" xmlns="http://www.w3.org/2000/svg">
<path fill-rule="evenodd" clip-rule="evenodd" d="M6.044 5.51586L24.2534 0.70216L24.2872 0.706061L24.4564 0.663152L24.6257 0.620242L24.7949 0.581233L24.9641 0.542224L25.1382 0.503215L25.3123 0.468107L25.4863 0.432999L25.6604 0.397891L25.8345 0.366684L26.0134 0.335477L26.1923 0.30427L26.3712 0.276963L26.5501 0.249657L26.729 0.222351L26.9079 0.198945L27.0868 0.17554L27.2705 0.156036L27.4543 0.136531L27.638 0.117027L27.8217 0.101423L28.0055 0.0858195L28.1892 0.070216L28.373 0.0585134L28.5567 0.0468108L28.7404 0.0351079L28.9242 0.0273063L29.1079 0.0195043L29.2916 0.0117026L29.4754 0.00780177L29.6591 0.00390079L29.8429 0H30.0266H30.2103L30.3941 0.00390079L30.5778 0.00780177L30.7615 0.0117026L30.9453 0.0195043L31.129 0.0273063L31.3128 0.0351079L31.4965 0.0468108L31.6802 0.0585134L31.864 0.070216L32.0477 0.0858195L32.2314 0.101423L32.4152 0.117027L32.5989 0.136531L32.7827 0.156036L32.9664 0.17554L33.1453 0.198945L33.3242 0.222351L33.5031 0.249657L33.682 0.276963L33.8609 0.30427L34.0398 0.335477L34.2139 0.366684L34.3879 0.397891L34.562 0.432999L34.7361 0.468107L34.9101 0.503215L35.0842 0.542224L35.2534 0.581233L35.4227 0.620242L35.5919 0.663152L35.7611 0.706061L53.9705 5.51976C54.2026 5.58218 54.4298 5.64849 54.6523 5.71481C54.7635 5.74991 54.8747 5.78502 54.9811 5.82013L55.1406 5.87474C55.1843 5.89076 55.228 5.90612 55.2713 5.92136C55.3335 5.94324 55.3951 5.96488 55.4549 5.98787L55.6096 6.04638C55.7644 6.10489 55.9143 6.16341 56.0593 6.22582L56.2044 6.28824L56.3446 6.35065L56.4848 6.41306L56.625 6.47938L56.7604 6.54569L56.891 6.61201L57.0215 6.67833L57.1472 6.74854L57.2729 6.81876L57.3938 6.88897L57.5147 6.95919L57.6307 7.03331C57.7081 7.08012 57.7855 7.13083 57.858 7.18154L57.9692 7.25566L58.0756 7.33368L58.182 7.41169L58.2835 7.48971L58.385 7.56773L58.4817 7.64575L58.5736 7.72376L58.6655 7.80568L58.7525 7.8876L58.8396 7.96952L58.9218 8.05144L59.0039 8.13336L59.0813 8.21528L59.1538 8.3011L59.2264 8.38692L59.2941 8.47274L59.3569 8.55855L59.4198 8.64437L59.4778 8.73019L59.5358 8.81991L59.589 8.90964L59.6374 8.99936L59.6857 9.08908L59.7292 9.1788L59.7679 9.26852L59.8066 9.35824L59.8404 9.44796L59.8694 9.54158L59.8985 9.6352L59.9226 9.72882L59.942 9.82244L59.9613 9.91607L59.9758 10.0097L59.9855 10.1033L59.9952 10.1969L60 10.2906V10.3842V10.6849V11.4963V21.5134V38.4866V48.5037V49.3151V49.6158V49.7094L59.9952 49.8031L59.9855 49.8967L59.9758 49.9903L59.9613 50.0839L59.942 50.1776L59.9226 50.2712L59.8985 50.3648L59.8694 50.4584L59.8404 50.552L59.8066 50.6418L59.7679 50.7315L59.7292 50.8212L59.6857 50.9109L59.6374 51.0006L59.589 51.0904L59.5358 51.1801L59.4778 51.2698L59.4198 51.3556L59.3569 51.4414L59.2941 51.5273L59.2264 51.6131L59.1538 51.6989L59.0813 51.7847L59.0039 51.8666L58.9218 51.9486L58.8396 52.0305L58.7525 52.1124L58.6655 52.1943L58.5736 52.2762L58.4817 52.3543L58.385 52.4323L58.2835 52.5103L58.182 52.5883L58.0756 52.6663L57.9692 52.7443L57.858 52.8185C57.7855 52.8692 57.7081 52.9199 57.6307 52.9667L57.5147 53.0408L57.3938 53.111L57.2729 53.1812L57.1472 53.2515L57.0215 53.3217L56.891 53.388L56.7604 53.4543L56.625 53.5206L56.4848 53.5869L56.3446 53.6493L56.2044 53.7118L56.0593 53.7742C55.9143 53.8366 55.7644 53.8951 55.6096 53.9536L55.4549 54.0121C55.3951 54.0351 55.3335 54.0568 55.2713 54.0786C55.228 54.0939 55.1843 54.1092 55.1406 54.1253L54.9811 54.1799C54.8747 54.215 54.7635 54.2501 54.6523 54.2852C54.4298 54.3515 54.2026 54.4178 53.9705 54.4802L35.7611 59.2939L35.5919 59.3368L35.4227 59.3798L35.2534 59.4188L35.0842 59.4578L34.9101 59.4968L34.7361 59.5319L34.562 59.567L34.3879 59.6021L34.2139 59.6333L34.0398 59.6645L33.8609 59.6957L33.682 59.723L33.5031 59.7503L33.3242 59.7776L33.1453 59.8011L32.9664 59.8245L32.7827 59.844L32.5989 59.8635L32.4152 59.883L32.2314 59.8986L32.0477 59.9142L31.864 59.9298L31.6802 59.9415L31.4965 59.9532L31.3128 59.9649L31.129 59.9727L30.9453 59.9805L30.7615 59.9883L30.5778 59.9922L30.3941 59.9961L30.2103 60H30.0266H29.8429L29.6591 59.9961L29.4754 59.9922L29.2916 59.9883L29.1079 59.9805L28.9242 59.9727L28.7404 59.9649L28.5567 59.9532L28.373 59.9415L28.1892 59.9298L28.0055 59.9142L27.8217 59.8986L27.638 59.883L27.4543 59.8635L27.2705 59.844L27.0868 59.8245L26.9079 59.8011L26.729 59.7776L26.5501 59.7503L26.3712 59.723L26.1923 59.6957L26.0134 59.6645L25.8345 59.6333L25.6604 59.6021L25.4863 59.567L25.3123 59.5319L25.1382 59.4968L24.9641 59.4578L24.7949 59.4188L24.6257 59.3798L24.4564 59.3368L24.2872 59.2939L24.2534 59.2978L6.044 54.4841C5.81191 54.4217 5.58466 54.3593 5.36224 54.2891L5.36141 54.2888C5.25047 54.2538 5.13955 54.2188 5.03344 54.1838L4.87388 54.1292C4.76751 54.0941 4.66113 54.055 4.55959 54.016L4.40487 53.9575L4.25498 53.899L4.10509 53.8405L3.96003 53.7781L3.81497 53.7157L3.66992 53.6533L3.5297 53.5908L3.38948 53.5245L3.25409 53.4582L3.1187 53.3919L2.98815 53.3256L2.8576 53.2554L2.73189 53.1851L2.60617 53.1149L2.48529 53.0447L2.36925 52.9706L2.2532 52.8965L2.14199 52.8224L2.03078 52.7482L1.92441 52.6702L1.81804 52.5922L1.7165 52.5142L1.61496 52.4362L1.51825 52.3582L1.42638 52.2801L1.33452 52.1982L1.24748 52.1163L1.16045 52.0344L1.07825 51.9525L1.00089 51.8705L0.923523 51.7847L0.850995 51.6989L0.778467 51.6131L0.710775 51.5273L0.647917 51.4414L0.585059 51.3556L0.527037 51.2698L0.469015 51.1801L0.415827 51.0904L0.367475 51.0006L0.319123 50.9109L0.275606 50.8212L0.236925 50.7315L0.198243 50.6418L0.164397 50.552L0.13055 50.4584L0.101539 50.3648L0.0773631 50.2712L0.0580224 50.1776L0.0386816 50.0839L0.0241761 49.9903L0.0145055 49.8967L0.00483531 49.8031L0 49.7094V49.6158V49.3151V38.4866V21.5134V10.6849V10.3842V10.2906L0.00483531 10.1969L0.0145055 10.1033L0.0241761 10.0097L0.0386816 9.91607L0.0580224 9.82244L0.0773631 9.72882L0.101539 9.6352L0.13055 9.54158L0.164397 9.44796L0.198243 9.35824L0.236925 9.26852L0.275606 9.1788L0.319123 9.08908L0.367475 8.99936L0.415827 8.90964L0.469015 8.81991L0.527037 8.73019L0.585059 8.64437L0.647917 8.55855L0.710775 8.47274L0.778467 8.38692L0.850995 8.3011L0.923523 8.21528L1.00089 8.12946L1.07825 8.04754L1.16045 7.96562L1.24748 7.8837L1.33452 7.80178L1.42638 7.71986L1.51825 7.64185L1.61496 7.56383L1.7165 7.48581L1.81804 7.40779L1.92441 7.32977L2.03078 7.25176L2.14199 7.17764L2.2532 7.10352L2.36925 7.02941L2.48529 6.95529L2.60617 6.88507L2.73189 6.81486L2.8576 6.74464L2.98815 6.67442L3.1187 6.60811L3.25409 6.54179L3.38948 6.47548L3.5297 6.40916L3.66992 6.34675L3.81497 6.28434L3.96003 6.22192L4.10509 6.15951L4.25498 6.10099L4.40487 6.04248L4.55959 5.98397C4.66113 5.94496 4.76751 5.90595 4.87388 5.87084L5.03344 5.81623C5.13982 5.78112 5.25103 5.74601 5.36224 5.7109C5.58466 5.64069 5.81191 5.57827 6.044 5.51586Z" fill="#5382D8"/>
<path d="M17.762 48.703C17.582 48.835 17.369 48.934 17.123 49C16.877 49.072 16.619 49.108 16.349 49.108C16.001 49.108 15.707 49.054 15.467 48.946C15.227 48.832 15.029 48.673 14.873 48.469C14.723 48.259 14.612 48.01 14.54 47.722C14.474 47.428 14.441 47.104 14.441 46.75C14.441 45.988 14.609 45.406 14.945 45.004C15.281 44.596 15.764 44.392 16.394 44.392C16.682 44.392 16.925 44.416 17.123 44.464C17.327 44.506 17.51 44.569 17.672 44.653L17.465 45.274C17.327 45.196 17.174 45.136 17.006 45.094C16.838 45.046 16.658 45.022 16.466 45.022C15.614 45.022 15.188 45.598 15.188 46.75C15.188 46.978 15.209 47.197 15.251 47.407C15.299 47.611 15.374 47.794 15.476 47.956C15.584 48.112 15.722 48.238 15.89 48.334C16.064 48.43 16.277 48.478 16.529 48.478C16.745 48.478 16.937 48.445 17.105 48.379C17.279 48.313 17.42 48.238 17.528 48.154L17.762 48.703ZM18.2906 46.75C18.2906 45.988 18.4586 45.406 18.7946 45.004C19.1366 44.596 19.6256 44.392 20.2616 44.392C20.5976 44.392 20.8886 44.449 21.1346 44.563C21.3866 44.671 21.5936 44.83 21.7556 45.04C21.9176 45.244 22.0376 45.493 22.1156 45.787C22.1936 46.075 22.2326 46.396 22.2326 46.75C22.2326 47.512 22.0616 48.097 21.7196 48.505C21.3836 48.907 20.8976 49.108 20.2616 49.108C19.9256 49.108 19.6316 49.054 19.3796 48.946C19.1336 48.832 18.9296 48.673 18.7676 48.469C18.6056 48.259 18.4856 48.01 18.4076 47.722C18.3296 47.428 18.2906 47.104 18.2906 46.75ZM19.0376 46.75C19.0376 46.978 19.0586 47.197 19.1006 47.407C19.1486 47.617 19.2206 47.8 19.3166 47.956C19.4126 48.112 19.5386 48.238 19.6946 48.334C19.8506 48.43 20.0396 48.478 20.2616 48.478C21.0776 48.484 21.4856 47.908 21.4856 46.75C21.4856 46.516 21.4616 46.294 21.4136 46.084C21.3716 45.874 21.3026 45.691 21.2066 45.535C21.1106 45.379 20.9846 45.256 20.8286 45.166C20.6726 45.07 20.4836 45.022 20.2616 45.022C19.4456 45.016 19.0376 45.592 19.0376 46.75ZM23.7818 45.301C23.9798 45.013 24.1988 44.812 24.4388 44.698C24.6788 44.578 24.9788 44.518 25.3388 44.518C25.8908 44.518 26.3138 44.698 26.6078 45.058C26.9078 45.418 27.0578 45.949 27.0578 46.651C27.0578 47.461 26.8838 48.073 26.5358 48.487C26.1938 48.901 25.7138 49.108 25.0958 49.108C24.4358 49.108 23.9408 48.88 23.6108 48.424C23.2808 47.968 23.1158 47.251 23.1158 46.273C23.1158 45.757 23.1398 45.316 23.1878 44.95C23.2418 44.584 23.3168 44.275 23.4128 44.023C23.5148 43.771 23.6348 43.57 23.7728 43.42C23.9168 43.27 24.0758 43.153 24.2498 43.069C24.4298 42.979 24.6248 42.916 24.8348 42.88C25.0448 42.844 25.2698 42.814 25.5098 42.79C25.8218 42.76 26.0648 42.727 26.2388 42.691C26.4188 42.649 26.5628 42.577 26.6708 42.475L26.7518 43.123C26.6918 43.177 26.6258 43.222 26.5538 43.258C26.4818 43.294 26.3948 43.324 26.2928 43.348C26.1908 43.372 26.0678 43.393 25.9238 43.411C25.7858 43.429 25.6238 43.444 25.4378 43.456C25.1798 43.474 24.9518 43.507 24.7538 43.555C24.5618 43.597 24.3938 43.684 24.2498 43.816C24.1118 43.942 24.0008 44.125 23.9168 44.365C23.8388 44.599 23.7848 44.911 23.7548 45.301H23.7818ZM23.8628 46.759C23.8628 46.987 23.8868 47.206 23.9348 47.416C23.9828 47.626 24.0548 47.812 24.1508 47.974C24.2528 48.13 24.3818 48.253 24.5378 48.343C24.6938 48.433 24.8768 48.478 25.0868 48.478C25.5008 48.478 25.8068 48.331 26.0048 48.037C26.2088 47.737 26.3108 47.296 26.3108 46.714C26.3108 46.486 26.2898 46.276 26.2478 46.084C26.2058 45.892 26.1398 45.727 26.0498 45.589C25.9598 45.445 25.8458 45.337 25.7078 45.265C25.5698 45.187 25.4048 45.148 25.2128 45.148C24.7448 45.142 24.4028 45.28 24.1868 45.562C23.9708 45.838 23.8628 46.237 23.8628 46.759ZM28.913 48.37C29.135 48.406 29.348 48.424 29.552 48.424C29.93 48.424 30.194 48.352 30.344 48.208C30.494 48.058 30.569 47.848 30.569 47.578C30.569 47.338 30.494 47.14 30.344 46.984C30.2 46.828 29.945 46.75 29.579 46.75C29.477 46.75 29.366 46.753 29.246 46.759C29.126 46.765 29.015 46.783 28.913 46.813V48.37ZM28.913 46.219C29.057 46.195 29.195 46.18 29.327 46.174C29.459 46.162 29.585 46.156 29.705 46.156C30.011 46.156 30.266 46.192 30.47 46.264C30.68 46.33 30.848 46.423 30.974 46.543C31.1 46.663 31.187 46.807 31.235 46.975C31.289 47.137 31.316 47.311 31.316 47.497C31.316 48.043 31.163 48.439 30.857 48.685C30.557 48.931 30.068 49.054 29.39 49.054C29.006 49.054 28.607 49.036 28.193 49V44.5H28.913V46.219ZM32.027 44.5H32.747V49H32.027V44.5ZM37.0054 45.13H35.5924V49H34.8724V45.13H33.4594V44.5H37.0054V45.13ZM40.5283 46.336L40.5553 45.778H40.5283L40.1593 46.354L38.1343 49H37.7203V44.5H38.4403V47.245L38.4133 47.776H38.4493L38.8003 47.218L40.8253 44.5H41.2483V49H40.5283V46.336ZM44.8744 47.137L44.1814 47.245L42.9934 49H42.1204L43.2004 47.461L43.5604 47.128C43.2484 47.08 42.9814 46.954 42.7594 46.75C42.5434 46.546 42.4354 46.27 42.4354 45.922C42.4354 45.652 42.4804 45.421 42.5704 45.229C42.6664 45.037 42.8014 44.878 42.9754 44.752C43.1494 44.626 43.3564 44.536 43.5964 44.482C43.8364 44.422 44.1064 44.392 44.4064 44.392C44.6284 44.392 44.8354 44.407 45.0274 44.437C45.2194 44.467 45.4084 44.5 45.5944 44.536V49H44.8744V47.137ZM44.8744 45.112C44.7964 45.082 44.7094 45.061 44.6134 45.049C44.5174 45.031 44.4334 45.022 44.3614 45.022C43.9774 45.022 43.6834 45.091 43.4794 45.229C43.2814 45.367 43.1824 45.586 43.1824 45.886C43.1824 46.156 43.2874 46.366 43.4974 46.516C43.7134 46.66 43.9954 46.732 44.3434 46.732C44.3494 46.732 44.3584 46.732 44.3704 46.732C44.3824 46.732 44.4064 46.732 44.4424 46.732C44.4784 46.732 44.5294 46.732 44.5954 46.732C44.6614 46.726 44.7544 46.72 44.8744 46.714V45.112Z" fill="white"/>
<path d="M23.6866 18.7713C24.1324 18.7713 24.4958 18.4102 24.4958 17.9632V16.8325C24.4958 16.3855 24.1324 16.0244 23.6866 16.0244C23.2408 16.0244 22.8774 16.3855 22.8774 16.8325V17.9632C22.8774 18.4084 23.2408 18.7713 23.6866 18.7713Z" fill="white"/>
<path d="M36.0609 18.7713C36.5067 18.7713 36.87 18.4102 36.87 17.9632V16.8325C36.87 16.3855 36.5067 16.0244 36.0609 16.0244C35.615 16.0244 35.2517 16.3855 35.2517 16.8325V17.9632C35.2517 18.4084 35.615 18.7713 36.0609 18.7713Z" fill="white"/>
<path d="M39.6186 17.3989H38.2443V18.7715C38.2443 19.5305 37.63 20.1441 36.87 20.1441H35.4956C34.7356 20.1441 34.1213 19.5288 34.1213 18.7715V17.3989H25.8717V18.7715C25.8717 19.5305 25.2574 20.1441 24.4974 20.1441H23.123C22.363 20.1441 21.7487 19.5288 21.7487 18.7715V17.3989H20.3743C19.6143 17.3989 19 18.0142 19 18.7715V36.6236C19 37.3826 19.6143 37.9961 20.3743 37.9961H39.6239C40.3839 37.9961 40.9982 37.3808 40.9982 36.6236V18.7715C40.9982 18.0142 40.3839 17.3989 39.6239 17.3989H39.6186Z" fill="white"/>
<path d="M31.3569 11.139C27.4428 14.6502 26.1544 18.8801 26.1544 18.8801L26.5001 18L27.785 17.8864C27.785 17.8864 29.1559 13.5038 31.3569 11.139ZM27.1953 14.8009L27.785 13.8982C29.0172 11.3704 32.8594 9.54033 32.8594 9.54033C31.908 10.8761 29.8035 15.4811 29.8035 15.4811L29.4244 16.4365C32.6224 16.3365 34.8814 14.7817 35.2746 12.5484C35.5923 10.7446 34.4742 9.41587 36.1346 7.04412C36.1329 7.04237 23.6638 5.94502 27.1935 14.8027L27.1953 14.8009Z" fill="white"/>
</svg>
