<svg width="68" height="60" viewBox="0 0 68 60" fill="none" xmlns="http://www.w3.org/2000/svg">
<path d="M27.4217 0.854295L7.04198 6.71096C6.78223 6.7869 6.52789 6.86284 6.27896 6.94827C6.15449 6.99098 6.03003 7.0337 5.91097 7.07641L5.73239 7.14286C5.61334 7.18557 5.49429 7.23303 5.38065 7.28049L5.20748 7.35168L5.03972 7.42288L4.87196 7.49407L4.70962 7.57L4.54727 7.64594L4.38493 7.72188L4.22799 7.79782L4.07106 7.8785L3.91954 7.95918L3.76802 8.03987L3.6219 8.12055L3.47579 8.20598L3.33509 8.29141L3.19439 8.37684L3.05911 8.46227L2.92923 8.55244L2.79935 8.64262L2.67489 8.7328L2.55042 8.82297L2.43137 8.91789L2.31232 9.01281L2.19868 9.10774L2.08503 9.20266L1.9768 9.29758L1.87398 9.3925L1.77117 9.49217L1.67376 9.59184L1.57635 9.6915L1.48436 9.79117L1.39777 9.89084L1.31119 9.99525L1.23001 10.0997L1.14884 10.2041L1.07308 10.3085L1.00273 10.4129L0.932381 10.5173L0.867443 10.6217L0.802505 10.7309L0.742978 10.8401L0.688863 10.9492L0.634748 11.0584L0.586044 11.1675L0.542752 11.2767L0.49946 11.3859L0.461579 11.495L0.423699 11.6089L0.39123 11.7228L0.364172 11.8367L0.342526 11.9506L0.32088 12.0645L0.304646 12.1785L0.293822 12.2924L0.283 12.4063L0.277588 12.5202V12.6341V26.1747V60H67.4291V59.0128V26.1747V12.6341V12.5202L67.4237 12.4063L67.4128 12.2924L67.402 12.1785L67.3858 12.0645L67.3641 11.9506L67.3425 11.8367L67.3154 11.7228L67.283 11.6089L67.2505 11.495L67.2126 11.3859L67.1693 11.2767L67.126 11.1675L67.0773 11.0584L67.0232 10.9492L66.9691 10.8401L66.9096 10.7309L66.8446 10.6217L66.7797 10.5173L66.7093 10.4129L66.639 10.3085L66.5632 10.2041L66.4821 10.0997L66.4009 9.99525L66.3143 9.89559L66.2223 9.79592L66.1303 9.69625L66.0329 9.59658L65.9355 9.49691L65.8327 9.39725L65.7299 9.30233L65.6216 9.2074L65.508 9.11248L65.3943 9.01756L65.2753 8.92264L65.1562 8.82772L65.0318 8.73754C64.9506 8.67584 64.864 8.61414 64.7774 8.55719L64.6476 8.46702L64.5123 8.38159L64.377 8.29616L64.2363 8.21073L64.0956 8.1253L63.9495 8.04461L63.8034 7.96393L63.6518 7.88325L63.4949 7.80256L63.338 7.72662L63.181 7.65069L63.0187 7.57475C62.8563 7.49881 62.6886 7.42762 62.5154 7.35643L62.3423 7.28524C62.2286 7.23778 62.1096 7.19506 61.9905 7.1476L61.8119 7.08116C61.6929 7.03844 61.5684 6.99573 61.4439 6.95301C61.195 6.87233 60.9407 6.79165 60.6809 6.71571L40.3012 0.859041L40.1118 0.806835L39.9223 0.754627L39.7329 0.707167L39.5435 0.659706L39.3487 0.612245L39.1539 0.56953L38.9591 0.526815L38.7643 0.484101L38.5695 0.446132L38.3747 0.408163L38.1744 0.370195L37.9742 0.336972L37.774 0.303749L37.5737 0.270527L37.3735 0.24205L37.1733 0.213574L36.9677 0.189843L36.762 0.166113L36.5564 0.142382L36.3507 0.123398L36.1451 0.104414L35.9395 0.0854294L35.7338 0.0711913L35.5282 0.0569532L35.3226 0.0427146L35.1169 0.0332227L34.9113 0.0237303L34.7056 0.0142381L34.5 0.00949216L34.2944 0.00474597L34.0887 0H33.8831H33.6775L33.4718 0.00474597L33.2662 0.00949216L33.0605 0.0142381L32.8549 0.0237303L32.6493 0.0332227L32.4436 0.0427146L32.238 0.0569532L32.0324 0.0711913L31.8267 0.0854294L31.6211 0.104414L31.4154 0.123398L31.2098 0.142382L31.0042 0.166113L30.7985 0.189843L30.5929 0.213574L30.3927 0.24205L30.1924 0.270527L29.9922 0.303749L29.792 0.336972L29.5918 0.370195L29.3915 0.408163L29.1913 0.446132L28.9965 0.484101L28.8017 0.526815L28.6069 0.56953L28.4121 0.612245L28.2172 0.659706L28.0278 0.707167L27.8384 0.754627L27.649 0.806835L27.4596 0.859041L27.4217 0.854295Z" fill="#AE4A84"/>
<path d="M16.1808 48.336L16.2078 47.778H16.1808L15.8118 48.354L13.7868 51H13.3728V46.5H14.0928V49.245L14.0658 49.776H14.1018L14.4528 49.218L16.4778 46.5H16.9008V51H16.1808V48.336ZM18.7179 48.993V48.408H19.3479C19.4559 48.408 19.5609 48.39 19.6629 48.354C19.7709 48.318 19.8669 48.27 19.9509 48.21C20.0349 48.144 20.1009 48.069 20.1489 47.985C20.2029 47.895 20.2299 47.802 20.2299 47.706C20.2299 47.472 20.1489 47.307 19.9869 47.211C19.8249 47.115 19.5819 47.067 19.2579 47.067C19.0239 47.067 18.8079 47.103 18.6099 47.175C18.4179 47.247 18.2679 47.316 18.1599 47.382L17.9529 46.824C18.1329 46.722 18.3429 46.632 18.5829 46.554C18.8289 46.476 19.1199 46.437 19.4559 46.437C20.4519 46.437 20.9499 46.806 20.9499 47.544C20.9499 47.754 20.8809 47.961 20.7429 48.165C20.6109 48.363 20.4189 48.504 20.1669 48.588V48.624C20.5209 48.69 20.7669 48.816 20.9049 49.002C21.0489 49.188 21.1209 49.434 21.1209 49.74C21.1209 49.932 21.0819 50.109 21.0039 50.271C20.9259 50.433 20.8089 50.574 20.6529 50.694C20.4969 50.814 20.2989 50.91 20.0589 50.982C19.8249 51.048 19.5519 51.081 19.2399 51.081C18.9339 51.081 18.6789 51.054 18.4749 51C18.2769 50.946 18.0969 50.88 17.9349 50.802L18.1419 50.208C18.2799 50.286 18.4449 50.346 18.6369 50.388C18.8349 50.43 19.0479 50.451 19.2759 50.451C19.6419 50.451 19.9209 50.388 20.1129 50.262C20.3049 50.136 20.4009 49.944 20.4009 49.686C20.4009 49.47 20.3109 49.302 20.1309 49.182C19.9509 49.056 19.6539 48.993 19.2399 48.993H18.7179ZM22.6726 47.301C22.8706 47.013 23.0896 46.812 23.3296 46.698C23.5696 46.578 23.8696 46.518 24.2296 46.518C24.7816 46.518 25.2046 46.698 25.4986 47.058C25.7986 47.418 25.9486 47.949 25.9486 48.651C25.9486 49.461 25.7746 50.073 25.4266 50.487C25.0846 50.901 24.6046 51.108 23.9866 51.108C23.3266 51.108 22.8316 50.88 22.5016 50.424C22.1716 49.968 22.0066 49.251 22.0066 48.273C22.0066 47.757 22.0306 47.316 22.0786 46.95C22.1326 46.584 22.2076 46.275 22.3036 46.023C22.4056 45.771 22.5256 45.57 22.6636 45.42C22.8076 45.27 22.9666 45.153 23.1406 45.069C23.3206 44.979 23.5156 44.916 23.7256 44.88C23.9356 44.844 24.1606 44.814 24.4006 44.79C24.7126 44.76 24.9556 44.727 25.1296 44.691C25.3096 44.649 25.4536 44.577 25.5616 44.475L25.6426 45.123C25.5826 45.177 25.5166 45.222 25.4446 45.258C25.3726 45.294 25.2856 45.324 25.1836 45.348C25.0816 45.372 24.9586 45.393 24.8146 45.411C24.6766 45.429 24.5146 45.444 24.3286 45.456C24.0706 45.474 23.8426 45.507 23.6446 45.555C23.4526 45.597 23.2846 45.684 23.1406 45.816C23.0026 45.942 22.8916 46.125 22.8076 46.365C22.7296 46.599 22.6756 46.911 22.6456 47.301H22.6726ZM22.7536 48.759C22.7536 48.987 22.7776 49.206 22.8256 49.416C22.8736 49.626 22.9456 49.812 23.0416 49.974C23.1436 50.13 23.2726 50.253 23.4286 50.343C23.5846 50.433 23.7676 50.478 23.9776 50.478C24.3916 50.478 24.6976 50.331 24.8956 50.037C25.0996 49.737 25.2016 49.296 25.2016 48.714C25.2016 48.486 25.1806 48.276 25.1386 48.084C25.0966 47.892 25.0306 47.727 24.9406 47.589C24.8506 47.445 24.7366 47.337 24.5986 47.265C24.4606 47.187 24.2956 47.148 24.1036 47.148C23.6356 47.142 23.2936 47.28 23.0776 47.562C22.8616 47.838 22.7536 48.237 22.7536 48.759ZM27.0838 46.5H27.5788L27.7138 47.04H27.7498C27.8878 46.83 28.0648 46.671 28.2808 46.563C28.5028 46.449 28.7548 46.392 29.0368 46.392C29.6368 46.392 30.0838 46.569 30.3778 46.923C30.6718 47.277 30.8188 47.856 30.8188 48.66C30.8188 49.038 30.7678 49.38 30.6658 49.686C30.5698 49.986 30.4318 50.241 30.2518 50.451C30.0718 50.661 29.8528 50.823 29.5948 50.937C29.3428 51.051 29.0608 51.108 28.7488 51.108C28.5268 51.108 28.3498 51.093 28.2178 51.063C28.0918 51.039 27.9538 50.994 27.8038 50.928V52.8H27.0838V46.5ZM28.9018 47.022C28.5958 47.022 28.3528 47.103 28.1728 47.265C27.9988 47.421 27.8758 47.661 27.8038 47.985V50.217C27.9118 50.301 28.0348 50.367 28.1728 50.415C28.3108 50.457 28.4938 50.478 28.7218 50.478C29.1358 50.478 29.4628 50.325 29.7028 50.019C29.9488 49.707 30.0718 49.251 30.0718 48.651C30.0718 48.405 30.0508 48.183 30.0088 47.985C29.9668 47.781 29.8978 47.61 29.8018 47.472C29.7118 47.328 29.5918 47.217 29.4418 47.139C29.2978 47.061 29.1178 47.022 28.9018 47.022ZM31.8809 46.833C32.1089 46.695 32.3729 46.593 32.6729 46.527C32.9789 46.461 33.2969 46.428 33.6269 46.428C33.9389 46.428 34.1879 46.47 34.3739 46.554C34.5659 46.638 34.7099 46.749 34.8059 46.887C34.9079 47.019 34.9739 47.166 35.0039 47.328C35.0399 47.49 35.0579 47.652 35.0579 47.814C35.0579 48.174 35.0489 48.525 35.0309 48.867C35.0129 49.209 35.0039 49.533 35.0039 49.839C35.0039 50.061 35.0129 50.271 35.0309 50.469C35.0489 50.667 35.0819 50.85 35.1299 51.018H34.5989L34.4099 50.388H34.3649C34.3109 50.472 34.2419 50.556 34.1579 50.64C34.0799 50.718 33.9839 50.79 33.8699 50.856C33.7559 50.916 33.6239 50.967 33.4739 51.009C33.3239 51.051 33.1529 51.072 32.9609 51.072C32.7689 51.072 32.5889 51.042 32.4209 50.982C32.2589 50.922 32.1179 50.838 31.9979 50.73C31.8779 50.616 31.7819 50.481 31.7099 50.325C31.6439 50.169 31.6109 49.992 31.6109 49.794C31.6109 49.53 31.6649 49.311 31.7729 49.137C31.8809 48.957 32.0309 48.816 32.2229 48.714C32.4209 48.606 32.6549 48.531 32.9249 48.489C33.2009 48.441 33.5039 48.417 33.8339 48.417C33.9179 48.417 33.9989 48.417 34.0769 48.417C34.1609 48.417 34.2449 48.423 34.3289 48.435C34.3469 48.255 34.3559 48.093 34.3559 47.949C34.3559 47.619 34.2899 47.388 34.1579 47.256C34.0259 47.124 33.7859 47.058 33.4379 47.058C33.3359 47.058 33.2249 47.067 33.1049 47.085C32.9909 47.097 32.8709 47.118 32.7449 47.148C32.6249 47.172 32.5079 47.205 32.3939 47.247C32.2859 47.283 32.1899 47.325 32.1059 47.373L31.8809 46.833ZM33.1589 50.442C33.3269 50.442 33.4769 50.421 33.6089 50.379C33.7409 50.331 33.8549 50.274 33.9509 50.208C34.0469 50.136 34.1249 50.058 34.1849 49.974C34.2509 49.89 34.2989 49.809 34.3289 49.731V48.984C34.2449 48.978 34.1579 48.975 34.0679 48.975C33.9839 48.969 33.8999 48.966 33.8159 48.966C33.6299 48.966 33.4469 48.978 33.2669 49.002C33.0929 49.02 32.9369 49.059 32.7989 49.119C32.6669 49.173 32.5589 49.251 32.4749 49.353C32.3969 49.449 32.3579 49.572 32.3579 49.722C32.3579 49.932 32.4329 50.106 32.5829 50.244C32.7329 50.376 32.9249 50.442 33.1589 50.442ZM39.1718 49.011H37.1378V51H36.4178V46.5H37.1378V48.381H39.1718V46.5H39.8918V51H39.1718V49.011ZM44.0321 49.011H41.9981V51H41.2781V46.5H41.9981V48.381H44.0321V46.5H44.7521V51H44.0321V49.011ZM45.8865 48.75C45.8865 47.988 46.0545 47.406 46.3905 47.004C46.7325 46.596 47.2215 46.392 47.8575 46.392C48.1935 46.392 48.4845 46.449 48.7305 46.563C48.9825 46.671 49.1895 46.83 49.3515 47.04C49.5135 47.244 49.6335 47.493 49.7115 47.787C49.7895 48.075 49.8285 48.396 49.8285 48.75C49.8285 49.512 49.6575 50.097 49.3155 50.505C48.9795 50.907 48.4935 51.108 47.8575 51.108C47.5215 51.108 47.2275 51.054 46.9755 50.946C46.7295 50.832 46.5255 50.673 46.3635 50.469C46.2015 50.259 46.0815 50.01 46.0035 49.722C45.9255 49.428 45.8865 49.104 45.8865 48.75ZM46.6335 48.75C46.6335 48.978 46.6545 49.197 46.6965 49.407C46.7445 49.617 46.8165 49.8 46.9125 49.956C47.0085 50.112 47.1345 50.238 47.2905 50.334C47.4465 50.43 47.6355 50.478 47.8575 50.478C48.6735 50.484 49.0815 49.908 49.0815 48.75C49.0815 48.516 49.0575 48.294 49.0095 48.084C48.9675 47.874 48.8985 47.691 48.8025 47.535C48.7065 47.379 48.5805 47.256 48.4245 47.166C48.2685 47.07 48.0795 47.022 47.8575 47.022C47.0415 47.016 46.6335 47.592 46.6335 48.75ZM54.2487 50.64C54.0687 50.784 53.8407 50.898 53.5647 50.982C53.2947 51.066 53.0067 51.108 52.7007 51.108C52.3587 51.108 52.0617 51.054 51.8097 50.946C51.5577 50.832 51.3507 50.673 51.1887 50.469C51.0267 50.259 50.9067 50.01 50.8287 49.722C50.7507 49.434 50.7117 49.11 50.7117 48.75C50.7117 47.982 50.8827 47.397 51.2247 46.995C51.5667 46.593 52.0557 46.392 52.6917 46.392C52.8957 46.392 53.0997 46.416 53.3037 46.464C53.5077 46.506 53.6907 46.59 53.8527 46.716C54.0147 46.842 54.1467 47.022 54.2487 47.256C54.3507 47.484 54.4017 47.787 54.4017 48.165C54.4017 48.363 54.3837 48.582 54.3477 48.822H51.4587C51.4587 49.086 51.4857 49.32 51.5397 49.524C51.5937 49.728 51.6777 49.902 51.7917 50.046C51.9057 50.184 52.0527 50.292 52.2327 50.37C52.4187 50.442 52.6437 50.478 52.9077 50.478C53.1117 50.478 53.3157 50.442 53.5197 50.37C53.7237 50.298 53.8767 50.214 53.9787 50.118L54.2487 50.64ZM52.7007 47.022C52.3467 47.022 52.0617 47.115 51.8457 47.301C51.6357 47.487 51.5097 47.805 51.4677 48.255H53.6997C53.6997 47.799 53.6127 47.481 53.4387 47.301C53.2647 47.115 53.0187 47.022 52.7007 47.022Z" fill="white"/>
<path d="M33.9804 18.4025L34.2189 18.635L34.4589 18.4042C37.3177 15.6563 41.9083 15.6587 44.7225 18.4025C47.5329 21.1425 47.5329 25.5918 44.7225 28.3318L34.2206 38.5207L23.7186 28.3318C23.7185 28.3317 23.7183 28.3316 23.7182 28.3315C20.9085 25.5917 20.9084 21.1433 23.7177 18.4034C26.5765 15.6563 31.1664 15.659 33.9804 18.4025ZM43.4673 23.7778L43.5373 23.811H43.6146H43.6568H43.8642L43.961 23.6275C44.1967 23.1806 44.3377 22.6465 44.3377 22.1094C44.3377 20.1825 42.6888 18.6907 40.7501 18.6907C40.009 18.6907 39.3137 18.91 38.7549 19.263L38.4494 19.4561L38.6573 19.7517L39.5841 21.0694L39.7724 21.3372L40.0492 21.1623C40.2664 21.0251 40.4978 20.936 40.7501 20.936C41.4623 20.936 42.0069 21.4779 42.0069 22.1094C42.0069 22.3135 41.9702 22.4802 41.8917 22.6042L41.6839 22.9326L42.035 23.099L43.4673 23.7778Z" stroke="white" stroke-width="0.687951"/>
</svg>
