<svg width="60" height="60" viewBox="0 0 60 60" fill="none" xmlns="http://www.w3.org/2000/svg">
<path fill-rule="evenodd" clip-rule="evenodd" d="M6.044 5.51586L24.2534 0.70216L24.2872 0.706061L24.4564 0.663152L24.6257 0.620242L24.7949 0.581233L24.9641 0.542224L25.1382 0.503215L25.3123 0.468107L25.4863 0.432999L25.6604 0.397891L25.8345 0.366684L26.0134 0.335477L26.1923 0.30427L26.3712 0.276963L26.5501 0.249657L26.729 0.222351L26.9079 0.198945L27.0868 0.17554L27.2705 0.156036L27.4543 0.136531L27.638 0.117027L27.8217 0.101423L28.0055 0.0858195L28.1892 0.070216L28.373 0.0585134L28.5567 0.0468108L28.7404 0.0351079L28.9242 0.0273063L29.1079 0.0195043L29.2916 0.0117026L29.4754 0.00780177L29.6591 0.00390079L29.8429 0H30.0266H30.2103L30.3941 0.00390079L30.5778 0.00780177L30.7615 0.0117026L30.9453 0.0195043L31.129 0.0273063L31.3128 0.0351079L31.4965 0.0468108L31.6802 0.0585134L31.864 0.070216L32.0477 0.0858195L32.2314 0.101423L32.4152 0.117027L32.5989 0.136531L32.7827 0.156036L32.9664 0.17554L33.1453 0.198945L33.3242 0.222351L33.5031 0.249657L33.682 0.276963L33.8609 0.30427L34.0398 0.335477L34.2139 0.366684L34.3879 0.397891L34.562 0.432999L34.7361 0.468107L34.9101 0.503215L35.0842 0.542224L35.2534 0.581233L35.4227 0.620242L35.5919 0.663152L35.7611 0.706061L53.9705 5.51976C54.2026 5.58218 54.4298 5.64849 54.6523 5.71481C54.7635 5.74991 54.8747 5.78502 54.9811 5.82013L55.1406 5.87474C55.1843 5.89076 55.228 5.90612 55.2713 5.92136C55.3335 5.94324 55.3951 5.96488 55.4549 5.98787L55.6096 6.04638C55.7644 6.10489 55.9143 6.16341 56.0593 6.22582L56.2044 6.28824L56.3446 6.35065L56.4848 6.41306L56.625 6.47938L56.7604 6.54569L56.891 6.61201L57.0215 6.67833L57.1472 6.74854L57.2729 6.81876L57.3938 6.88897L57.5147 6.95919L57.6307 7.03331C57.7081 7.08012 57.7855 7.13083 57.858 7.18154L57.9692 7.25566L58.0756 7.33368L58.182 7.41169L58.2835 7.48971L58.385 7.56773L58.4817 7.64575L58.5736 7.72376L58.6655 7.80568L58.7525 7.8876L58.8396 7.96952L58.9218 8.05144L59.0039 8.13336L59.0813 8.21528L59.1538 8.3011L59.2264 8.38692L59.2941 8.47274L59.3569 8.55855L59.4198 8.64437L59.4778 8.73019L59.5358 8.81991L59.589 8.90964L59.6374 8.99936L59.6857 9.08908L59.7292 9.1788L59.7679 9.26852L59.8066 9.35824L59.8404 9.44796L59.8694 9.54158L59.8985 9.6352L59.9226 9.72882L59.942 9.82244L59.9613 9.91607L59.9758 10.0097L59.9855 10.1033L59.9952 10.1969L60 10.2906V10.3842V10.6849V11.4963V21.5134V38.4866V48.5037V49.3151V49.6158V49.7094L59.9952 49.8031L59.9855 49.8967L59.9758 49.9903L59.9613 50.0839L59.942 50.1776L59.9226 50.2712L59.8985 50.3648L59.8694 50.4584L59.8404 50.552L59.8066 50.6418L59.7679 50.7315L59.7292 50.8212L59.6857 50.9109L59.6374 51.0006L59.589 51.0904L59.5358 51.1801L59.4778 51.2698L59.4198 51.3556L59.3569 51.4414L59.2941 51.5273L59.2264 51.6131L59.1538 51.6989L59.0813 51.7847L59.0039 51.8666L58.9218 51.9486L58.8396 52.0305L58.7525 52.1124L58.6655 52.1943L58.5736 52.2762L58.4817 52.3543L58.385 52.4323L58.2835 52.5103L58.182 52.5883L58.0756 52.6663L57.9692 52.7443L57.858 52.8185C57.7855 52.8692 57.7081 52.9199 57.6307 52.9667L57.5147 53.0408L57.3938 53.111L57.2729 53.1812L57.1472 53.2515L57.0215 53.3217L56.891 53.388L56.7604 53.4543L56.625 53.5206L56.4848 53.5869L56.3446 53.6493L56.2044 53.7118L56.0593 53.7742C55.9143 53.8366 55.7644 53.8951 55.6096 53.9536L55.4549 54.0121C55.3951 54.0351 55.3335 54.0568 55.2713 54.0786C55.228 54.0939 55.1843 54.1092 55.1406 54.1253L54.9811 54.1799C54.8747 54.215 54.7635 54.2501 54.6523 54.2852C54.4298 54.3515 54.2026 54.4178 53.9705 54.4802L35.7611 59.2939L35.5919 59.3368L35.4227 59.3798L35.2534 59.4188L35.0842 59.4578L34.9101 59.4968L34.7361 59.5319L34.562 59.567L34.3879 59.6021L34.2139 59.6333L34.0398 59.6645L33.8609 59.6957L33.682 59.723L33.5031 59.7503L33.3242 59.7776L33.1453 59.8011L32.9664 59.8245L32.7827 59.844L32.5989 59.8635L32.4152 59.883L32.2314 59.8986L32.0477 59.9142L31.864 59.9298L31.6802 59.9415L31.4965 59.9532L31.3128 59.9649L31.129 59.9727L30.9453 59.9805L30.7615 59.9883L30.5778 59.9922L30.3941 59.9961L30.2103 60H30.0266H29.8429L29.6591 59.9961L29.4754 59.9922L29.2916 59.9883L29.1079 59.9805L28.9242 59.9727L28.7404 59.9649L28.5567 59.9532L28.373 59.9415L28.1892 59.9298L28.0055 59.9142L27.8217 59.8986L27.638 59.883L27.4543 59.8635L27.2705 59.844L27.0868 59.8245L26.9079 59.8011L26.729 59.7776L26.5501 59.7503L26.3712 59.723L26.1923 59.6957L26.0134 59.6645L25.8345 59.6333L25.6604 59.6021L25.4863 59.567L25.3123 59.5319L25.1382 59.4968L24.9641 59.4578L24.7949 59.4188L24.6257 59.3798L24.4564 59.3368L24.2872 59.2939L24.2534 59.2978L6.044 54.4841C5.81191 54.4217 5.58466 54.3593 5.36224 54.2891L5.36141 54.2888C5.25047 54.2538 5.13955 54.2188 5.03344 54.1838L4.87388 54.1292C4.76751 54.0941 4.66113 54.055 4.55959 54.016L4.40487 53.9575L4.25498 53.899L4.10509 53.8405L3.96003 53.7781L3.81497 53.7157L3.66992 53.6533L3.5297 53.5908L3.38948 53.5245L3.25409 53.4582L3.1187 53.3919L2.98815 53.3256L2.8576 53.2554L2.73189 53.1851L2.60617 53.1149L2.48529 53.0447L2.36925 52.9706L2.2532 52.8965L2.14199 52.8224L2.03078 52.7482L1.92441 52.6702L1.81804 52.5922L1.7165 52.5142L1.61496 52.4362L1.51825 52.3582L1.42638 52.2801L1.33452 52.1982L1.24748 52.1163L1.16045 52.0344L1.07825 51.9525L1.00089 51.8705L0.923523 51.7847L0.850995 51.6989L0.778467 51.6131L0.710775 51.5273L0.647917 51.4414L0.585059 51.3556L0.527037 51.2698L0.469015 51.1801L0.415827 51.0904L0.367475 51.0006L0.319123 50.9109L0.275606 50.8212L0.236925 50.7315L0.198243 50.6418L0.164397 50.552L0.13055 50.4584L0.101539 50.3648L0.0773631 50.2712L0.0580224 50.1776L0.0386816 50.0839L0.0241761 49.9903L0.0145055 49.8967L0.00483531 49.8031L0 49.7094V49.6158V49.3151V38.4866V21.5134V10.6849V10.3842V10.2906L0.00483531 10.1969L0.0145055 10.1033L0.0241761 10.0097L0.0386816 9.91607L0.0580224 9.82244L0.0773631 9.72882L0.101539 9.6352L0.13055 9.54158L0.164397 9.44796L0.198243 9.35824L0.236925 9.26852L0.275606 9.1788L0.319123 9.08908L0.367475 8.99936L0.415827 8.90964L0.469015 8.81991L0.527037 8.73019L0.585059 8.64437L0.647917 8.55855L0.710775 8.47274L0.778467 8.38692L0.850995 8.3011L0.923523 8.21528L1.00089 8.12946L1.07825 8.04754L1.16045 7.96562L1.24748 7.8837L1.33452 7.80178L1.42638 7.71986L1.51825 7.64185L1.61496 7.56383L1.7165 7.48581L1.81804 7.40779L1.92441 7.32977L2.03078 7.25176L2.14199 7.17764L2.2532 7.10352L2.36925 7.02941L2.48529 6.95529L2.60617 6.88507L2.73189 6.81486L2.8576 6.74464L2.98815 6.67442L3.1187 6.60811L3.25409 6.54179L3.38948 6.47548L3.5297 6.40916L3.66992 6.34675L3.81497 6.28434L3.96003 6.22192L4.10509 6.15951L4.25498 6.10099L4.40487 6.04248L4.55959 5.98397C4.66113 5.94496 4.76751 5.90595 4.87388 5.87084L5.03344 5.81623C5.13982 5.78112 5.25103 5.74601 5.36224 5.7109C5.58466 5.64069 5.81191 5.57827 6.044 5.51586Z" fill="#53588A"/>
<path d="M6.10391 34.833C6.33191 34.695 6.59591 34.593 6.89591 34.527C7.20191 34.461 7.51991 34.428 7.84991 34.428C8.16191 34.428 8.41091 34.47 8.59691 34.554C8.78891 34.638 8.93291 34.749 9.02891 34.887C9.13091 35.019 9.19691 35.166 9.22691 35.328C9.26291 35.49 9.28091 35.652 9.28091 35.814C9.28091 36.174 9.27191 36.525 9.25391 36.867C9.23591 37.209 9.22691 37.533 9.22691 37.839C9.22691 38.061 9.23591 38.271 9.25391 38.469C9.27191 38.667 9.30491 38.85 9.35291 39.018H8.82191L8.63291 38.388H8.58791C8.53391 38.472 8.46491 38.556 8.38091 38.64C8.30291 38.718 8.20691 38.79 8.09291 38.856C7.97891 38.916 7.84691 38.967 7.69691 39.009C7.54691 39.051 7.37591 39.072 7.18391 39.072C6.99191 39.072 6.81191 39.042 6.64391 38.982C6.48191 38.922 6.34091 38.838 6.22091 38.73C6.10091 38.616 6.00491 38.481 5.93291 38.325C5.86691 38.169 5.83391 37.992 5.83391 37.794C5.83391 37.53 5.88791 37.311 5.99591 37.137C6.10391 36.957 6.25391 36.816 6.44591 36.714C6.64391 36.606 6.87791 36.531 7.14791 36.489C7.42391 36.441 7.72691 36.417 8.05691 36.417C8.14091 36.417 8.22191 36.417 8.29991 36.417C8.38391 36.417 8.46791 36.423 8.55191 36.435C8.56991 36.255 8.57891 36.093 8.57891 35.949C8.57891 35.619 8.51291 35.388 8.38091 35.256C8.24891 35.124 8.00891 35.058 7.66091 35.058C7.55891 35.058 7.44791 35.067 7.32791 35.085C7.21391 35.097 7.09391 35.118 6.96791 35.148C6.84791 35.172 6.73091 35.205 6.61691 35.247C6.50891 35.283 6.41291 35.325 6.32891 35.373L6.10391 34.833ZM7.38191 38.442C7.54991 38.442 7.69991 38.421 7.83191 38.379C7.96391 38.331 8.07791 38.274 8.17391 38.208C8.26991 38.136 8.34791 38.058 8.40791 37.974C8.47391 37.89 8.52191 37.809 8.55191 37.731V36.984C8.46791 36.978 8.38091 36.975 8.29091 36.975C8.20691 36.969 8.12291 36.966 8.03891 36.966C7.85291 36.966 7.66991 36.978 7.48991 37.002C7.31591 37.02 7.15991 37.059 7.02191 37.119C6.88991 37.173 6.78191 37.251 6.69791 37.353C6.61991 37.449 6.58091 37.572 6.58091 37.722C6.58091 37.932 6.65591 38.106 6.80591 38.244C6.95591 38.376 7.14791 38.442 7.38191 38.442ZM13.7098 38.703C13.5298 38.835 13.3168 38.934 13.0708 39C12.8248 39.072 12.5668 39.108 12.2968 39.108C11.9488 39.108 11.6548 39.054 11.4148 38.946C11.1748 38.832 10.9768 38.673 10.8208 38.469C10.6708 38.259 10.5598 38.01 10.4878 37.722C10.4218 37.428 10.3888 37.104 10.3888 36.75C10.3888 35.988 10.5568 35.406 10.8928 35.004C11.2288 34.596 11.7118 34.392 12.3418 34.392C12.6298 34.392 12.8728 34.416 13.0708 34.464C13.2748 34.506 13.4578 34.569 13.6198 34.653L13.4128 35.274C13.2748 35.196 13.1218 35.136 12.9538 35.094C12.7858 35.046 12.6058 35.022 12.4138 35.022C11.5618 35.022 11.1358 35.598 11.1358 36.75C11.1358 36.978 11.1568 37.197 11.1988 37.407C11.2468 37.611 11.3218 37.794 11.4238 37.956C11.5318 38.112 11.6698 38.238 11.8378 38.334C12.0118 38.43 12.2248 38.478 12.4768 38.478C12.6928 38.478 12.8848 38.445 13.0528 38.379C13.2268 38.313 13.3678 38.238 13.4758 38.154L13.7098 38.703ZM17.5594 38.703C17.3794 38.835 17.1664 38.934 16.9204 39C16.6744 39.072 16.4164 39.108 16.1464 39.108C15.7984 39.108 15.5044 39.054 15.2644 38.946C15.0244 38.832 14.8264 38.673 14.6704 38.469C14.5204 38.259 14.4094 38.01 14.3374 37.722C14.2714 37.428 14.2384 37.104 14.2384 36.75C14.2384 35.988 14.4064 35.406 14.7424 35.004C15.0784 34.596 15.5614 34.392 16.1914 34.392C16.4794 34.392 16.7224 34.416 16.9204 34.464C17.1244 34.506 17.3074 34.569 17.4694 34.653L17.2624 35.274C17.1244 35.196 16.9714 35.136 16.8034 35.094C16.6354 35.046 16.4554 35.022 16.2634 35.022C15.4114 35.022 14.9854 35.598 14.9854 36.75C14.9854 36.978 15.0064 37.197 15.0484 37.407C15.0964 37.611 15.1714 37.794 15.2734 37.956C15.3814 38.112 15.5194 38.238 15.6874 38.334C15.8614 38.43 16.0744 38.478 16.3264 38.478C16.5424 38.478 16.7344 38.445 16.9024 38.379C17.0764 38.313 17.2174 38.238 17.3254 38.154L17.5594 38.703ZM18.088 36.75C18.088 35.988 18.256 35.406 18.592 35.004C18.934 34.596 19.423 34.392 20.059 34.392C20.395 34.392 20.686 34.449 20.932 34.563C21.184 34.671 21.391 34.83 21.553 35.04C21.715 35.244 21.835 35.493 21.913 35.787C21.991 36.075 22.03 36.396 22.03 36.75C22.03 37.512 21.859 38.097 21.517 38.505C21.181 38.907 20.695 39.108 20.059 39.108C19.723 39.108 19.429 39.054 19.177 38.946C18.931 38.832 18.727 38.673 18.565 38.469C18.403 38.259 18.283 38.01 18.205 37.722C18.127 37.428 18.088 37.104 18.088 36.75ZM18.835 36.75C18.835 36.978 18.856 37.197 18.898 37.407C18.946 37.617 19.018 37.8 19.114 37.956C19.21 38.112 19.336 38.238 19.492 38.334C19.648 38.43 19.837 38.478 20.059 38.478C20.875 38.484 21.283 37.908 21.283 36.75C21.283 36.516 21.259 36.294 21.211 36.084C21.169 35.874 21.1 35.691 21.004 35.535C20.908 35.379 20.782 35.256 20.626 35.166C20.47 35.07 20.281 35.022 20.059 35.022C19.243 35.016 18.835 35.592 18.835 36.75ZM23.1652 34.5H23.6602L23.7952 35.04H23.8312C23.9692 34.83 24.1462 34.671 24.3622 34.563C24.5842 34.449 24.8362 34.392 25.1182 34.392C25.7182 34.392 26.1652 34.569 26.4592 34.923C26.7532 35.277 26.9002 35.856 26.9002 36.66C26.9002 37.038 26.8492 37.38 26.7472 37.686C26.6512 37.986 26.5132 38.241 26.3332 38.451C26.1532 38.661 25.9342 38.823 25.6762 38.937C25.4242 39.051 25.1422 39.108 24.8302 39.108C24.6082 39.108 24.4312 39.093 24.2992 39.063C24.1732 39.039 24.0352 38.994 23.8852 38.928V40.8H23.1652V34.5ZM24.9832 35.022C24.6772 35.022 24.4342 35.103 24.2542 35.265C24.0802 35.421 23.9572 35.661 23.8852 35.985V38.217C23.9932 38.301 24.1162 38.367 24.2542 38.415C24.3922 38.457 24.5752 38.478 24.8032 38.478C25.2172 38.478 25.5442 38.325 25.7842 38.019C26.0302 37.707 26.1532 37.251 26.1532 36.651C26.1532 36.405 26.1322 36.183 26.0902 35.985C26.0482 35.781 25.9792 35.61 25.8832 35.472C25.7932 35.328 25.6732 35.217 25.5232 35.139C25.3792 35.061 25.1992 35.022 24.9832 35.022ZM30.7647 35.13H29.3517V39H28.6317V35.13H27.2187V34.5H30.7647V35.13ZM34.2876 36.336L34.3146 35.778H34.2876L33.9186 36.354L31.8936 39H31.4796V34.5H32.1996V37.245L32.1726 37.776H32.2086L32.5596 37.218L34.5846 34.5H35.0076V39H34.2876V36.336ZM40.1097 36.327L40.1637 35.472H40.1187L39.7947 36.165L38.7057 37.929H38.4537L37.3197 36.165L37.0227 35.472H36.9867L37.0587 36.318V39H36.3927V34.5H37.1037L38.3637 36.516L38.6247 37.038H38.6427L38.9127 36.498L40.0917 34.5H40.8117V39H40.1097V36.327ZM45.4785 38.64C45.2985 38.784 45.0705 38.898 44.7945 38.982C44.5245 39.066 44.2365 39.108 43.9305 39.108C43.5885 39.108 43.2915 39.054 43.0395 38.946C42.7875 38.832 42.5805 38.673 42.4185 38.469C42.2565 38.259 42.1365 38.01 42.0585 37.722C41.9805 37.434 41.9415 37.11 41.9415 36.75C41.9415 35.982 42.1125 35.397 42.4545 34.995C42.7965 34.593 43.2855 34.392 43.9215 34.392C44.1255 34.392 44.3295 34.416 44.5335 34.464C44.7375 34.506 44.9205 34.59 45.0825 34.716C45.2445 34.842 45.3765 35.022 45.4785 35.256C45.5805 35.484 45.6315 35.787 45.6315 36.165C45.6315 36.363 45.6135 36.582 45.5775 36.822H42.6885C42.6885 37.086 42.7155 37.32 42.7695 37.524C42.8235 37.728 42.9075 37.902 43.0215 38.046C43.1355 38.184 43.2825 38.292 43.4625 38.37C43.6485 38.442 43.8735 38.478 44.1375 38.478C44.3415 38.478 44.5455 38.442 44.7495 38.37C44.9535 38.298 45.1065 38.214 45.2085 38.118L45.4785 38.64ZM43.9305 35.022C43.5765 35.022 43.2915 35.115 43.0755 35.301C42.8655 35.487 42.7395 35.805 42.6975 36.255H44.9295C44.9295 35.799 44.8425 35.481 44.6685 35.301C44.4945 35.115 44.2485 35.022 43.9305 35.022ZM49.5178 37.011H47.4838V39H46.7638V34.5H47.4838V36.381H49.5178V34.5H50.2378V39H49.5178V37.011ZM54.4952 35.13H53.0822V39H52.3622V35.13H50.9492V34.5H54.4952V35.13ZM18.6424 46.327L18.6964 45.472H18.6514L18.3274 46.165L17.2384 47.929H16.9864L15.8524 46.165L15.5554 45.472H15.5194L15.5914 46.318V49H14.9254V44.5H15.6364L16.8964 46.516L17.1574 47.038H17.1754L17.4454 46.498L18.6244 44.5H19.3444V49H18.6424V46.327ZM20.6542 44.833C20.8822 44.695 21.1462 44.593 21.4462 44.527C21.7522 44.461 22.0702 44.428 22.4002 44.428C22.7122 44.428 22.9612 44.47 23.1472 44.554C23.3392 44.638 23.4832 44.749 23.5792 44.887C23.6812 45.019 23.7472 45.166 23.7772 45.328C23.8132 45.49 23.8312 45.652 23.8312 45.814C23.8312 46.174 23.8222 46.525 23.8042 46.867C23.7862 47.209 23.7772 47.533 23.7772 47.839C23.7772 48.061 23.7862 48.271 23.8042 48.469C23.8222 48.667 23.8552 48.85 23.9032 49.018H23.3722L23.1832 48.388H23.1382C23.0842 48.472 23.0152 48.556 22.9312 48.64C22.8532 48.718 22.7572 48.79 22.6432 48.856C22.5292 48.916 22.3972 48.967 22.2472 49.009C22.0972 49.051 21.9262 49.072 21.7342 49.072C21.5422 49.072 21.3622 49.042 21.1942 48.982C21.0322 48.922 20.8912 48.838 20.7712 48.73C20.6512 48.616 20.5552 48.481 20.4832 48.325C20.4172 48.169 20.3842 47.992 20.3842 47.794C20.3842 47.53 20.4382 47.311 20.5462 47.137C20.6542 46.957 20.8042 46.816 20.9962 46.714C21.1942 46.606 21.4282 46.531 21.6982 46.489C21.9742 46.441 22.2772 46.417 22.6072 46.417C22.6912 46.417 22.7722 46.417 22.8502 46.417C22.9342 46.417 23.0182 46.423 23.1022 46.435C23.1202 46.255 23.1292 46.093 23.1292 45.949C23.1292 45.619 23.0632 45.388 22.9312 45.256C22.7992 45.124 22.5592 45.058 22.2112 45.058C22.1092 45.058 21.9982 45.067 21.8782 45.085C21.7642 45.097 21.6442 45.118 21.5182 45.148C21.3982 45.172 21.2812 45.205 21.1672 45.247C21.0592 45.283 20.9632 45.325 20.8792 45.373L20.6542 44.833ZM21.9322 48.442C22.1002 48.442 22.2502 48.421 22.3822 48.379C22.5142 48.331 22.6282 48.274 22.7242 48.208C22.8202 48.136 22.8982 48.058 22.9582 47.974C23.0242 47.89 23.0722 47.809 23.1022 47.731V46.984C23.0182 46.978 22.9312 46.975 22.8412 46.975C22.7572 46.969 22.6732 46.966 22.5892 46.966C22.4032 46.966 22.2202 46.978 22.0402 47.002C21.8662 47.02 21.7102 47.059 21.5722 47.119C21.4402 47.173 21.3322 47.251 21.2482 47.353C21.1702 47.449 21.1312 47.572 21.1312 47.722C21.1312 47.932 21.2062 48.106 21.3562 48.244C21.5062 48.376 21.6982 48.442 21.9322 48.442ZM28.26 48.703C28.08 48.835 27.867 48.934 27.621 49C27.375 49.072 27.117 49.108 26.847 49.108C26.499 49.108 26.205 49.054 25.965 48.946C25.725 48.832 25.527 48.673 25.371 48.469C25.221 48.259 25.11 48.01 25.038 47.722C24.972 47.428 24.939 47.104 24.939 46.75C24.939 45.988 25.107 45.406 25.443 45.004C25.779 44.596 26.262 44.392 26.892 44.392C27.18 44.392 27.423 44.416 27.621 44.464C27.825 44.506 28.008 44.569 28.17 44.653L27.963 45.274C27.825 45.196 27.672 45.136 27.504 45.094C27.336 45.046 27.156 45.022 26.964 45.022C26.112 45.022 25.686 45.598 25.686 46.75C25.686 46.978 25.707 47.197 25.749 47.407C25.797 47.611 25.872 47.794 25.974 47.956C26.082 48.112 26.22 48.238 26.388 48.334C26.562 48.43 26.775 48.478 27.027 48.478C27.243 48.478 27.435 48.445 27.603 48.379C27.777 48.313 27.918 48.238 28.026 48.154L28.26 48.703ZM31.982 45.13H30.569V49H29.849V45.13H28.436V44.5H31.982V45.13ZM35.8413 48.64C35.6613 48.784 35.4333 48.898 35.1573 48.982C34.8873 49.066 34.5993 49.108 34.2933 49.108C33.9513 49.108 33.6543 49.054 33.4023 48.946C33.1503 48.832 32.9433 48.673 32.7813 48.469C32.6193 48.259 32.4993 48.01 32.4213 47.722C32.3433 47.434 32.3043 47.11 32.3043 46.75C32.3043 45.982 32.4753 45.397 32.8173 44.995C33.1593 44.593 33.6483 44.392 34.2843 44.392C34.4883 44.392 34.6923 44.416 34.8963 44.464C35.1003 44.506 35.2833 44.59 35.4453 44.716C35.6073 44.842 35.7393 45.022 35.8413 45.256C35.9433 45.484 35.9943 45.787 35.9943 46.165C35.9943 46.363 35.9763 46.582 35.9403 46.822H33.0513C33.0513 47.086 33.0783 47.32 33.1323 47.524C33.1863 47.728 33.2703 47.902 33.3843 48.046C33.4983 48.184 33.6453 48.292 33.8253 48.37C34.0113 48.442 34.2363 48.478 34.5003 48.478C34.7043 48.478 34.9083 48.442 35.1123 48.37C35.3163 48.298 35.4693 48.214 35.5713 48.118L35.8413 48.64ZM34.2933 45.022C33.9393 45.022 33.6543 45.115 33.4383 45.301C33.2283 45.487 33.1023 45.805 33.0603 46.255H35.2923C35.2923 45.799 35.2053 45.481 35.0313 45.301C34.8573 45.115 34.6113 45.022 34.2933 45.022ZM37.1266 44.5H37.6216L37.7566 45.04H37.7926C37.9306 44.83 38.1076 44.671 38.3236 44.563C38.5456 44.449 38.7976 44.392 39.0796 44.392C39.6796 44.392 40.1266 44.569 40.4206 44.923C40.7146 45.277 40.8616 45.856 40.8616 46.66C40.8616 47.038 40.8106 47.38 40.7086 47.686C40.6126 47.986 40.4746 48.241 40.2946 48.451C40.1146 48.661 39.8956 48.823 39.6376 48.937C39.3856 49.051 39.1036 49.108 38.7916 49.108C38.5696 49.108 38.3926 49.093 38.2606 49.063C38.1346 49.039 37.9966 48.994 37.8466 48.928V50.8H37.1266V44.5ZM38.9446 45.022C38.6386 45.022 38.3956 45.103 38.2156 45.265C38.0416 45.421 37.9186 45.661 37.8466 45.985V48.217C37.9546 48.301 38.0776 48.367 38.2156 48.415C38.3536 48.457 38.5366 48.478 38.7646 48.478C39.1786 48.478 39.5056 48.325 39.7456 48.019C39.9916 47.707 40.1146 47.251 40.1146 46.651C40.1146 46.405 40.0936 46.183 40.0516 45.985C40.0096 45.781 39.9406 45.61 39.8446 45.472C39.7546 45.328 39.6346 45.217 39.4846 45.139C39.3406 45.061 39.1606 45.022 38.9446 45.022ZM41.9237 44.833C42.1517 44.695 42.4157 44.593 42.7157 44.527C43.0217 44.461 43.3397 44.428 43.6697 44.428C43.9817 44.428 44.2307 44.47 44.4167 44.554C44.6087 44.638 44.7527 44.749 44.8487 44.887C44.9507 45.019 45.0167 45.166 45.0467 45.328C45.0827 45.49 45.1007 45.652 45.1007 45.814C45.1007 46.174 45.0917 46.525 45.0737 46.867C45.0557 47.209 45.0467 47.533 45.0467 47.839C45.0467 48.061 45.0557 48.271 45.0737 48.469C45.0917 48.667 45.1247 48.85 45.1727 49.018H44.6417L44.4527 48.388H44.4077C44.3537 48.472 44.2847 48.556 44.2007 48.64C44.1227 48.718 44.0267 48.79 43.9127 48.856C43.7987 48.916 43.6667 48.967 43.5167 49.009C43.3667 49.051 43.1957 49.072 43.0037 49.072C42.8117 49.072 42.6317 49.042 42.4637 48.982C42.3017 48.922 42.1607 48.838 42.0407 48.73C41.9207 48.616 41.8247 48.481 41.7527 48.325C41.6867 48.169 41.6537 47.992 41.6537 47.794C41.6537 47.53 41.7077 47.311 41.8157 47.137C41.9237 46.957 42.0737 46.816 42.2657 46.714C42.4637 46.606 42.6977 46.531 42.9677 46.489C43.2437 46.441 43.5467 46.417 43.8767 46.417C43.9607 46.417 44.0417 46.417 44.1197 46.417C44.2037 46.417 44.2877 46.423 44.3717 46.435C44.3897 46.255 44.3987 46.093 44.3987 45.949C44.3987 45.619 44.3327 45.388 44.2007 45.256C44.0687 45.124 43.8287 45.058 43.4807 45.058C43.3787 45.058 43.2677 45.067 43.1477 45.085C43.0337 45.097 42.9137 45.118 42.7877 45.148C42.6677 45.172 42.5507 45.205 42.4367 45.247C42.3287 45.283 42.2327 45.325 42.1487 45.373L41.9237 44.833ZM43.2017 48.442C43.3697 48.442 43.5197 48.421 43.6517 48.379C43.7837 48.331 43.8977 48.274 43.9937 48.208C44.0897 48.136 44.1677 48.058 44.2277 47.974C44.2937 47.89 44.3417 47.809 44.3717 47.731V46.984C44.2877 46.978 44.2007 46.975 44.1107 46.975C44.0267 46.969 43.9427 46.966 43.8587 46.966C43.6727 46.966 43.4897 46.978 43.3097 47.002C43.1357 47.02 42.9797 47.059 42.8417 47.119C42.7097 47.173 42.6017 47.251 42.5177 47.353C42.4397 47.449 42.4007 47.572 42.4007 47.722C42.4007 47.932 42.4757 48.106 42.6257 48.244C42.7757 48.376 42.9677 48.442 43.2017 48.442Z" fill="white"/>
<path d="M37.9444 21.6902H22.0556C21.4727 21.6902 21 22.1629 21 22.7458C21 23.3286 21.4727 23.8014 22.0556 23.8014H23.1112V26.4724C23.1112 26.7662 23.3452 27.0002 23.639 27.0002H36.3656C36.6594 27.0002 36.8934 26.7662 36.8934 26.4724V23.8014H37.949C38.5319 23.8014 39.0046 23.3286 39.0046 22.7458C39.0046 22.1629 38.5319 21.6902 37.949 21.6902H37.9444Z" fill="white"/>
<path d="M36.5445 12.4882L36.8337 11.9054C36.9163 11.7401 36.9071 11.5474 36.8107 11.3913C36.7144 11.2353 36.5445 11.1389 36.361 11.1389H33.1988C33.0152 11.1389 32.8454 11.2353 32.749 11.3913C32.6527 11.5474 32.6435 11.7401 32.7261 11.9054L33.0152 12.4882C32.0881 12.8279 31.4043 13.4612 30.9958 14.324C31.0372 14.3194 31.0739 14.3103 31.1106 14.3103C31.7118 14.3103 32.2717 14.6086 32.6022 15.1088C32.8821 15.5265 33.5568 15.5265 33.8322 15.1088C34.1672 14.6086 34.7225 14.3103 35.3237 14.3103C35.925 14.3103 36.4849 14.6086 36.8153 15.1088C37.0953 15.5265 37.7699 15.5311 38.0453 15.1088C38.2014 14.8748 38.4125 14.6866 38.6511 14.5489C38.261 13.5713 37.5405 12.86 36.5308 12.4882H36.5445Z" fill="white"/>
<path d="M38.9541 15.6776C38.9495 15.6822 38.9449 15.6868 38.9403 15.6914C38.6053 16.1917 38.05 16.49 37.4487 16.49C36.8475 16.49 36.2876 16.1917 35.9526 15.6914C35.6726 15.2738 34.998 15.2738 34.7226 15.6914C34.3876 16.1917 33.8322 16.49 33.231 16.49C32.6298 16.49 32.0699 16.1917 31.7394 15.6914C31.4916 15.3197 30.9546 15.2967 30.6333 15.5813C30.592 15.8474 30.5691 16.1228 30.5691 16.4165C30.5691 17.8485 31.0372 19.4227 31.7761 20.6343H37.8021C38.541 19.4227 39.0092 17.8485 39.0092 16.4165C39.0092 16.1595 38.9908 15.9163 38.9633 15.6776H38.9541Z" fill="white"/>
<path d="M22.4365 19.5833L22.8588 20.6342H28.6323L29.0546 19.5833H22.4365Z" fill="white"/>
<path d="M29.137 16.2743C28.7607 15.4666 28.1273 14.8378 27.3288 14.4753V12.1071C27.3288 11.2993 27.6546 10.4686 28.2283 9.89954C28.3798 9.74809 28.4257 9.5232 28.343 9.32585C28.2604 9.12851 28.0677 9 27.8566 9H23.6388C23.4277 9 23.2349 9.12851 23.1523 9.32585C23.0697 9.5232 23.1156 9.74809 23.2671 9.89954C23.8408 10.4732 24.1666 11.2993 24.1666 12.1071V14.4753C23.368 14.8378 22.7347 15.462 22.3583 16.2743C22.3354 16.3202 22.3262 16.3707 22.3079 16.4166H29.1921C29.1737 16.3707 29.1646 16.3202 29.1416 16.2743H29.137Z" fill="white"/>
<path d="M29.449 17.4722H22.0462C22.0141 17.8256 22.0186 18.179 22.0875 18.5278H29.4031C29.472 18.179 29.4812 17.8256 29.4445 17.4722H29.449Z" fill="white"/>
</svg>
