<svg width="60" height="60" viewBox="0 0 60 60" fill="none" xmlns="http://www.w3.org/2000/svg">
<path fill-rule="evenodd" clip-rule="evenodd" d="M6.044 5.51586L24.2534 0.70216L24.2872 0.706061L24.4564 0.663152L24.6257 0.620242L24.7949 0.581233L24.9641 0.542224L25.1382 0.503215L25.3123 0.468107L25.4863 0.432999L25.6604 0.397891L25.8345 0.366684L26.0134 0.335477L26.1923 0.30427L26.3712 0.276963L26.5501 0.249657L26.729 0.222351L26.9079 0.198945L27.0868 0.17554L27.2705 0.156036L27.4543 0.136531L27.638 0.117027L27.8217 0.101423L28.0055 0.0858195L28.1892 0.070216L28.373 0.0585134L28.5567 0.0468108L28.7404 0.0351079L28.9242 0.0273063L29.1079 0.0195043L29.2916 0.0117026L29.4754 0.00780177L29.6591 0.00390079L29.8429 0H30.0266H30.2103L30.3941 0.00390079L30.5778 0.00780177L30.7615 0.0117026L30.9453 0.0195043L31.129 0.0273063L31.3128 0.0351079L31.4965 0.0468108L31.6802 0.0585134L31.864 0.070216L32.0477 0.0858195L32.2314 0.101423L32.4152 0.117027L32.5989 0.136531L32.7827 0.156036L32.9664 0.17554L33.1453 0.198945L33.3242 0.222351L33.5031 0.249657L33.682 0.276963L33.8609 0.30427L34.0398 0.335477L34.2139 0.366684L34.3879 0.397891L34.562 0.432999L34.7361 0.468107L34.9101 0.503215L35.0842 0.542224L35.2534 0.581233L35.4227 0.620242L35.5919 0.663152L35.7611 0.706061L53.9705 5.51976C54.2026 5.58218 54.4298 5.64849 54.6523 5.71481C54.7635 5.74991 54.8747 5.78502 54.9811 5.82013L55.1406 5.87474C55.1843 5.89076 55.228 5.90612 55.2713 5.92136C55.3335 5.94324 55.3951 5.96488 55.4549 5.98787L55.6096 6.04638C55.7644 6.10489 55.9143 6.16341 56.0593 6.22582L56.2044 6.28824L56.3446 6.35065L56.4848 6.41306L56.625 6.47938L56.7604 6.54569L56.891 6.61201L57.0215 6.67833L57.1472 6.74854L57.2729 6.81876L57.3938 6.88897L57.5147 6.95919L57.6307 7.03331C57.7081 7.08012 57.7855 7.13083 57.858 7.18154L57.9692 7.25566L58.0756 7.33368L58.182 7.41169L58.2835 7.48971L58.385 7.56773L58.4817 7.64575L58.5736 7.72376L58.6655 7.80568L58.7525 7.8876L58.8396 7.96952L58.9218 8.05144L59.0039 8.13336L59.0813 8.21528L59.1538 8.3011L59.2264 8.38692L59.2941 8.47274L59.3569 8.55855L59.4198 8.64437L59.4778 8.73019L59.5358 8.81991L59.589 8.90964L59.6374 8.99936L59.6857 9.08908L59.7292 9.1788L59.7679 9.26852L59.8066 9.35824L59.8404 9.44796L59.8694 9.54158L59.8985 9.6352L59.9226 9.72882L59.942 9.82244L59.9613 9.91607L59.9758 10.0097L59.9855 10.1033L59.9952 10.1969L60 10.2906V10.3842V10.6849V11.4963V21.5134V38.4866V48.5037V49.3151V49.6158V49.7094L59.9952 49.8031L59.9855 49.8967L59.9758 49.9903L59.9613 50.0839L59.942 50.1776L59.9226 50.2712L59.8985 50.3648L59.8694 50.4584L59.8404 50.552L59.8066 50.6418L59.7679 50.7315L59.7292 50.8212L59.6857 50.9109L59.6374 51.0006L59.589 51.0904L59.5358 51.1801L59.4778 51.2698L59.4198 51.3556L59.3569 51.4414L59.2941 51.5273L59.2264 51.6131L59.1538 51.6989L59.0813 51.7847L59.0039 51.8666L58.9218 51.9486L58.8396 52.0305L58.7525 52.1124L58.6655 52.1943L58.5736 52.2762L58.4817 52.3543L58.385 52.4323L58.2835 52.5103L58.182 52.5883L58.0756 52.6663L57.9692 52.7443L57.858 52.8185C57.7855 52.8692 57.7081 52.9199 57.6307 52.9667L57.5147 53.0408L57.3938 53.111L57.2729 53.1812L57.1472 53.2515L57.0215 53.3217L56.891 53.388L56.7604 53.4543L56.625 53.5206L56.4848 53.5869L56.3446 53.6493L56.2044 53.7118L56.0593 53.7742C55.9143 53.8366 55.7644 53.8951 55.6096 53.9536L55.4549 54.0121C55.3951 54.0351 55.3335 54.0568 55.2713 54.0786C55.228 54.0939 55.1843 54.1092 55.1406 54.1253L54.9811 54.1799C54.8747 54.215 54.7635 54.2501 54.6523 54.2852C54.4298 54.3515 54.2026 54.4178 53.9705 54.4802L35.7611 59.2939L35.5919 59.3368L35.4227 59.3798L35.2534 59.4188L35.0842 59.4578L34.9101 59.4968L34.7361 59.5319L34.562 59.567L34.3879 59.6021L34.2139 59.6333L34.0398 59.6645L33.8609 59.6957L33.682 59.723L33.5031 59.7503L33.3242 59.7776L33.1453 59.8011L32.9664 59.8245L32.7827 59.844L32.5989 59.8635L32.4152 59.883L32.2314 59.8986L32.0477 59.9142L31.864 59.9298L31.6802 59.9415L31.4965 59.9532L31.3128 59.9649L31.129 59.9727L30.9453 59.9805L30.7615 59.9883L30.5778 59.9922L30.3941 59.9961L30.2103 60H30.0266H29.8429L29.6591 59.9961L29.4754 59.9922L29.2916 59.9883L29.1079 59.9805L28.9242 59.9727L28.7404 59.9649L28.5567 59.9532L28.373 59.9415L28.1892 59.9298L28.0055 59.9142L27.8217 59.8986L27.638 59.883L27.4543 59.8635L27.2705 59.844L27.0868 59.8245L26.9079 59.8011L26.729 59.7776L26.5501 59.7503L26.3712 59.723L26.1923 59.6957L26.0134 59.6645L25.8345 59.6333L25.6604 59.6021L25.4863 59.567L25.3123 59.5319L25.1382 59.4968L24.9641 59.4578L24.7949 59.4188L24.6257 59.3798L24.4564 59.3368L24.2872 59.2939L24.2534 59.2978L6.044 54.4841C5.81191 54.4217 5.58466 54.3593 5.36224 54.2891L5.36141 54.2888C5.25047 54.2538 5.13955 54.2188 5.03344 54.1838L4.87388 54.1292C4.76751 54.0941 4.66113 54.055 4.55959 54.016L4.40487 53.9575L4.25498 53.899L4.10509 53.8405L3.96003 53.7781L3.81497 53.7157L3.66992 53.6533L3.5297 53.5908L3.38948 53.5245L3.25409 53.4582L3.1187 53.3919L2.98815 53.3256L2.8576 53.2554L2.73189 53.1851L2.60617 53.1149L2.48529 53.0447L2.36925 52.9706L2.2532 52.8965L2.14199 52.8224L2.03078 52.7482L1.92441 52.6702L1.81804 52.5922L1.7165 52.5142L1.61496 52.4362L1.51825 52.3582L1.42638 52.2801L1.33452 52.1982L1.24748 52.1163L1.16045 52.0344L1.07825 51.9525L1.00089 51.8705L0.923523 51.7847L0.850995 51.6989L0.778467 51.6131L0.710775 51.5273L0.647917 51.4414L0.585059 51.3556L0.527037 51.2698L0.469015 51.1801L0.415827 51.0904L0.367475 51.0006L0.319123 50.9109L0.275606 50.8212L0.236925 50.7315L0.198243 50.6418L0.164397 50.552L0.13055 50.4584L0.101539 50.3648L0.0773631 50.2712L0.0580224 50.1776L0.0386816 50.0839L0.0241761 49.9903L0.0145055 49.8967L0.00483531 49.8031L0 49.7094V49.6158V49.3151V38.4866V21.5134V10.6849V10.3842V10.2906L0.00483531 10.1969L0.0145055 10.1033L0.0241761 10.0097L0.0386816 9.91607L0.0580224 9.82244L0.0773631 9.72882L0.101539 9.6352L0.13055 9.54158L0.164397 9.44796L0.198243 9.35824L0.236925 9.26852L0.275606 9.1788L0.319123 9.08908L0.367475 8.99936L0.415827 8.90964L0.469015 8.81991L0.527037 8.73019L0.585059 8.64437L0.647917 8.55855L0.710775 8.47274L0.778467 8.38692L0.850995 8.3011L0.923523 8.21528L1.00089 8.12946L1.07825 8.04754L1.16045 7.96562L1.24748 7.8837L1.33452 7.80178L1.42638 7.71986L1.51825 7.64185L1.61496 7.56383L1.7165 7.48581L1.81804 7.40779L1.92441 7.32977L2.03078 7.25176L2.14199 7.17764L2.2532 7.10352L2.36925 7.02941L2.48529 6.95529L2.60617 6.88507L2.73189 6.81486L2.8576 6.74464L2.98815 6.67442L3.1187 6.60811L3.25409 6.54179L3.38948 6.47548L3.5297 6.40916L3.66992 6.34675L3.81497 6.28434L3.96003 6.22192L4.10509 6.15951L4.25498 6.10099L4.40487 6.04248L4.55959 5.98397C4.66113 5.94496 4.76751 5.90595 4.87388 5.87084L5.03344 5.81623C5.13982 5.78112 5.25103 5.74601 5.36224 5.7109C5.58466 5.64069 5.81191 5.57827 6.044 5.51586Z" fill="#53588A"/>
<path d="M17.5679 36.993V36.408H18.1979C18.3059 36.408 18.4109 36.39 18.5129 36.354C18.6209 36.318 18.7169 36.27 18.8009 36.21C18.8849 36.144 18.9509 36.069 18.9989 35.985C19.0529 35.895 19.0799 35.802 19.0799 35.706C19.0799 35.472 18.9989 35.307 18.8369 35.211C18.6749 35.115 18.4319 35.067 18.1079 35.067C17.8739 35.067 17.6579 35.103 17.4599 35.175C17.2679 35.247 17.1179 35.316 17.0099 35.382L16.8029 34.824C16.9829 34.722 17.1929 34.632 17.4329 34.554C17.6789 34.476 17.9699 34.437 18.3059 34.437C19.3019 34.437 19.7999 34.806 19.7999 35.544C19.7999 35.754 19.7309 35.961 19.5929 36.165C19.4609 36.363 19.2689 36.504 19.0169 36.588V36.624C19.3709 36.69 19.6169 36.816 19.7549 37.002C19.8989 37.188 19.9709 37.434 19.9709 37.74C19.9709 37.932 19.9319 38.109 19.8539 38.271C19.7759 38.433 19.6589 38.574 19.5029 38.694C19.3469 38.814 19.1489 38.91 18.9089 38.982C18.6749 39.048 18.4019 39.081 18.0899 39.081C17.7839 39.081 17.5289 39.054 17.3249 39C17.1269 38.946 16.9469 38.88 16.7849 38.802L16.9919 38.208C17.1299 38.286 17.2949 38.346 17.4869 38.388C17.6849 38.43 17.8979 38.451 18.1259 38.451C18.4919 38.451 18.7709 38.388 18.9629 38.262C19.1549 38.136 19.2509 37.944 19.2509 37.686C19.2509 37.47 19.1609 37.302 18.9809 37.182C18.8009 37.056 18.5039 36.993 18.0899 36.993H17.5679ZM21.0365 34.833C21.2645 34.695 21.5285 34.593 21.8285 34.527C22.1345 34.461 22.4525 34.428 22.7825 34.428C23.0945 34.428 23.3435 34.47 23.5295 34.554C23.7215 34.638 23.8655 34.749 23.9615 34.887C24.0635 35.019 24.1295 35.166 24.1595 35.328C24.1955 35.49 24.2135 35.652 24.2135 35.814C24.2135 36.174 24.2045 36.525 24.1865 36.867C24.1685 37.209 24.1595 37.533 24.1595 37.839C24.1595 38.061 24.1685 38.271 24.1865 38.469C24.2045 38.667 24.2375 38.85 24.2855 39.018H23.7545L23.5655 38.388H23.5205C23.4665 38.472 23.3975 38.556 23.3135 38.64C23.2355 38.718 23.1395 38.79 23.0255 38.856C22.9115 38.916 22.7795 38.967 22.6295 39.009C22.4795 39.051 22.3085 39.072 22.1165 39.072C21.9245 39.072 21.7445 39.042 21.5765 38.982C21.4145 38.922 21.2735 38.838 21.1535 38.73C21.0335 38.616 20.9375 38.481 20.8655 38.325C20.7995 38.169 20.7665 37.992 20.7665 37.794C20.7665 37.53 20.8205 37.311 20.9285 37.137C21.0365 36.957 21.1865 36.816 21.3785 36.714C21.5765 36.606 21.8105 36.531 22.0805 36.489C22.3565 36.441 22.6595 36.417 22.9895 36.417C23.0735 36.417 23.1545 36.417 23.2325 36.417C23.3165 36.417 23.4005 36.423 23.4845 36.435C23.5025 36.255 23.5115 36.093 23.5115 35.949C23.5115 35.619 23.4455 35.388 23.3135 35.256C23.1815 35.124 22.9415 35.058 22.5935 35.058C22.4915 35.058 22.3805 35.067 22.2605 35.085C22.1465 35.097 22.0265 35.118 21.9005 35.148C21.7805 35.172 21.6635 35.205 21.5495 35.247C21.4415 35.283 21.3455 35.325 21.2615 35.373L21.0365 34.833ZM22.3145 38.442C22.4825 38.442 22.6325 38.421 22.7645 38.379C22.8965 38.331 23.0105 38.274 23.1065 38.208C23.2025 38.136 23.2805 38.058 23.3405 37.974C23.4065 37.89 23.4545 37.809 23.4845 37.731V36.984C23.4005 36.978 23.3135 36.975 23.2235 36.975C23.1395 36.969 23.0555 36.966 22.9715 36.966C22.7855 36.966 22.6025 36.978 22.4225 37.002C22.2485 37.02 22.0925 37.059 21.9545 37.119C21.8225 37.173 21.7145 37.251 21.6305 37.353C21.5525 37.449 21.5135 37.572 21.5135 37.722C21.5135 37.932 21.5885 38.106 21.7385 38.244C21.8885 38.376 22.0805 38.442 22.3145 38.442ZM26.7074 36.975H26.2934V39H25.5734V34.5H26.2934V36.534L26.6804 36.408L28.1204 34.5H28.9034L27.5084 36.309L27.1304 36.606L27.5984 36.966L29.1014 39H28.2104L26.7074 36.975ZM29.7992 34.833C30.0272 34.695 30.2912 34.593 30.5912 34.527C30.8972 34.461 31.2152 34.428 31.5452 34.428C31.8572 34.428 32.1062 34.47 32.2922 34.554C32.4842 34.638 32.6282 34.749 32.7242 34.887C32.8262 35.019 32.8922 35.166 32.9222 35.328C32.9582 35.49 32.9762 35.652 32.9762 35.814C32.9762 36.174 32.9672 36.525 32.9492 36.867C32.9312 37.209 32.9222 37.533 32.9222 37.839C32.9222 38.061 32.9312 38.271 32.9492 38.469C32.9672 38.667 33.0002 38.85 33.0482 39.018H32.5172L32.3282 38.388H32.2832C32.2292 38.472 32.1602 38.556 32.0762 38.64C31.9982 38.718 31.9022 38.79 31.7882 38.856C31.6742 38.916 31.5422 38.967 31.3922 39.009C31.2422 39.051 31.0712 39.072 30.8792 39.072C30.6872 39.072 30.5072 39.042 30.3392 38.982C30.1772 38.922 30.0362 38.838 29.9162 38.73C29.7962 38.616 29.7002 38.481 29.6282 38.325C29.5622 38.169 29.5292 37.992 29.5292 37.794C29.5292 37.53 29.5832 37.311 29.6912 37.137C29.7992 36.957 29.9492 36.816 30.1412 36.714C30.3392 36.606 30.5732 36.531 30.8432 36.489C31.1192 36.441 31.4222 36.417 31.7522 36.417C31.8362 36.417 31.9172 36.417 31.9952 36.417C32.0792 36.417 32.1632 36.423 32.2472 36.435C32.2652 36.255 32.2742 36.093 32.2742 35.949C32.2742 35.619 32.2082 35.388 32.0762 35.256C31.9442 35.124 31.7042 35.058 31.3562 35.058C31.2542 35.058 31.1432 35.067 31.0232 35.085C30.9092 35.097 30.7892 35.118 30.6632 35.148C30.5432 35.172 30.4262 35.205 30.3122 35.247C30.2042 35.283 30.1082 35.325 30.0242 35.373L29.7992 34.833ZM31.0772 38.442C31.2452 38.442 31.3952 38.421 31.5272 38.379C31.6592 38.331 31.7732 38.274 31.8692 38.208C31.9652 38.136 32.0432 38.058 32.1032 37.974C32.1692 37.89 32.2172 37.809 32.2472 37.731V36.984C32.1632 36.978 32.0762 36.975 31.9862 36.975C31.9022 36.969 31.8182 36.966 31.7342 36.966C31.5482 36.966 31.3652 36.978 31.1852 37.002C31.0112 37.02 30.8552 37.059 30.7172 37.119C30.5852 37.173 30.4772 37.251 30.3932 37.353C30.3152 37.449 30.2762 37.572 30.2762 37.722C30.2762 37.932 30.3512 38.106 30.5012 38.244C30.6512 38.376 30.8432 38.442 31.0772 38.442ZM34.7681 36.993V36.408H35.3981C35.5061 36.408 35.6111 36.39 35.7131 36.354C35.8211 36.318 35.9171 36.27 36.0011 36.21C36.0851 36.144 36.1511 36.069 36.1991 35.985C36.2531 35.895 36.2801 35.802 36.2801 35.706C36.2801 35.472 36.1991 35.307 36.0371 35.211C35.8751 35.115 35.6321 35.067 35.3081 35.067C35.0741 35.067 34.8581 35.103 34.6601 35.175C34.4681 35.247 34.3181 35.316 34.2101 35.382L34.0031 34.824C34.1831 34.722 34.3931 34.632 34.6331 34.554C34.8791 34.476 35.1701 34.437 35.5061 34.437C36.5021 34.437 37.0001 34.806 37.0001 35.544C37.0001 35.754 36.9311 35.961 36.7931 36.165C36.6611 36.363 36.4691 36.504 36.2171 36.588V36.624C36.5711 36.69 36.8171 36.816 36.9551 37.002C37.0991 37.188 37.1711 37.434 37.1711 37.74C37.1711 37.932 37.1321 38.109 37.0541 38.271C36.9761 38.433 36.8591 38.574 36.7031 38.694C36.5471 38.814 36.3491 38.91 36.1091 38.982C35.8751 39.048 35.6021 39.081 35.2901 39.081C34.9841 39.081 34.7291 39.054 34.5251 39C34.3271 38.946 34.1471 38.88 33.9851 38.802L34.1921 38.208C34.3301 38.286 34.4951 38.346 34.6871 38.388C34.8851 38.43 35.0981 38.451 35.3261 38.451C35.6921 38.451 35.9711 38.388 36.1631 38.262C36.3551 38.136 36.4511 37.944 36.4511 37.686C36.4511 37.47 36.3611 37.302 36.1811 37.182C36.0011 37.056 35.7041 36.993 35.2901 36.993H34.7681ZM39.0287 38.37C39.2507 38.406 39.4637 38.424 39.6677 38.424C40.0457 38.424 40.3097 38.352 40.4597 38.208C40.6097 38.058 40.6847 37.848 40.6847 37.578C40.6847 37.338 40.6097 37.14 40.4597 36.984C40.3157 36.828 40.0607 36.75 39.6947 36.75C39.5927 36.75 39.4817 36.753 39.3617 36.759C39.2417 36.765 39.1307 36.783 39.0287 36.813V38.37ZM39.0287 36.219C39.1727 36.195 39.3107 36.18 39.4427 36.174C39.5747 36.162 39.7007 36.156 39.8207 36.156C40.1267 36.156 40.3817 36.192 40.5857 36.264C40.7957 36.33 40.9637 36.423 41.0897 36.543C41.2157 36.663 41.3027 36.807 41.3507 36.975C41.4047 37.137 41.4317 37.311 41.4317 37.497C41.4317 38.043 41.2787 38.439 40.9727 38.685C40.6727 38.931 40.1837 39.054 39.5057 39.054C39.1217 39.054 38.7227 39.036 38.3087 39V34.5H39.0287V36.219ZM42.1427 34.5H42.8627V39H42.1427V34.5ZM18.6424 46.327L18.6964 45.472H18.6514L18.3274 46.165L17.2384 47.929H16.9864L15.8524 46.165L15.5554 45.472H15.5194L15.5914 46.318V49H14.9254V44.5H15.6364L16.8964 46.516L17.1574 47.038H17.1754L17.4454 46.498L18.6244 44.5H19.3444V49H18.6424V46.327ZM20.6542 44.833C20.8822 44.695 21.1462 44.593 21.4462 44.527C21.7522 44.461 22.0702 44.428 22.4002 44.428C22.7122 44.428 22.9612 44.47 23.1472 44.554C23.3392 44.638 23.4832 44.749 23.5792 44.887C23.6812 45.019 23.7472 45.166 23.7772 45.328C23.8132 45.49 23.8312 45.652 23.8312 45.814C23.8312 46.174 23.8222 46.525 23.8042 46.867C23.7862 47.209 23.7772 47.533 23.7772 47.839C23.7772 48.061 23.7862 48.271 23.8042 48.469C23.8222 48.667 23.8552 48.85 23.9032 49.018H23.3722L23.1832 48.388H23.1382C23.0842 48.472 23.0152 48.556 22.9312 48.64C22.8532 48.718 22.7572 48.79 22.6432 48.856C22.5292 48.916 22.3972 48.967 22.2472 49.009C22.0972 49.051 21.9262 49.072 21.7342 49.072C21.5422 49.072 21.3622 49.042 21.1942 48.982C21.0322 48.922 20.8912 48.838 20.7712 48.73C20.6512 48.616 20.5552 48.481 20.4832 48.325C20.4172 48.169 20.3842 47.992 20.3842 47.794C20.3842 47.53 20.4382 47.311 20.5462 47.137C20.6542 46.957 20.8042 46.816 20.9962 46.714C21.1942 46.606 21.4282 46.531 21.6982 46.489C21.9742 46.441 22.2772 46.417 22.6072 46.417C22.6912 46.417 22.7722 46.417 22.8502 46.417C22.9342 46.417 23.0182 46.423 23.1022 46.435C23.1202 46.255 23.1292 46.093 23.1292 45.949C23.1292 45.619 23.0632 45.388 22.9312 45.256C22.7992 45.124 22.5592 45.058 22.2112 45.058C22.1092 45.058 21.9982 45.067 21.8782 45.085C21.7642 45.097 21.6442 45.118 21.5182 45.148C21.3982 45.172 21.2812 45.205 21.1672 45.247C21.0592 45.283 20.9632 45.325 20.8792 45.373L20.6542 44.833ZM21.9322 48.442C22.1002 48.442 22.2502 48.421 22.3822 48.379C22.5142 48.331 22.6282 48.274 22.7242 48.208C22.8202 48.136 22.8982 48.058 22.9582 47.974C23.0242 47.89 23.0722 47.809 23.1022 47.731V46.984C23.0182 46.978 22.9312 46.975 22.8412 46.975C22.7572 46.969 22.6732 46.966 22.5892 46.966C22.4032 46.966 22.2202 46.978 22.0402 47.002C21.8662 47.02 21.7102 47.059 21.5722 47.119C21.4402 47.173 21.3322 47.251 21.2482 47.353C21.1702 47.449 21.1312 47.572 21.1312 47.722C21.1312 47.932 21.2062 48.106 21.3562 48.244C21.5062 48.376 21.6982 48.442 21.9322 48.442ZM28.26 48.703C28.08 48.835 27.867 48.934 27.621 49C27.375 49.072 27.117 49.108 26.847 49.108C26.499 49.108 26.205 49.054 25.965 48.946C25.725 48.832 25.527 48.673 25.371 48.469C25.221 48.259 25.11 48.01 25.038 47.722C24.972 47.428 24.939 47.104 24.939 46.75C24.939 45.988 25.107 45.406 25.443 45.004C25.779 44.596 26.262 44.392 26.892 44.392C27.18 44.392 27.423 44.416 27.621 44.464C27.825 44.506 28.008 44.569 28.17 44.653L27.963 45.274C27.825 45.196 27.672 45.136 27.504 45.094C27.336 45.046 27.156 45.022 26.964 45.022C26.112 45.022 25.686 45.598 25.686 46.75C25.686 46.978 25.707 47.197 25.749 47.407C25.797 47.611 25.872 47.794 25.974 47.956C26.082 48.112 26.22 48.238 26.388 48.334C26.562 48.43 26.775 48.478 27.027 48.478C27.243 48.478 27.435 48.445 27.603 48.379C27.777 48.313 27.918 48.238 28.026 48.154L28.26 48.703ZM31.982 45.13H30.569V49H29.849V45.13H28.436V44.5H31.982V45.13ZM35.8413 48.64C35.6613 48.784 35.4333 48.898 35.1573 48.982C34.8873 49.066 34.5993 49.108 34.2933 49.108C33.9513 49.108 33.6543 49.054 33.4023 48.946C33.1503 48.832 32.9433 48.673 32.7813 48.469C32.6193 48.259 32.4993 48.01 32.4213 47.722C32.3433 47.434 32.3043 47.11 32.3043 46.75C32.3043 45.982 32.4753 45.397 32.8173 44.995C33.1593 44.593 33.6483 44.392 34.2843 44.392C34.4883 44.392 34.6923 44.416 34.8963 44.464C35.1003 44.506 35.2833 44.59 35.4453 44.716C35.6073 44.842 35.7393 45.022 35.8413 45.256C35.9433 45.484 35.9943 45.787 35.9943 46.165C35.9943 46.363 35.9763 46.582 35.9403 46.822H33.0513C33.0513 47.086 33.0783 47.32 33.1323 47.524C33.1863 47.728 33.2703 47.902 33.3843 48.046C33.4983 48.184 33.6453 48.292 33.8253 48.37C34.0113 48.442 34.2363 48.478 34.5003 48.478C34.7043 48.478 34.9083 48.442 35.1123 48.37C35.3163 48.298 35.4693 48.214 35.5713 48.118L35.8413 48.64ZM34.2933 45.022C33.9393 45.022 33.6543 45.115 33.4383 45.301C33.2283 45.487 33.1023 45.805 33.0603 46.255H35.2923C35.2923 45.799 35.2053 45.481 35.0313 45.301C34.8573 45.115 34.6113 45.022 34.2933 45.022ZM37.1266 44.5H37.6216L37.7566 45.04H37.7926C37.9306 44.83 38.1076 44.671 38.3236 44.563C38.5456 44.449 38.7976 44.392 39.0796 44.392C39.6796 44.392 40.1266 44.569 40.4206 44.923C40.7146 45.277 40.8616 45.856 40.8616 46.66C40.8616 47.038 40.8106 47.38 40.7086 47.686C40.6126 47.986 40.4746 48.241 40.2946 48.451C40.1146 48.661 39.8956 48.823 39.6376 48.937C39.3856 49.051 39.1036 49.108 38.7916 49.108C38.5696 49.108 38.3926 49.093 38.2606 49.063C38.1346 49.039 37.9966 48.994 37.8466 48.928V50.8H37.1266V44.5ZM38.9446 45.022C38.6386 45.022 38.3956 45.103 38.2156 45.265C38.0416 45.421 37.9186 45.661 37.8466 45.985V48.217C37.9546 48.301 38.0776 48.367 38.2156 48.415C38.3536 48.457 38.5366 48.478 38.7646 48.478C39.1786 48.478 39.5056 48.325 39.7456 48.019C39.9916 47.707 40.1146 47.251 40.1146 46.651C40.1146 46.405 40.0936 46.183 40.0516 45.985C40.0096 45.781 39.9406 45.61 39.8446 45.472C39.7546 45.328 39.6346 45.217 39.4846 45.139C39.3406 45.061 39.1606 45.022 38.9446 45.022ZM41.9237 44.833C42.1517 44.695 42.4157 44.593 42.7157 44.527C43.0217 44.461 43.3397 44.428 43.6697 44.428C43.9817 44.428 44.2307 44.47 44.4167 44.554C44.6087 44.638 44.7527 44.749 44.8487 44.887C44.9507 45.019 45.0167 45.166 45.0467 45.328C45.0827 45.49 45.1007 45.652 45.1007 45.814C45.1007 46.174 45.0917 46.525 45.0737 46.867C45.0557 47.209 45.0467 47.533 45.0467 47.839C45.0467 48.061 45.0557 48.271 45.0737 48.469C45.0917 48.667 45.1247 48.85 45.1727 49.018H44.6417L44.4527 48.388H44.4077C44.3537 48.472 44.2847 48.556 44.2007 48.64C44.1227 48.718 44.0267 48.79 43.9127 48.856C43.7987 48.916 43.6667 48.967 43.5167 49.009C43.3667 49.051 43.1957 49.072 43.0037 49.072C42.8117 49.072 42.6317 49.042 42.4637 48.982C42.3017 48.922 42.1607 48.838 42.0407 48.73C41.9207 48.616 41.8247 48.481 41.7527 48.325C41.6867 48.169 41.6537 47.992 41.6537 47.794C41.6537 47.53 41.7077 47.311 41.8157 47.137C41.9237 46.957 42.0737 46.816 42.2657 46.714C42.4637 46.606 42.6977 46.531 42.9677 46.489C43.2437 46.441 43.5467 46.417 43.8767 46.417C43.9607 46.417 44.0417 46.417 44.1197 46.417C44.2037 46.417 44.2877 46.423 44.3717 46.435C44.3897 46.255 44.3987 46.093 44.3987 45.949C44.3987 45.619 44.3327 45.388 44.2007 45.256C44.0687 45.124 43.8287 45.058 43.4807 45.058C43.3787 45.058 43.2677 45.067 43.1477 45.085C43.0337 45.097 42.9137 45.118 42.7877 45.148C42.6677 45.172 42.5507 45.205 42.4367 45.247C42.3287 45.283 42.2327 45.325 42.1487 45.373L41.9237 44.833ZM43.2017 48.442C43.3697 48.442 43.5197 48.421 43.6517 48.379C43.7837 48.331 43.8977 48.274 43.9937 48.208C44.0897 48.136 44.1677 48.058 44.2277 47.974C44.2937 47.89 44.3417 47.809 44.3717 47.731V46.984C44.2877 46.978 44.2007 46.975 44.1107 46.975C44.0267 46.969 43.9427 46.966 43.8587 46.966C43.6727 46.966 43.4897 46.978 43.3097 47.002C43.1357 47.02 42.9797 47.059 42.8417 47.119C42.7097 47.173 42.6017 47.251 42.5177 47.353C42.4397 47.449 42.4007 47.572 42.4007 47.722C42.4007 47.932 42.4757 48.106 42.6257 48.244C42.7757 48.376 42.9677 48.442 43.2017 48.442Z" fill="white"/>
<path d="M32.7382 11.1086L33.2772 9H25.8914L26.4304 11.1086H32.7382Z" fill="white"/>
<path d="M24.6831 24.8914L25.8774 27H33.2915L34.4857 24.8914H24.6831Z" fill="white"/>
<path d="M22.4824 20.9536C22.5529 21.1122 22.6321 21.2691 22.7202 21.4243L24.0854 23.8364H35.0823L36.4474 21.4243C36.5355 21.2691 36.613 21.1122 36.6852 20.9536H22.4824Z" fill="white"/>
<path d="M37.036 19.8985C37.1628 19.3261 37.1945 18.7416 37.1311 18.164C36.8352 18.2071 36.6485 18.3071 36.423 18.4278C36.076 18.614 35.6444 18.8433 34.8482 18.8433C34.052 18.8433 33.6205 18.6123 33.2735 18.4278C32.974 18.2675 32.7362 18.1399 32.2148 18.1399C31.6934 18.1399 31.4574 18.2675 31.1562 18.4278C30.8092 18.614 30.3776 18.8433 29.5814 18.8433C28.7852 18.8433 28.3537 18.6123 28.0066 18.4278C27.7072 18.2675 27.4694 18.1399 26.948 18.1399C26.4266 18.1399 26.1906 18.2675 25.8893 18.4278C25.5423 18.614 25.1108 18.8433 24.3146 18.8433C23.5184 18.8433 23.0868 18.6123 22.7398 18.4278C22.5144 18.3071 22.3276 18.2071 22.0317 18.164C21.9683 18.7416 22 19.3261 22.1268 19.8985H37.0307H37.036Z" fill="white"/>
<path d="M23.2613 17.5018C23.5607 17.6621 23.7985 17.7897 24.3199 17.7897C24.8413 17.7897 25.0773 17.6621 25.3786 17.5018C25.7256 17.3173 26.1571 17.0863 26.9533 17.0863C27.7495 17.0863 28.1811 17.3173 28.5281 17.5018C28.8275 17.6621 29.0653 17.7897 29.5867 17.7897C30.1081 17.7897 30.3442 17.6621 30.6454 17.5018C30.9924 17.3173 31.424 17.0863 32.2201 17.0863C33.0163 17.0863 33.4479 17.3173 33.7949 17.5018C34.0944 17.6621 34.3322 17.7897 34.8536 17.7897C35.375 17.7897 35.611 17.6621 35.9122 17.5018C36.1641 17.3673 36.4653 17.2069 36.918 17.1311C36.7877 16.7207 36.6097 16.3225 36.379 15.9397C35.4701 14.4293 33.9376 13.4587 32.1937 13.2587L32.4738 12.1638H26.705L26.985 13.2587C25.2412 13.4604 23.7087 14.4293 22.7998 15.9397C22.569 16.3225 22.3911 16.7207 22.2607 17.1311C22.7134 17.2069 23.0147 17.3673 23.2665 17.5018H23.2613Z" fill="white"/>
</svg>
