<svg width="67" height="60" viewBox="0 0 67 60" fill="none" xmlns="http://www.w3.org/2000/svg">
<path d="M27.069 0.854295L6.74566 6.71096C6.48662 6.7869 6.23299 6.86284 5.98475 6.94827C5.86063 6.99098 5.73651 7.0337 5.61778 7.07641L5.4397 7.14286C5.32097 7.18557 5.20225 7.23303 5.08892 7.28049L4.91623 7.35168L4.74894 7.42288L4.58165 7.49407L4.41975 7.57L4.25786 7.64594L4.09596 7.72188L3.93946 7.79782L3.78296 7.8785L3.63186 7.95918L3.48076 8.03987L3.33505 8.12055L3.18935 8.20598L3.04904 8.29141L2.90873 8.37684L2.77381 8.46227L2.6443 8.55244L2.51478 8.64262L2.39066 8.7328L2.26654 8.82297L2.14782 8.91789L2.02909 9.01281L1.91577 9.10774L1.80244 9.20266L1.69451 9.29758L1.59197 9.3925L1.48944 9.49217L1.3923 9.59184L1.29517 9.6915L1.20342 9.79117L1.11708 9.89084L1.03074 9.99525L0.949789 10.0997L0.86884 10.2041L0.793289 10.3085L0.723134 10.4129L0.65298 10.5173L0.588221 10.6217L0.523463 10.7309L0.464101 10.8401L0.410136 10.9492L0.356171 11.0584L0.307602 11.1675L0.26443 11.2767L0.221257 11.3859L0.183482 11.495L0.145706 11.6089L0.113327 11.7228L0.0863443 11.8367L0.0647582 11.9506L0.0431722 12.0645L0.0269827 12.1785L0.0161894 12.2924L0.00539665 12.4063L0 12.5202V12.6341V26.1747V60H66.9655V59.0128V26.1747V12.6341V12.5202L66.9601 12.4063L66.9493 12.2924L66.9385 12.1785L66.9223 12.0645L66.9007 11.9506L66.8791 11.8367L66.8521 11.7228L66.8198 11.6089L66.7874 11.495L66.7496 11.3859L66.7064 11.2767L66.6633 11.1675L66.6147 11.0584L66.5607 10.9492L66.5068 10.8401L66.4474 10.7309L66.3827 10.6217L66.3179 10.5173L66.2477 10.4129L66.1776 10.3085L66.102 10.2041L66.0211 10.0997L65.9401 9.99525L65.8538 9.89559L65.7621 9.79592L65.6703 9.69625L65.5732 9.59658L65.476 9.49692L65.3735 9.39725L65.271 9.30233L65.163 9.2074L65.0497 9.11248L64.9364 9.01756L64.8177 8.92264L64.6989 8.82772L64.5748 8.73754C64.4939 8.67584 64.4075 8.61414 64.3212 8.55719L64.1917 8.46701L64.0568 8.38159L63.9218 8.29616L63.7815 8.21073L63.6412 8.1253L63.4955 8.04461L63.3498 7.96393L63.1987 7.88325L63.0422 7.80256L62.8857 7.72663L62.7292 7.65069L62.5673 7.57475C62.4054 7.49881 62.2381 7.42762 62.0654 7.35643L61.8927 7.28524C61.7794 7.23778 61.6607 7.19506 61.542 7.1476L61.3639 7.08116C61.2452 7.03844 61.121 6.99573 60.9969 6.95301C60.7487 6.87233 60.495 6.79165 60.236 6.71571L39.9127 0.859041L39.7238 0.806835L39.5349 0.754627L39.3461 0.707167L39.1572 0.659706L38.9629 0.612245L38.7686 0.56953L38.5744 0.526815L38.3801 0.484101L38.1858 0.446132L37.9915 0.408163L37.7919 0.370195L37.5922 0.336972L37.3925 0.303749L37.1929 0.270527L36.9932 0.24205L36.7935 0.213574L36.5884 0.189843L36.3834 0.166113L36.1783 0.142382L35.9732 0.123398L35.7682 0.104414L35.5631 0.0854294L35.358 0.0711913L35.153 0.0569532L34.9479 0.0427146L34.7428 0.0332227L34.5378 0.0237303L34.3327 0.0142381L34.1276 0.00949216L33.9226 0.00474597L33.7175 0H33.5124H33.3074L33.1023 0.00474597L32.8972 0.00949216L32.6921 0.0142381L32.4871 0.0237303L32.282 0.0332227L32.0769 0.0427146L31.8719 0.0569532L31.6668 0.0711913L31.4617 0.0854294L31.2567 0.104414L31.0516 0.123398L30.8465 0.142382L30.6415 0.166113L30.4364 0.189843L30.2313 0.213574L30.0317 0.24205L29.832 0.270527L29.6323 0.303749L29.4326 0.336972L29.233 0.370195L29.0333 0.408163L28.8336 0.446132L28.6394 0.484101L28.4451 0.526815L28.2508 0.56953L28.0565 0.612245L27.8623 0.659706L27.6734 0.707167L27.4845 0.754627L27.2956 0.806835L27.1067 0.859041L27.069 0.854295Z" fill="#F39314"/>
<path d="M16.6589 48.6309C16.6589 47.8689 16.8269 47.2869 17.1629 46.8849C17.5049 46.4769 17.9939 46.2729 18.6299 46.2729C18.9659 46.2729 19.2569 46.3299 19.5029 46.4439C19.7549 46.5519 19.9619 46.7109 20.1239 46.9209C20.2859 47.1249 20.4059 47.3739 20.4839 47.6679C20.5619 47.9559 20.6009 48.2769 20.6009 48.6309C20.6009 49.3929 20.4299 49.9779 20.0879 50.3859C19.7519 50.7879 19.2659 50.9889 18.6299 50.9889C18.2939 50.9889 17.9999 50.9349 17.7479 50.8269C17.5019 50.7129 17.2979 50.5539 17.1359 50.3499C16.9739 50.1399 16.8539 49.8909 16.7759 49.6029C16.6979 49.3089 16.6589 48.9849 16.6589 48.6309ZM17.4059 48.6309C17.4059 48.8589 17.4269 49.0779 17.4689 49.2879C17.5169 49.4979 17.5889 49.6809 17.6849 49.8369C17.7809 49.9929 17.9069 50.1189 18.0629 50.2149C18.2189 50.3109 18.4079 50.3589 18.6299 50.3589C19.4459 50.3649 19.8539 49.7889 19.8539 48.6309C19.8539 48.3969 19.8299 48.1749 19.7819 47.9649C19.7399 47.7549 19.6709 47.5719 19.5749 47.4159C19.4789 47.2599 19.3529 47.1369 19.1969 47.0469C19.0409 46.9509 18.8519 46.9029 18.6299 46.9029C17.8139 46.8969 17.4059 47.4729 17.4059 48.6309ZM22.1501 47.1819C22.3481 46.8939 22.5671 46.6929 22.8071 46.5789C23.0471 46.4589 23.3471 46.3989 23.7071 46.3989C24.2591 46.3989 24.6821 46.5789 24.9761 46.9389C25.2761 47.2989 25.4261 47.8299 25.4261 48.5319C25.4261 49.3419 25.2521 49.9539 24.9041 50.3679C24.5621 50.7819 24.0821 50.9889 23.4641 50.9889C22.8041 50.9889 22.3091 50.7609 21.9791 50.3049C21.6491 49.8489 21.4841 49.1319 21.4841 48.1539C21.4841 47.6379 21.5081 47.1969 21.5561 46.8309C21.6101 46.4649 21.6851 46.1559 21.7811 45.9039C21.8831 45.6519 22.0031 45.4509 22.1411 45.3009C22.2851 45.1509 22.4441 45.0339 22.6181 44.9499C22.7981 44.8599 22.9931 44.7969 23.2031 44.7609C23.4131 44.7249 23.6381 44.6949 23.8781 44.6709C24.1901 44.6409 24.4331 44.6079 24.6071 44.5719C24.7871 44.5299 24.9311 44.4579 25.0391 44.3559L25.1201 45.0039C25.0601 45.0579 24.9941 45.1029 24.9221 45.1389C24.8501 45.1749 24.7631 45.2049 24.6611 45.2289C24.5591 45.2529 24.4361 45.2739 24.2921 45.2919C24.1541 45.3099 23.9921 45.3249 23.8061 45.3369C23.5481 45.3549 23.3201 45.3879 23.1221 45.4359C22.9301 45.4779 22.7621 45.5649 22.6181 45.6969C22.4801 45.8229 22.3691 46.0059 22.2851 46.2459C22.2071 46.4799 22.1531 46.7919 22.1231 47.1819H22.1501ZM22.2311 48.6399C22.2311 48.8679 22.2551 49.0869 22.3031 49.2969C22.3511 49.5069 22.4231 49.6929 22.5191 49.8549C22.6211 50.0109 22.7501 50.1339 22.9061 50.2239C23.0621 50.3139 23.2451 50.3589 23.4551 50.3589C23.8691 50.3589 24.1751 50.2119 24.3731 49.9179C24.5771 49.6179 24.6791 49.1769 24.6791 48.5949C24.6791 48.3669 24.6581 48.1569 24.6161 47.9649C24.5741 47.7729 24.5081 47.6079 24.4181 47.4699C24.3281 47.3259 24.2141 47.2179 24.0761 47.1459C23.9381 47.0679 23.7731 47.0289 23.5811 47.0289C23.1131 47.0229 22.7711 47.1609 22.5551 47.4429C22.3391 47.7189 22.2311 48.1179 22.2311 48.6399ZM32.4473 52.0239H31.9613L31.8263 50.8809H26.5613V46.3809H27.2813V50.2509H28.8203V46.3809H29.5403V50.2509H31.0793V46.3809H31.7993V50.2509H32.4473V52.0239ZM36.6226 50.5209C36.4426 50.6649 36.2146 50.7789 35.9386 50.8629C35.6686 50.9469 35.3806 50.9889 35.0746 50.9889C34.7326 50.9889 34.4356 50.9349 34.1836 50.8269C33.9316 50.7129 33.7246 50.5539 33.5626 50.3499C33.4006 50.1399 33.2806 49.8909 33.2026 49.6029C33.1246 49.3149 33.0856 48.9909 33.0856 48.6309C33.0856 47.8629 33.2566 47.2779 33.5986 46.8759C33.9406 46.4739 34.4296 46.2729 35.0656 46.2729C35.2696 46.2729 35.4736 46.2969 35.6776 46.3449C35.8816 46.3869 36.0646 46.4709 36.2266 46.5969C36.3886 46.7229 36.5206 46.9029 36.6226 47.1369C36.7246 47.3649 36.7756 47.6679 36.7756 48.0459C36.7756 48.2439 36.7576 48.4629 36.7216 48.7029H33.8326C33.8326 48.9669 33.8596 49.2009 33.9136 49.4049C33.9676 49.6089 34.0516 49.7829 34.1656 49.9269C34.2796 50.0649 34.4266 50.1729 34.6066 50.2509C34.7926 50.3229 35.0176 50.3589 35.2816 50.3589C35.4856 50.3589 35.6896 50.3229 35.8936 50.2509C36.0976 50.1789 36.2506 50.0949 36.3526 49.9989L36.6226 50.5209ZM35.0746 46.9029C34.7206 46.9029 34.4356 46.9959 34.2196 47.1819C34.0096 47.3679 33.8836 47.6859 33.8416 48.1359H36.0736C36.0736 47.6799 35.9866 47.3619 35.8126 47.1819C35.6386 46.9959 35.3926 46.9029 35.0746 46.9029ZM40.6619 48.8919H38.6279V50.8809H37.9079V46.3809H38.6279V48.2619H40.6619V46.3809H41.3819V50.8809H40.6619V48.8919ZM45.5763 48.2169L45.6033 47.6589H45.5763L45.2073 48.2349L43.1823 50.8809H42.7683V46.3809H43.4883V49.1259L43.4613 49.6569H43.4973L43.8483 49.0989L45.8733 46.3809H46.2963V50.8809H45.5763V48.2169ZM50.9664 50.5209C50.7864 50.6649 50.5584 50.7789 50.2824 50.8629C50.0124 50.9469 49.7244 50.9889 49.4184 50.9889C49.0764 50.9889 48.7794 50.9349 48.5274 50.8269C48.2754 50.7129 48.0684 50.5539 47.9064 50.3499C47.7444 50.1399 47.6244 49.8909 47.5464 49.6029C47.4684 49.3149 47.4294 48.9909 47.4294 48.6309C47.4294 47.8629 47.6004 47.2779 47.9424 46.8759C48.2844 46.4739 48.7734 46.2729 49.4094 46.2729C49.6134 46.2729 49.8174 46.2969 50.0214 46.3449C50.2254 46.3869 50.4084 46.4709 50.5704 46.5969C50.7324 46.7229 50.8644 46.9029 50.9664 47.1369C51.0684 47.3649 51.1194 47.6679 51.1194 48.0459C51.1194 48.2439 51.1014 48.4629 51.0654 48.7029H48.1764C48.1764 48.9669 48.2034 49.2009 48.2574 49.4049C48.3114 49.6089 48.3954 49.7829 48.5094 49.9269C48.6234 50.0649 48.7704 50.1729 48.9504 50.2509C49.1364 50.3229 49.3614 50.3589 49.6254 50.3589C49.8294 50.3589 50.0334 50.3229 50.2374 50.2509C50.4414 50.1789 50.5944 50.0949 50.6964 49.9989L50.9664 50.5209ZM49.4184 46.9029C49.0644 46.9029 48.7794 46.9959 48.5634 47.1819C48.3534 47.3679 48.2274 47.6859 48.1854 48.1359H50.4174C50.4174 47.6799 50.3304 47.3619 50.1564 47.1819C49.9824 46.9959 49.7364 46.9029 49.4184 46.9029Z" fill="white"/>
<path d="M20.9249 19.2927C20.9392 19.2924 20.9535 19.2923 20.9681 19.2923H45.8234C45.8375 19.2923 45.8517 19.2926 45.866 19.2932L33.3957 30.9606L20.9249 19.2927Z" stroke="white" stroke-width="0.69"/>
<path d="M33.2251 34.1578L33.4608 34.3783L33.6965 34.1578L47.3126 21.4183V37.2572C47.3126 37.9801 46.6647 38.5878 45.8666 38.5878H21.0113C20.1808 38.5878 19.5653 37.9498 19.5653 37.2572V21.3774L33.2251 34.1578Z" stroke="white" stroke-width="0.69"/>
</svg>
