<svg width="60" height="60" viewBox="0 0 60 60" fill="none" xmlns="http://www.w3.org/2000/svg">
<path fill-rule="evenodd" clip-rule="evenodd" d="M6.044 5.51586L24.2534 0.70216L24.2872 0.706061L24.4564 0.663152L24.6257 0.620242L24.7949 0.581233L24.9641 0.542224L25.1382 0.503215L25.3123 0.468107L25.4863 0.432999L25.6604 0.397891L25.8345 0.366684L26.0134 0.335477L26.1923 0.30427L26.3712 0.276963L26.5501 0.249657L26.729 0.222351L26.9079 0.198945L27.0868 0.17554L27.2705 0.156036L27.4543 0.136531L27.638 0.117027L27.8217 0.101423L28.0055 0.0858195L28.1892 0.070216L28.373 0.0585134L28.5567 0.0468108L28.7404 0.0351079L28.9242 0.0273063L29.1079 0.0195043L29.2916 0.0117026L29.4754 0.00780177L29.6591 0.00390079L29.8429 0H30.0266H30.2103L30.3941 0.00390079L30.5778 0.00780177L30.7615 0.0117026L30.9453 0.0195043L31.129 0.0273063L31.3128 0.0351079L31.4965 0.0468108L31.6802 0.0585134L31.864 0.070216L32.0477 0.0858195L32.2314 0.101423L32.4152 0.117027L32.5989 0.136531L32.7827 0.156036L32.9664 0.17554L33.1453 0.198945L33.3242 0.222351L33.5031 0.249657L33.682 0.276963L33.8609 0.30427L34.0398 0.335477L34.2139 0.366684L34.3879 0.397891L34.562 0.432999L34.7361 0.468107L34.9101 0.503215L35.0842 0.542224L35.2534 0.581233L35.4227 0.620242L35.5919 0.663152L35.7611 0.706061L53.9705 5.51976C54.2026 5.58218 54.4298 5.64849 54.6523 5.71481C54.7635 5.74991 54.8747 5.78502 54.9811 5.82013L55.1406 5.87474C55.1843 5.89076 55.228 5.90612 55.2713 5.92136C55.3335 5.94324 55.3951 5.96488 55.4549 5.98787L55.6096 6.04638C55.7644 6.10489 55.9143 6.16341 56.0593 6.22582L56.2044 6.28824L56.3446 6.35065L56.4848 6.41306L56.625 6.47938L56.7604 6.54569L56.891 6.61201L57.0215 6.67833L57.1472 6.74854L57.2729 6.81876L57.3938 6.88897L57.5147 6.95919L57.6307 7.03331C57.7081 7.08012 57.7855 7.13083 57.858 7.18154L57.9692 7.25566L58.0756 7.33368L58.182 7.41169L58.2835 7.48971L58.385 7.56773L58.4817 7.64575L58.5736 7.72376L58.6655 7.80568L58.7525 7.8876L58.8396 7.96952L58.9218 8.05144L59.0039 8.13336L59.0813 8.21528L59.1538 8.3011L59.2264 8.38692L59.2941 8.47274L59.3569 8.55855L59.4198 8.64437L59.4778 8.73019L59.5358 8.81991L59.589 8.90964L59.6374 8.99936L59.6857 9.08908L59.7292 9.1788L59.7679 9.26852L59.8066 9.35824L59.8404 9.44796L59.8694 9.54158L59.8985 9.6352L59.9226 9.72882L59.942 9.82244L59.9613 9.91607L59.9758 10.0097L59.9855 10.1033L59.9952 10.1969L60 10.2906V10.3842V10.6849V11.4963V21.5134V38.4866V48.5037V49.3151V49.6158V49.7094L59.9952 49.8031L59.9855 49.8967L59.9758 49.9903L59.9613 50.0839L59.942 50.1776L59.9226 50.2712L59.8985 50.3648L59.8694 50.4584L59.8404 50.552L59.8066 50.6418L59.7679 50.7315L59.7292 50.8212L59.6857 50.9109L59.6374 51.0006L59.589 51.0904L59.5358 51.1801L59.4778 51.2698L59.4198 51.3556L59.3569 51.4414L59.2941 51.5273L59.2264 51.6131L59.1538 51.6989L59.0813 51.7847L59.0039 51.8666L58.9218 51.9486L58.8396 52.0305L58.7525 52.1124L58.6655 52.1943L58.5736 52.2762L58.4817 52.3543L58.385 52.4323L58.2835 52.5103L58.182 52.5883L58.0756 52.6663L57.9692 52.7443L57.858 52.8185C57.7855 52.8692 57.7081 52.9199 57.6307 52.9667L57.5147 53.0408L57.3938 53.111L57.2729 53.1812L57.1472 53.2515L57.0215 53.3217L56.891 53.388L56.7604 53.4543L56.625 53.5206L56.4848 53.5869L56.3446 53.6493L56.2044 53.7118L56.0593 53.7742C55.9143 53.8366 55.7644 53.8951 55.6096 53.9536L55.4549 54.0121C55.3951 54.0351 55.3335 54.0568 55.2713 54.0786C55.228 54.0939 55.1843 54.1092 55.1406 54.1253L54.9811 54.1799C54.8747 54.215 54.7635 54.2501 54.6523 54.2852C54.4298 54.3515 54.2026 54.4178 53.9705 54.4802L35.7611 59.2939L35.5919 59.3368L35.4227 59.3798L35.2534 59.4188L35.0842 59.4578L34.9101 59.4968L34.7361 59.5319L34.562 59.567L34.3879 59.6021L34.2139 59.6333L34.0398 59.6645L33.8609 59.6957L33.682 59.723L33.5031 59.7503L33.3242 59.7776L33.1453 59.8011L32.9664 59.8245L32.7827 59.844L32.5989 59.8635L32.4152 59.883L32.2314 59.8986L32.0477 59.9142L31.864 59.9298L31.6802 59.9415L31.4965 59.9532L31.3128 59.9649L31.129 59.9727L30.9453 59.9805L30.7615 59.9883L30.5778 59.9922L30.3941 59.9961L30.2103 60H30.0266H29.8429L29.6591 59.9961L29.4754 59.9922L29.2916 59.9883L29.1079 59.9805L28.9242 59.9727L28.7404 59.9649L28.5567 59.9532L28.373 59.9415L28.1892 59.9298L28.0055 59.9142L27.8217 59.8986L27.638 59.883L27.4543 59.8635L27.2705 59.844L27.0868 59.8245L26.9079 59.8011L26.729 59.7776L26.5501 59.7503L26.3712 59.723L26.1923 59.6957L26.0134 59.6645L25.8345 59.6333L25.6604 59.6021L25.4863 59.567L25.3123 59.5319L25.1382 59.4968L24.9641 59.4578L24.7949 59.4188L24.6257 59.3798L24.4564 59.3368L24.2872 59.2939L24.2534 59.2978L6.044 54.4841C5.81191 54.4217 5.58466 54.3593 5.36224 54.2891L5.36141 54.2888C5.25047 54.2538 5.13955 54.2188 5.03344 54.1838L4.87388 54.1292C4.76751 54.0941 4.66113 54.055 4.55959 54.016L4.40487 53.9575L4.25498 53.899L4.10509 53.8405L3.96003 53.7781L3.81497 53.7157L3.66992 53.6533L3.5297 53.5908L3.38948 53.5245L3.25409 53.4582L3.1187 53.3919L2.98815 53.3256L2.8576 53.2554L2.73189 53.1851L2.60617 53.1149L2.48529 53.0447L2.36925 52.9706L2.2532 52.8965L2.14199 52.8224L2.03078 52.7482L1.92441 52.6702L1.81804 52.5922L1.7165 52.5142L1.61496 52.4362L1.51825 52.3582L1.42638 52.2801L1.33452 52.1982L1.24748 52.1163L1.16045 52.0344L1.07825 51.9525L1.00089 51.8705L0.923523 51.7847L0.850995 51.6989L0.778467 51.6131L0.710775 51.5273L0.647917 51.4414L0.585059 51.3556L0.527037 51.2698L0.469015 51.1801L0.415827 51.0904L0.367475 51.0006L0.319123 50.9109L0.275606 50.8212L0.236925 50.7315L0.198243 50.6418L0.164397 50.552L0.13055 50.4584L0.101539 50.3648L0.0773631 50.2712L0.0580224 50.1776L0.0386816 50.0839L0.0241761 49.9903L0.0145055 49.8967L0.00483531 49.8031L0 49.7094V49.6158V49.3151V38.4866V21.5134V10.6849V10.3842V10.2906L0.00483531 10.1969L0.0145055 10.1033L0.0241761 10.0097L0.0386816 9.91607L0.0580224 9.82244L0.0773631 9.72882L0.101539 9.6352L0.13055 9.54158L0.164397 9.44796L0.198243 9.35824L0.236925 9.26852L0.275606 9.1788L0.319123 9.08908L0.367475 8.99936L0.415827 8.90964L0.469015 8.81991L0.527037 8.73019L0.585059 8.64437L0.647917 8.55855L0.710775 8.47274L0.778467 8.38692L0.850995 8.3011L0.923523 8.21528L1.00089 8.12946L1.07825 8.04754L1.16045 7.96562L1.24748 7.8837L1.33452 7.80178L1.42638 7.71986L1.51825 7.64185L1.61496 7.56383L1.7165 7.48581L1.81804 7.40779L1.92441 7.32977L2.03078 7.25176L2.14199 7.17764L2.2532 7.10352L2.36925 7.02941L2.48529 6.95529L2.60617 6.88507L2.73189 6.81486L2.8576 6.74464L2.98815 6.67442L3.1187 6.60811L3.25409 6.54179L3.38948 6.47548L3.5297 6.40916L3.66992 6.34675L3.81497 6.28434L3.96003 6.22192L4.10509 6.15951L4.25498 6.10099L4.40487 6.04248L4.55959 5.98397C4.66113 5.94496 4.76751 5.90595 4.87388 5.87084L5.03344 5.81623C5.13982 5.78112 5.25103 5.74601 5.36224 5.7109C5.58466 5.64069 5.81191 5.57827 6.044 5.51586Z" fill="#53588A"/>
<path d="M27.1405 36.327L27.1945 35.472H27.1495L26.8255 36.165L25.7365 37.929H25.4845L24.3505 36.165L24.0535 35.472H24.0175L24.0895 36.318V39H23.4235V34.5H24.1345L25.3945 36.516L25.6555 37.038H25.6735L25.9435 36.498L27.1225 34.5H27.8425V39H27.1405V36.327ZM28.9723 36.75C28.9723 35.988 29.1403 35.406 29.4763 35.004C29.8183 34.596 30.3073 34.392 30.9433 34.392C31.2793 34.392 31.5703 34.449 31.8163 34.563C32.0683 34.671 32.2753 34.83 32.4373 35.04C32.5993 35.244 32.7193 35.493 32.7973 35.787C32.8753 36.075 32.9143 36.396 32.9143 36.75C32.9143 37.512 32.7433 38.097 32.4013 38.505C32.0653 38.907 31.5793 39.108 30.9433 39.108C30.6073 39.108 30.3133 39.054 30.0613 38.946C29.8153 38.832 29.6113 38.673 29.4493 38.469C29.2873 38.259 29.1673 38.01 29.0893 37.722C29.0113 37.428 28.9723 37.104 28.9723 36.75ZM29.7192 36.75C29.7192 36.978 29.7403 37.197 29.7823 37.407C29.8303 37.617 29.9023 37.8 29.9983 37.956C30.0943 38.112 30.2203 38.238 30.3763 38.334C30.5323 38.43 30.7213 38.478 30.9433 38.478C31.7593 38.484 32.1673 37.908 32.1673 36.75C32.1673 36.516 32.1433 36.294 32.0953 36.084C32.0533 35.874 31.9843 35.691 31.8883 35.535C31.7923 35.379 31.6663 35.256 31.5103 35.166C31.3543 35.07 31.1653 35.022 30.9433 35.022C30.1273 35.016 29.7192 35.592 29.7192 36.75ZM36.8574 36.336L36.8844 35.778H36.8574L36.4884 36.354L34.4634 39H34.0494V34.5H34.7694V37.245L34.7424 37.776H34.7784L35.1294 37.218L37.1544 34.5H37.5774V39H36.8574V36.336ZM18.156 48.703C17.976 48.835 17.763 48.934 17.517 49C17.271 49.072 17.013 49.108 16.743 49.108C16.395 49.108 16.101 49.054 15.861 48.946C15.621 48.832 15.423 48.673 15.267 48.469C15.117 48.259 15.006 48.01 14.934 47.722C14.868 47.428 14.835 47.104 14.835 46.75C14.835 45.988 15.003 45.406 15.339 45.004C15.675 44.596 16.158 44.392 16.788 44.392C17.076 44.392 17.319 44.416 17.517 44.464C17.721 44.506 17.904 44.569 18.066 44.653L17.859 45.274C17.721 45.196 17.568 45.136 17.4 45.094C17.232 45.046 17.052 45.022 16.86 45.022C16.008 45.022 15.582 45.598 15.582 46.75C15.582 46.978 15.603 47.197 15.645 47.407C15.693 47.611 15.768 47.794 15.87 47.956C15.978 48.112 16.116 48.238 16.284 48.334C16.458 48.43 16.671 48.478 16.923 48.478C17.139 48.478 17.331 48.445 17.499 48.379C17.673 48.313 17.814 48.238 17.922 48.154L18.156 48.703ZM18.6847 46.75C18.6847 45.988 18.8527 45.406 19.1887 45.004C19.5307 44.596 20.0197 44.392 20.6557 44.392C20.9917 44.392 21.2827 44.449 21.5287 44.563C21.7807 44.671 21.9877 44.83 22.1497 45.04C22.3117 45.244 22.4317 45.493 22.5097 45.787C22.5877 46.075 22.6267 46.396 22.6267 46.75C22.6267 47.512 22.4557 48.097 22.1137 48.505C21.7777 48.907 21.2917 49.108 20.6557 49.108C20.3197 49.108 20.0257 49.054 19.7737 48.946C19.5277 48.832 19.3237 48.673 19.1617 48.469C18.9997 48.259 18.8797 48.01 18.8017 47.722C18.7237 47.428 18.6847 47.104 18.6847 46.75ZM19.4317 46.75C19.4317 46.978 19.4527 47.197 19.4947 47.407C19.5427 47.617 19.6147 47.8 19.7107 47.956C19.8067 48.112 19.9327 48.238 20.0887 48.334C20.2447 48.43 20.4337 48.478 20.6557 48.478C21.4717 48.484 21.8797 47.908 21.8797 46.75C21.8797 46.516 21.8557 46.294 21.8077 46.084C21.7657 45.874 21.6967 45.691 21.6007 45.535C21.5047 45.379 21.3787 45.256 21.2227 45.166C21.0667 45.07 20.8777 45.022 20.6557 45.022C19.8397 45.016 19.4317 45.592 19.4317 46.75ZM24.1758 45.301C24.3738 45.013 24.5928 44.812 24.8328 44.698C25.0728 44.578 25.3728 44.518 25.7328 44.518C26.2848 44.518 26.7078 44.698 27.0018 45.058C27.3018 45.418 27.4518 45.949 27.4518 46.651C27.4518 47.461 27.2778 48.073 26.9298 48.487C26.5878 48.901 26.1078 49.108 25.4898 49.108C24.8298 49.108 24.3348 48.88 24.0048 48.424C23.6748 47.968 23.5098 47.251 23.5098 46.273C23.5098 45.757 23.5338 45.316 23.5818 44.95C23.6358 44.584 23.7108 44.275 23.8068 44.023C23.9088 43.771 24.0288 43.57 24.1668 43.42C24.3108 43.27 24.4698 43.153 24.6438 43.069C24.8238 42.979 25.0188 42.916 25.2288 42.88C25.4388 42.844 25.6638 42.814 25.9038 42.79C26.2158 42.76 26.4588 42.727 26.6328 42.691C26.8128 42.649 26.9568 42.577 27.0648 42.475L27.1458 43.123C27.0858 43.177 27.0198 43.222 26.9478 43.258C26.8758 43.294 26.7888 43.324 26.6868 43.348C26.5848 43.372 26.4618 43.393 26.3178 43.411C26.1798 43.429 26.0178 43.444 25.8318 43.456C25.5738 43.474 25.3458 43.507 25.1478 43.555C24.9558 43.597 24.7878 43.684 24.6438 43.816C24.5058 43.942 24.3948 44.125 24.3108 44.365C24.2328 44.599 24.1788 44.911 24.1488 45.301H24.1758ZM24.2568 46.759C24.2568 46.987 24.2808 47.206 24.3288 47.416C24.3768 47.626 24.4488 47.812 24.5448 47.974C24.6468 48.13 24.7758 48.253 24.9318 48.343C25.0878 48.433 25.2708 48.478 25.4808 48.478C25.8948 48.478 26.2008 48.331 26.3988 48.037C26.6028 47.737 26.7048 47.296 26.7048 46.714C26.7048 46.486 26.6838 46.276 26.6418 46.084C26.5998 45.892 26.5338 45.727 26.4438 45.589C26.3538 45.445 26.2398 45.337 26.1018 45.265C25.9638 45.187 25.7988 45.148 25.6068 45.148C25.1388 45.142 24.7968 45.28 24.5808 45.562C24.3648 45.838 24.2568 46.237 24.2568 46.759ZM29.307 48.37C29.529 48.406 29.742 48.424 29.946 48.424C30.324 48.424 30.588 48.352 30.738 48.208C30.888 48.058 30.963 47.848 30.963 47.578C30.963 47.338 30.888 47.14 30.738 46.984C30.594 46.828 30.339 46.75 29.973 46.75C29.871 46.75 29.76 46.753 29.64 46.759C29.52 46.765 29.409 46.783 29.307 46.813V48.37ZM29.307 46.219C29.451 46.195 29.589 46.18 29.721 46.174C29.853 46.162 29.979 46.156 30.099 46.156C30.405 46.156 30.66 46.192 30.864 46.264C31.074 46.33 31.242 46.423 31.368 46.543C31.494 46.663 31.581 46.807 31.629 46.975C31.683 47.137 31.71 47.311 31.71 47.497C31.71 48.043 31.557 48.439 31.251 48.685C30.951 48.931 30.462 49.054 29.784 49.054C29.4 49.054 29.001 49.036 28.587 49V44.5H29.307V46.219ZM32.421 44.5H33.141V49H32.421V44.5ZM37.3994 45.13H35.9864V49H35.2664V45.13H33.8534V44.5H37.3994V45.13ZM40.9224 46.336L40.9494 45.778H40.9224L40.5534 46.354L38.5284 49H38.1144V44.5H38.8344V47.245L38.8074 47.776H38.8434L39.1944 47.218L41.2194 44.5H41.6424V49H40.9224V46.336ZM45.2685 47.137L44.5755 47.245L43.3875 49H42.5145L43.5945 47.461L43.9545 47.128C43.6425 47.08 43.3755 46.954 43.1535 46.75C42.9375 46.546 42.8295 46.27 42.8295 45.922C42.8295 45.652 42.8745 45.421 42.9645 45.229C43.0605 45.037 43.1955 44.878 43.3695 44.752C43.5435 44.626 43.7505 44.536 43.9905 44.482C44.2305 44.422 44.5005 44.392 44.8005 44.392C45.0225 44.392 45.2295 44.407 45.4215 44.437C45.6135 44.467 45.8025 44.5 45.9885 44.536V49H45.2685V47.137ZM45.2685 45.112C45.1905 45.082 45.1035 45.061 45.0075 45.049C44.9115 45.031 44.8275 45.022 44.7555 45.022C44.3715 45.022 44.0775 45.091 43.8735 45.229C43.6755 45.367 43.5765 45.586 43.5765 45.886C43.5765 46.156 43.6815 46.366 43.8915 46.516C44.1075 46.66 44.3895 46.732 44.7375 46.732C44.7435 46.732 44.7525 46.732 44.7645 46.732C44.7765 46.732 44.8005 46.732 44.8365 46.732C44.8725 46.732 44.9235 46.732 44.9895 46.732C45.0555 46.726 45.1485 46.72 45.2685 46.714V45.112Z" fill="white"/>
<path d="M26.7215 15.8359C26.9804 15.8359 27.1914 15.6262 27.1914 15.3666V14.71C27.1914 14.4504 26.9804 14.2407 26.7215 14.2407C26.4626 14.2407 26.2516 14.4504 26.2516 14.71V15.3666C26.2516 15.6252 26.4626 15.8359 26.7215 15.8359Z" fill="white"/>
<path d="M33.9078 15.8359C34.1667 15.8359 34.3777 15.6262 34.3777 15.3666V14.71C34.3777 14.4504 34.1667 14.2407 33.9078 14.2407C33.6489 14.2407 33.4379 14.4504 33.4379 14.71V15.3666C33.4379 15.6252 33.6489 15.8359 33.9078 15.8359Z" fill="white"/>
<path d="M35.9737 15.0388H35.1756V15.8359C35.1756 16.2767 34.8188 16.633 34.3774 16.633H33.5793C33.138 16.633 32.7812 16.2757 32.7812 15.8359V15.0388H27.9905V15.8359C27.9905 16.2767 27.6338 16.633 27.1924 16.633H26.3943C25.953 16.633 25.5962 16.2757 25.5962 15.8359V15.0388H24.7981C24.3568 15.0388 24 15.3961 24 15.8359V26.203C24 26.6438 24.3568 27 24.7981 27H35.9767C36.4181 27 36.7748 26.6427 36.7748 26.203V15.8359C36.7748 15.3961 36.4181 15.0388 35.9767 15.0388H35.9737Z" fill="white"/>
<path d="M31.1761 11.4036C28.9031 13.4426 28.1549 15.899 28.1549 15.899L28.9214 16.1413C28.9214 16.1413 29.8979 12.7769 31.1761 11.4036ZM28.7593 13.5302L29.1018 13.0059C29.8174 11.538 32.0486 10.4752 32.0486 10.4752C31.4962 11.2509 30.274 13.9251 30.274 13.9251L30.0539 14.4799C31.911 14.4219 33.2228 13.519 33.4512 12.2221C33.6357 11.1746 32.9864 10.4029 33.9506 9.02562C33.9496 9.0246 26.7085 8.38735 28.7583 13.5312L28.7593 13.5302Z" fill="white"/>
</svg>
