<svg width="60" height="60" viewBox="0 0 60 60" fill="none" xmlns="http://www.w3.org/2000/svg">
<path fill-rule="evenodd" clip-rule="evenodd" d="M6.044 5.51586L24.2534 0.70216L24.2872 0.706061L24.4564 0.663152L24.6257 0.620242L24.7949 0.581233L24.9641 0.542224L25.1382 0.503215L25.3123 0.468107L25.4863 0.432999L25.6604 0.397891L25.8345 0.366684L26.0134 0.335477L26.1923 0.30427L26.3712 0.276963L26.5501 0.249657L26.729 0.222351L26.9079 0.198945L27.0868 0.17554L27.2705 0.156036L27.4543 0.136531L27.638 0.117027L27.8217 0.101423L28.0055 0.0858195L28.1892 0.070216L28.373 0.0585134L28.5567 0.0468108L28.7404 0.0351079L28.9242 0.0273063L29.1079 0.0195043L29.2916 0.0117026L29.4754 0.00780177L29.6591 0.00390079L29.8429 0H30.0266H30.2103L30.3941 0.00390079L30.5778 0.00780177L30.7615 0.0117026L30.9453 0.0195043L31.129 0.0273063L31.3128 0.0351079L31.4965 0.0468108L31.6802 0.0585134L31.864 0.070216L32.0477 0.0858195L32.2314 0.101423L32.4152 0.117027L32.5989 0.136531L32.7827 0.156036L32.9664 0.17554L33.1453 0.198945L33.3242 0.222351L33.5031 0.249657L33.682 0.276963L33.8609 0.30427L34.0398 0.335477L34.2139 0.366684L34.3879 0.397891L34.562 0.432999L34.7361 0.468107L34.9101 0.503215L35.0842 0.542224L35.2534 0.581233L35.4227 0.620242L35.5919 0.663152L35.7611 0.706061L53.9705 5.51976C54.2026 5.58218 54.4298 5.64849 54.6523 5.71481C54.7635 5.74991 54.8747 5.78502 54.9811 5.82013L55.1406 5.87474C55.1843 5.89076 55.228 5.90612 55.2713 5.92136C55.3335 5.94324 55.3951 5.96488 55.4549 5.98787L55.6096 6.04638C55.7644 6.10489 55.9143 6.16341 56.0593 6.22582L56.2044 6.28824L56.3446 6.35065L56.4848 6.41306L56.625 6.47938L56.7604 6.54569L56.891 6.61201L57.0215 6.67833L57.1472 6.74854L57.2729 6.81876L57.3938 6.88897L57.5147 6.95919L57.6307 7.03331C57.7081 7.08012 57.7855 7.13083 57.858 7.18154L57.9692 7.25566L58.0756 7.33368L58.182 7.41169L58.2835 7.48971L58.385 7.56773L58.4817 7.64575L58.5736 7.72376L58.6655 7.80568L58.7525 7.8876L58.8396 7.96952L58.9218 8.05144L59.0039 8.13336L59.0813 8.21528L59.1538 8.3011L59.2264 8.38692L59.2941 8.47274L59.3569 8.55855L59.4198 8.64437L59.4778 8.73019L59.5358 8.81991L59.589 8.90964L59.6374 8.99936L59.6857 9.08908L59.7292 9.1788L59.7679 9.26852L59.8066 9.35824L59.8404 9.44796L59.8694 9.54158L59.8985 9.6352L59.9226 9.72882L59.942 9.82244L59.9613 9.91607L59.9758 10.0097L59.9855 10.1033L59.9952 10.1969L60 10.2906V10.3842V10.6849V11.4963V21.5134V38.4866V48.5037V49.3151V49.6158V49.7094L59.9952 49.8031L59.9855 49.8967L59.9758 49.9903L59.9613 50.0839L59.942 50.1776L59.9226 50.2712L59.8985 50.3648L59.8694 50.4584L59.8404 50.552L59.8066 50.6418L59.7679 50.7315L59.7292 50.8212L59.6857 50.9109L59.6374 51.0006L59.589 51.0904L59.5358 51.1801L59.4778 51.2698L59.4198 51.3556L59.3569 51.4414L59.2941 51.5273L59.2264 51.6131L59.1538 51.6989L59.0813 51.7847L59.0039 51.8666L58.9218 51.9486L58.8396 52.0305L58.7525 52.1124L58.6655 52.1943L58.5736 52.2762L58.4817 52.3543L58.385 52.4323L58.2835 52.5103L58.182 52.5883L58.0756 52.6663L57.9692 52.7443L57.858 52.8185C57.7855 52.8692 57.7081 52.9199 57.6307 52.9667L57.5147 53.0408L57.3938 53.111L57.2729 53.1812L57.1472 53.2515L57.0215 53.3217L56.891 53.388L56.7604 53.4543L56.625 53.5206L56.4848 53.5869L56.3446 53.6493L56.2044 53.7118L56.0593 53.7742C55.9143 53.8366 55.7644 53.8951 55.6096 53.9536L55.4549 54.0121C55.3951 54.0351 55.3335 54.0568 55.2713 54.0786C55.228 54.0939 55.1843 54.1092 55.1406 54.1253L54.9811 54.1799C54.8747 54.215 54.7635 54.2501 54.6523 54.2852C54.4298 54.3515 54.2026 54.4178 53.9705 54.4802L35.7611 59.2939L35.5919 59.3368L35.4227 59.3798L35.2534 59.4188L35.0842 59.4578L34.9101 59.4968L34.7361 59.5319L34.562 59.567L34.3879 59.6021L34.2139 59.6333L34.0398 59.6645L33.8609 59.6957L33.682 59.723L33.5031 59.7503L33.3242 59.7776L33.1453 59.8011L32.9664 59.8245L32.7827 59.844L32.5989 59.8635L32.4152 59.883L32.2314 59.8986L32.0477 59.9142L31.864 59.9298L31.6802 59.9415L31.4965 59.9532L31.3128 59.9649L31.129 59.9727L30.9453 59.9805L30.7615 59.9883L30.5778 59.9922L30.3941 59.9961L30.2103 60H30.0266H29.8429L29.6591 59.9961L29.4754 59.9922L29.2916 59.9883L29.1079 59.9805L28.9242 59.9727L28.7404 59.9649L28.5567 59.9532L28.373 59.9415L28.1892 59.9298L28.0055 59.9142L27.8217 59.8986L27.638 59.883L27.4543 59.8635L27.2705 59.844L27.0868 59.8245L26.9079 59.8011L26.729 59.7776L26.5501 59.7503L26.3712 59.723L26.1923 59.6957L26.0134 59.6645L25.8345 59.6333L25.6604 59.6021L25.4863 59.567L25.3123 59.5319L25.1382 59.4968L24.9641 59.4578L24.7949 59.4188L24.6257 59.3798L24.4564 59.3368L24.2872 59.2939L24.2534 59.2978L6.044 54.4841C5.81191 54.4217 5.58466 54.3593 5.36224 54.2891L5.36141 54.2888C5.25047 54.2538 5.13955 54.2188 5.03344 54.1838L4.87388 54.1292C4.76751 54.0941 4.66113 54.055 4.55959 54.016L4.40487 53.9575L4.25498 53.899L4.10509 53.8405L3.96003 53.7781L3.81497 53.7157L3.66992 53.6533L3.5297 53.5908L3.38948 53.5245L3.25409 53.4582L3.1187 53.3919L2.98815 53.3256L2.8576 53.2554L2.73189 53.1851L2.60617 53.1149L2.48529 53.0447L2.36925 52.9706L2.2532 52.8965L2.14199 52.8224L2.03078 52.7482L1.92441 52.6702L1.81804 52.5922L1.7165 52.5142L1.61496 52.4362L1.51825 52.3582L1.42638 52.2801L1.33452 52.1982L1.24748 52.1163L1.16045 52.0344L1.07825 51.9525L1.00089 51.8705L0.923523 51.7847L0.850995 51.6989L0.778467 51.6131L0.710775 51.5273L0.647917 51.4414L0.585059 51.3556L0.527037 51.2698L0.469015 51.1801L0.415827 51.0904L0.367475 51.0006L0.319123 50.9109L0.275606 50.8212L0.236925 50.7315L0.198243 50.6418L0.164397 50.552L0.13055 50.4584L0.101539 50.3648L0.0773631 50.2712L0.0580224 50.1776L0.0386816 50.0839L0.0241761 49.9903L0.0145055 49.8967L0.00483531 49.8031L0 49.7094V49.6158V49.3151V38.4866V21.5134V10.6849V10.3842V10.2906L0.00483531 10.1969L0.0145055 10.1033L0.0241761 10.0097L0.0386816 9.91607L0.0580224 9.82244L0.0773631 9.72882L0.101539 9.6352L0.13055 9.54158L0.164397 9.44796L0.198243 9.35824L0.236925 9.26852L0.275606 9.1788L0.319123 9.08908L0.367475 8.99936L0.415827 8.90964L0.469015 8.81991L0.527037 8.73019L0.585059 8.64437L0.647917 8.55855L0.710775 8.47274L0.778467 8.38692L0.850995 8.3011L0.923523 8.21528L1.00089 8.12946L1.07825 8.04754L1.16045 7.96562L1.24748 7.8837L1.33452 7.80178L1.42638 7.71986L1.51825 7.64185L1.61496 7.56383L1.7165 7.48581L1.81804 7.40779L1.92441 7.32977L2.03078 7.25176L2.14199 7.17764L2.2532 7.10352L2.36925 7.02941L2.48529 6.95529L2.60617 6.88507L2.73189 6.81486L2.8576 6.74464L2.98815 6.67442L3.1187 6.60811L3.25409 6.54179L3.38948 6.47548L3.5297 6.40916L3.66992 6.34675L3.81497 6.28434L3.96003 6.22192L4.10509 6.15951L4.25498 6.10099L4.40487 6.04248L4.55959 5.98397C4.66113 5.94496 4.76751 5.90595 4.87388 5.87084L5.03344 5.81623C5.13982 5.78112 5.25103 5.74601 5.36224 5.7109C5.58466 5.64069 5.81191 5.57827 6.044 5.51586Z" fill="#53588A"/>
<path d="M26.6405 36.327L26.6945 35.472H26.6495L26.3255 36.165L25.2365 37.929H24.9845L23.8505 36.165L23.5535 35.472H23.5175L23.5895 36.318V39H22.9235V34.5H23.6345L24.8945 36.516L25.1555 37.038H25.1735L25.4435 36.498L26.6225 34.5H27.3425V39H26.6405V36.327ZM28.4723 36.75C28.4723 35.988 28.6403 35.406 28.9763 35.004C29.3183 34.596 29.8073 34.392 30.4433 34.392C30.7793 34.392 31.0703 34.449 31.3163 34.563C31.5683 34.671 31.7753 34.83 31.9373 35.04C32.0993 35.244 32.2193 35.493 32.2973 35.787C32.3753 36.075 32.4143 36.396 32.4143 36.75C32.4143 37.512 32.2433 38.097 31.9013 38.505C31.5653 38.907 31.0793 39.108 30.4433 39.108C30.1073 39.108 29.8133 39.054 29.5613 38.946C29.3153 38.832 29.1113 38.673 28.9493 38.469C28.7873 38.259 28.6673 38.01 28.5893 37.722C28.5113 37.428 28.4723 37.104 28.4723 36.75ZM29.2192 36.75C29.2192 36.978 29.2403 37.197 29.2823 37.407C29.3303 37.617 29.4023 37.8 29.4983 37.956C29.5943 38.112 29.7203 38.238 29.8763 38.334C30.0323 38.43 30.2213 38.478 30.4433 38.478C31.2593 38.484 31.6673 37.908 31.6673 36.75C31.6673 36.516 31.6433 36.294 31.5953 36.084C31.5533 35.874 31.4843 35.691 31.3883 35.535C31.2923 35.379 31.1663 35.256 31.0103 35.166C30.8543 35.07 30.6653 35.022 30.4433 35.022C29.6273 35.016 29.2192 35.592 29.2192 36.75ZM36.3574 36.336L36.3844 35.778H36.3574L35.9884 36.354L33.9634 39H33.5494V34.5H34.2694V37.245L34.2424 37.776H34.2784L34.6294 37.218L36.6544 34.5H37.0774V39H36.3574V36.336ZM13.0358 44.5H13.5308L13.6658 45.04H13.7018C13.8398 44.83 14.0168 44.671 14.2328 44.563C14.4548 44.449 14.7068 44.392 14.9888 44.392C15.5888 44.392 16.0358 44.569 16.3298 44.923C16.6238 45.277 16.7708 45.856 16.7708 46.66C16.7708 47.038 16.7198 47.38 16.6178 47.686C16.5218 47.986 16.3838 48.241 16.2038 48.451C16.0238 48.661 15.8048 48.823 15.5468 48.937C15.2948 49.051 15.0128 49.108 14.7008 49.108C14.4788 49.108 14.3018 49.093 14.1698 49.063C14.0438 49.039 13.9058 48.994 13.7558 48.928V50.8H13.0358V44.5ZM14.8538 45.022C14.5478 45.022 14.3048 45.103 14.1248 45.265C13.9508 45.421 13.8278 45.661 13.7558 45.985V48.217C13.8638 48.301 13.9868 48.367 14.1248 48.415C14.2628 48.457 14.4458 48.478 14.6738 48.478C15.0878 48.478 15.4148 48.325 15.6548 48.019C15.9008 47.707 16.0238 47.251 16.0238 46.651C16.0238 46.405 16.0028 46.183 15.9608 45.985C15.9188 45.781 15.8498 45.61 15.7538 45.472C15.6638 45.328 15.5438 45.217 15.3938 45.139C15.2498 45.061 15.0698 45.022 14.8538 45.022ZM17.8329 44.833C18.0609 44.695 18.3249 44.593 18.6249 44.527C18.9309 44.461 19.2489 44.428 19.5789 44.428C19.8909 44.428 20.1399 44.47 20.3259 44.554C20.5179 44.638 20.6619 44.749 20.7579 44.887C20.8599 45.019 20.9259 45.166 20.9559 45.328C20.9919 45.49 21.0099 45.652 21.0099 45.814C21.0099 46.174 21.0009 46.525 20.9829 46.867C20.9649 47.209 20.9559 47.533 20.9559 47.839C20.9559 48.061 20.9649 48.271 20.9829 48.469C21.0009 48.667 21.0339 48.85 21.0819 49.018H20.5509L20.3619 48.388H20.3169C20.2629 48.472 20.1939 48.556 20.1099 48.64C20.0319 48.718 19.9359 48.79 19.8219 48.856C19.7079 48.916 19.5759 48.967 19.4259 49.009C19.2759 49.051 19.1049 49.072 18.9129 49.072C18.7209 49.072 18.5409 49.042 18.3729 48.982C18.2109 48.922 18.0699 48.838 17.9499 48.73C17.8299 48.616 17.7339 48.481 17.6619 48.325C17.5959 48.169 17.5629 47.992 17.5629 47.794C17.5629 47.53 17.6169 47.311 17.7249 47.137C17.8329 46.957 17.9829 46.816 18.1749 46.714C18.3729 46.606 18.6069 46.531 18.8769 46.489C19.1529 46.441 19.4559 46.417 19.7859 46.417C19.8699 46.417 19.9509 46.417 20.0289 46.417C20.1129 46.417 20.1969 46.423 20.2809 46.435C20.2989 46.255 20.3079 46.093 20.3079 45.949C20.3079 45.619 20.2419 45.388 20.1099 45.256C19.9779 45.124 19.7379 45.058 19.3899 45.058C19.2879 45.058 19.1769 45.067 19.0569 45.085C18.9429 45.097 18.8229 45.118 18.6969 45.148C18.5769 45.172 18.4599 45.205 18.3459 45.247C18.2379 45.283 18.1419 45.325 18.0579 45.373L17.8329 44.833ZM19.1109 48.442C19.2789 48.442 19.4289 48.421 19.5609 48.379C19.6929 48.331 19.8069 48.274 19.9029 48.208C19.9989 48.136 20.0769 48.058 20.1369 47.974C20.2029 47.89 20.2509 47.809 20.2809 47.731V46.984C20.1969 46.978 20.1099 46.975 20.0199 46.975C19.9359 46.969 19.8519 46.966 19.7679 46.966C19.5819 46.966 19.3989 46.978 19.2189 47.002C19.0449 47.02 18.8889 47.059 18.7509 47.119C18.6189 47.173 18.5109 47.251 18.4269 47.353C18.3489 47.449 18.3099 47.572 18.3099 47.722C18.3099 47.932 18.3849 48.106 18.5349 48.244C18.6849 48.376 18.8769 48.442 19.1109 48.442ZM25.4388 48.703C25.2588 48.835 25.0458 48.934 24.7998 49C24.5538 49.072 24.2958 49.108 24.0258 49.108C23.6778 49.108 23.3838 49.054 23.1438 48.946C22.9038 48.832 22.7058 48.673 22.5498 48.469C22.3998 48.259 22.2888 48.01 22.2168 47.722C22.1508 47.428 22.1178 47.104 22.1178 46.75C22.1178 45.988 22.2858 45.406 22.6218 45.004C22.9578 44.596 23.4408 44.392 24.0708 44.392C24.3588 44.392 24.6018 44.416 24.7998 44.464C25.0038 44.506 25.1868 44.569 25.3488 44.653L25.1418 45.274C25.0038 45.196 24.8508 45.136 24.6828 45.094C24.5148 45.046 24.3348 45.022 24.1428 45.022C23.2908 45.022 22.8648 45.598 22.8648 46.75C22.8648 46.978 22.8858 47.197 22.9278 47.407C22.9758 47.611 23.0508 47.794 23.1528 47.956C23.2608 48.112 23.3988 48.238 23.5668 48.334C23.7408 48.43 23.9538 48.478 24.2058 48.478C24.4218 48.478 24.6138 48.445 24.7818 48.379C24.9558 48.313 25.0968 48.238 25.2048 48.154L25.4388 48.703ZM29.1607 45.13H27.7477V49H27.0277V45.13H25.6147V44.5H29.1607V45.13ZM33.02 48.64C32.84 48.784 32.612 48.898 32.336 48.982C32.066 49.066 31.778 49.108 31.472 49.108C31.13 49.108 30.833 49.054 30.581 48.946C30.329 48.832 30.122 48.673 29.96 48.469C29.798 48.259 29.678 48.01 29.6 47.722C29.522 47.434 29.483 47.11 29.483 46.75C29.483 45.982 29.654 45.397 29.996 44.995C30.338 44.593 30.827 44.392 31.463 44.392C31.667 44.392 31.871 44.416 32.075 44.464C32.279 44.506 32.462 44.59 32.624 44.716C32.786 44.842 32.918 45.022 33.02 45.256C33.122 45.484 33.173 45.787 33.173 46.165C33.173 46.363 33.155 46.582 33.119 46.822H30.23C30.23 47.086 30.257 47.32 30.311 47.524C30.365 47.728 30.449 47.902 30.563 48.046C30.677 48.184 30.824 48.292 31.004 48.37C31.19 48.442 31.415 48.478 31.679 48.478C31.883 48.478 32.087 48.442 32.291 48.37C32.495 48.298 32.648 48.214 32.75 48.118L33.02 48.64ZM31.472 45.022C31.118 45.022 30.833 45.115 30.617 45.301C30.407 45.487 30.281 45.805 30.239 46.255H32.471C32.471 45.799 32.384 45.481 32.21 45.301C32.036 45.115 31.79 45.022 31.472 45.022ZM37.0593 47.011H35.0253V49H34.3053V44.5H35.0253V46.381H37.0593V44.5H37.7793V49H37.0593V47.011ZM41.9737 46.336L42.0007 45.778H41.9737L41.6047 46.354L39.5797 49H39.1657V44.5H39.8857V47.245L39.8587 47.776H39.8947L40.2457 47.218L42.2707 44.5H42.6937V49H41.9737V46.336ZM46.3197 47.137L45.6267 47.245L44.4387 49H43.5657L44.6457 47.461L45.0057 47.128C44.6937 47.08 44.4267 46.954 44.2047 46.75C43.9887 46.546 43.8807 46.27 43.8807 45.922C43.8807 45.652 43.9257 45.421 44.0157 45.229C44.1117 45.037 44.2467 44.878 44.4207 44.752C44.5947 44.626 44.8017 44.536 45.0417 44.482C45.2817 44.422 45.5517 44.392 45.8517 44.392C46.0737 44.392 46.2807 44.407 46.4727 44.437C46.6647 44.467 46.8537 44.5 47.0397 44.536V49H46.3197V47.137ZM46.3197 45.112C46.2417 45.082 46.1547 45.061 46.0587 45.049C45.9627 45.031 45.8787 45.022 45.8067 45.022C45.4227 45.022 45.1287 45.091 44.9247 45.229C44.7267 45.367 44.6277 45.586 44.6277 45.886C44.6277 46.156 44.7327 46.366 44.9427 46.516C45.1587 46.66 45.4407 46.732 45.7887 46.732C45.7947 46.732 45.8037 46.732 45.8157 46.732C45.8277 46.732 45.8517 46.732 45.8877 46.732C45.9237 46.732 45.9747 46.732 46.0407 46.732C46.1067 46.726 46.1997 46.72 46.3197 46.714V45.112Z" fill="white"/>
<path d="M33.9045 18.0193C33.9045 17.475 33.3213 17.4361 33.3213 17.4361C32.466 17.4361 32.1939 17.7471 31.0664 18.2914V16.3087C31.0664 15.9977 30.7943 15.7644 30.5221 15.7644C30.2111 15.7644 29.9779 16.0365 29.9779 16.3087V17.7471C28.8504 17.2029 28.5783 16.8918 27.723 16.8918C27.723 16.8918 27.1787 16.9307 27.1787 17.475C27.1787 18.0193 27.723 18.0193 27.723 18.0193C28.9671 18.0193 29.9779 19.0301 29.9779 20.2742V20.5463C29.9779 20.6629 29.9779 20.2742 29.9779 21.4016V26.4556C29.9779 26.7666 30.25 26.9999 30.5221 26.9999C30.8332 26.9999 31.0664 26.7666 31.0664 26.4556V20.6241C31.0664 19.4966 32.155 18.5636 33.3213 18.5636C33.3213 18.5636 33.9045 18.5636 33.9045 18.0193Z" fill="white"/>
<path d="M34.4515 13.432C34.4126 13.432 34.3738 13.432 34.3349 13.432C34.4515 13.0821 34.5293 12.7322 34.5293 12.3823C34.5293 10.5162 33.0131 9 31.1469 9C29.2808 9 27.7646 10.5162 27.7646 12.3823C27.7646 12.4989 27.8035 12.5767 27.8035 12.6933C27.2592 12.4989 26.6761 12.3823 26.054 12.3823C23.2549 12.3823 21 14.6372 21 17.4363C21 20.2355 23.2549 22.4904 26.054 22.4904C27.1037 22.4904 28.0756 22.1405 28.8532 21.5962V19.6135L26.9482 18.9137C26.0929 18.5249 26.0152 17.7085 26.2873 16.8143C26.5594 15.8813 27.8035 15.337 28.6588 15.7258L28.9698 15.8813C29.1642 15.1426 29.8251 14.5983 30.6027 14.5983C31.5357 14.5983 32.2744 15.337 32.2744 16.27V16.7366L33.0908 16.3478C34.1016 16.0368 34.5293 16.3089 34.918 17.1642C35.3457 17.9806 35.0735 18.8359 34.2182 19.2636L32.5465 20.0022C32.4299 20.0411 32.3521 20.08 32.2355 20.08V21.9072C32.8964 22.296 33.6351 22.4904 34.4515 22.4904C36.9785 22.4904 39.0001 20.4688 39.0001 17.9418C39.0001 15.4147 36.9785 13.3931 34.4515 13.3931V13.432Z" fill="white"/>
</svg>
