<svg width="68" height="60" viewBox="0 0 68 60" fill="none" xmlns="http://www.w3.org/2000/svg">
<path d="M27.901 0.854295L7.52123 6.71096C7.26148 6.7869 7.00714 6.86284 6.75821 6.94827C6.63374 6.99098 6.50928 7.0337 6.39022 7.07641L6.21164 7.14286C6.09259 7.18557 5.97354 7.23303 5.85989 7.28049L5.68673 7.35168L5.51897 7.42288L5.35121 7.49407L5.18887 7.57L5.02652 7.64594L4.86418 7.72188L4.70724 7.79782L4.55031 7.8785L4.39879 7.95918L4.24726 8.03987L4.10115 8.12055L3.95504 8.20598L3.81434 8.29141L3.67364 8.37684L3.53835 8.46227L3.40848 8.55244L3.2786 8.64262L3.15414 8.7328L3.02967 8.82297L2.91062 8.91789L2.79157 9.01281L2.67792 9.10774L2.56428 9.20266L2.45605 9.29758L2.35323 9.3925L2.25041 9.49217L2.15301 9.59184L2.0556 9.6915L1.9636 9.79117L1.87702 9.89084L1.79044 9.99525L1.70926 10.0997L1.62809 10.2041L1.55233 10.3085L1.48198 10.4129L1.41163 10.5173L1.34669 10.6217L1.28175 10.7309L1.22223 10.8401L1.16811 10.9492L1.114 11.0584L1.06529 11.1675L1.022 11.2767L0.978708 11.3859L0.940828 11.495L0.902947 11.6089L0.870478 11.7228L0.84342 11.8367L0.821774 11.9506L0.800128 12.0645L0.783894 12.1785L0.77307 12.2924L0.762248 12.4063L0.756836 12.5202V12.6341V26.1747V60H67.9083V59.0128V26.1747V12.6341V12.5202L67.9029 12.4063L67.8921 12.2924L67.8813 12.1785L67.865 12.0645L67.8434 11.9506L67.8217 11.8367L67.7947 11.7228L67.7622 11.6089L67.7297 11.495L67.6919 11.3859L67.6486 11.2767L67.6053 11.1675L67.5566 11.0584L67.5025 10.9492L67.4483 10.8401L67.3888 10.7309L67.3239 10.6217L67.2589 10.5173L67.1886 10.4129L67.1182 10.3085L67.0425 10.2041L66.9613 10.0997L66.8801 9.99525L66.7936 9.89559L66.7016 9.79592L66.6096 9.69625L66.5122 9.59658L66.4147 9.49691L66.3119 9.39725L66.2091 9.30233L66.1009 9.2074L65.9872 9.11248L65.8736 9.01756L65.7545 8.92264L65.6355 8.82772L65.511 8.73754C65.4299 8.67584 65.3433 8.61414 65.2567 8.55719L65.1268 8.46702L64.9915 8.38159L64.8562 8.29616L64.7155 8.21073L64.5748 8.1253L64.4287 8.04461L64.2826 7.96393L64.1311 7.88325L63.9742 7.80256L63.8172 7.72662L63.6603 7.65069L63.4979 7.57475C63.3356 7.49881 63.1678 7.42762 62.9947 7.35643L62.8215 7.28524C62.7079 7.23778 62.5888 7.19506 62.4698 7.1476L62.2912 7.08116C62.1721 7.03844 62.0477 6.99573 61.9232 6.95301C61.6743 6.87233 61.4199 6.79165 61.1602 6.71571L40.7804 0.859041L40.591 0.806835L40.4016 0.754627L40.2122 0.707167L40.0228 0.659706L39.828 0.612245L39.6332 0.56953L39.4383 0.526815L39.2435 0.484101L39.0487 0.446132L38.8539 0.408163L38.6537 0.370195L38.4534 0.336972L38.2532 0.303749L38.053 0.270527L37.8528 0.24205L37.6525 0.213574L37.4469 0.189843L37.2413 0.166113L37.0356 0.142382L36.83 0.123398L36.6244 0.104414L36.4187 0.0854294L36.2131 0.0711913L36.0074 0.0569532L35.8018 0.0427146L35.5962 0.0332227L35.3905 0.0237303L35.1849 0.0142381L34.9793 0.00949216L34.7736 0.00474597L34.568 0H34.3623H34.1567L33.9511 0.00474597L33.7454 0.00949216L33.5398 0.0142381L33.3342 0.0237303L33.1285 0.0332227L32.9229 0.0427146L32.7172 0.0569532L32.5116 0.0711913L32.306 0.0854294L32.1003 0.104414L31.8947 0.123398L31.6891 0.142382L31.4834 0.166113L31.2778 0.189843L31.0721 0.213574L30.8719 0.24205L30.6717 0.270527L30.4715 0.303749L30.2712 0.336972L30.071 0.370195L29.8708 0.408163L29.6706 0.446132L29.4757 0.484101L29.2809 0.526815L29.0861 0.56953L28.8913 0.612245L28.6965 0.659706L28.5071 0.707167L28.3177 0.754627L28.1283 0.806835L27.9389 0.859041L27.901 0.854295Z" fill="#60A04E"/>
<path d="M21.4367 48.993V48.408H22.0667C22.1747 48.408 22.2797 48.39 22.3817 48.354C22.4897 48.318 22.5857 48.27 22.6697 48.21C22.7537 48.144 22.8197 48.069 22.8677 47.985C22.9217 47.895 22.9487 47.802 22.9487 47.706C22.9487 47.472 22.8677 47.307 22.7057 47.211C22.5437 47.115 22.3007 47.067 21.9767 47.067C21.7427 47.067 21.5267 47.103 21.3287 47.175C21.1367 47.247 20.9867 47.316 20.8787 47.382L20.6717 46.824C20.8517 46.722 21.0617 46.632 21.3017 46.554C21.5477 46.476 21.8387 46.437 22.1747 46.437C23.1707 46.437 23.6687 46.806 23.6687 47.544C23.6687 47.754 23.5997 47.961 23.4617 48.165C23.3297 48.363 23.1377 48.504 22.8857 48.588V48.624C23.2397 48.69 23.4857 48.816 23.6237 49.002C23.7677 49.188 23.8397 49.434 23.8397 49.74C23.8397 49.932 23.8007 50.109 23.7227 50.271C23.6447 50.433 23.5277 50.574 23.3717 50.694C23.2157 50.814 23.0177 50.91 22.7777 50.982C22.5437 51.048 22.2707 51.081 21.9587 51.081C21.6527 51.081 21.3977 51.054 21.1937 51C20.9957 50.946 20.8157 50.88 20.6537 50.802L20.8607 50.208C20.9987 50.286 21.1637 50.346 21.3557 50.388C21.5537 50.43 21.7667 50.451 21.9947 50.451C22.3607 50.451 22.6397 50.388 22.8317 50.262C23.0237 50.136 23.1197 49.944 23.1197 49.686C23.1197 49.47 23.0297 49.302 22.8497 49.182C22.6697 49.056 22.3727 48.993 21.9587 48.993H21.4367ZM24.9053 46.833C25.1333 46.695 25.3973 46.593 25.6973 46.527C26.0033 46.461 26.3213 46.428 26.6513 46.428C26.9633 46.428 27.2123 46.47 27.3983 46.554C27.5903 46.638 27.7343 46.749 27.8303 46.887C27.9323 47.019 27.9983 47.166 28.0283 47.328C28.0643 47.49 28.0823 47.652 28.0823 47.814C28.0823 48.174 28.0733 48.525 28.0553 48.867C28.0373 49.209 28.0283 49.533 28.0283 49.839C28.0283 50.061 28.0373 50.271 28.0553 50.469C28.0733 50.667 28.1063 50.85 28.1543 51.018H27.6233L27.4343 50.388H27.3893C27.3353 50.472 27.2663 50.556 27.1823 50.64C27.1043 50.718 27.0083 50.79 26.8943 50.856C26.7803 50.916 26.6483 50.967 26.4983 51.009C26.3483 51.051 26.1773 51.072 25.9853 51.072C25.7933 51.072 25.6133 51.042 25.4453 50.982C25.2833 50.922 25.1423 50.838 25.0223 50.73C24.9023 50.616 24.8063 50.481 24.7343 50.325C24.6683 50.169 24.6353 49.992 24.6353 49.794C24.6353 49.53 24.6893 49.311 24.7973 49.137C24.9053 48.957 25.0553 48.816 25.2473 48.714C25.4453 48.606 25.6793 48.531 25.9493 48.489C26.2253 48.441 26.5283 48.417 26.8583 48.417C26.9423 48.417 27.0233 48.417 27.1013 48.417C27.1853 48.417 27.2693 48.423 27.3533 48.435C27.3713 48.255 27.3803 48.093 27.3803 47.949C27.3803 47.619 27.3143 47.388 27.1823 47.256C27.0503 47.124 26.8103 47.058 26.4623 47.058C26.3603 47.058 26.2493 47.067 26.1293 47.085C26.0153 47.097 25.8953 47.118 25.7693 47.148C25.6493 47.172 25.5323 47.205 25.4183 47.247C25.3103 47.283 25.2143 47.325 25.1303 47.373L24.9053 46.833ZM26.1833 50.442C26.3513 50.442 26.5013 50.421 26.6333 50.379C26.7653 50.331 26.8793 50.274 26.9753 50.208C27.0713 50.136 27.1493 50.058 27.2093 49.974C27.2753 49.89 27.3233 49.809 27.3533 49.731V48.984C27.2693 48.978 27.1823 48.975 27.0923 48.975C27.0083 48.969 26.9243 48.966 26.8403 48.966C26.6543 48.966 26.4713 48.978 26.2913 49.002C26.1173 49.02 25.9613 49.059 25.8233 49.119C25.6913 49.173 25.5833 49.251 25.4993 49.353C25.4213 49.449 25.3823 49.572 25.3823 49.722C25.3823 49.932 25.4573 50.106 25.6073 50.244C25.7573 50.376 25.9493 50.442 26.1833 50.442ZM30.5762 48.975H30.1622V51H29.4422V46.5H30.1622V48.534L30.5492 48.408L31.9892 46.5H32.7722L31.3772 48.309L30.9992 48.606L31.4672 48.966L32.9702 51H32.0792L30.5762 48.975ZM33.668 46.833C33.896 46.695 34.16 46.593 34.46 46.527C34.766 46.461 35.084 46.428 35.414 46.428C35.726 46.428 35.975 46.47 36.161 46.554C36.353 46.638 36.497 46.749 36.593 46.887C36.695 47.019 36.761 47.166 36.791 47.328C36.827 47.49 36.845 47.652 36.845 47.814C36.845 48.174 36.836 48.525 36.818 48.867C36.8 49.209 36.791 49.533 36.791 49.839C36.791 50.061 36.8 50.271 36.818 50.469C36.836 50.667 36.869 50.85 36.917 51.018H36.386L36.197 50.388H36.152C36.098 50.472 36.029 50.556 35.945 50.64C35.867 50.718 35.771 50.79 35.657 50.856C35.543 50.916 35.411 50.967 35.261 51.009C35.111 51.051 34.94 51.072 34.748 51.072C34.556 51.072 34.376 51.042 34.208 50.982C34.046 50.922 33.905 50.838 33.785 50.73C33.665 50.616 33.569 50.481 33.497 50.325C33.431 50.169 33.398 49.992 33.398 49.794C33.398 49.53 33.452 49.311 33.56 49.137C33.668 48.957 33.818 48.816 34.01 48.714C34.208 48.606 34.442 48.531 34.712 48.489C34.988 48.441 35.291 48.417 35.621 48.417C35.705 48.417 35.786 48.417 35.864 48.417C35.948 48.417 36.032 48.423 36.116 48.435C36.134 48.255 36.143 48.093 36.143 47.949C36.143 47.619 36.077 47.388 35.945 47.256C35.813 47.124 35.573 47.058 35.225 47.058C35.123 47.058 35.012 47.067 34.892 47.085C34.778 47.097 34.658 47.118 34.532 47.148C34.412 47.172 34.295 47.205 34.181 47.247C34.073 47.283 33.977 47.325 33.893 47.373L33.668 46.833ZM34.946 50.442C35.114 50.442 35.264 50.421 35.396 50.379C35.528 50.331 35.642 50.274 35.738 50.208C35.834 50.136 35.912 50.058 35.972 49.974C36.038 49.89 36.086 49.809 36.116 49.731V48.984C36.032 48.978 35.945 48.975 35.855 48.975C35.771 48.969 35.687 48.966 35.603 48.966C35.417 48.966 35.234 48.978 35.054 49.002C34.88 49.02 34.724 49.059 34.586 49.119C34.454 49.173 34.346 49.251 34.262 49.353C34.184 49.449 34.145 49.572 34.145 49.722C34.145 49.932 34.22 50.106 34.37 50.244C34.52 50.376 34.712 50.442 34.946 50.442ZM38.6369 48.993V48.408H39.2669C39.3749 48.408 39.4799 48.39 39.5819 48.354C39.6899 48.318 39.7859 48.27 39.8699 48.21C39.9539 48.144 40.0199 48.069 40.0679 47.985C40.1219 47.895 40.1489 47.802 40.1489 47.706C40.1489 47.472 40.0679 47.307 39.9059 47.211C39.7439 47.115 39.5009 47.067 39.1769 47.067C38.9429 47.067 38.7269 47.103 38.5289 47.175C38.3369 47.247 38.1869 47.316 38.0789 47.382L37.8719 46.824C38.0519 46.722 38.2619 46.632 38.5019 46.554C38.7479 46.476 39.0389 46.437 39.3749 46.437C40.3709 46.437 40.8689 46.806 40.8689 47.544C40.8689 47.754 40.7999 47.961 40.6619 48.165C40.5299 48.363 40.3379 48.504 40.0859 48.588V48.624C40.4399 48.69 40.6859 48.816 40.8239 49.002C40.9679 49.188 41.0399 49.434 41.0399 49.74C41.0399 49.932 41.0009 50.109 40.9229 50.271C40.8449 50.433 40.7279 50.574 40.5719 50.694C40.4159 50.814 40.2179 50.91 39.9779 50.982C39.7439 51.048 39.4709 51.081 39.1589 51.081C38.8529 51.081 38.5979 51.054 38.3939 51C38.1959 50.946 38.0159 50.88 37.8539 50.802L38.0609 50.208C38.1989 50.286 38.3639 50.346 38.5559 50.388C38.7539 50.43 38.9669 50.451 39.1949 50.451C39.5609 50.451 39.8399 50.388 40.0319 50.262C40.2239 50.136 40.3199 49.944 40.3199 49.686C40.3199 49.47 40.2299 49.302 40.0499 49.182C39.8699 49.056 39.5729 48.993 39.1589 48.993H38.6369ZM42.8975 50.37C43.1195 50.406 43.3325 50.424 43.5365 50.424C43.9145 50.424 44.1785 50.352 44.3285 50.208C44.4785 50.058 44.5535 49.848 44.5535 49.578C44.5535 49.338 44.4785 49.14 44.3285 48.984C44.1845 48.828 43.9295 48.75 43.5635 48.75C43.4615 48.75 43.3505 48.753 43.2305 48.759C43.1105 48.765 42.9995 48.783 42.8975 48.813V50.37ZM42.8975 48.219C43.0415 48.195 43.1795 48.18 43.3115 48.174C43.4435 48.162 43.5695 48.156 43.6895 48.156C43.9955 48.156 44.2505 48.192 44.4545 48.264C44.6645 48.33 44.8325 48.423 44.9585 48.543C45.0845 48.663 45.1715 48.807 45.2195 48.975C45.2735 49.137 45.3005 49.311 45.3005 49.497C45.3005 50.043 45.1475 50.439 44.8415 50.685C44.5415 50.931 44.0525 51.054 43.3745 51.054C42.9905 51.054 42.5915 51.036 42.1775 51V46.5H42.8975V48.219ZM46.0115 46.5H46.7315V51H46.0115V46.5Z" fill="white"/>
<path d="M48.655 21.371V25.655H20.345V21.371C20.345 20.1327 21.1357 19.345 21.8455 19.345H47.1545C47.549 19.345 47.9165 19.5547 48.1972 19.9273C48.4787 20.3011 48.655 20.8198 48.655 21.371Z" stroke="white" stroke-width="0.69"/>
<path d="M32.6001 32.7492H32.9451V32.4042V30.7021V30.3571H32.6001H23.4703H23.1253V30.7021V32.4042V32.7492H23.4703H32.6001ZM38.0958 32.7492H38.4408V32.4042V30.7021V30.3571H38.0958H34.4616H34.1166V30.7021V32.4042V32.7492H34.4616H38.0958ZM20.3451 37.3484V27.7239H48.6551V37.3484C48.6551 38.1123 48.0289 38.7055 47.2257 38.7055H21.6975C20.8483 38.7055 20.3451 38.0743 20.3451 37.3484Z" stroke="white" stroke-width="0.69"/>
</svg>
