<svg width="60" height="60" viewBox="0 0 60 60" fill="none" xmlns="http://www.w3.org/2000/svg">
<path fill-rule="evenodd" clip-rule="evenodd" d="M6.044 5.51586L24.2534 0.70216L24.2872 0.706061L24.4564 0.663152L24.6257 0.620242L24.7949 0.581233L24.9641 0.542224L25.1382 0.503215L25.3123 0.468107L25.4863 0.432999L25.6604 0.397891L25.8345 0.366684L26.0134 0.335477L26.1923 0.30427L26.3712 0.276963L26.5501 0.249657L26.729 0.222351L26.9079 0.198945L27.0868 0.17554L27.2705 0.156036L27.4543 0.136531L27.638 0.117027L27.8217 0.101423L28.0055 0.0858195L28.1892 0.070216L28.373 0.0585134L28.5567 0.0468108L28.7404 0.0351079L28.9242 0.0273063L29.1079 0.0195043L29.2916 0.0117026L29.4754 0.00780177L29.6591 0.00390079L29.8429 0H30.0266H30.2103L30.3941 0.00390079L30.5778 0.00780177L30.7615 0.0117026L30.9453 0.0195043L31.129 0.0273063L31.3128 0.0351079L31.4965 0.0468108L31.6802 0.0585134L31.864 0.070216L32.0477 0.0858195L32.2314 0.101423L32.4152 0.117027L32.5989 0.136531L32.7827 0.156036L32.9664 0.17554L33.1453 0.198945L33.3242 0.222351L33.5031 0.249657L33.682 0.276963L33.8609 0.30427L34.0398 0.335477L34.2139 0.366684L34.3879 0.397891L34.562 0.432999L34.7361 0.468107L34.9101 0.503215L35.0842 0.542224L35.2534 0.581233L35.4227 0.620242L35.5919 0.663152L35.7611 0.706061L53.9705 5.51976C54.2026 5.58218 54.4298 5.64849 54.6523 5.71481C54.7635 5.74991 54.8747 5.78502 54.9811 5.82013L55.1406 5.87474C55.1843 5.89076 55.228 5.90612 55.2713 5.92136C55.3335 5.94324 55.3951 5.96488 55.4549 5.98787L55.6096 6.04638C55.7644 6.10489 55.9143 6.16341 56.0593 6.22582L56.2044 6.28824L56.3446 6.35065L56.4848 6.41306L56.625 6.47938L56.7604 6.54569L56.891 6.61201L57.0215 6.67833L57.1472 6.74854L57.2729 6.81876L57.3938 6.88897L57.5147 6.95919L57.6307 7.03331C57.7081 7.08012 57.7855 7.13083 57.858 7.18154L57.9692 7.25566L58.0756 7.33368L58.182 7.41169L58.2835 7.48971L58.385 7.56773L58.4817 7.64575L58.5736 7.72376L58.6655 7.80568L58.7525 7.8876L58.8396 7.96952L58.9218 8.05144L59.0039 8.13336L59.0813 8.21528L59.1538 8.3011L59.2264 8.38692L59.2941 8.47274L59.3569 8.55855L59.4198 8.64437L59.4778 8.73019L59.5358 8.81991L59.589 8.90964L59.6374 8.99936L59.6857 9.08908L59.7292 9.1788L59.7679 9.26852L59.8066 9.35824L59.8404 9.44796L59.8694 9.54158L59.8985 9.6352L59.9226 9.72882L59.942 9.82244L59.9613 9.91607L59.9758 10.0097L59.9855 10.1033L59.9952 10.1969L60 10.2906V10.3842V10.6849V11.4963V21.5134V38.4866V48.5037V49.3151V49.6158V49.7094L59.9952 49.8031L59.9855 49.8967L59.9758 49.9903L59.9613 50.0839L59.942 50.1776L59.9226 50.2712L59.8985 50.3648L59.8694 50.4584L59.8404 50.552L59.8066 50.6418L59.7679 50.7315L59.7292 50.8212L59.6857 50.9109L59.6374 51.0006L59.589 51.0904L59.5358 51.1801L59.4778 51.2698L59.4198 51.3556L59.3569 51.4414L59.2941 51.5273L59.2264 51.6131L59.1538 51.6989L59.0813 51.7847L59.0039 51.8666L58.9218 51.9486L58.8396 52.0305L58.7525 52.1124L58.6655 52.1943L58.5736 52.2762L58.4817 52.3543L58.385 52.4323L58.2835 52.5103L58.182 52.5883L58.0756 52.6663L57.9692 52.7443L57.858 52.8185C57.7855 52.8692 57.7081 52.9199 57.6307 52.9667L57.5147 53.0408L57.3938 53.111L57.2729 53.1812L57.1472 53.2515L57.0215 53.3217L56.891 53.388L56.7604 53.4543L56.625 53.5206L56.4848 53.5869L56.3446 53.6493L56.2044 53.7118L56.0593 53.7742C55.9143 53.8366 55.7644 53.8951 55.6096 53.9536L55.4549 54.0121C55.3951 54.0351 55.3335 54.0568 55.2713 54.0786C55.228 54.0939 55.1843 54.1092 55.1406 54.1253L54.9811 54.1799C54.8747 54.215 54.7635 54.2501 54.6523 54.2852C54.4298 54.3515 54.2026 54.4178 53.9705 54.4802L35.7611 59.2939L35.5919 59.3368L35.4227 59.3798L35.2534 59.4188L35.0842 59.4578L34.9101 59.4968L34.7361 59.5319L34.562 59.567L34.3879 59.6021L34.2139 59.6333L34.0398 59.6645L33.8609 59.6957L33.682 59.723L33.5031 59.7503L33.3242 59.7776L33.1453 59.8011L32.9664 59.8245L32.7827 59.844L32.5989 59.8635L32.4152 59.883L32.2314 59.8986L32.0477 59.9142L31.864 59.9298L31.6802 59.9415L31.4965 59.9532L31.3128 59.9649L31.129 59.9727L30.9453 59.9805L30.7615 59.9883L30.5778 59.9922L30.3941 59.9961L30.2103 60H30.0266H29.8429L29.6591 59.9961L29.4754 59.9922L29.2916 59.9883L29.1079 59.9805L28.9242 59.9727L28.7404 59.9649L28.5567 59.9532L28.373 59.9415L28.1892 59.9298L28.0055 59.9142L27.8217 59.8986L27.638 59.883L27.4543 59.8635L27.2705 59.844L27.0868 59.8245L26.9079 59.8011L26.729 59.7776L26.5501 59.7503L26.3712 59.723L26.1923 59.6957L26.0134 59.6645L25.8345 59.6333L25.6604 59.6021L25.4863 59.567L25.3123 59.5319L25.1382 59.4968L24.9641 59.4578L24.7949 59.4188L24.6257 59.3798L24.4564 59.3368L24.2872 59.2939L24.2534 59.2978L6.044 54.4841C5.81191 54.4217 5.58466 54.3593 5.36224 54.2891L5.36141 54.2888C5.25047 54.2538 5.13955 54.2188 5.03344 54.1838L4.87388 54.1292C4.76751 54.0941 4.66113 54.055 4.55959 54.016L4.40487 53.9575L4.25498 53.899L4.10509 53.8405L3.96003 53.7781L3.81497 53.7157L3.66992 53.6533L3.5297 53.5908L3.38948 53.5245L3.25409 53.4582L3.1187 53.3919L2.98815 53.3256L2.8576 53.2554L2.73189 53.1851L2.60617 53.1149L2.48529 53.0447L2.36925 52.9706L2.2532 52.8965L2.14199 52.8224L2.03078 52.7482L1.92441 52.6702L1.81804 52.5922L1.7165 52.5142L1.61496 52.4362L1.51825 52.3582L1.42638 52.2801L1.33452 52.1982L1.24748 52.1163L1.16045 52.0344L1.07825 51.9525L1.00089 51.8705L0.923523 51.7847L0.850995 51.6989L0.778467 51.6131L0.710775 51.5273L0.647917 51.4414L0.585059 51.3556L0.527037 51.2698L0.469015 51.1801L0.415827 51.0904L0.367475 51.0006L0.319123 50.9109L0.275606 50.8212L0.236925 50.7315L0.198243 50.6418L0.164397 50.552L0.13055 50.4584L0.101539 50.3648L0.0773631 50.2712L0.0580224 50.1776L0.0386816 50.0839L0.0241761 49.9903L0.0145055 49.8967L0.00483531 49.8031L0 49.7094V49.6158V49.3151V38.4866V21.5134V10.6849V10.3842V10.2906L0.00483531 10.1969L0.0145055 10.1033L0.0241761 10.0097L0.0386816 9.91607L0.0580224 9.82244L0.0773631 9.72882L0.101539 9.6352L0.13055 9.54158L0.164397 9.44796L0.198243 9.35824L0.236925 9.26852L0.275606 9.1788L0.319123 9.08908L0.367475 8.99936L0.415827 8.90964L0.469015 8.81991L0.527037 8.73019L0.585059 8.64437L0.647917 8.55855L0.710775 8.47274L0.778467 8.38692L0.850995 8.3011L0.923523 8.21528L1.00089 8.12946L1.07825 8.04754L1.16045 7.96562L1.24748 7.8837L1.33452 7.80178L1.42638 7.71986L1.51825 7.64185L1.61496 7.56383L1.7165 7.48581L1.81804 7.40779L1.92441 7.32977L2.03078 7.25176L2.14199 7.17764L2.2532 7.10352L2.36925 7.02941L2.48529 6.95529L2.60617 6.88507L2.73189 6.81486L2.8576 6.74464L2.98815 6.67442L3.1187 6.60811L3.25409 6.54179L3.38948 6.47548L3.5297 6.40916L3.66992 6.34675L3.81497 6.28434L3.96003 6.22192L4.10509 6.15951L4.25498 6.10099L4.40487 6.04248L4.55959 5.98397C4.66113 5.94496 4.76751 5.90595 4.87388 5.87084L5.03344 5.81623C5.13982 5.78112 5.25103 5.74601 5.36224 5.7109C5.58466 5.64069 5.81191 5.57827 6.044 5.51586Z" fill="#53588A"/>
<path d="M22.6172 35.13H21.2042V39H20.4842V35.13H19.0712V34.5H22.6172V35.13ZM22.9395 36.75C22.9395 35.988 23.1075 35.406 23.4435 35.004C23.7855 34.596 24.2745 34.392 24.9105 34.392C25.2465 34.392 25.5375 34.449 25.7835 34.563C26.0355 34.671 26.2425 34.83 26.4045 35.04C26.5665 35.244 26.6865 35.493 26.7645 35.787C26.8425 36.075 26.8815 36.396 26.8815 36.75C26.8815 37.512 26.7105 38.097 26.3685 38.505C26.0325 38.907 25.5465 39.108 24.9105 39.108C24.5745 39.108 24.2805 39.054 24.0285 38.946C23.7825 38.832 23.5785 38.673 23.4165 38.469C23.2545 38.259 23.1345 38.01 23.0565 37.722C22.9785 37.428 22.9395 37.104 22.9395 36.75ZM23.6865 36.75C23.6865 36.978 23.7075 37.197 23.7495 37.407C23.7975 37.617 23.8695 37.8 23.9655 37.956C24.0615 38.112 24.1875 38.238 24.3435 38.334C24.4995 38.43 24.6885 38.478 24.9105 38.478C25.7265 38.484 26.1345 37.908 26.1345 36.75C26.1345 36.516 26.1105 36.294 26.0625 36.084C26.0205 35.874 25.9515 35.691 25.8555 35.535C25.7595 35.379 25.6335 35.256 25.4775 35.166C25.3215 35.07 25.1325 35.022 24.9105 35.022C24.0945 35.016 23.6865 35.592 23.6865 36.75ZM28.4847 34.5V35.724C28.4847 35.886 28.4937 36.033 28.5117 36.165C28.5297 36.291 28.5657 36.402 28.6197 36.498C28.6737 36.588 28.7517 36.66 28.8537 36.714C28.9557 36.762 29.0907 36.786 29.2587 36.786C29.5287 36.786 29.7507 36.756 29.9247 36.696C30.0987 36.636 30.2307 36.57 30.3207 36.498V34.5H31.0407V39H30.3207V37.11C30.2247 37.17 30.0807 37.236 29.8887 37.308C29.7027 37.38 29.4447 37.416 29.1147 37.416C28.8927 37.416 28.6977 37.392 28.5297 37.344C28.3617 37.296 28.2207 37.212 28.1067 37.092C27.9927 36.972 27.9057 36.813 27.8457 36.615C27.7917 36.417 27.7647 36.168 27.7647 35.868V34.5H28.4847ZM33.5628 36.975H33.1488V39H32.4288V34.5H33.1488V36.534L33.5358 36.408L34.9758 34.5H35.7588L34.3638 36.309L33.9858 36.606L34.4538 36.966L35.9568 39H35.0658L33.5628 36.975ZM39.5347 36.336L39.5617 35.778H39.5347L39.1657 36.354L37.1407 39H36.7267V34.5H37.4467V37.245L37.4197 37.776H37.4557L37.8067 37.218L39.8317 34.5H40.2547V39H39.5347V36.336ZM18.5397 45.13H16.5507V49H15.8307V44.5H19.2597V49H18.5397V45.13ZM20.6471 44.5H21.1421L21.2771 45.04H21.3131C21.4511 44.83 21.6281 44.671 21.8441 44.563C22.0661 44.449 22.3181 44.392 22.6001 44.392C23.2001 44.392 23.6471 44.569 23.9411 44.923C24.2351 45.277 24.3821 45.856 24.3821 46.66C24.3821 47.038 24.3311 47.38 24.2291 47.686C24.1331 47.986 23.9951 48.241 23.8151 48.451C23.6351 48.661 23.4161 48.823 23.1581 48.937C22.9061 49.051 22.6241 49.108 22.3121 49.108C22.0901 49.108 21.9131 49.093 21.7811 49.063C21.6551 49.039 21.5171 48.994 21.3671 48.928V50.8H20.6471V44.5ZM22.4651 45.022C22.1591 45.022 21.9161 45.103 21.7361 45.265C21.5621 45.421 21.4391 45.661 21.3671 45.985V48.217C21.4751 48.301 21.5981 48.367 21.7361 48.415C21.8741 48.457 22.0571 48.478 22.2851 48.478C22.6991 48.478 23.0261 48.325 23.2661 48.019C23.5121 47.707 23.6351 47.251 23.6351 46.651C23.6351 46.405 23.6141 46.183 23.5721 45.985C23.5301 45.781 23.4611 45.61 23.3651 45.472C23.2751 45.328 23.1551 45.217 23.0051 45.139C22.8611 45.061 22.6811 45.022 22.4651 45.022ZM25.2642 46.75C25.2642 45.988 25.4322 45.406 25.7682 45.004C26.1102 44.596 26.5992 44.392 27.2352 44.392C27.5712 44.392 27.8622 44.449 28.1082 44.563C28.3602 44.671 28.5672 44.83 28.7292 45.04C28.8912 45.244 29.0112 45.493 29.0892 45.787C29.1672 46.075 29.2062 46.396 29.2062 46.75C29.2062 47.512 29.0352 48.097 28.6932 48.505C28.3572 48.907 27.8712 49.108 27.2352 49.108C26.8992 49.108 26.6052 49.054 26.3532 48.946C26.1072 48.832 25.9032 48.673 25.7412 48.469C25.5792 48.259 25.4592 48.01 25.3812 47.722C25.3032 47.428 25.2642 47.104 25.2642 46.75ZM26.0112 46.75C26.0112 46.978 26.0322 47.197 26.0742 47.407C26.1222 47.617 26.1942 47.8 26.2902 47.956C26.3862 48.112 26.5122 48.238 26.6682 48.334C26.8242 48.43 27.0132 48.478 27.2352 48.478C28.0512 48.484 28.4592 47.908 28.4592 46.75C28.4592 46.516 28.4352 46.294 28.3872 46.084C28.3452 45.874 28.2762 45.691 28.1802 45.535C28.0842 45.379 27.9582 45.256 27.8022 45.166C27.6462 45.07 27.4572 45.022 27.2352 45.022C26.4192 45.016 26.0112 45.592 26.0112 46.75ZM34.2667 50.143H33.7807L33.6457 49H30.2617L30.1267 50.143H29.6407V48.37H30.1717C30.2197 48.304 30.2827 48.187 30.3607 48.019C30.4387 47.845 30.5137 47.605 30.5857 47.299C30.6637 46.987 30.7297 46.603 30.7837 46.147C30.8437 45.685 30.8797 45.136 30.8917 44.5H33.6097V48.37H34.2667V50.143ZM32.8897 48.37V45.13H31.5397C31.5277 45.382 31.5067 45.658 31.4767 45.958C31.4467 46.252 31.4047 46.549 31.3507 46.849C31.3027 47.143 31.2397 47.422 31.1617 47.686C31.0837 47.95 30.9937 48.178 30.8917 48.37H32.8897ZM35.0858 44.833C35.3138 44.695 35.5778 44.593 35.8778 44.527C36.1838 44.461 36.5018 44.428 36.8318 44.428C37.1438 44.428 37.3928 44.47 37.5788 44.554C37.7708 44.638 37.9148 44.749 38.0108 44.887C38.1128 45.019 38.1788 45.166 38.2088 45.328C38.2448 45.49 38.2628 45.652 38.2628 45.814C38.2628 46.174 38.2538 46.525 38.2358 46.867C38.2178 47.209 38.2088 47.533 38.2088 47.839C38.2088 48.061 38.2178 48.271 38.2358 48.469C38.2538 48.667 38.2868 48.85 38.3348 49.018H37.8038L37.6148 48.388H37.5698C37.5158 48.472 37.4468 48.556 37.3628 48.64C37.2848 48.718 37.1888 48.79 37.0748 48.856C36.9608 48.916 36.8288 48.967 36.6788 49.009C36.5288 49.051 36.3578 49.072 36.1658 49.072C35.9738 49.072 35.7938 49.042 35.6258 48.982C35.4638 48.922 35.3228 48.838 35.2028 48.73C35.0828 48.616 34.9868 48.481 34.9148 48.325C34.8488 48.169 34.8158 47.992 34.8158 47.794C34.8158 47.53 34.8698 47.311 34.9778 47.137C35.0858 46.957 35.2358 46.816 35.4278 46.714C35.6258 46.606 35.8598 46.531 36.1298 46.489C36.4058 46.441 36.7088 46.417 37.0388 46.417C37.1228 46.417 37.2038 46.417 37.2818 46.417C37.3658 46.417 37.4498 46.423 37.5338 46.435C37.5518 46.255 37.5608 46.093 37.5608 45.949C37.5608 45.619 37.4948 45.388 37.3628 45.256C37.2308 45.124 36.9908 45.058 36.6428 45.058C36.5408 45.058 36.4298 45.067 36.3098 45.085C36.1958 45.097 36.0758 45.118 35.9498 45.148C35.8298 45.172 35.7128 45.205 35.5988 45.247C35.4908 45.283 35.3948 45.325 35.3108 45.373L35.0858 44.833ZM36.3638 48.442C36.5318 48.442 36.6818 48.421 36.8138 48.379C36.9458 48.331 37.0598 48.274 37.1558 48.208C37.2518 48.136 37.3298 48.058 37.3898 47.974C37.4558 47.89 37.5038 47.809 37.5338 47.731V46.984C37.4498 46.978 37.3628 46.975 37.2728 46.975C37.1888 46.969 37.1048 46.966 37.0208 46.966C36.8348 46.966 36.6518 46.978 36.4718 47.002C36.2978 47.02 36.1418 47.059 36.0038 47.119C35.8718 47.173 35.7638 47.251 35.6798 47.353C35.6018 47.449 35.5628 47.572 35.5628 47.722C35.5628 47.932 35.6378 48.106 35.7878 48.244C35.9378 48.376 36.1298 48.442 36.3638 48.442ZM41.0897 47.011L39.7667 49H38.9387L40.3607 46.939L40.6667 46.669L40.2077 46.327L39.0377 44.5H39.8027L41.0447 46.444H41.5127V44.5H42.2147V46.534L42.6377 46.408L43.8887 44.5H44.6447L43.4207 46.327L43.0697 46.615L43.5287 46.975L44.8607 49H44.0057L42.6827 46.975H42.2147V49H41.5127V46.885L41.0897 47.011Z" fill="white"/>
<path fill-rule="evenodd" clip-rule="evenodd" d="M37.8667 16.9334C37.8667 20.6112 35.364 23.7046 31.9687 24.6032C31.9521 24.792 31.88 24.9812 31.742 25.1485L30.5116 26.6403C30.1116 27.1253 29.3687 27.1253 28.9687 26.6403L27.7383 25.1485C27.5724 24.9474 27.5018 24.7148 27.5082 24.4892C24.3129 23.4644 22 20.469 22 16.9334C22 12.5519 25.5519 9 29.9334 9C34.3148 9 37.8667 12.5519 37.8667 16.9334ZM36.132 16.8512C36.132 20.3201 33.3199 23.1321 29.851 23.1321C26.3821 23.1321 23.5701 20.3201 23.5701 16.8512C23.5701 13.3823 26.3821 10.5702 29.851 10.5702C33.3199 10.5702 36.132 13.3823 36.132 16.8512Z" fill="white"/>
</svg>
