<svg width="67" height="60" viewBox="0 0 67 60" fill="none" xmlns="http://www.w3.org/2000/svg">
<path d="M27.1786 0.854295L6.79882 6.71096C6.53906 6.7869 6.28472 6.86284 6.03579 6.94827C5.91133 6.99098 5.78686 7.0337 5.66781 7.07641L5.48923 7.14286C5.37018 7.18557 5.25112 7.23303 5.13748 7.28049L4.96431 7.35169L4.79656 7.42288L4.6288 7.49407L4.46645 7.57L4.30411 7.64594L4.14176 7.72188L3.98483 7.79782L3.8279 7.8785L3.67637 7.95918L3.52485 8.03987L3.37874 8.12055L3.23263 8.20598L3.09193 8.29141L2.95123 8.37684L2.81594 8.46227L2.68607 8.55244L2.55619 8.64262L2.43172 8.7328L2.30726 8.82297L2.18821 8.91789L2.06915 9.01282L1.95551 9.10774L1.84187 9.20266L1.73364 9.29758L1.63082 9.3925L1.528 9.49217L1.43059 9.59184L1.33319 9.69151L1.24119 9.79117L1.15461 9.89084L1.06802 9.99525L0.986851 10.0997L0.905678 10.2041L0.829917 10.3085L0.759567 10.4129L0.689217 10.5173L0.624279 10.6217L0.559341 10.7309L0.499814 10.8401L0.445699 10.9492L0.391584 11.0584L0.34288 11.1675L0.299588 11.2767L0.256296 11.3859L0.218415 11.495L0.180534 11.6089L0.148066 11.7228L0.121008 11.8367L0.0993619 11.9506L0.0777159 12.0645L0.0614815 12.1785L0.0506582 12.2924L0.0398355 12.4063L0.0344238 12.5202V12.6341V26.1747V60H67.1859V59.0128V26.1747V12.6341V12.5202L67.1805 12.4063L67.1697 12.2924L67.1589 12.1785L67.1426 12.0645L67.121 11.9506L67.0993 11.8367L67.0723 11.7228L67.0398 11.6089L67.0073 11.495L66.9695 11.3859L66.9262 11.2767L66.8829 11.1675L66.8342 11.0584L66.78 10.9492L66.7259 10.8401L66.6664 10.7309L66.6015 10.6217L66.5365 10.5173L66.4662 10.4129L66.3958 10.3085L66.3201 10.2041L66.2389 10.0997L66.1577 9.99525L66.0711 9.89559L65.9791 9.79592L65.8872 9.69625L65.7897 9.59658L65.6923 9.49692L65.5895 9.39725L65.4867 9.30233L65.3785 9.2074L65.2648 9.11248L65.1512 9.01756L65.0321 8.92264L64.9131 8.82772L64.7886 8.73754C64.7074 8.67584 64.6209 8.61414 64.5343 8.55719L64.4044 8.46702L64.2691 8.38159L64.1338 8.29616L63.9931 8.21073L63.8524 8.1253L63.7063 8.04461L63.5602 7.96393L63.4087 7.88325L63.2517 7.80256L63.0948 7.72663L62.9379 7.65069L62.7755 7.57475C62.6132 7.49881 62.4454 7.42762 62.2723 7.35643L62.0991 7.28524C61.9854 7.23778 61.8664 7.19506 61.7473 7.1476L61.5688 7.08116C61.4497 7.03844 61.3252 6.99573 61.2008 6.95301C60.9518 6.87233 60.6975 6.79165 60.4378 6.71571L40.058 0.859041L39.8686 0.806835L39.6792 0.754627L39.4898 0.707167L39.3004 0.659706L39.1056 0.612245L38.9107 0.56953L38.7159 0.526815L38.5211 0.484101L38.3263 0.446132L38.1315 0.408163L37.9313 0.370195L37.731 0.336972L37.5308 0.303749L37.3306 0.270527L37.1304 0.24205L36.9301 0.213574L36.7245 0.189843L36.5189 0.166113L36.3132 0.142382L36.1076 0.123398L35.9019 0.104414L35.6963 0.0854294L35.4907 0.0711913L35.285 0.0569532L35.0794 0.0427146L34.8738 0.0332227L34.6681 0.0237303L34.4625 0.0142381L34.2568 0.00949216L34.0512 0.00474597L33.8456 0H33.6399H33.4343L33.2287 0.00474597L33.023 0.00949216L32.8174 0.0142381L32.6117 0.0237303L32.4061 0.0332227L32.2005 0.0427146L31.9948 0.0569532L31.7892 0.0711913L31.5836 0.0854294L31.3779 0.104414L31.1723 0.123398L30.9666 0.142382L30.761 0.166113L30.5554 0.189843L30.3497 0.213574L30.1495 0.24205L29.9493 0.270527L29.7491 0.303749L29.5488 0.336972L29.3486 0.370195L29.1484 0.408163L28.9481 0.446132L28.7533 0.484101L28.5585 0.526815L28.3637 0.56953L28.1689 0.612245L27.9741 0.659706L27.7847 0.707167L27.5953 0.754627L27.4059 0.806835L27.2165 0.859041L27.1786 0.854295Z" fill="#E96C6C"/>
<path d="M20.7975 47.13H18.8085V51H18.0885V46.5H21.5175V51H20.7975V47.13ZM22.9049 46.5H23.3999L23.5349 47.04H23.5709C23.7089 46.83 23.8859 46.671 24.1019 46.563C24.3239 46.449 24.5759 46.392 24.8579 46.392C25.4579 46.392 25.9049 46.569 26.1989 46.923C26.4929 47.277 26.6399 47.856 26.6399 48.66C26.6399 49.038 26.5889 49.38 26.4869 49.686C26.3909 49.986 26.2529 50.241 26.0729 50.451C25.8929 50.661 25.6739 50.823 25.4159 50.937C25.1639 51.051 24.8819 51.108 24.5699 51.108C24.3479 51.108 24.1709 51.093 24.0389 51.063C23.9129 51.039 23.7749 50.994 23.6249 50.928V52.8H22.9049V46.5ZM24.7229 47.022C24.4169 47.022 24.1739 47.103 23.9939 47.265C23.8199 47.421 23.6969 47.661 23.6249 47.985V50.217C23.7329 50.301 23.8559 50.367 23.9939 50.415C24.1319 50.457 24.3149 50.478 24.5429 50.478C24.9569 50.478 25.2839 50.325 25.5239 50.019C25.7699 49.707 25.8929 49.251 25.8929 48.651C25.8929 48.405 25.8719 48.183 25.8299 47.985C25.7879 47.781 25.7189 47.61 25.6229 47.472C25.5329 47.328 25.4129 47.217 25.2629 47.139C25.1189 47.061 24.9389 47.022 24.7229 47.022ZM27.5221 48.75C27.5221 47.988 27.6901 47.406 28.0261 47.004C28.3681 46.596 28.8571 46.392 29.4931 46.392C29.8291 46.392 30.1201 46.449 30.3661 46.563C30.6181 46.671 30.8251 46.83 30.9871 47.04C31.1491 47.244 31.2691 47.493 31.3471 47.787C31.4251 48.075 31.4641 48.396 31.4641 48.75C31.4641 49.512 31.2931 50.097 30.9511 50.505C30.6151 50.907 30.1291 51.108 29.4931 51.108C29.1571 51.108 28.8631 51.054 28.6111 50.946C28.3651 50.832 28.1611 50.673 27.9991 50.469C27.8371 50.259 27.7171 50.01 27.6391 49.722C27.5611 49.428 27.5221 49.104 27.5221 48.75ZM28.2691 48.75C28.2691 48.978 28.2901 49.197 28.3321 49.407C28.3801 49.617 28.4521 49.8 28.5481 49.956C28.6441 50.112 28.7701 50.238 28.9261 50.334C29.0821 50.43 29.2711 50.478 29.4931 50.478C30.3091 50.484 30.7171 49.908 30.7171 48.75C30.7171 48.516 30.6931 48.294 30.6451 48.084C30.6031 47.874 30.5341 47.691 30.4381 47.535C30.3421 47.379 30.2161 47.256 30.0601 47.166C29.9041 47.07 29.7151 47.022 29.4931 47.022C28.6771 47.016 28.2691 47.592 28.2691 48.75ZM34.6243 51.036C34.5223 51.072 34.4143 51.093 34.3003 51.099C34.1923 51.105 34.0933 51.108 34.0033 51.108C33.4573 51.108 33.0373 50.916 32.7433 50.532C32.4493 50.148 32.3023 49.554 32.3023 48.75C32.3023 47.982 32.4643 47.403 32.7883 47.013C33.1123 46.623 33.5803 46.428 34.1923 46.428C34.3603 46.428 34.5043 46.44 34.6243 46.464V44.7H35.3083V46.473C35.4163 46.455 35.5123 46.443 35.5963 46.437C35.6803 46.431 35.7613 46.428 35.8393 46.428C36.4333 46.428 36.8803 46.602 37.1803 46.95C37.4803 47.292 37.6303 47.862 37.6303 48.66C37.6303 49.038 37.5883 49.38 37.5043 49.686C37.4263 49.986 37.3093 50.241 37.1533 50.451C36.9973 50.661 36.8053 50.823 36.5773 50.937C36.3553 51.051 36.0973 51.108 35.8033 51.108C35.7493 51.108 35.6683 51.102 35.5603 51.09C35.4583 51.084 35.3743 51.069 35.3083 51.045V52.8H34.6243V51.036ZM35.7043 47.022C35.6323 47.022 35.5663 47.025 35.5063 47.031C35.4523 47.031 35.3833 47.043 35.2993 47.067V50.487C35.3593 50.499 35.4253 50.508 35.4973 50.514C35.5753 50.514 35.6593 50.514 35.7493 50.514C36.1333 50.514 36.4213 50.355 36.6133 50.037C36.8113 49.719 36.9103 49.26 36.9103 48.66C36.9103 48.15 36.8203 47.751 36.6403 47.463C36.4663 47.169 36.1543 47.022 35.7043 47.022ZM34.1833 50.514C34.2553 50.514 34.3273 50.511 34.3993 50.505C34.4713 50.499 34.5493 50.487 34.6333 50.469V47.058C34.5613 47.046 34.4923 47.037 34.4263 47.031C34.3663 47.025 34.2913 47.022 34.2013 47.022C33.8293 47.022 33.5383 47.163 33.3283 47.445C33.1243 47.721 33.0223 48.156 33.0223 48.75C33.0223 49.002 33.0433 49.236 33.0853 49.452C33.1333 49.668 33.2053 49.857 33.3013 50.019C33.3973 50.175 33.5173 50.298 33.6613 50.388C33.8113 50.472 33.9853 50.514 34.1833 50.514ZM41.5245 48.336L41.5515 47.778H41.5245L41.1555 48.354L39.1305 51H38.7165V46.5H39.4365V49.245L39.4095 49.776H39.4455L39.7965 49.218L41.8215 46.5H42.2445V51H41.5245V48.336ZM46.0505 47.13H44.7455C44.7275 47.382 44.7095 47.655 44.6915 47.949C44.6735 48.237 44.6465 48.528 44.6105 48.822C44.5745 49.11 44.5265 49.389 44.4665 49.659C44.4065 49.923 44.3285 50.157 44.2325 50.361C44.1425 50.565 44.0285 50.73 43.8905 50.856C43.7585 50.976 43.5995 51.036 43.4135 51.036C43.2995 51.036 43.2005 51.03 43.1165 51.018C43.0325 51.006 42.9575 50.985 42.8915 50.955L42.9995 50.352C43.0715 50.376 43.1495 50.388 43.2335 50.388C43.3535 50.388 43.4615 50.337 43.5575 50.235C43.6535 50.133 43.7375 49.941 43.8095 49.659C43.8815 49.371 43.9415 48.975 43.9895 48.471C44.0375 47.967 44.0705 47.31 44.0885 46.5H46.7705V51H46.0505V47.13ZM48.8759 50.37C49.0979 50.406 49.3109 50.424 49.5149 50.424C49.8929 50.424 50.1719 50.352 50.3519 50.208C50.5319 50.058 50.6219 49.848 50.6219 49.578C50.6219 49.338 50.5349 49.14 50.3609 48.984C50.1869 48.828 49.9139 48.75 49.5419 48.75C49.4399 48.75 49.3289 48.753 49.2089 48.759C49.0889 48.765 48.9779 48.783 48.8759 48.813V50.37ZM48.8759 48.219C49.0199 48.195 49.1579 48.18 49.2899 48.174C49.4219 48.162 49.5479 48.156 49.6679 48.156C49.9799 48.156 50.2439 48.192 50.4599 48.264C50.6759 48.33 50.8499 48.423 50.9819 48.543C51.1199 48.663 51.2189 48.807 51.2789 48.975C51.3389 49.137 51.3689 49.311 51.3689 49.497C51.3689 50.043 51.2039 50.439 50.8739 50.685C50.5499 50.931 50.0429 51.054 49.3529 51.054C48.9689 51.054 48.5699 51.036 48.1559 51V46.5H48.8759V48.219Z" fill="white"/>
<path fill-rule="evenodd" clip-rule="evenodd" d="M37.6057 28.4849L37.8337 29.4453L37.7599 29.7019C41.2099 30.6947 43.9958 33.013 45.4215 36H22.5973C24.0094 33.0269 26.7979 30.6938 30.2727 29.7023L31.8897 29.2408L30.3876 28.4849C28.0542 27.3104 26.4788 25.0553 26.4788 22.5021C26.4788 18.7735 29.7909 15.6563 33.9967 15.6563C38.2024 15.6563 41.5145 18.7735 41.5145 22.5021C41.5145 25.0553 39.9391 27.3104 37.6057 28.4849ZM22.1834 37C22.024 37.449 21.895 37.9098 21.7985 38.3803H22.5284H22.6504H45.3429H45.4649H46.2302C46.1306 37.9092 45.9993 37.4484 45.8384 37H22.1834ZM46.9002 38.3803C46.0741 34.2169 42.9381 30.829 38.774 29.3395C38.5008 29.2418 38.2231 29.1522 37.9414 29.0711H37.9007L37.9414 29.0505L37.9484 29.047C38.2049 28.9158 38.4534 28.7722 38.6926 28.6171C40.7809 27.2634 42.1708 25.0311 42.1708 22.5021C42.1708 18.3592 38.5108 15 33.9967 15C29.4825 15 25.8225 18.3592 25.8225 22.5021C25.8225 25.0361 27.2179 27.2722 29.3131 28.6252C29.5633 28.7867 29.8236 28.9357 30.0926 29.0711C29.8013 29.1542 29.5144 29.2464 29.2324 29.3473C25.0482 30.8437 21.9225 34.2533 21.1292 38.3803C21.0875 38.5971 21.0523 38.816 21.0237 39.0366H21.6859H22.5284H22.6504H45.3429H45.4649H46.3474H47.0103C46.98 38.8158 46.9432 38.597 46.9002 38.3803Z" fill="white"/>
</svg>
