<svg width="60" height="60" viewBox="0 0 60 60" fill="none" xmlns="http://www.w3.org/2000/svg">
<path fill-rule="evenodd" clip-rule="evenodd" d="M6.044 5.51586L24.2534 0.70216L24.2872 0.706061L24.4564 0.663152L24.6257 0.620242L24.7949 0.581233L24.9641 0.542224L25.1382 0.503215L25.3123 0.468107L25.4863 0.432999L25.6604 0.397891L25.8345 0.366684L26.0134 0.335477L26.1923 0.30427L26.3712 0.276963L26.5501 0.249657L26.729 0.222351L26.9079 0.198945L27.0868 0.17554L27.2705 0.156036L27.4543 0.136531L27.638 0.117027L27.8217 0.101423L28.0055 0.0858195L28.1892 0.070216L28.373 0.0585134L28.5567 0.0468108L28.7404 0.0351079L28.9242 0.0273063L29.1079 0.0195043L29.2916 0.0117026L29.4754 0.00780177L29.6591 0.00390079L29.8429 0H30.0266H30.2103L30.3941 0.00390079L30.5778 0.00780177L30.7615 0.0117026L30.9453 0.0195043L31.129 0.0273063L31.3128 0.0351079L31.4965 0.0468108L31.6802 0.0585134L31.864 0.070216L32.0477 0.0858195L32.2314 0.101423L32.4152 0.117027L32.5989 0.136531L32.7827 0.156036L32.9664 0.17554L33.1453 0.198945L33.3242 0.222351L33.5031 0.249657L33.682 0.276963L33.8609 0.30427L34.0398 0.335477L34.2139 0.366684L34.3879 0.397891L34.562 0.432999L34.7361 0.468107L34.9101 0.503215L35.0842 0.542224L35.2534 0.581233L35.4227 0.620242L35.5919 0.663152L35.7611 0.706061L53.9705 5.51976C54.2026 5.58218 54.4298 5.64849 54.6523 5.71481C54.7635 5.74991 54.8747 5.78502 54.9811 5.82013L55.1406 5.87474C55.1843 5.89076 55.228 5.90612 55.2713 5.92136C55.3335 5.94324 55.3951 5.96488 55.4549 5.98787L55.6096 6.04638C55.7644 6.10489 55.9143 6.16341 56.0593 6.22582L56.2044 6.28824L56.3446 6.35065L56.4848 6.41306L56.625 6.47938L56.7604 6.54569L56.891 6.61201L57.0215 6.67833L57.1472 6.74854L57.2729 6.81876L57.3938 6.88897L57.5147 6.95919L57.6307 7.03331C57.7081 7.08012 57.7855 7.13083 57.858 7.18154L57.9692 7.25566L58.0756 7.33368L58.182 7.41169L58.2835 7.48971L58.385 7.56773L58.4817 7.64575L58.5736 7.72376L58.6655 7.80568L58.7525 7.8876L58.8396 7.96952L58.9218 8.05144L59.0039 8.13336L59.0813 8.21528L59.1538 8.3011L59.2264 8.38692L59.2941 8.47274L59.3569 8.55855L59.4198 8.64437L59.4778 8.73019L59.5358 8.81991L59.589 8.90964L59.6374 8.99936L59.6857 9.08908L59.7292 9.1788L59.7679 9.26852L59.8066 9.35824L59.8404 9.44796L59.8694 9.54158L59.8985 9.6352L59.9226 9.72882L59.942 9.82244L59.9613 9.91607L59.9758 10.0097L59.9855 10.1033L59.9952 10.1969L60 10.2906V10.3842V10.6849V11.4963V21.5134V38.4866V48.5037V49.3151V49.6158V49.7094L59.9952 49.8031L59.9855 49.8967L59.9758 49.9903L59.9613 50.0839L59.942 50.1776L59.9226 50.2712L59.8985 50.3648L59.8694 50.4584L59.8404 50.552L59.8066 50.6418L59.7679 50.7315L59.7292 50.8212L59.6857 50.9109L59.6374 51.0006L59.589 51.0904L59.5358 51.1801L59.4778 51.2698L59.4198 51.3556L59.3569 51.4414L59.2941 51.5273L59.2264 51.6131L59.1538 51.6989L59.0813 51.7847L59.0039 51.8666L58.9218 51.9486L58.8396 52.0305L58.7525 52.1124L58.6655 52.1943L58.5736 52.2762L58.4817 52.3543L58.385 52.4323L58.2835 52.5103L58.182 52.5883L58.0756 52.6663L57.9692 52.7443L57.858 52.8185C57.7855 52.8692 57.7081 52.9199 57.6307 52.9667L57.5147 53.0408L57.3938 53.111L57.2729 53.1812L57.1472 53.2515L57.0215 53.3217L56.891 53.388L56.7604 53.4543L56.625 53.5206L56.4848 53.5869L56.3446 53.6493L56.2044 53.7118L56.0593 53.7742C55.9143 53.8366 55.7644 53.8951 55.6096 53.9536L55.4549 54.0121C55.3951 54.0351 55.3335 54.0568 55.2713 54.0786C55.228 54.0939 55.1843 54.1092 55.1406 54.1253L54.9811 54.1799C54.8747 54.215 54.7635 54.2501 54.6523 54.2852C54.4298 54.3515 54.2026 54.4178 53.9705 54.4802L35.7611 59.2939L35.5919 59.3368L35.4227 59.3798L35.2534 59.4188L35.0842 59.4578L34.9101 59.4968L34.7361 59.5319L34.562 59.567L34.3879 59.6021L34.2139 59.6333L34.0398 59.6645L33.8609 59.6957L33.682 59.723L33.5031 59.7503L33.3242 59.7776L33.1453 59.8011L32.9664 59.8245L32.7827 59.844L32.5989 59.8635L32.4152 59.883L32.2314 59.8986L32.0477 59.9142L31.864 59.9298L31.6802 59.9415L31.4965 59.9532L31.3128 59.9649L31.129 59.9727L30.9453 59.9805L30.7615 59.9883L30.5778 59.9922L30.3941 59.9961L30.2103 60H30.0266H29.8429L29.6591 59.9961L29.4754 59.9922L29.2916 59.9883L29.1079 59.9805L28.9242 59.9727L28.7404 59.9649L28.5567 59.9532L28.373 59.9415L28.1892 59.9298L28.0055 59.9142L27.8217 59.8986L27.638 59.883L27.4543 59.8635L27.2705 59.844L27.0868 59.8245L26.9079 59.8011L26.729 59.7776L26.5501 59.7503L26.3712 59.723L26.1923 59.6957L26.0134 59.6645L25.8345 59.6333L25.6604 59.6021L25.4863 59.567L25.3123 59.5319L25.1382 59.4968L24.9641 59.4578L24.7949 59.4188L24.6257 59.3798L24.4564 59.3368L24.2872 59.2939L24.2534 59.2978L6.044 54.4841C5.81191 54.4217 5.58466 54.3593 5.36224 54.2891L5.36141 54.2888C5.25047 54.2538 5.13955 54.2188 5.03344 54.1838L4.87388 54.1292C4.76751 54.0941 4.66113 54.055 4.55959 54.016L4.40487 53.9575L4.25498 53.899L4.10509 53.8405L3.96003 53.7781L3.81497 53.7157L3.66992 53.6533L3.5297 53.5908L3.38948 53.5245L3.25409 53.4582L3.1187 53.3919L2.98815 53.3256L2.8576 53.2554L2.73189 53.1851L2.60617 53.1149L2.48529 53.0447L2.36925 52.9706L2.2532 52.8965L2.14199 52.8224L2.03078 52.7482L1.92441 52.6702L1.81804 52.5922L1.7165 52.5142L1.61496 52.4362L1.51825 52.3582L1.42638 52.2801L1.33452 52.1982L1.24748 52.1163L1.16045 52.0344L1.07825 51.9525L1.00089 51.8705L0.923523 51.7847L0.850995 51.6989L0.778467 51.6131L0.710775 51.5273L0.647917 51.4414L0.585059 51.3556L0.527037 51.2698L0.469015 51.1801L0.415827 51.0904L0.367475 51.0006L0.319123 50.9109L0.275606 50.8212L0.236925 50.7315L0.198243 50.6418L0.164397 50.552L0.13055 50.4584L0.101539 50.3648L0.0773631 50.2712L0.0580224 50.1776L0.0386816 50.0839L0.0241761 49.9903L0.0145055 49.8967L0.00483531 49.8031L0 49.7094V49.6158V49.3151V38.4866V21.5134V10.6849V10.3842V10.2906L0.00483531 10.1969L0.0145055 10.1033L0.0241761 10.0097L0.0386816 9.91607L0.0580224 9.82244L0.0773631 9.72882L0.101539 9.6352L0.13055 9.54158L0.164397 9.44796L0.198243 9.35824L0.236925 9.26852L0.275606 9.1788L0.319123 9.08908L0.367475 8.99936L0.415827 8.90964L0.469015 8.81991L0.527037 8.73019L0.585059 8.64437L0.647917 8.55855L0.710775 8.47274L0.778467 8.38692L0.850995 8.3011L0.923523 8.21528L1.00089 8.12946L1.07825 8.04754L1.16045 7.96562L1.24748 7.8837L1.33452 7.80178L1.42638 7.71986L1.51825 7.64185L1.61496 7.56383L1.7165 7.48581L1.81804 7.40779L1.92441 7.32977L2.03078 7.25176L2.14199 7.17764L2.2532 7.10352L2.36925 7.02941L2.48529 6.95529L2.60617 6.88507L2.73189 6.81486L2.8576 6.74464L2.98815 6.67442L3.1187 6.60811L3.25409 6.54179L3.38948 6.47548L3.5297 6.40916L3.66992 6.34675L3.81497 6.28434L3.96003 6.22192L4.10509 6.15951L4.25498 6.10099L4.40487 6.04248L4.55959 5.98397C4.66113 5.94496 4.76751 5.90595 4.87388 5.87084L5.03344 5.81623C5.13982 5.78112 5.25103 5.74601 5.36224 5.7109C5.58466 5.64069 5.81191 5.57827 6.044 5.51586Z" fill="#53588A"/>
<path d="M17.5679 36.993V36.408H18.1979C18.3059 36.408 18.4109 36.39 18.5129 36.354C18.6209 36.318 18.7169 36.27 18.8009 36.21C18.8849 36.144 18.9509 36.069 18.9989 35.985C19.0529 35.895 19.0799 35.802 19.0799 35.706C19.0799 35.472 18.9989 35.307 18.8369 35.211C18.6749 35.115 18.4319 35.067 18.1079 35.067C17.8739 35.067 17.6579 35.103 17.4599 35.175C17.2679 35.247 17.1179 35.316 17.0099 35.382L16.8029 34.824C16.9829 34.722 17.1929 34.632 17.4329 34.554C17.6789 34.476 17.9699 34.437 18.3059 34.437C19.3019 34.437 19.7999 34.806 19.7999 35.544C19.7999 35.754 19.7309 35.961 19.5929 36.165C19.4609 36.363 19.2689 36.504 19.0169 36.588V36.624C19.3709 36.69 19.6169 36.816 19.7549 37.002C19.8989 37.188 19.9709 37.434 19.9709 37.74C19.9709 37.932 19.9319 38.109 19.8539 38.271C19.7759 38.433 19.6589 38.574 19.5029 38.694C19.3469 38.814 19.1489 38.91 18.9089 38.982C18.6749 39.048 18.4019 39.081 18.0899 39.081C17.7839 39.081 17.5289 39.054 17.3249 39C17.1269 38.946 16.9469 38.88 16.7849 38.802L16.9919 38.208C17.1299 38.286 17.2949 38.346 17.4869 38.388C17.6849 38.43 17.8979 38.451 18.1259 38.451C18.4919 38.451 18.7709 38.388 18.9629 38.262C19.1549 38.136 19.2509 37.944 19.2509 37.686C19.2509 37.47 19.1609 37.302 18.9809 37.182C18.8009 37.056 18.5039 36.993 18.0899 36.993H17.5679ZM21.0365 34.833C21.2645 34.695 21.5285 34.593 21.8285 34.527C22.1345 34.461 22.4525 34.428 22.7825 34.428C23.0945 34.428 23.3435 34.47 23.5295 34.554C23.7215 34.638 23.8655 34.749 23.9615 34.887C24.0635 35.019 24.1295 35.166 24.1595 35.328C24.1955 35.49 24.2135 35.652 24.2135 35.814C24.2135 36.174 24.2045 36.525 24.1865 36.867C24.1685 37.209 24.1595 37.533 24.1595 37.839C24.1595 38.061 24.1685 38.271 24.1865 38.469C24.2045 38.667 24.2375 38.85 24.2855 39.018H23.7545L23.5655 38.388H23.5205C23.4665 38.472 23.3975 38.556 23.3135 38.64C23.2355 38.718 23.1395 38.79 23.0255 38.856C22.9115 38.916 22.7795 38.967 22.6295 39.009C22.4795 39.051 22.3085 39.072 22.1165 39.072C21.9245 39.072 21.7445 39.042 21.5765 38.982C21.4145 38.922 21.2735 38.838 21.1535 38.73C21.0335 38.616 20.9375 38.481 20.8655 38.325C20.7995 38.169 20.7665 37.992 20.7665 37.794C20.7665 37.53 20.8205 37.311 20.9285 37.137C21.0365 36.957 21.1865 36.816 21.3785 36.714C21.5765 36.606 21.8105 36.531 22.0805 36.489C22.3565 36.441 22.6595 36.417 22.9895 36.417C23.0735 36.417 23.1545 36.417 23.2325 36.417C23.3165 36.417 23.4005 36.423 23.4845 36.435C23.5025 36.255 23.5115 36.093 23.5115 35.949C23.5115 35.619 23.4455 35.388 23.3135 35.256C23.1815 35.124 22.9415 35.058 22.5935 35.058C22.4915 35.058 22.3805 35.067 22.2605 35.085C22.1465 35.097 22.0265 35.118 21.9005 35.148C21.7805 35.172 21.6635 35.205 21.5495 35.247C21.4415 35.283 21.3455 35.325 21.2615 35.373L21.0365 34.833ZM22.3145 38.442C22.4825 38.442 22.6325 38.421 22.7645 38.379C22.8965 38.331 23.0105 38.274 23.1065 38.208C23.2025 38.136 23.2805 38.058 23.3405 37.974C23.4065 37.89 23.4545 37.809 23.4845 37.731V36.984C23.4005 36.978 23.3135 36.975 23.2235 36.975C23.1395 36.969 23.0555 36.966 22.9715 36.966C22.7855 36.966 22.6025 36.978 22.4225 37.002C22.2485 37.02 22.0925 37.059 21.9545 37.119C21.8225 37.173 21.7145 37.251 21.6305 37.353C21.5525 37.449 21.5135 37.572 21.5135 37.722C21.5135 37.932 21.5885 38.106 21.7385 38.244C21.8885 38.376 22.0805 38.442 22.3145 38.442ZM26.7074 36.975H26.2934V39H25.5734V34.5H26.2934V36.534L26.6804 36.408L28.1204 34.5H28.9034L27.5084 36.309L27.1304 36.606L27.5984 36.966L29.1014 39H28.2104L26.7074 36.975ZM29.7992 34.833C30.0272 34.695 30.2912 34.593 30.5912 34.527C30.8972 34.461 31.2152 34.428 31.5452 34.428C31.8572 34.428 32.1062 34.47 32.2922 34.554C32.4842 34.638 32.6282 34.749 32.7242 34.887C32.8262 35.019 32.8922 35.166 32.9222 35.328C32.9582 35.49 32.9762 35.652 32.9762 35.814C32.9762 36.174 32.9672 36.525 32.9492 36.867C32.9312 37.209 32.9222 37.533 32.9222 37.839C32.9222 38.061 32.9312 38.271 32.9492 38.469C32.9672 38.667 33.0002 38.85 33.0482 39.018H32.5172L32.3282 38.388H32.2832C32.2292 38.472 32.1602 38.556 32.0762 38.64C31.9982 38.718 31.9022 38.79 31.7882 38.856C31.6742 38.916 31.5422 38.967 31.3922 39.009C31.2422 39.051 31.0712 39.072 30.8792 39.072C30.6872 39.072 30.5072 39.042 30.3392 38.982C30.1772 38.922 30.0362 38.838 29.9162 38.73C29.7962 38.616 29.7002 38.481 29.6282 38.325C29.5622 38.169 29.5292 37.992 29.5292 37.794C29.5292 37.53 29.5832 37.311 29.6912 37.137C29.7992 36.957 29.9492 36.816 30.1412 36.714C30.3392 36.606 30.5732 36.531 30.8432 36.489C31.1192 36.441 31.4222 36.417 31.7522 36.417C31.8362 36.417 31.9172 36.417 31.9952 36.417C32.0792 36.417 32.1632 36.423 32.2472 36.435C32.2652 36.255 32.2742 36.093 32.2742 35.949C32.2742 35.619 32.2082 35.388 32.0762 35.256C31.9442 35.124 31.7042 35.058 31.3562 35.058C31.2542 35.058 31.1432 35.067 31.0232 35.085C30.9092 35.097 30.7892 35.118 30.6632 35.148C30.5432 35.172 30.4262 35.205 30.3122 35.247C30.2042 35.283 30.1082 35.325 30.0242 35.373L29.7992 34.833ZM31.0772 38.442C31.2452 38.442 31.3952 38.421 31.5272 38.379C31.6592 38.331 31.7732 38.274 31.8692 38.208C31.9652 38.136 32.0432 38.058 32.1032 37.974C32.1692 37.89 32.2172 37.809 32.2472 37.731V36.984C32.1632 36.978 32.0762 36.975 31.9862 36.975C31.9022 36.969 31.8182 36.966 31.7342 36.966C31.5482 36.966 31.3652 36.978 31.1852 37.002C31.0112 37.02 30.8552 37.059 30.7172 37.119C30.5852 37.173 30.4772 37.251 30.3932 37.353C30.3152 37.449 30.2762 37.572 30.2762 37.722C30.2762 37.932 30.3512 38.106 30.5012 38.244C30.6512 38.376 30.8432 38.442 31.0772 38.442ZM34.7681 36.993V36.408H35.3981C35.5061 36.408 35.6111 36.39 35.7131 36.354C35.8211 36.318 35.9171 36.27 36.0011 36.21C36.0851 36.144 36.1511 36.069 36.1991 35.985C36.2531 35.895 36.2801 35.802 36.2801 35.706C36.2801 35.472 36.1991 35.307 36.0371 35.211C35.8751 35.115 35.6321 35.067 35.3081 35.067C35.0741 35.067 34.8581 35.103 34.6601 35.175C34.4681 35.247 34.3181 35.316 34.2101 35.382L34.0031 34.824C34.1831 34.722 34.3931 34.632 34.6331 34.554C34.8791 34.476 35.1701 34.437 35.5061 34.437C36.5021 34.437 37.0001 34.806 37.0001 35.544C37.0001 35.754 36.9311 35.961 36.7931 36.165C36.6611 36.363 36.4691 36.504 36.2171 36.588V36.624C36.5711 36.69 36.8171 36.816 36.9551 37.002C37.0991 37.188 37.1711 37.434 37.1711 37.74C37.1711 37.932 37.1321 38.109 37.0541 38.271C36.9761 38.433 36.8591 38.574 36.7031 38.694C36.5471 38.814 36.3491 38.91 36.1091 38.982C35.8751 39.048 35.6021 39.081 35.2901 39.081C34.9841 39.081 34.7291 39.054 34.5251 39C34.3271 38.946 34.1471 38.88 33.9851 38.802L34.1921 38.208C34.3301 38.286 34.4951 38.346 34.6871 38.388C34.8851 38.43 35.0981 38.451 35.3261 38.451C35.6921 38.451 35.9711 38.388 36.1631 38.262C36.3551 38.136 36.4511 37.944 36.4511 37.686C36.4511 37.47 36.3611 37.302 36.1811 37.182C36.0011 37.056 35.7041 36.993 35.2901 36.993H34.7681ZM39.0287 38.37C39.2507 38.406 39.4637 38.424 39.6677 38.424C40.0457 38.424 40.3097 38.352 40.4597 38.208C40.6097 38.058 40.6847 37.848 40.6847 37.578C40.6847 37.338 40.6097 37.14 40.4597 36.984C40.3157 36.828 40.0607 36.75 39.6947 36.75C39.5927 36.75 39.4817 36.753 39.3617 36.759C39.2417 36.765 39.1307 36.783 39.0287 36.813V38.37ZM39.0287 36.219C39.1727 36.195 39.3107 36.18 39.4427 36.174C39.5747 36.162 39.7007 36.156 39.8207 36.156C40.1267 36.156 40.3817 36.192 40.5857 36.264C40.7957 36.33 40.9637 36.423 41.0897 36.543C41.2157 36.663 41.3027 36.807 41.3507 36.975C41.4047 37.137 41.4317 37.311 41.4317 37.497C41.4317 38.043 41.2787 38.439 40.9727 38.685C40.6727 38.931 40.1837 39.054 39.5057 39.054C39.1217 39.054 38.7227 39.036 38.3087 39V34.5H39.0287V36.219ZM42.1427 34.5H42.8627V39H42.1427V34.5ZM14.5626 45.13H12.5736V49H11.8536V44.5H15.2826V49H14.5626V45.13ZM16.6701 44.5H17.1651L17.3001 45.04H17.3361C17.4741 44.83 17.6511 44.671 17.8671 44.563C18.0891 44.449 18.3411 44.392 18.6231 44.392C19.2231 44.392 19.6701 44.569 19.9641 44.923C20.2581 45.277 20.4051 45.856 20.4051 46.66C20.4051 47.038 20.3541 47.38 20.2521 47.686C20.1561 47.986 20.0181 48.241 19.8381 48.451C19.6581 48.661 19.4391 48.823 19.1811 48.937C18.9291 49.051 18.6471 49.108 18.3351 49.108C18.1131 49.108 17.9361 49.093 17.8041 49.063C17.6781 49.039 17.5401 48.994 17.3901 48.928V50.8H16.6701V44.5ZM18.4881 45.022C18.1821 45.022 17.9391 45.103 17.7591 45.265C17.5851 45.421 17.4621 45.661 17.3901 45.985V48.217C17.4981 48.301 17.6211 48.367 17.7591 48.415C17.8971 48.457 18.0801 48.478 18.3081 48.478C18.7221 48.478 19.0491 48.325 19.2891 48.019C19.5351 47.707 19.6581 47.251 19.6581 46.651C19.6581 46.405 19.6371 46.183 19.5951 45.985C19.5531 45.781 19.4841 45.61 19.3881 45.472C19.2981 45.328 19.1781 45.217 19.0281 45.139C18.8841 45.061 18.7041 45.022 18.4881 45.022ZM21.2872 46.75C21.2872 45.988 21.4552 45.406 21.7912 45.004C22.1332 44.596 22.6222 44.392 23.2582 44.392C23.5942 44.392 23.8852 44.449 24.1312 44.563C24.3832 44.671 24.5902 44.83 24.7522 45.04C24.9142 45.244 25.0342 45.493 25.1122 45.787C25.1902 46.075 25.2292 46.396 25.2292 46.75C25.2292 47.512 25.0582 48.097 24.7162 48.505C24.3802 48.907 23.8942 49.108 23.2582 49.108C22.9222 49.108 22.6282 49.054 22.3762 48.946C22.1302 48.832 21.9262 48.673 21.7642 48.469C21.6022 48.259 21.4822 48.01 21.4042 47.722C21.3262 47.428 21.2872 47.104 21.2872 46.75ZM22.0342 46.75C22.0342 46.978 22.0552 47.197 22.0972 47.407C22.1452 47.617 22.2172 47.8 22.3132 47.956C22.4092 48.112 22.5352 48.238 22.6912 48.334C22.8472 48.43 23.0362 48.478 23.2582 48.478C24.0742 48.484 24.4822 47.908 24.4822 46.75C24.4822 46.516 24.4582 46.294 24.4102 46.084C24.3682 45.874 24.2992 45.691 24.2032 45.535C24.1072 45.379 23.9812 45.256 23.8252 45.166C23.6692 45.07 23.4802 45.022 23.2582 45.022C22.4422 45.016 22.0342 45.592 22.0342 46.75ZM30.2897 50.143H29.8037L29.6687 49H26.2847L26.1497 50.143H25.6637V48.37H26.1947C26.2427 48.304 26.3057 48.187 26.3837 48.019C26.4617 47.845 26.5367 47.605 26.6087 47.299C26.6867 46.987 26.7527 46.603 26.8067 46.147C26.8667 45.685 26.9027 45.136 26.9147 44.5H29.6327V48.37H30.2897V50.143ZM28.9127 48.37V45.13H27.5627C27.5507 45.382 27.5297 45.658 27.4997 45.958C27.4697 46.252 27.4277 46.549 27.3737 46.849C27.3257 47.143 27.2627 47.422 27.1847 47.686C27.1067 47.95 27.0167 48.178 26.9147 48.37H28.9127ZM31.1088 44.833C31.3368 44.695 31.6008 44.593 31.9008 44.527C32.2068 44.461 32.5248 44.428 32.8548 44.428C33.1668 44.428 33.4158 44.47 33.6018 44.554C33.7938 44.638 33.9378 44.749 34.0338 44.887C34.1358 45.019 34.2018 45.166 34.2318 45.328C34.2678 45.49 34.2858 45.652 34.2858 45.814C34.2858 46.174 34.2768 46.525 34.2588 46.867C34.2408 47.209 34.2318 47.533 34.2318 47.839C34.2318 48.061 34.2408 48.271 34.2588 48.469C34.2768 48.667 34.3098 48.85 34.3578 49.018H33.8268L33.6378 48.388H33.5928C33.5388 48.472 33.4698 48.556 33.3858 48.64C33.3078 48.718 33.2118 48.79 33.0978 48.856C32.9838 48.916 32.8518 48.967 32.7018 49.009C32.5518 49.051 32.3808 49.072 32.1888 49.072C31.9968 49.072 31.8168 49.042 31.6488 48.982C31.4868 48.922 31.3458 48.838 31.2258 48.73C31.1058 48.616 31.0098 48.481 30.9378 48.325C30.8718 48.169 30.8388 47.992 30.8388 47.794C30.8388 47.53 30.8928 47.311 31.0008 47.137C31.1088 46.957 31.2588 46.816 31.4508 46.714C31.6488 46.606 31.8828 46.531 32.1528 46.489C32.4288 46.441 32.7318 46.417 33.0618 46.417C33.1458 46.417 33.2268 46.417 33.3048 46.417C33.3888 46.417 33.4728 46.423 33.5568 46.435C33.5748 46.255 33.5838 46.093 33.5838 45.949C33.5838 45.619 33.5178 45.388 33.3858 45.256C33.2538 45.124 33.0138 45.058 32.6658 45.058C32.5638 45.058 32.4528 45.067 32.3328 45.085C32.2188 45.097 32.0988 45.118 31.9728 45.148C31.8528 45.172 31.7358 45.205 31.6218 45.247C31.5138 45.283 31.4178 45.325 31.3338 45.373L31.1088 44.833ZM32.3868 48.442C32.5548 48.442 32.7048 48.421 32.8368 48.379C32.9688 48.331 33.0828 48.274 33.1788 48.208C33.2748 48.136 33.3528 48.058 33.4128 47.974C33.4788 47.89 33.5268 47.809 33.5568 47.731V46.984C33.4728 46.978 33.3858 46.975 33.2958 46.975C33.2118 46.969 33.1278 46.966 33.0438 46.966C32.8578 46.966 32.6748 46.978 32.4948 47.002C32.3208 47.02 32.1648 47.059 32.0268 47.119C31.8948 47.173 31.7868 47.251 31.7028 47.353C31.6248 47.449 31.5858 47.572 31.5858 47.722C31.5858 47.932 31.6608 48.106 31.8108 48.244C31.9608 48.376 32.1528 48.442 32.3868 48.442ZM35.6456 44.509C35.8556 44.497 36.0746 44.482 36.3026 44.464C36.5366 44.446 36.8246 44.437 37.1666 44.437C37.7606 44.437 38.1866 44.53 38.4446 44.716C38.7026 44.896 38.8316 45.172 38.8316 45.544C38.8316 45.754 38.7686 45.961 38.6426 46.165C38.5226 46.363 38.3216 46.51 38.0396 46.606V46.642C38.3936 46.708 38.6426 46.831 38.7866 47.011C38.9306 47.191 39.0026 47.431 39.0026 47.731C39.0026 48.199 38.8346 48.538 38.4986 48.748C38.1626 48.958 37.6586 49.063 36.9866 49.063C36.7346 49.063 36.5006 49.054 36.2846 49.036C36.0686 49.024 35.8556 49.009 35.6456 48.991V44.509ZM36.3656 48.397C36.4796 48.409 36.5906 48.418 36.6986 48.424C36.8126 48.43 36.9446 48.433 37.0946 48.433C37.4966 48.433 37.7936 48.376 37.9856 48.262C38.1836 48.148 38.2826 47.953 38.2826 47.677C38.2826 47.461 38.1986 47.287 38.0306 47.155C37.8686 47.017 37.5776 46.948 37.1576 46.948H36.3656V48.397ZM37.2476 46.399C37.3556 46.399 37.4606 46.381 37.5626 46.345C37.6646 46.309 37.7546 46.261 37.8326 46.201C37.9166 46.135 37.9826 46.06 38.0306 45.976C38.0846 45.892 38.1116 45.802 38.1116 45.706C38.1116 45.466 38.0396 45.301 37.8956 45.211C37.7516 45.115 37.4996 45.067 37.1396 45.067C36.9476 45.067 36.7946 45.07 36.6806 45.076C36.5726 45.082 36.4676 45.088 36.3656 45.094V46.399H37.2476ZM44.1778 50.143H43.6918L43.5568 49H40.1368V44.5H40.8568V48.37H42.8098V44.5H43.5298V48.37H44.1778V50.143ZM44.9955 44.833C45.2235 44.695 45.4875 44.593 45.7875 44.527C46.0935 44.461 46.4115 44.428 46.7415 44.428C47.0535 44.428 47.3025 44.47 47.4885 44.554C47.6805 44.638 47.8245 44.749 47.9205 44.887C48.0225 45.019 48.0885 45.166 48.1185 45.328C48.1545 45.49 48.1725 45.652 48.1725 45.814C48.1725 46.174 48.1635 46.525 48.1455 46.867C48.1275 47.209 48.1185 47.533 48.1185 47.839C48.1185 48.061 48.1275 48.271 48.1455 48.469C48.1635 48.667 48.1965 48.85 48.2445 49.018H47.7135L47.5245 48.388H47.4795C47.4255 48.472 47.3565 48.556 47.2725 48.64C47.1945 48.718 47.0985 48.79 46.9845 48.856C46.8705 48.916 46.7385 48.967 46.5885 49.009C46.4385 49.051 46.2675 49.072 46.0755 49.072C45.8835 49.072 45.7035 49.042 45.5355 48.982C45.3735 48.922 45.2325 48.838 45.1125 48.73C44.9925 48.616 44.8965 48.481 44.8245 48.325C44.7585 48.169 44.7255 47.992 44.7255 47.794C44.7255 47.53 44.7795 47.311 44.8875 47.137C44.9955 46.957 45.1455 46.816 45.3375 46.714C45.5355 46.606 45.7695 46.531 46.0395 46.489C46.3155 46.441 46.6185 46.417 46.9485 46.417C47.0325 46.417 47.1135 46.417 47.1915 46.417C47.2755 46.417 47.3595 46.423 47.4435 46.435C47.4615 46.255 47.4705 46.093 47.4705 45.949C47.4705 45.619 47.4045 45.388 47.2725 45.256C47.1405 45.124 46.9005 45.058 46.5525 45.058C46.4505 45.058 46.3395 45.067 46.2195 45.085C46.1055 45.097 45.9855 45.118 45.8595 45.148C45.7395 45.172 45.6225 45.205 45.5085 45.247C45.4005 45.283 45.3045 45.325 45.2205 45.373L44.9955 44.833ZM46.2735 48.442C46.4415 48.442 46.5915 48.421 46.7235 48.379C46.8555 48.331 46.9695 48.274 47.0655 48.208C47.1615 48.136 47.2395 48.058 47.2995 47.974C47.3655 47.89 47.4135 47.809 47.4435 47.731V46.984C47.3595 46.978 47.2725 46.975 47.1825 46.975C47.0985 46.969 47.0145 46.966 46.9305 46.966C46.7445 46.966 46.5615 46.978 46.3815 47.002C46.2075 47.02 46.0515 47.059 45.9135 47.119C45.7815 47.173 45.6735 47.251 45.5895 47.353C45.5115 47.449 45.4725 47.572 45.4725 47.722C45.4725 47.932 45.5475 48.106 45.6975 48.244C45.8475 48.376 46.0395 48.442 46.2735 48.442Z" fill="white"/>
<path d="M37.8715 8.99976H22.1285C21.5078 8.99976 21 9.50759 21 10.1283V25.8712C21 26.4919 21.5078 26.9998 22.1285 26.9998H37.8715C38.4922 26.9998 39 26.4919 39 25.8712V10.1283C39 9.50759 38.4922 8.99976 37.8715 8.99976V8.99976ZM23.2571 13.5139H24.3856V15.7709H23.2571V13.5139ZM23.2571 16.8994H24.3856V19.1565H23.2571V16.8994ZM23.2571 20.285H24.3856V22.5421H23.2571V20.285ZM36.7429 24.7991H23.2571V23.6706H24.3856H35.6708V12.3853H24.3856H23.2571V11.2568H36.7429V24.7427V24.7991ZM29.9718 18.028C29.9718 16.7866 30.9875 15.7709 32.2288 15.7709C33.4702 15.7709 34.4859 16.7866 34.4859 18.028C34.4859 19.2693 33.4702 20.285 32.2288 20.285C30.9875 20.285 29.9718 19.2693 29.9718 18.028Z" fill="white"/>
</svg>
