<svg width="60" height="60" viewBox="0 0 60 60" fill="none" xmlns="http://www.w3.org/2000/svg">
<path fill-rule="evenodd" clip-rule="evenodd" d="M6.044 5.51586L24.2534 0.70216L24.2872 0.706061L24.4564 0.663152L24.6257 0.620242L24.7949 0.581233L24.9641 0.542224L25.1382 0.503215L25.3123 0.468107L25.4863 0.432999L25.6604 0.397891L25.8345 0.366684L26.0134 0.335477L26.1923 0.30427L26.3712 0.276963L26.5501 0.249657L26.729 0.222351L26.9079 0.198945L27.0868 0.17554L27.2705 0.156036L27.4543 0.136531L27.638 0.117027L27.8217 0.101423L28.0055 0.0858195L28.1892 0.070216L28.373 0.0585134L28.5567 0.0468108L28.7404 0.0351079L28.9242 0.0273063L29.1079 0.0195043L29.2916 0.0117026L29.4754 0.00780177L29.6591 0.00390079L29.8429 0H30.0266H30.2103L30.3941 0.00390079L30.5778 0.00780177L30.7615 0.0117026L30.9453 0.0195043L31.129 0.0273063L31.3128 0.0351079L31.4965 0.0468108L31.6802 0.0585134L31.864 0.070216L32.0477 0.0858195L32.2314 0.101423L32.4152 0.117027L32.5989 0.136531L32.7827 0.156036L32.9664 0.17554L33.1453 0.198945L33.3242 0.222351L33.5031 0.249657L33.682 0.276963L33.8609 0.30427L34.0398 0.335477L34.2139 0.366684L34.3879 0.397891L34.562 0.432999L34.7361 0.468107L34.9101 0.503215L35.0842 0.542224L35.2534 0.581233L35.4227 0.620242L35.5919 0.663152L35.7611 0.706061L53.9705 5.51976C54.2026 5.58218 54.4298 5.64849 54.6523 5.71481C54.7635 5.74991 54.8747 5.78502 54.9811 5.82013L55.1406 5.87474C55.1843 5.89076 55.228 5.90612 55.2713 5.92136C55.3335 5.94324 55.3951 5.96488 55.4549 5.98787L55.6096 6.04638C55.7644 6.10489 55.9143 6.16341 56.0593 6.22582L56.2044 6.28824L56.3446 6.35065L56.4848 6.41306L56.625 6.47938L56.7604 6.54569L56.891 6.61201L57.0215 6.67833L57.1472 6.74854L57.2729 6.81876L57.3938 6.88897L57.5147 6.95919L57.6307 7.03331C57.7081 7.08012 57.7855 7.13083 57.858 7.18154L57.9692 7.25566L58.0756 7.33368L58.182 7.41169L58.2835 7.48971L58.385 7.56773L58.4817 7.64575L58.5736 7.72376L58.6655 7.80568L58.7525 7.8876L58.8396 7.96952L58.9218 8.05144L59.0039 8.13336L59.0813 8.21528L59.1538 8.3011L59.2264 8.38692L59.2941 8.47274L59.3569 8.55855L59.4198 8.64437L59.4778 8.73019L59.5358 8.81991L59.589 8.90964L59.6374 8.99936L59.6857 9.08908L59.7292 9.1788L59.7679 9.26852L59.8066 9.35824L59.8404 9.44796L59.8694 9.54158L59.8985 9.6352L59.9226 9.72882L59.942 9.82244L59.9613 9.91607L59.9758 10.0097L59.9855 10.1033L59.9952 10.1969L60 10.2906V10.3842V10.6849V11.4963V21.5134V38.4866V48.5037V49.3151V49.6158V49.7094L59.9952 49.8031L59.9855 49.8967L59.9758 49.9903L59.9613 50.0839L59.942 50.1776L59.9226 50.2712L59.8985 50.3648L59.8694 50.4584L59.8404 50.552L59.8066 50.6418L59.7679 50.7315L59.7292 50.8212L59.6857 50.9109L59.6374 51.0006L59.589 51.0904L59.5358 51.1801L59.4778 51.2698L59.4198 51.3556L59.3569 51.4414L59.2941 51.5273L59.2264 51.6131L59.1538 51.6989L59.0813 51.7847L59.0039 51.8666L58.9218 51.9486L58.8396 52.0305L58.7525 52.1124L58.6655 52.1943L58.5736 52.2762L58.4817 52.3543L58.385 52.4323L58.2835 52.5103L58.182 52.5883L58.0756 52.6663L57.9692 52.7443L57.858 52.8185C57.7855 52.8692 57.7081 52.9199 57.6307 52.9667L57.5147 53.0408L57.3938 53.111L57.2729 53.1812L57.1472 53.2515L57.0215 53.3217L56.891 53.388L56.7604 53.4543L56.625 53.5206L56.4848 53.5869L56.3446 53.6493L56.2044 53.7118L56.0593 53.7742C55.9143 53.8366 55.7644 53.8951 55.6096 53.9536L55.4549 54.0121C55.3951 54.0351 55.3335 54.0568 55.2713 54.0786C55.228 54.0939 55.1843 54.1092 55.1406 54.1253L54.9811 54.1799C54.8747 54.215 54.7635 54.2501 54.6523 54.2852C54.4298 54.3515 54.2026 54.4178 53.9705 54.4802L35.7611 59.2939L35.5919 59.3368L35.4227 59.3798L35.2534 59.4188L35.0842 59.4578L34.9101 59.4968L34.7361 59.5319L34.562 59.567L34.3879 59.6021L34.2139 59.6333L34.0398 59.6645L33.8609 59.6957L33.682 59.723L33.5031 59.7503L33.3242 59.7776L33.1453 59.8011L32.9664 59.8245L32.7827 59.844L32.5989 59.8635L32.4152 59.883L32.2314 59.8986L32.0477 59.9142L31.864 59.9298L31.6802 59.9415L31.4965 59.9532L31.3128 59.9649L31.129 59.9727L30.9453 59.9805L30.7615 59.9883L30.5778 59.9922L30.3941 59.9961L30.2103 60H30.0266H29.8429L29.6591 59.9961L29.4754 59.9922L29.2916 59.9883L29.1079 59.9805L28.9242 59.9727L28.7404 59.9649L28.5567 59.9532L28.373 59.9415L28.1892 59.9298L28.0055 59.9142L27.8217 59.8986L27.638 59.883L27.4543 59.8635L27.2705 59.844L27.0868 59.8245L26.9079 59.8011L26.729 59.7776L26.5501 59.7503L26.3712 59.723L26.1923 59.6957L26.0134 59.6645L25.8345 59.6333L25.6604 59.6021L25.4863 59.567L25.3123 59.5319L25.1382 59.4968L24.9641 59.4578L24.7949 59.4188L24.6257 59.3798L24.4564 59.3368L24.2872 59.2939L24.2534 59.2978L6.044 54.4841C5.81191 54.4217 5.58466 54.3593 5.36224 54.2891L5.36141 54.2888C5.25047 54.2538 5.13955 54.2188 5.03344 54.1838L4.87388 54.1292C4.76751 54.0941 4.66113 54.055 4.55959 54.016L4.40487 53.9575L4.25498 53.899L4.10509 53.8405L3.96003 53.7781L3.81497 53.7157L3.66992 53.6533L3.5297 53.5908L3.38948 53.5245L3.25409 53.4582L3.1187 53.3919L2.98815 53.3256L2.8576 53.2554L2.73189 53.1851L2.60617 53.1149L2.48529 53.0447L2.36925 52.9706L2.2532 52.8965L2.14199 52.8224L2.03078 52.7482L1.92441 52.6702L1.81804 52.5922L1.7165 52.5142L1.61496 52.4362L1.51825 52.3582L1.42638 52.2801L1.33452 52.1982L1.24748 52.1163L1.16045 52.0344L1.07825 51.9525L1.00089 51.8705L0.923523 51.7847L0.850995 51.6989L0.778467 51.6131L0.710775 51.5273L0.647917 51.4414L0.585059 51.3556L0.527037 51.2698L0.469015 51.1801L0.415827 51.0904L0.367475 51.0006L0.319123 50.9109L0.275606 50.8212L0.236925 50.7315L0.198243 50.6418L0.164397 50.552L0.13055 50.4584L0.101539 50.3648L0.0773631 50.2712L0.0580224 50.1776L0.0386816 50.0839L0.0241761 49.9903L0.0145055 49.8967L0.00483531 49.8031L0 49.7094V49.6158V49.3151V38.4866V21.5134V10.6849V10.3842V10.2906L0.00483531 10.1969L0.0145055 10.1033L0.0241761 10.0097L0.0386816 9.91607L0.0580224 9.82244L0.0773631 9.72882L0.101539 9.6352L0.13055 9.54158L0.164397 9.44796L0.198243 9.35824L0.236925 9.26852L0.275606 9.1788L0.319123 9.08908L0.367475 8.99936L0.415827 8.90964L0.469015 8.81991L0.527037 8.73019L0.585059 8.64437L0.647917 8.55855L0.710775 8.47274L0.778467 8.38692L0.850995 8.3011L0.923523 8.21528L1.00089 8.12946L1.07825 8.04754L1.16045 7.96562L1.24748 7.8837L1.33452 7.80178L1.42638 7.71986L1.51825 7.64185L1.61496 7.56383L1.7165 7.48581L1.81804 7.40779L1.92441 7.32977L2.03078 7.25176L2.14199 7.17764L2.2532 7.10352L2.36925 7.02941L2.48529 6.95529L2.60617 6.88507L2.73189 6.81486L2.8576 6.74464L2.98815 6.67442L3.1187 6.60811L3.25409 6.54179L3.38948 6.47548L3.5297 6.40916L3.66992 6.34675L3.81497 6.28434L3.96003 6.22192L4.10509 6.15951L4.25498 6.10099L4.40487 6.04248L4.55959 5.98397C4.66113 5.94496 4.76751 5.90595 4.87388 5.87084L5.03344 5.81623C5.13982 5.78112 5.25103 5.74601 5.36224 5.7109C5.58466 5.64069 5.81191 5.57827 6.044 5.51586Z" fill="#5382D8"/>
<path d="M16.402 45.13H14.413V49H13.693V44.5H17.122V49H16.402V45.13ZM18.5094 44.5H19.0044L19.1394 45.04H19.1754C19.3134 44.83 19.4904 44.671 19.7064 44.563C19.9284 44.449 20.1804 44.392 20.4624 44.392C21.0624 44.392 21.5094 44.569 21.8034 44.923C22.0974 45.277 22.2444 45.856 22.2444 46.66C22.2444 47.038 22.1934 47.38 22.0914 47.686C21.9954 47.986 21.8574 48.241 21.6774 48.451C21.4974 48.661 21.2784 48.823 21.0204 48.937C20.7684 49.051 20.4864 49.108 20.1744 49.108C19.9524 49.108 19.7754 49.093 19.6434 49.063C19.5174 49.039 19.3794 48.994 19.2294 48.928V50.8H18.5094V44.5ZM20.3274 45.022C20.0214 45.022 19.7784 45.103 19.5984 45.265C19.4244 45.421 19.3014 45.661 19.2294 45.985V48.217C19.3374 48.301 19.4604 48.367 19.5984 48.415C19.7364 48.457 19.9194 48.478 20.1474 48.478C20.5614 48.478 20.8884 48.325 21.1284 48.019C21.3744 47.707 21.4974 47.251 21.4974 46.651C21.4974 46.405 21.4764 46.183 21.4344 45.985C21.3924 45.781 21.3234 45.61 21.2274 45.472C21.1374 45.328 21.0174 45.217 20.8674 45.139C20.7234 45.061 20.5434 45.022 20.3274 45.022ZM23.1265 46.75C23.1265 45.988 23.2945 45.406 23.6305 45.004C23.9725 44.596 24.4615 44.392 25.0975 44.392C25.4335 44.392 25.7245 44.449 25.9705 44.563C26.2225 44.671 26.4295 44.83 26.5915 45.04C26.7535 45.244 26.8735 45.493 26.9515 45.787C27.0295 46.075 27.0685 46.396 27.0685 46.75C27.0685 47.512 26.8975 48.097 26.5555 48.505C26.2195 48.907 25.7335 49.108 25.0975 49.108C24.7615 49.108 24.4675 49.054 24.2155 48.946C23.9695 48.832 23.7655 48.673 23.6035 48.469C23.4415 48.259 23.3215 48.01 23.2435 47.722C23.1655 47.428 23.1265 47.104 23.1265 46.75ZM23.8735 46.75C23.8735 46.978 23.8945 47.197 23.9365 47.407C23.9845 47.617 24.0565 47.8 24.1525 47.956C24.2485 48.112 24.3745 48.238 24.5305 48.334C24.6865 48.43 24.8755 48.478 25.0975 48.478C25.9135 48.484 26.3215 47.908 26.3215 46.75C26.3215 46.516 26.2975 46.294 26.2495 46.084C26.2075 45.874 26.1385 45.691 26.0425 45.535C25.9465 45.379 25.8205 45.256 25.6645 45.166C25.5085 45.07 25.3195 45.022 25.0975 45.022C24.2815 45.016 23.8735 45.592 23.8735 46.75ZM32.129 50.143H31.643L31.508 49H28.124L27.989 50.143H27.503V48.37H28.034C28.082 48.304 28.145 48.187 28.223 48.019C28.301 47.845 28.376 47.605 28.448 47.299C28.526 46.987 28.592 46.603 28.646 46.147C28.706 45.685 28.742 45.136 28.754 44.5H31.472V48.37H32.129V50.143ZM30.752 48.37V45.13H29.402C29.39 45.382 29.369 45.658 29.339 45.958C29.309 46.252 29.267 46.549 29.213 46.849C29.165 47.143 29.102 47.422 29.024 47.686C28.946 47.95 28.856 48.178 28.754 48.37H30.752ZM32.9481 44.833C33.1761 44.695 33.4401 44.593 33.7401 44.527C34.0461 44.461 34.3641 44.428 34.6941 44.428C35.0061 44.428 35.2551 44.47 35.4411 44.554C35.6331 44.638 35.7771 44.749 35.8731 44.887C35.9751 45.019 36.0411 45.166 36.0711 45.328C36.1071 45.49 36.1251 45.652 36.1251 45.814C36.1251 46.174 36.1161 46.525 36.0981 46.867C36.0801 47.209 36.0711 47.533 36.0711 47.839C36.0711 48.061 36.0801 48.271 36.0981 48.469C36.1161 48.667 36.1491 48.85 36.1971 49.018H35.6661L35.4771 48.388H35.4321C35.3781 48.472 35.3091 48.556 35.2251 48.64C35.1471 48.718 35.0511 48.79 34.9371 48.856C34.8231 48.916 34.6911 48.967 34.5411 49.009C34.3911 49.051 34.2201 49.072 34.0281 49.072C33.8361 49.072 33.6561 49.042 33.4881 48.982C33.3261 48.922 33.1851 48.838 33.0651 48.73C32.9451 48.616 32.8491 48.481 32.7771 48.325C32.7111 48.169 32.6781 47.992 32.6781 47.794C32.6781 47.53 32.7321 47.311 32.8401 47.137C32.9481 46.957 33.0981 46.816 33.2901 46.714C33.4881 46.606 33.7221 46.531 33.9921 46.489C34.2681 46.441 34.5711 46.417 34.9011 46.417C34.9851 46.417 35.0661 46.417 35.1441 46.417C35.2281 46.417 35.3121 46.423 35.3961 46.435C35.4141 46.255 35.4231 46.093 35.4231 45.949C35.4231 45.619 35.3571 45.388 35.2251 45.256C35.0931 45.124 34.8531 45.058 34.5051 45.058C34.4031 45.058 34.2921 45.067 34.1721 45.085C34.0581 45.097 33.9381 45.118 33.8121 45.148C33.6921 45.172 33.5751 45.205 33.4611 45.247C33.3531 45.283 33.2571 45.325 33.1731 45.373L32.9481 44.833ZM34.2261 48.442C34.3941 48.442 34.5441 48.421 34.6761 48.379C34.8081 48.331 34.9221 48.274 35.0181 48.208C35.1141 48.136 35.1921 48.058 35.2521 47.974C35.3181 47.89 35.3661 47.809 35.3961 47.731V46.984C35.3121 46.978 35.2251 46.975 35.1351 46.975C35.0511 46.969 34.9671 46.966 34.8831 46.966C34.6971 46.966 34.5141 46.978 34.3341 47.002C34.1601 47.02 34.0041 47.059 33.8661 47.119C33.7341 47.173 33.6261 47.251 33.5421 47.353C33.4641 47.449 33.4251 47.572 33.4251 47.722C33.4251 47.932 33.5001 48.106 33.6501 48.244C33.8001 48.376 33.9921 48.442 34.2261 48.442ZM38.952 47.011L37.629 49H36.801L38.223 46.939L38.529 46.669L38.07 46.327L36.9 44.5H37.665L38.907 46.444H39.375V44.5H40.077V46.534L40.5 46.408L41.751 44.5H42.507L41.283 46.327L40.932 46.615L41.391 46.975L42.723 49H41.868L40.545 46.975H40.077V49H39.375V46.885L38.952 47.011ZM43.3456 44.833C43.5736 44.695 43.8376 44.593 44.1376 44.527C44.4436 44.461 44.7616 44.428 45.0916 44.428C45.4036 44.428 45.6526 44.47 45.8386 44.554C46.0306 44.638 46.1746 44.749 46.2706 44.887C46.3726 45.019 46.4386 45.166 46.4686 45.328C46.5046 45.49 46.5226 45.652 46.5226 45.814C46.5226 46.174 46.5136 46.525 46.4956 46.867C46.4776 47.209 46.4686 47.533 46.4686 47.839C46.4686 48.061 46.4776 48.271 46.4956 48.469C46.5136 48.667 46.5466 48.85 46.5946 49.018H46.0636L45.8746 48.388H45.8296C45.7756 48.472 45.7066 48.556 45.6226 48.64C45.5446 48.718 45.4486 48.79 45.3346 48.856C45.2206 48.916 45.0886 48.967 44.9386 49.009C44.7886 49.051 44.6176 49.072 44.4256 49.072C44.2336 49.072 44.0536 49.042 43.8856 48.982C43.7236 48.922 43.5826 48.838 43.4626 48.73C43.3426 48.616 43.2466 48.481 43.1746 48.325C43.1086 48.169 43.0756 47.992 43.0756 47.794C43.0756 47.53 43.1296 47.311 43.2376 47.137C43.3456 46.957 43.4956 46.816 43.6876 46.714C43.8856 46.606 44.1196 46.531 44.3896 46.489C44.6656 46.441 44.9686 46.417 45.2986 46.417C45.3826 46.417 45.4636 46.417 45.5416 46.417C45.6256 46.417 45.7096 46.423 45.7936 46.435C45.8116 46.255 45.8206 46.093 45.8206 45.949C45.8206 45.619 45.7546 45.388 45.6226 45.256C45.4906 45.124 45.2506 45.058 44.9026 45.058C44.8006 45.058 44.6896 45.067 44.5696 45.085C44.4556 45.097 44.3356 45.118 44.2096 45.148C44.0896 45.172 43.9726 45.205 43.8586 45.247C43.7506 45.283 43.6546 45.325 43.5706 45.373L43.3456 44.833ZM44.6236 48.442C44.7916 48.442 44.9416 48.421 45.0736 48.379C45.2056 48.331 45.3196 48.274 45.4156 48.208C45.5116 48.136 45.5896 48.058 45.6496 47.974C45.7156 47.89 45.7636 47.809 45.7936 47.731V46.984C45.7096 46.978 45.6226 46.975 45.5326 46.975C45.4486 46.969 45.3646 46.966 45.2806 46.966C45.0946 46.966 44.9116 46.978 44.7316 47.002C44.5576 47.02 44.4016 47.059 44.2636 47.119C44.1316 47.173 44.0236 47.251 43.9396 47.353C43.8616 47.449 43.8226 47.572 43.8226 47.722C43.8226 47.932 43.8976 48.106 44.0476 48.244C44.1976 48.376 44.3896 48.442 44.6236 48.442Z" fill="white"/>
<path d="M37.843 17.876V14.5702C37.843 13.7025 37.1405 13 36.2727 13C35.405 13 33.1322 15.0331 33.1322 15.0331C32.1322 14.7355 31.0826 14.5702 29.9917 14.5702C28.9008 14.5702 27.843 14.7355 26.8512 15.0331C26.8512 15.0331 24.5785 13 23.7107 13C22.843 13 22.1405 13.7025 22.1405 14.5702V17.876C20.1983 19.8595 19 22.5702 19 25.5702C19 29.3058 20.8678 32.6033 23.719 34.595V36.5785C23.719 37.4463 24.4215 38.1488 25.2893 38.1488H26.8595C27.7273 38.1488 28.4298 37.4463 28.4298 36.5785V36.4545C28.9421 36.5289 29.4628 36.5785 30 36.5785C30.5372 36.5785 31.0579 36.5289 31.5702 36.4545V36.5785C31.5702 37.4463 32.2727 38.1488 33.1405 38.1488H34.7107C35.5785 38.1488 36.281 37.4463 36.281 36.5785V34.595C39.1322 32.6033 41 29.314 41 25.5702C41 22.5785 39.8017 19.8595 37.8595 17.876H37.843ZM29.9835 24.1983C31.0496 24.1983 31.9174 25.0661 31.9174 26.1322C31.9174 27.1983 31.0496 28.0661 29.9835 28.0661C28.9174 28.0661 28.0496 27.1983 28.0496 26.1322C28.0496 25.0661 28.9174 24.1983 29.9835 24.1983ZM27.6281 20.8512C28.0661 20.8512 28.4132 21.2066 28.4132 21.6364C28.4132 22.0744 28.0579 22.4215 27.6281 22.4215C27.1983 22.4215 26.843 22.0661 26.843 21.6364C26.843 21.2066 27.1983 20.8512 27.6281 20.8512ZM32.3471 22.4215C31.9091 22.4215 31.562 22.0661 31.562 21.6364C31.562 21.2066 31.9174 20.8512 32.3471 20.8512C32.7769 20.8512 33.1322 21.2066 33.1322 21.6364C33.1322 22.0744 32.7769 22.4215 32.3471 22.4215Z" fill="white"/>
<path d="M27.2726 29.5041C27.4415 29.5041 27.5784 29.3672 27.5784 29.1984C27.5784 29.0295 27.4415 28.8926 27.2726 28.8926C27.1037 28.8926 26.9668 29.0295 26.9668 29.1984C26.9668 29.3672 27.1037 29.5041 27.2726 29.5041Z" fill="white"/>
<path d="M28.5206 29.4961C28.6895 29.4961 28.8264 29.3592 28.8264 29.1903C28.8264 29.0214 28.6895 28.8845 28.5206 28.8845C28.3517 28.8845 28.2148 29.0214 28.2148 29.1903C28.2148 29.3592 28.3517 29.4961 28.5206 29.4961Z" fill="white"/>
</svg>
