<svg width="5" height="7" viewBox="0 0 5 7" fill="none" xmlns="http://www.w3.org/2000/svg">
<path d="M1.98857 0C0.891429 0 0 0.877488 0 1.95747C0 2.96996 0.777143 3.77995 1.78286 3.89245V6.74991C1.78286 6.86241 1.87429 6.97491 2.01143 6.97491C2.12571 6.97491 2.24 6.88491 2.24 6.74991V3.89245C3.24571 3.77995 4.02286 2.96996 4.02286 1.95747C4.02286 0.877488 3.13143 0 2.03429 0H1.98857ZM3.06286 1.75498C3.08571 1.68748 3.10857 1.61998 3.10857 1.52998C3.10857 1.16998 2.81143 0.877488 2.44571 0.877488C2.37714 0.877488 2.28571 0.899988 2.21714 0.922488V0.472494C2.28571 0.449994 2.35429 0.449994 2.44571 0.449994C3.06286 0.449994 3.56571 0.944988 3.56571 1.55248C3.56571 1.61998 3.56571 1.70998 3.54286 1.77748H3.08571L3.06286 1.75498Z" fill="#53588A"/>
</svg>
